<?xml version="1.0" encoding="utf-8" standalone="no"?>
<!DOCTYPE svg PUBLIC "-//W3C//DTD SVG 1.1//EN"
  "http://www.w3.org/Graphics/SVG/1.1/DTD/svg11.dtd">
<!-- Created with matplotlib (https://matplotlib.org/) -->
<svg height="388.9668pt" version="1.1" viewBox="0 0 683.3608 388.9668" width="683.3608pt" xmlns="http://www.w3.org/2000/svg" xmlns:xlink="http://www.w3.org/1999/xlink">
 <defs>
  <style type="text/css">
*{stroke-linecap:butt;stroke-linejoin:round;}
  </style>
 </defs>
 <g id="figure_1">
  <g id="patch_1">
   <path d="M 0 388.9668 
L 683.3608 388.9668 
L 683.3608 0 
L 0 0 
z
" style="fill:none;"/>
  </g>
  <g id="axes_1">
   <g id="patch_2">
    <path d="M 222.784 302.4 
L 646.72 302.4 
L 646.72 -0 
L 222.784 -0 
z
" style="fill:none;"/>
   </g>
   <g id="PolyCollection_1">
    <path clip-path="url(#pbc6a10f0be)" d="M 222.784 302.4 
L 222.784 302.4 
L 224.766333 301.810822 
L 226.748665 301.221643 
L 228.730998 300.632465 
L 230.713331 300.043287 
L 232.695663 299.454108 
L 234.677996 298.86493 
L 236.660329 298.275752 
L 238.642661 297.686573 
L 240.624994 297.097395 
L 242.607327 296.508216 
L 244.589659 295.919038 
L 246.571992 295.32986 
L 248.554325 294.740681 
L 250.536657 294.151503 
L 252.51899 293.562325 
L 254.501323 292.973146 
L 256.483655 292.383968 
L 258.465988 291.79479 
L 260.448321 291.205611 
L 262.430653 290.616433 
L 264.412986 290.027255 
L 266.395319 289.438076 
L 268.377651 288.848898 
L 270.359984 288.259719 
L 272.342317 287.670541 
L 274.324649 287.081363 
L 276.306982 286.492184 
L 278.289315 285.903006 
L 280.271647 285.313828 
L 282.25398 284.724649 
L 284.236313 284.135471 
L 286.218645 283.546293 
L 288.200978 282.957114 
L 290.183311 282.367936 
L 292.165643 281.778758 
L 294.147976 281.189579 
L 296.130309 280.600401 
L 298.112641 280.011222 
L 300.094974 279.422044 
L 302.077307 278.832866 
L 304.059639 278.243687 
L 306.041972 277.654509 
L 308.024305 277.065331 
L 310.006637 276.476152 
L 311.98897 275.886974 
L 313.971303 275.297796 
L 315.953635 274.708617 
L 317.935968 274.119439 
L 319.918301 273.530261 
L 321.900633 272.941082 
L 323.882966 272.351904 
L 325.865299 271.762725 
L 327.847631 271.173547 
L 329.829964 270.584369 
L 331.812297 269.99519 
L 333.794629 269.406012 
L 335.776962 268.816834 
L 337.759295 268.227655 
L 339.741627 267.638477 
L 341.72396 267.049299 
L 343.706293 266.46012 
L 345.688625 265.870942 
L 347.670958 265.281764 
L 349.653291 264.692585 
L 351.635623 264.103407 
L 353.617956 263.514228 
L 355.600289 262.92505 
L 357.582621 262.335872 
L 359.564954 261.746693 
L 361.547287 261.157515 
L 363.529619 260.568337 
L 365.511952 259.979158 
L 367.494285 259.38998 
L 369.476617 258.800802 
L 371.45895 258.211623 
L 373.441283 257.622445 
L 375.423615 257.033267 
L 377.405948 256.444088 
L 379.388281 255.85491 
L 381.370613 255.265731 
L 383.352946 254.676553 
L 385.335279 254.087375 
L 387.317611 253.498196 
L 389.299944 252.909018 
L 391.282277 252.31984 
L 393.264609 251.730661 
L 395.246942 251.141483 
L 397.229275 250.552305 
L 399.211607 249.963126 
L 401.19394 249.373948 
L 403.176273 248.78477 
L 405.158605 248.195591 
L 407.140938 247.606413 
L 409.123271 247.017234 
L 411.105603 246.428056 
L 413.087936 245.838878 
L 415.070269 245.249699 
L 417.052601 244.660521 
L 419.034934 244.071343 
L 421.017267 243.482164 
L 422.999599 242.892986 
L 424.981932 242.303808 
L 426.964265 241.714629 
L 428.946597 241.125451 
L 430.92893 240.536273 
L 432.911263 239.947094 
L 434.893595 239.357916 
L 436.875928 238.768737 
L 438.858261 238.179559 
L 440.840593 237.590381 
L 442.822926 237.001202 
L 444.805259 236.412024 
L 446.787591 235.822846 
L 448.769924 235.233667 
L 450.752257 234.644489 
L 452.734589 234.055311 
L 454.716922 233.466132 
L 456.699255 232.876954 
L 458.681587 232.287776 
L 460.66392 231.698597 
L 462.646253 231.109419 
L 464.628585 230.52024 
L 466.610918 229.931062 
L 468.593251 229.341884 
L 470.575583 228.752705 
L 472.557916 228.163527 
L 474.540248 227.574349 
L 476.522581 226.98517 
L 478.504914 226.395992 
L 480.487246 225.806814 
L 482.469579 225.217635 
L 484.451912 224.628457 
L 486.434244 224.039279 
L 488.416577 223.4501 
L 490.39891 222.860922 
L 492.381242 222.271743 
L 494.363575 221.682565 
L 496.345908 221.093387 
L 498.32824 220.504208 
L 500.310573 219.91503 
L 502.292906 219.325852 
L 504.275238 218.736673 
L 506.257571 218.147495 
L 508.239904 217.558317 
L 510.222236 216.969138 
L 512.204569 216.37996 
L 514.186902 215.790782 
L 516.169234 215.201603 
L 518.151567 214.612425 
L 520.1339 214.023246 
L 522.116232 213.434068 
L 524.098565 212.84489 
L 526.080898 212.255711 
L 528.06323 211.666533 
L 530.045563 211.077355 
L 532.027896 210.488176 
L 534.010228 209.898998 
L 535.992561 209.30982 
L 537.974894 208.720641 
L 539.957226 208.131463 
L 541.939559 207.542285 
L 543.921892 206.953106 
L 545.904224 206.363928 
L 547.886557 205.774749 
L 549.86889 205.185571 
L 551.851222 204.596393 
L 553.833555 204.007214 
L 555.815888 203.418036 
L 557.79822 202.828858 
L 559.780553 202.239679 
L 561.762886 201.650501 
L 563.745218 201.061323 
L 565.727551 200.472144 
L 567.709884 199.882966 
L 569.692216 199.293788 
L 571.674549 198.704609 
L 573.656882 198.115431 
L 575.639214 197.526253 
L 577.621547 196.937074 
L 579.60388 196.347896 
L 581.586212 195.758717 
L 583.568545 195.169539 
L 585.550878 194.580361 
L 587.53321 193.991182 
L 589.515543 193.402004 
L 591.497876 192.812826 
L 593.480208 192.223647 
L 595.462541 191.634469 
L 597.444874 191.045291 
L 599.427206 190.456112 
L 601.409539 189.866934 
L 603.391872 189.277756 
L 605.374204 188.688577 
L 607.356537 188.099399 
L 609.33887 187.51022 
L 611.321202 186.921042 
L 613.303535 186.331864 
L 615.285868 185.742685 
L 617.2682 185.153507 
L 619.250533 184.564329 
L 621.232866 183.97515 
L 623.215198 183.385972 
L 625.197531 182.796794 
L 627.179864 182.207615 
L 629.162196 181.618437 
L 631.144529 181.029259 
L 633.126862 180.44008 
L 635.109194 179.850902 
L 637.091527 179.261723 
L 639.07386 178.672545 
L 641.056192 178.083367 
L 643.038525 177.494188 
L 645.020858 176.90501 
L 647.00319 176.315832 
L 648.985523 175.726653 
L 650.967856 175.137475 
L 652.950188 174.548297 
L 654.932521 173.959118 
L 656.914854 173.36994 
L 658.897186 172.780762 
L 660.879519 172.191583 
L 662.861852 171.602405 
L 664.844184 171.013226 
L 666.826517 170.424048 
L 668.80885 169.83487 
L 670.791182 169.245691 
L 672.773515 168.656513 
L 674.755848 168.067335 
L 676.73818 167.478156 
L 678.720513 166.888978 
L 680.702846 166.2998 
L 682.685178 165.710621 
L 684.667511 165.121443 
L 686.649844 164.532265 
L 688.632176 163.943086 
L 690.614509 163.353908 
L 692.596842 162.764729 
L 694.579174 162.175551 
L 696.561507 161.586373 
L 698.54384 160.997194 
L 700.526172 160.408016 
L 702.508505 159.818838 
L 704.490838 159.229659 
L 706.47317 158.640481 
L 708.455503 158.051303 
L 710.437836 157.462124 
L 712.420168 156.872946 
L 714.402501 156.283768 
L 716.384834 155.694589 
L 718.367166 155.105411 
L 720.349499 154.516232 
L 722.331832 153.927054 
L 724.314164 153.337876 
L 726.296497 152.748697 
L 728.27883 152.159519 
L 730.261162 151.570341 
L 732.243495 150.981162 
L 734.225828 150.391984 
L 736.20816 149.802806 
L 738.190493 149.213627 
L 740.172826 148.624449 
L 742.155158 148.035271 
L 744.137491 147.446092 
L 746.119824 146.856914 
L 748.102156 146.267735 
L 750.084489 145.678557 
L 752.066822 145.089379 
L 754.049154 144.5002 
L 756.031487 143.911022 
L 758.01382 143.321844 
L 759.996152 142.732665 
L 761.978485 142.143487 
L 763.960818 141.554309 
L 765.94315 140.96513 
L 767.925483 140.375952 
L 769.907816 139.786774 
L 771.890148 139.197595 
L 773.872481 138.608417 
L 775.854814 138.019238 
L 777.837146 137.43006 
L 779.819479 136.840882 
L 781.801812 136.251703 
L 783.784144 135.662525 
L 785.766477 135.073347 
L 787.74881 134.484168 
L 789.731142 133.89499 
L 791.713475 133.305812 
L 793.695808 132.716633 
L 795.67814 132.127455 
L 797.660473 131.538277 
L 799.642806 130.949098 
L 801.625138 130.35992 
L 803.607471 129.770741 
L 805.589804 129.181563 
L 807.572136 128.592385 
L 809.554469 128.003206 
L 811.536802 127.414028 
L 813.519134 126.82485 
L 815.501467 126.235671 
L 817.4838 125.646493 
L 819.466132 125.057315 
L 821.448465 124.468136 
L 823.430798 123.878958 
L 825.41313 123.28978 
L 827.395463 122.700601 
L 829.377796 122.111423 
L 831.360128 121.522244 
L 833.342461 120.933066 
L 835.324794 120.343888 
L 837.307126 119.754709 
L 839.289459 119.165531 
L 841.271792 118.576353 
L 843.254124 117.987174 
L 845.236457 117.397996 
L 847.21879 116.808818 
L 849.201122 116.219639 
L 851.183455 115.630461 
L 853.165788 115.041283 
L 855.14812 114.452104 
L 857.130453 113.862926 
L 859.112786 113.273747 
L 861.095118 112.684569 
L 863.077451 112.095391 
L 865.059784 111.506212 
L 867.042116 110.917034 
L 869.024449 110.327856 
L 871.006782 109.738677 
L 872.989114 109.149499 
L 874.971447 108.560321 
L 876.95378 107.971142 
L 878.936112 107.381964 
L 880.918445 106.792786 
L 882.900778 106.203607 
L 884.88311 105.614429 
L 886.865443 105.025251 
L 888.847776 104.436072 
L 890.830108 103.846894 
L 892.812441 103.257715 
L 894.794774 102.668537 
L 896.777106 102.079359 
L 898.759439 101.49018 
L 900.741772 100.901002 
L 902.724104 100.311824 
L 904.706437 99.722645 
L 906.68877 99.133467 
L 908.671102 98.544289 
L 910.653435 97.95511 
L 912.635768 97.365932 
L 914.6181 96.776754 
L 916.600433 96.187575 
L 918.582766 95.598397 
L 920.565098 95.009218 
L 922.547431 94.42004 
L 924.529764 93.830862 
L 926.512096 93.241683 
L 928.494429 92.652505 
L 930.476762 92.063327 
L 932.459094 91.474148 
L 934.441427 90.88497 
L 936.42376 90.295792 
L 938.406092 89.706613 
L 940.388425 89.117435 
L 942.370758 88.528257 
L 944.35309 87.939078 
L 946.335423 87.3499 
L 948.317756 86.760721 
L 950.300088 86.171543 
L 952.282421 85.582365 
L 954.264754 84.993186 
L 956.247086 84.404008 
L 958.229419 83.81483 
L 960.211752 83.225651 
L 962.194084 82.636473 
L 964.176417 82.047295 
L 966.158749 81.458116 
L 968.141082 80.868938 
L 970.123415 80.27976 
L 972.105747 79.690581 
L 974.08808 79.101403 
L 976.070413 78.512224 
L 978.052745 77.923046 
L 980.035078 77.333868 
L 982.017411 76.744689 
L 983.999743 76.155511 
L 985.982076 75.566333 
L 987.964409 74.977154 
L 989.946741 74.387976 
L 991.929074 73.798798 
L 993.911407 73.209619 
L 995.893739 72.620441 
L 997.876072 72.031263 
L 999.858405 71.442084 
L 1001.840737 70.852906 
L 1003.82307 70.263727 
L 1005.805403 69.674549 
L 1007.787735 69.085371 
L 1009.770068 68.496192 
L 1011.752401 67.907014 
L 1013.734733 67.317836 
L 1015.717066 66.728657 
L 1017.699399 66.139479 
L 1019.681731 65.550301 
L 1021.664064 64.961122 
L 1023.646397 64.371944 
L 1025.628729 63.782766 
L 1027.611062 63.193587 
L 1029.593395 62.604409 
L 1031.575727 62.01523 
L 1033.55806 61.426052 
L 1035.540393 60.836874 
L 1037.522725 60.247695 
L 1039.505058 59.658517 
L 1041.487391 59.069339 
L 1043.469723 58.48016 
L 1045.452056 57.890982 
L 1047.434389 57.301804 
L 1049.416721 56.712625 
L 1051.399054 56.123447 
L 1053.381387 55.534269 
L 1055.363719 54.94509 
L 1057.346052 54.355912 
L 1059.328385 53.766733 
L 1061.310717 53.177555 
L 1063.29305 52.588377 
L 1065.275383 51.999198 
L 1067.257715 51.41002 
L 1069.240048 50.820842 
L 1071.222381 50.231663 
L 1073.204713 49.642485 
L 1075.187046 49.053307 
L 1077.169379 48.464128 
L 1079.151711 47.87495 
L 1081.134044 47.285772 
L 1083.116377 46.696593 
L 1085.098709 46.107415 
L 1087.081042 45.518236 
L 1089.063375 44.929058 
L 1091.045707 44.33988 
L 1093.02804 43.750701 
L 1095.010373 43.161523 
L 1096.992705 42.572345 
L 1098.975038 41.983166 
L 1100.957371 41.393988 
L 1102.939703 40.80481 
L 1104.922036 40.215631 
L 1106.904369 39.626453 
L 1108.886701 39.037275 
L 1110.869034 38.448096 
L 1112.851367 37.858918 
L 1114.833699 37.269739 
L 1116.816032 36.680561 
L 1118.798365 36.091383 
L 1120.780697 35.502204 
L 1122.76303 34.913026 
L 1124.745363 34.323848 
L 1126.727695 33.734669 
L 1128.710028 33.145491 
L 1130.692361 32.556313 
L 1132.674693 31.967134 
L 1134.657026 31.377956 
L 1136.639359 30.788778 
L 1138.621691 30.199599 
L 1140.604024 29.610421 
L 1142.586357 29.021242 
L 1144.568689 28.432064 
L 1146.551022 27.842886 
L 1148.533355 27.253707 
L 1150.515687 26.664529 
L 1152.49802 26.075351 
L 1154.480353 25.486172 
L 1156.462685 24.896994 
L 1158.445018 24.307816 
L 1160.427351 23.718637 
L 1162.409683 23.129459 
L 1164.392016 22.540281 
L 1166.374349 21.951102 
L 1168.356681 21.361924 
L 1170.339014 20.772745 
L 1172.321347 20.183567 
L 1174.303679 19.594389 
L 1176.286012 19.00521 
L 1178.268345 18.416032 
L 1180.250677 17.826854 
L 1182.23301 17.237675 
L 1184.215343 16.648497 
L 1186.197675 16.059319 
L 1188.180008 15.47014 
L 1190.162341 14.880962 
L 1192.144673 14.291784 
L 1194.127006 13.702605 
L 1196.109339 13.113427 
L 1198.091671 12.524248 
L 1200.074004 11.93507 
L 1202.056337 11.345892 
L 1204.038669 10.756713 
L 1206.021002 10.167535 
L 1208.003335 9.578357 
L 1209.985667 8.989178 
L 1211.968 8.4 
L 1211.968 -318.266667 
L 1211.968 -318.266667 
L 1209.985667 -317.022846 
L 1208.003335 -315.779025 
L 1206.021002 -314.535204 
L 1204.038669 -313.291383 
L 1202.056337 -312.047562 
L 1200.074004 -310.803741 
L 1198.091671 -309.55992 
L 1196.109339 -308.316099 
L 1194.127006 -307.072278 
L 1192.144673 -305.828457 
L 1190.162341 -304.584636 
L 1188.180008 -303.340815 
L 1186.197675 -302.096994 
L 1184.215343 -300.853173 
L 1182.23301 -299.609352 
L 1180.250677 -298.365531 
L 1178.268345 -297.12171 
L 1176.286012 -295.877889 
L 1174.303679 -294.634068 
L 1172.321347 -293.390247 
L 1170.339014 -292.146426 
L 1168.356681 -290.902605 
L 1166.374349 -289.658784 
L 1164.392016 -288.414963 
L 1162.409683 -287.171142 
L 1160.427351 -285.927321 
L 1158.445018 -284.6835 
L 1156.462685 -283.439679 
L 1154.480353 -282.195858 
L 1152.49802 -280.952037 
L 1150.515687 -279.708216 
L 1148.533355 -278.464395 
L 1146.551022 -277.220574 
L 1144.568689 -275.976754 
L 1142.586357 -274.732933 
L 1140.604024 -273.489112 
L 1138.621691 -272.245291 
L 1136.639359 -271.00147 
L 1134.657026 -269.757649 
L 1132.674693 -268.513828 
L 1130.692361 -267.270007 
L 1128.710028 -266.026186 
L 1126.727695 -264.782365 
L 1124.745363 -263.538544 
L 1122.76303 -262.294723 
L 1120.780697 -261.050902 
L 1118.798365 -259.807081 
L 1116.816032 -258.56326 
L 1114.833699 -257.319439 
L 1112.851367 -256.075618 
L 1110.869034 -254.831797 
L 1108.886701 -253.587976 
L 1106.904369 -252.344155 
L 1104.922036 -251.100334 
L 1102.939703 -249.856513 
L 1100.957371 -248.612692 
L 1098.975038 -247.368871 
L 1096.992705 -246.12505 
L 1095.010373 -244.881229 
L 1093.02804 -243.637408 
L 1091.045707 -242.393587 
L 1089.063375 -241.149766 
L 1087.081042 -239.905945 
L 1085.098709 -238.662124 
L 1083.116377 -237.418303 
L 1081.134044 -236.174482 
L 1079.151711 -234.930661 
L 1077.169379 -233.68684 
L 1075.187046 -232.443019 
L 1073.204713 -231.199198 
L 1071.222381 -229.955377 
L 1069.240048 -228.711556 
L 1067.257715 -227.467735 
L 1065.275383 -226.223914 
L 1063.29305 -224.980094 
L 1061.310717 -223.736273 
L 1059.328385 -222.492452 
L 1057.346052 -221.248631 
L 1055.363719 -220.00481 
L 1053.381387 -218.760989 
L 1051.399054 -217.517168 
L 1049.416721 -216.273347 
L 1047.434389 -215.029526 
L 1045.452056 -213.785705 
L 1043.469723 -212.541884 
L 1041.487391 -211.298063 
L 1039.505058 -210.054242 
L 1037.522725 -208.810421 
L 1035.540393 -207.5666 
L 1033.55806 -206.322779 
L 1031.575727 -205.078958 
L 1029.593395 -203.835137 
L 1027.611062 -202.591316 
L 1025.628729 -201.347495 
L 1023.646397 -200.103674 
L 1021.664064 -198.859853 
L 1019.681731 -197.616032 
L 1017.699399 -196.372211 
L 1015.717066 -195.12839 
L 1013.734733 -193.884569 
L 1011.752401 -192.640748 
L 1009.770068 -191.396927 
L 1007.787735 -190.153106 
L 1005.805403 -188.909285 
L 1003.82307 -187.665464 
L 1001.840737 -186.421643 
L 999.858405 -185.177822 
L 997.876072 -183.934001 
L 995.893739 -182.69018 
L 993.911407 -181.446359 
L 991.929074 -180.202538 
L 989.946741 -178.958717 
L 987.964409 -177.714896 
L 985.982076 -176.471075 
L 983.999743 -175.227255 
L 982.017411 -173.983434 
L 980.035078 -172.739613 
L 978.052745 -171.495792 
L 976.070413 -170.251971 
L 974.08808 -169.00815 
L 972.105747 -167.764329 
L 970.123415 -166.520508 
L 968.141082 -165.276687 
L 966.158749 -164.032866 
L 964.176417 -162.789045 
L 962.194084 -161.545224 
L 960.211752 -160.301403 
L 958.229419 -159.057582 
L 956.247086 -157.813761 
L 954.264754 -156.56994 
L 952.282421 -155.326119 
L 950.300088 -154.082298 
L 948.317756 -152.838477 
L 946.335423 -151.594656 
L 944.35309 -150.350835 
L 942.370758 -149.107014 
L 940.388425 -147.863193 
L 938.406092 -146.619372 
L 936.42376 -145.375551 
L 934.441427 -144.13173 
L 932.459094 -142.887909 
L 930.476762 -141.644088 
L 928.494429 -140.400267 
L 926.512096 -139.156446 
L 924.529764 -137.912625 
L 922.547431 -136.668804 
L 920.565098 -135.424983 
L 918.582766 -134.181162 
L 916.600433 -132.937341 
L 914.6181 -131.69352 
L 912.635768 -130.449699 
L 910.653435 -129.205878 
L 908.671102 -127.962057 
L 906.68877 -126.718236 
L 904.706437 -125.474415 
L 902.724104 -124.230595 
L 900.741772 -122.986774 
L 898.759439 -121.742953 
L 896.777106 -120.499132 
L 894.794774 -119.255311 
L 892.812441 -118.01149 
L 890.830108 -116.767669 
L 888.847776 -115.523848 
L 886.865443 -114.280027 
L 884.88311 -113.036206 
L 882.900778 -111.792385 
L 880.918445 -110.548564 
L 878.936112 -109.304743 
L 876.95378 -108.060922 
L 874.971447 -106.817101 
L 872.989114 -105.57328 
L 871.006782 -104.329459 
L 869.024449 -103.085638 
L 867.042116 -101.841817 
L 865.059784 -100.597996 
L 863.077451 -99.354175 
L 861.095118 -98.110354 
L 859.112786 -96.866533 
L 857.130453 -95.622712 
L 855.14812 -94.378891 
L 853.165788 -93.13507 
L 851.183455 -91.891249 
L 849.201122 -90.647428 
L 847.21879 -89.403607 
L 845.236457 -88.159786 
L 843.254124 -86.915965 
L 841.271792 -85.672144 
L 839.289459 -84.428323 
L 837.307126 -83.184502 
L 835.324794 -81.940681 
L 833.342461 -80.69686 
L 831.360128 -79.453039 
L 829.377796 -78.209218 
L 827.395463 -76.965397 
L 825.41313 -75.721576 
L 823.430798 -74.477756 
L 821.448465 -73.233935 
L 819.466132 -71.990114 
L 817.4838 -70.746293 
L 815.501467 -69.502472 
L 813.519134 -68.258651 
L 811.536802 -67.01483 
L 809.554469 -65.771009 
L 807.572136 -64.527188 
L 805.589804 -63.283367 
L 803.607471 -62.039546 
L 801.625138 -60.795725 
L 799.642806 -59.551904 
L 797.660473 -58.308083 
L 795.67814 -57.064262 
L 793.695808 -55.820441 
L 791.713475 -54.57662 
L 789.731142 -53.332799 
L 787.74881 -52.088978 
L 785.766477 -50.845157 
L 783.784144 -49.601336 
L 781.801812 -48.357515 
L 779.819479 -47.113694 
L 777.837146 -45.869873 
L 775.854814 -44.626052 
L 773.872481 -43.382231 
L 771.890148 -42.13841 
L 769.907816 -40.894589 
L 767.925483 -39.650768 
L 765.94315 -38.406947 
L 763.960818 -37.163126 
L 761.978485 -35.919305 
L 759.996152 -34.675484 
L 758.01382 -33.431663 
L 756.031487 -32.187842 
L 754.049154 -30.944021 
L 752.066822 -29.7002 
L 750.084489 -28.456379 
L 748.102156 -27.212558 
L 746.119824 -25.968737 
L 744.137491 -24.724916 
L 742.155158 -23.481096 
L 740.172826 -22.237275 
L 738.190493 -20.993454 
L 736.20816 -19.749633 
L 734.225828 -18.505812 
L 732.243495 -17.261991 
L 730.261162 -16.01817 
L 728.27883 -14.774349 
L 726.296497 -13.530528 
L 724.314164 -12.286707 
L 722.331832 -11.042886 
L 720.349499 -9.799065 
L 718.367166 -8.555244 
L 716.384834 -7.311423 
L 714.402501 -6.067602 
L 712.420168 -4.823781 
L 710.437836 -3.57996 
L 708.455503 -2.336139 
L 706.47317 -1.092318 
L 704.490838 0.151503 
L 702.508505 1.395324 
L 700.526172 2.639145 
L 698.54384 3.882966 
L 696.561507 5.126787 
L 694.579174 6.370608 
L 692.596842 7.614429 
L 690.614509 8.85825 
L 688.632176 10.102071 
L 686.649844 11.345892 
L 684.667511 12.589713 
L 682.685178 13.833534 
L 680.702846 15.077355 
L 678.720513 16.321176 
L 676.73818 17.564997 
L 674.755848 18.808818 
L 672.773515 20.052639 
L 670.791182 21.29646 
L 668.80885 22.540281 
L 666.826517 23.784102 
L 664.844184 25.027923 
L 662.861852 26.271743 
L 660.879519 27.515564 
L 658.897186 28.759385 
L 656.914854 30.003206 
L 654.932521 31.247027 
L 652.950188 32.490848 
L 650.967856 33.734669 
L 648.985523 34.97849 
L 647.00319 36.222311 
L 645.020858 37.466132 
L 643.038525 38.709953 
L 641.056192 39.953774 
L 639.07386 41.197595 
L 637.091527 42.441416 
L 635.109194 43.685237 
L 633.126862 44.929058 
L 631.144529 46.172879 
L 629.162196 47.4167 
L 627.179864 48.660521 
L 625.197531 49.904342 
L 623.215198 51.148163 
L 621.232866 52.391984 
L 619.250533 53.635805 
L 617.2682 54.879626 
L 615.285868 56.123447 
L 613.303535 57.367268 
L 611.321202 58.611089 
L 609.33887 59.85491 
L 607.356537 61.098731 
L 605.374204 62.342552 
L 603.391872 63.586373 
L 601.409539 64.830194 
L 599.427206 66.074015 
L 597.444874 67.317836 
L 595.462541 68.561657 
L 593.480208 69.805478 
L 591.497876 71.049299 
L 589.515543 72.29312 
L 587.53321 73.536941 
L 585.550878 74.780762 
L 583.568545 76.024582 
L 581.586212 77.268403 
L 579.60388 78.512224 
L 577.621547 79.756045 
L 575.639214 80.999866 
L 573.656882 82.243687 
L 571.674549 83.487508 
L 569.692216 84.731329 
L 567.709884 85.97515 
L 565.727551 87.218971 
L 563.745218 88.462792 
L 561.762886 89.706613 
L 559.780553 90.950434 
L 557.79822 92.194255 
L 555.815888 93.438076 
L 553.833555 94.681897 
L 551.851222 95.925718 
L 549.86889 97.169539 
L 547.886557 98.41336 
L 545.904224 99.657181 
L 543.921892 100.901002 
L 541.939559 102.144823 
L 539.957226 103.388644 
L 537.974894 104.632465 
L 535.992561 105.876286 
L 534.010228 107.120107 
L 532.027896 108.363928 
L 530.045563 109.607749 
L 528.06323 110.85157 
L 526.080898 112.095391 
L 524.098565 113.339212 
L 522.116232 114.583033 
L 520.1339 115.826854 
L 518.151567 117.070675 
L 516.169234 118.314496 
L 514.186902 119.558317 
L 512.204569 120.802138 
L 510.222236 122.045959 
L 508.239904 123.28978 
L 506.257571 124.533601 
L 504.275238 125.777422 
L 502.292906 127.021242 
L 500.310573 128.265063 
L 498.32824 129.508884 
L 496.345908 130.752705 
L 494.363575 131.996526 
L 492.381242 133.240347 
L 490.39891 134.484168 
L 488.416577 135.727989 
L 486.434244 136.97181 
L 484.451912 138.215631 
L 482.469579 139.459452 
L 480.487246 140.703273 
L 478.504914 141.947094 
L 476.522581 143.190915 
L 474.540248 144.434736 
L 472.557916 145.678557 
L 470.575583 146.922378 
L 468.593251 148.166199 
L 466.610918 149.41002 
L 464.628585 150.653841 
L 462.646253 151.897662 
L 460.66392 153.141483 
L 458.681587 154.385304 
L 456.699255 155.629125 
L 454.716922 156.872946 
L 452.734589 158.116767 
L 450.752257 159.360588 
L 448.769924 160.604409 
L 446.787591 161.84823 
L 444.805259 163.092051 
L 442.822926 164.335872 
L 440.840593 165.579693 
L 438.858261 166.823514 
L 436.875928 168.067335 
L 434.893595 169.311156 
L 432.911263 170.554977 
L 430.92893 171.798798 
L 428.946597 173.042619 
L 426.964265 174.28644 
L 424.981932 175.530261 
L 422.999599 176.774081 
L 421.017267 178.017902 
L 419.034934 179.261723 
L 417.052601 180.505544 
L 415.070269 181.749365 
L 413.087936 182.993186 
L 411.105603 184.237007 
L 409.123271 185.480828 
L 407.140938 186.724649 
L 405.158605 187.96847 
L 403.176273 189.212291 
L 401.19394 190.456112 
L 399.211607 191.699933 
L 397.229275 192.943754 
L 395.246942 194.187575 
L 393.264609 195.431396 
L 391.282277 196.675217 
L 389.299944 197.919038 
L 387.317611 199.162859 
L 385.335279 200.40668 
L 383.352946 201.650501 
L 381.370613 202.894322 
L 379.388281 204.138143 
L 377.405948 205.381964 
L 375.423615 206.625785 
L 373.441283 207.869606 
L 371.45895 209.113427 
L 369.476617 210.357248 
L 367.494285 211.601069 
L 365.511952 212.84489 
L 363.529619 214.088711 
L 361.547287 215.332532 
L 359.564954 216.576353 
L 357.582621 217.820174 
L 355.600289 219.063995 
L 353.617956 220.307816 
L 351.635623 221.551637 
L 349.653291 222.795458 
L 347.670958 224.039279 
L 345.688625 225.2831 
L 343.706293 226.526921 
L 341.72396 227.770741 
L 339.741627 229.014562 
L 337.759295 230.258383 
L 335.776962 231.502204 
L 333.794629 232.746025 
L 331.812297 233.989846 
L 329.829964 235.233667 
L 327.847631 236.477488 
L 325.865299 237.721309 
L 323.882966 238.96513 
L 321.900633 240.208951 
L 319.918301 241.452772 
L 317.935968 242.696593 
L 315.953635 243.940414 
L 313.971303 245.184235 
L 311.98897 246.428056 
L 310.006637 247.671877 
L 308.024305 248.915698 
L 306.041972 250.159519 
L 304.059639 251.40334 
L 302.077307 252.647161 
L 300.094974 253.890982 
L 298.112641 255.134803 
L 296.130309 256.378624 
L 294.147976 257.622445 
L 292.165643 258.866266 
L 290.183311 260.110087 
L 288.200978 261.353908 
L 286.218645 262.597729 
L 284.236313 263.84155 
L 282.25398 265.085371 
L 280.271647 266.329192 
L 278.289315 267.573013 
L 276.306982 268.816834 
L 274.324649 270.060655 
L 272.342317 271.304476 
L 270.359984 272.548297 
L 268.377651 273.792118 
L 266.395319 275.035939 
L 264.412986 276.27976 
L 262.430653 277.52358 
L 260.448321 278.767401 
L 258.465988 280.011222 
L 256.483655 281.255043 
L 254.501323 282.498864 
L 252.51899 283.742685 
L 250.536657 284.986506 
L 248.554325 286.230327 
L 246.571992 287.474148 
L 244.589659 288.717969 
L 242.607327 289.96179 
L 240.624994 291.205611 
L 238.642661 292.449432 
L 236.660329 293.693253 
L 234.677996 294.937074 
L 232.695663 296.180895 
L 230.713331 297.424716 
L 228.730998 298.668537 
L 226.748665 299.912358 
L 224.766333 301.156179 
L 222.784 302.4 
z
" style="fill:#87ceeb;fill-opacity:0.25;stroke:#87ceeb;stroke-opacity:0.25;"/>
   </g>
   <g id="matplotlib.axis_1">
    <g id="xtick_1">
     <g id="line2d_1">
      <defs>
       <path d="M 0 0 
L 0 3.5 
" id="m7da3a57cc3" style="stroke:#000000;stroke-width:0.8;"/>
      </defs>
      <g>
       <use style="stroke:#000000;stroke-width:0.8;" x="222.784" xlink:href="#m7da3a57cc3" y="302.4"/>
      </g>
     </g>
     <g id="text_1">
      <!-- 0.0 -->
      <defs>
       <path d="M 31.78125 66.40625 
Q 24.171875 66.40625 20.328125 58.90625 
Q 16.5 51.421875 16.5 36.375 
Q 16.5 21.390625 20.328125 13.890625 
Q 24.171875 6.390625 31.78125 6.390625 
Q 39.453125 6.390625 43.28125 13.890625 
Q 47.125 21.390625 47.125 36.375 
Q 47.125 51.421875 43.28125 58.90625 
Q 39.453125 66.40625 31.78125 66.40625 
z
M 31.78125 74.21875 
Q 44.046875 74.21875 50.515625 64.515625 
Q 56.984375 54.828125 56.984375 36.375 
Q 56.984375 17.96875 50.515625 8.265625 
Q 44.046875 -1.421875 31.78125 -1.421875 
Q 19.53125 -1.421875 13.0625 8.265625 
Q 6.59375 17.96875 6.59375 36.375 
Q 6.59375 54.828125 13.0625 64.515625 
Q 19.53125 74.21875 31.78125 74.21875 
z
" id="DejaVuSans-48"/>
       <path d="M 10.6875 12.40625 
L 21 12.40625 
L 21 0 
L 10.6875 0 
z
" id="DejaVuSans-46"/>
      </defs>
      <g transform="translate(186.1432 344.4136)scale(0.4608 -0.4608)">
       <use xlink:href="#DejaVuSans-48"/>
       <use x="63.623047" xlink:href="#DejaVuSans-46"/>
       <use x="95.410156" xlink:href="#DejaVuSans-48"/>
      </g>
     </g>
    </g>
    <g id="xtick_2">
     <g id="line2d_2">
      <g>
       <use style="stroke:#000000;stroke-width:0.8;" x="364.096" xlink:href="#m7da3a57cc3" y="302.4"/>
      </g>
     </g>
     <g id="text_2">
      <!-- 0.5 -->
      <defs>
       <path d="M 10.796875 72.90625 
L 49.515625 72.90625 
L 49.515625 64.59375 
L 19.828125 64.59375 
L 19.828125 46.734375 
Q 21.96875 47.46875 24.109375 47.828125 
Q 26.265625 48.1875 28.421875 48.1875 
Q 40.625 48.1875 47.75 41.5 
Q 54.890625 34.8125 54.890625 23.390625 
Q 54.890625 11.625 47.5625 5.09375 
Q 40.234375 -1.421875 26.90625 -1.421875 
Q 22.3125 -1.421875 17.546875 -0.640625 
Q 12.796875 0.140625 7.71875 1.703125 
L 7.71875 11.625 
Q 12.109375 9.234375 16.796875 8.0625 
Q 21.484375 6.890625 26.703125 6.890625 
Q 35.15625 6.890625 40.078125 11.328125 
Q 45.015625 15.765625 45.015625 23.390625 
Q 45.015625 31 40.078125 35.4375 
Q 35.15625 39.890625 26.703125 39.890625 
Q 22.75 39.890625 18.8125 39.015625 
Q 14.890625 38.140625 10.796875 36.28125 
z
" id="DejaVuSans-53"/>
      </defs>
      <g transform="translate(327.4552 344.4136)scale(0.4608 -0.4608)">
       <use xlink:href="#DejaVuSans-48"/>
       <use x="63.623047" xlink:href="#DejaVuSans-46"/>
       <use x="95.410156" xlink:href="#DejaVuSans-53"/>
      </g>
     </g>
    </g>
    <g id="xtick_3">
     <g id="line2d_3">
      <g>
       <use style="stroke:#000000;stroke-width:0.8;" x="505.408" xlink:href="#m7da3a57cc3" y="302.4"/>
      </g>
     </g>
     <g id="text_3">
      <!-- 1.0 -->
      <defs>
       <path d="M 12.40625 8.296875 
L 28.515625 8.296875 
L 28.515625 63.921875 
L 10.984375 60.40625 
L 10.984375 69.390625 
L 28.421875 72.90625 
L 38.28125 72.90625 
L 38.28125 8.296875 
L 54.390625 8.296875 
L 54.390625 0 
L 12.40625 0 
z
" id="DejaVuSans-49"/>
      </defs>
      <g transform="translate(468.7672 344.4136)scale(0.4608 -0.4608)">
       <use xlink:href="#DejaVuSans-49"/>
       <use x="63.623047" xlink:href="#DejaVuSans-46"/>
       <use x="95.410156" xlink:href="#DejaVuSans-48"/>
      </g>
     </g>
    </g>
    <g id="xtick_4">
     <g id="line2d_4">
      <g>
       <use style="stroke:#000000;stroke-width:0.8;" x="646.72" xlink:href="#m7da3a57cc3" y="302.4"/>
      </g>
     </g>
     <g id="text_4">
      <!-- 1.5 -->
      <g transform="translate(610.0792 344.4136)scale(0.4608 -0.4608)">
       <use xlink:href="#DejaVuSans-49"/>
       <use x="63.623047" xlink:href="#DejaVuSans-46"/>
       <use x="95.410156" xlink:href="#DejaVuSans-53"/>
      </g>
     </g>
    </g>
    <g id="text_5">
     <!-- $h$ -->
     <defs>
      <path d="M 55.71875 33.015625 
L 49.3125 0 
L 40.28125 0 
L 46.6875 32.671875 
Q 47.125 34.96875 47.359375 36.71875 
Q 47.609375 38.484375 47.609375 39.5 
Q 47.609375 43.609375 45.015625 45.890625 
Q 42.4375 48.1875 37.796875 48.1875 
Q 30.5625 48.1875 25.265625 43.296875 
Q 19.96875 38.421875 18.40625 30.328125 
L 12.5 0 
L 3.515625 0 
L 18.3125 75.984375 
L 27.296875 75.984375 
L 21.484375 46.09375 
Q 24.90625 50.6875 30.21875 53.34375 
Q 35.546875 56 41.40625 56 
Q 48.640625 56 52.609375 52.09375 
Q 56.59375 48.1875 56.59375 41.109375 
Q 56.59375 39.359375 56.375 37.359375 
Q 56.15625 35.359375 55.71875 33.015625 
z
" id="DejaVuSans-Oblique-104"/>
     </defs>
     <g transform="translate(424.512 382.3118)scale(0.32 -0.32)">
      <use transform="translate(0 0.015625)" xlink:href="#DejaVuSans-Oblique-104"/>
     </g>
    </g>
   </g>
   <g id="matplotlib.axis_2">
    <g id="ytick_1">
     <g id="line2d_5">
      <defs>
       <path d="M 0 0 
L -3.5 0 
" id="m735fa8fc7a" style="stroke:#000000;stroke-width:0.8;"/>
      </defs>
      <g>
       <use style="stroke:#000000;stroke-width:0.8;" x="222.784" xlink:href="#m735fa8fc7a" y="302.4"/>
      </g>
     </g>
     <g id="text_6">
      <!-- 0 -->
      <g transform="translate(186.4656 319.9068)scale(0.4608 -0.4608)">
       <use xlink:href="#DejaVuSans-48"/>
      </g>
     </g>
    </g>
    <g id="ytick_2">
     <g id="line2d_6">
      <g>
       <use style="stroke:#000000;stroke-width:0.8;" x="222.784" xlink:href="#m735fa8fc7a" y="134.4"/>
      </g>
     </g>
     <g id="text_7">
      <!-- 50 -->
      <g transform="translate(157.1472 151.9068)scale(0.4608 -0.4608)">
       <use xlink:href="#DejaVuSans-53"/>
       <use x="63.623047" xlink:href="#DejaVuSans-48"/>
      </g>
     </g>
    </g>
    <g id="text_8">
     <!-- $d$ [m] -->
     <defs>
      <path d="M 41.796875 8.203125 
Q 38.1875 3.46875 33.25 1.015625 
Q 28.328125 -1.421875 22.3125 -1.421875 
Q 14.109375 -1.421875 9.34375 4.171875 
Q 4.59375 9.765625 4.59375 19.484375 
Q 4.59375 27.59375 7.46875 34.9375 
Q 10.359375 42.28125 15.828125 48.09375 
Q 19.4375 51.953125 23.96875 53.96875 
Q 28.515625 56 33.5 56 
Q 38.765625 56 42.796875 53.453125 
Q 46.828125 50.921875 49.03125 46.1875 
L 54.890625 75.984375 
L 63.921875 75.984375 
L 49.125 0 
L 40.09375 0 
z
M 13.921875 21.09375 
Q 13.921875 14.015625 17.109375 10.0625 
Q 20.3125 6.109375 25.984375 6.109375 
Q 30.171875 6.109375 33.765625 8.125 
Q 37.359375 10.15625 40.09375 14.109375 
Q 42.96875 18.21875 44.625 23.578125 
Q 46.296875 28.953125 46.296875 34.1875 
Q 46.296875 40.96875 43.09375 44.765625 
Q 39.890625 48.578125 34.28125 48.578125 
Q 30.03125 48.578125 26.359375 46.578125 
Q 22.703125 44.578125 20.125 40.828125 
Q 17.28125 36.765625 15.59375 31.390625 
Q 13.921875 26.03125 13.921875 21.09375 
z
" id="DejaVuSans-Oblique-100"/>
      <path id="DejaVuSans-32"/>
      <path d="M 8.59375 75.984375 
L 29.296875 75.984375 
L 29.296875 69 
L 17.578125 69 
L 17.578125 -6.203125 
L 29.296875 -6.203125 
L 29.296875 -13.1875 
L 8.59375 -13.1875 
z
" id="DejaVuSans-91"/>
      <path d="M 52 44.1875 
Q 55.375 50.25 60.0625 53.125 
Q 64.75 56 71.09375 56 
Q 79.640625 56 84.28125 50.015625 
Q 88.921875 44.046875 88.921875 33.015625 
L 88.921875 0 
L 79.890625 0 
L 79.890625 32.71875 
Q 79.890625 40.578125 77.09375 44.375 
Q 74.3125 48.1875 68.609375 48.1875 
Q 61.625 48.1875 57.5625 43.546875 
Q 53.515625 38.921875 53.515625 30.90625 
L 53.515625 0 
L 44.484375 0 
L 44.484375 32.71875 
Q 44.484375 40.625 41.703125 44.40625 
Q 38.921875 48.1875 33.109375 48.1875 
Q 26.21875 48.1875 22.15625 43.53125 
Q 18.109375 38.875 18.109375 30.90625 
L 18.109375 0 
L 9.078125 0 
L 9.078125 54.6875 
L 18.109375 54.6875 
L 18.109375 46.1875 
Q 21.1875 51.21875 25.484375 53.609375 
Q 29.78125 56 35.6875 56 
Q 41.65625 56 45.828125 52.96875 
Q 50 49.953125 52 44.1875 
z
" id="DejaVuSans-109"/>
      <path d="M 30.421875 75.984375 
L 30.421875 -13.1875 
L 9.71875 -13.1875 
L 9.71875 -6.203125 
L 21.390625 -6.203125 
L 21.390625 69 
L 9.71875 69 
L 9.71875 75.984375 
z
" id="DejaVuSans-93"/>
     </defs>
     <g transform="translate(146.4922 194.56)rotate(-90)scale(0.32 -0.32)">
      <use transform="translate(0 0.015625)" xlink:href="#DejaVuSans-Oblique-100"/>
      <use transform="translate(63.476562 0.015625)" xlink:href="#DejaVuSans-32"/>
      <use transform="translate(95.263672 0.015625)" xlink:href="#DejaVuSans-91"/>
      <use transform="translate(134.277344 0.015625)" xlink:href="#DejaVuSans-109"/>
      <use transform="translate(231.689453 0.015625)" xlink:href="#DejaVuSans-93"/>
     </g>
    </g>
   </g>
   <g id="line2d_7">
    <path clip-path="url(#pbc6a10f0be)" d="M 222.784 302.4 
L 684.3608 165.212602 
L 684.3608 165.212602 
" style="fill:none;stroke:#708090;stroke-linecap:square;stroke-width:10;"/>
   </g>
   <g id="line2d_8">
    <path clip-path="url(#pbc6a10f0be)" d="M 222.784 302.4 
L 684.3608 12.78216 
L 684.3608 12.78216 
" style="fill:none;stroke:#000080;stroke-linecap:square;stroke-width:10;"/>
   </g>
   <g id="line2d_9">
    <path clip-path="url(#pbc6a10f0be)" d="M 222.784 219.812315 
L 260.448321 202.281742 
L 298.112641 184.517011 
L 335.776962 166.51812 
L 375.423615 147.31895 
L 415.070269 127.860324 
L 454.716922 108.142243 
L 494.363575 88.164706 
L 534.010228 67.927713 
L 573.656882 47.431264 
L 613.303535 26.67536 
L 652.950188 5.659999 
L 665.413404 -1 
L 665.413404 -1 
" style="fill:none;stroke:#6495ed;stroke-linecap:square;stroke-width:10;"/>
   </g>
   <g id="patch_3">
    <path d="M 222.784 302.4 
L 222.784 -0 
" style="fill:none;stroke:#000000;stroke-linecap:square;stroke-linejoin:miter;stroke-width:0.8;"/>
   </g>
   <g id="patch_4">
    <path d="M 646.72 302.4 
L 646.72 -0 
" style="fill:none;stroke:#000000;stroke-linecap:square;stroke-linejoin:miter;stroke-width:0.8;"/>
   </g>
   <g id="patch_5">
    <path d="M 222.784 302.4 
L 646.72 302.4 
" style="fill:none;stroke:#000000;stroke-linecap:square;stroke-linejoin:miter;stroke-width:0.8;"/>
   </g>
   <g id="patch_6">
    <path d="M 222.784 -0 
L 646.72 -0 
" style="fill:none;stroke:#000000;stroke-linecap:square;stroke-linejoin:miter;stroke-width:0.8;"/>
   </g>
   <g id="legend_1">
    <g id="patch_7">
     <path d="M 6.4 213.76 
L 624.32 213.76 
Q 630.72 213.76 630.72 207.36 
L 630.72 22.4 
Q 630.72 16 624.32 16 
L 6.4 16 
Q 0 16 0 22.4 
L 0 207.36 
Q 0 213.76 6.4 213.76 
z
" style="fill:#ffffff;opacity:0.8;stroke:#cccccc;stroke-linejoin:miter;"/>
    </g>
    <g id="line2d_10">
     <path d="M 12.8 41.92 
L 76.8 41.92 
" style="fill:none;stroke:#708090;stroke-linecap:square;stroke-width:10;"/>
    </g>
    <g id="line2d_11"/>
    <g id="text_9">
     <!-- $d$ = positive gains constraint -->
     <defs>
      <path d="M 10.59375 45.40625 
L 73.1875 45.40625 
L 73.1875 37.203125 
L 10.59375 37.203125 
z
M 10.59375 25.484375 
L 73.1875 25.484375 
L 73.1875 17.1875 
L 10.59375 17.1875 
z
" id="DejaVuSans-61"/>
      <path d="M 18.109375 8.203125 
L 18.109375 -20.796875 
L 9.078125 -20.796875 
L 9.078125 54.6875 
L 18.109375 54.6875 
L 18.109375 46.390625 
Q 20.953125 51.265625 25.265625 53.625 
Q 29.59375 56 35.59375 56 
Q 45.5625 56 51.78125 48.09375 
Q 58.015625 40.1875 58.015625 27.296875 
Q 58.015625 14.40625 51.78125 6.484375 
Q 45.5625 -1.421875 35.59375 -1.421875 
Q 29.59375 -1.421875 25.265625 0.953125 
Q 20.953125 3.328125 18.109375 8.203125 
z
M 48.6875 27.296875 
Q 48.6875 37.203125 44.609375 42.84375 
Q 40.53125 48.484375 33.40625 48.484375 
Q 26.265625 48.484375 22.1875 42.84375 
Q 18.109375 37.203125 18.109375 27.296875 
Q 18.109375 17.390625 22.1875 11.75 
Q 26.265625 6.109375 33.40625 6.109375 
Q 40.53125 6.109375 44.609375 11.75 
Q 48.6875 17.390625 48.6875 27.296875 
z
" id="DejaVuSans-112"/>
      <path d="M 30.609375 48.390625 
Q 23.390625 48.390625 19.1875 42.75 
Q 14.984375 37.109375 14.984375 27.296875 
Q 14.984375 17.484375 19.15625 11.84375 
Q 23.34375 6.203125 30.609375 6.203125 
Q 37.796875 6.203125 41.984375 11.859375 
Q 46.1875 17.53125 46.1875 27.296875 
Q 46.1875 37.015625 41.984375 42.703125 
Q 37.796875 48.390625 30.609375 48.390625 
z
M 30.609375 56 
Q 42.328125 56 49.015625 48.375 
Q 55.71875 40.765625 55.71875 27.296875 
Q 55.71875 13.875 49.015625 6.21875 
Q 42.328125 -1.421875 30.609375 -1.421875 
Q 18.84375 -1.421875 12.171875 6.21875 
Q 5.515625 13.875 5.515625 27.296875 
Q 5.515625 40.765625 12.171875 48.375 
Q 18.84375 56 30.609375 56 
z
" id="DejaVuSans-111"/>
      <path d="M 44.28125 53.078125 
L 44.28125 44.578125 
Q 40.484375 46.53125 36.375 47.5 
Q 32.28125 48.484375 27.875 48.484375 
Q 21.1875 48.484375 17.84375 46.4375 
Q 14.5 44.390625 14.5 40.28125 
Q 14.5 37.15625 16.890625 35.375 
Q 19.28125 33.59375 26.515625 31.984375 
L 29.59375 31.296875 
Q 39.15625 29.25 43.1875 25.515625 
Q 47.21875 21.78125 47.21875 15.09375 
Q 47.21875 7.46875 41.1875 3.015625 
Q 35.15625 -1.421875 24.609375 -1.421875 
Q 20.21875 -1.421875 15.453125 -0.5625 
Q 10.6875 0.296875 5.421875 2 
L 5.421875 11.28125 
Q 10.40625 8.6875 15.234375 7.390625 
Q 20.0625 6.109375 24.8125 6.109375 
Q 31.15625 6.109375 34.5625 8.28125 
Q 37.984375 10.453125 37.984375 14.40625 
Q 37.984375 18.0625 35.515625 20.015625 
Q 33.0625 21.96875 24.703125 23.78125 
L 21.578125 24.515625 
Q 13.234375 26.265625 9.515625 29.90625 
Q 5.8125 33.546875 5.8125 39.890625 
Q 5.8125 47.609375 11.28125 51.796875 
Q 16.75 56 26.8125 56 
Q 31.78125 56 36.171875 55.265625 
Q 40.578125 54.546875 44.28125 53.078125 
z
" id="DejaVuSans-115"/>
      <path d="M 9.421875 54.6875 
L 18.40625 54.6875 
L 18.40625 0 
L 9.421875 0 
z
M 9.421875 75.984375 
L 18.40625 75.984375 
L 18.40625 64.59375 
L 9.421875 64.59375 
z
" id="DejaVuSans-105"/>
      <path d="M 18.3125 70.21875 
L 18.3125 54.6875 
L 36.8125 54.6875 
L 36.8125 47.703125 
L 18.3125 47.703125 
L 18.3125 18.015625 
Q 18.3125 11.328125 20.140625 9.421875 
Q 21.96875 7.515625 27.59375 7.515625 
L 36.8125 7.515625 
L 36.8125 0 
L 27.59375 0 
Q 17.1875 0 13.234375 3.875 
Q 9.28125 7.765625 9.28125 18.015625 
L 9.28125 47.703125 
L 2.6875 47.703125 
L 2.6875 54.6875 
L 9.28125 54.6875 
L 9.28125 70.21875 
z
" id="DejaVuSans-116"/>
      <path d="M 2.984375 54.6875 
L 12.5 54.6875 
L 29.59375 8.796875 
L 46.6875 54.6875 
L 56.203125 54.6875 
L 35.6875 0 
L 23.484375 0 
z
" id="DejaVuSans-118"/>
      <path d="M 56.203125 29.59375 
L 56.203125 25.203125 
L 14.890625 25.203125 
Q 15.484375 15.921875 20.484375 11.0625 
Q 25.484375 6.203125 34.421875 6.203125 
Q 39.59375 6.203125 44.453125 7.46875 
Q 49.3125 8.734375 54.109375 11.28125 
L 54.109375 2.78125 
Q 49.265625 0.734375 44.1875 -0.34375 
Q 39.109375 -1.421875 33.890625 -1.421875 
Q 20.796875 -1.421875 13.15625 6.1875 
Q 5.515625 13.8125 5.515625 26.8125 
Q 5.515625 40.234375 12.765625 48.109375 
Q 20.015625 56 32.328125 56 
Q 43.359375 56 49.78125 48.890625 
Q 56.203125 41.796875 56.203125 29.59375 
z
M 47.21875 32.234375 
Q 47.125 39.59375 43.09375 43.984375 
Q 39.0625 48.390625 32.421875 48.390625 
Q 24.90625 48.390625 20.390625 44.140625 
Q 15.875 39.890625 15.1875 32.171875 
z
" id="DejaVuSans-101"/>
      <path d="M 45.40625 27.984375 
Q 45.40625 37.75 41.375 43.109375 
Q 37.359375 48.484375 30.078125 48.484375 
Q 22.859375 48.484375 18.828125 43.109375 
Q 14.796875 37.75 14.796875 27.984375 
Q 14.796875 18.265625 18.828125 12.890625 
Q 22.859375 7.515625 30.078125 7.515625 
Q 37.359375 7.515625 41.375 12.890625 
Q 45.40625 18.265625 45.40625 27.984375 
z
M 54.390625 6.78125 
Q 54.390625 -7.171875 48.1875 -13.984375 
Q 42 -20.796875 29.203125 -20.796875 
Q 24.46875 -20.796875 20.265625 -20.09375 
Q 16.0625 -19.390625 12.109375 -17.921875 
L 12.109375 -9.1875 
Q 16.0625 -11.328125 19.921875 -12.34375 
Q 23.78125 -13.375 27.78125 -13.375 
Q 36.625 -13.375 41.015625 -8.765625 
Q 45.40625 -4.15625 45.40625 5.171875 
L 45.40625 9.625 
Q 42.625 4.78125 38.28125 2.390625 
Q 33.9375 0 27.875 0 
Q 17.828125 0 11.671875 7.65625 
Q 5.515625 15.328125 5.515625 27.984375 
Q 5.515625 40.671875 11.671875 48.328125 
Q 17.828125 56 27.875 56 
Q 33.9375 56 38.28125 53.609375 
Q 42.625 51.21875 45.40625 46.390625 
L 45.40625 54.6875 
L 54.390625 54.6875 
z
" id="DejaVuSans-103"/>
      <path d="M 34.28125 27.484375 
Q 23.390625 27.484375 19.1875 25 
Q 14.984375 22.515625 14.984375 16.5 
Q 14.984375 11.71875 18.140625 8.90625 
Q 21.296875 6.109375 26.703125 6.109375 
Q 34.1875 6.109375 38.703125 11.40625 
Q 43.21875 16.703125 43.21875 25.484375 
L 43.21875 27.484375 
z
M 52.203125 31.203125 
L 52.203125 0 
L 43.21875 0 
L 43.21875 8.296875 
Q 40.140625 3.328125 35.546875 0.953125 
Q 30.953125 -1.421875 24.3125 -1.421875 
Q 15.921875 -1.421875 10.953125 3.296875 
Q 6 8.015625 6 15.921875 
Q 6 25.140625 12.171875 29.828125 
Q 18.359375 34.515625 30.609375 34.515625 
L 43.21875 34.515625 
L 43.21875 35.40625 
Q 43.21875 41.609375 39.140625 45 
Q 35.0625 48.390625 27.6875 48.390625 
Q 23 48.390625 18.546875 47.265625 
Q 14.109375 46.140625 10.015625 43.890625 
L 10.015625 52.203125 
Q 14.9375 54.109375 19.578125 55.046875 
Q 24.21875 56 28.609375 56 
Q 40.484375 56 46.34375 49.84375 
Q 52.203125 43.703125 52.203125 31.203125 
z
" id="DejaVuSans-97"/>
      <path d="M 54.890625 33.015625 
L 54.890625 0 
L 45.90625 0 
L 45.90625 32.71875 
Q 45.90625 40.484375 42.875 44.328125 
Q 39.84375 48.1875 33.796875 48.1875 
Q 26.515625 48.1875 22.3125 43.546875 
Q 18.109375 38.921875 18.109375 30.90625 
L 18.109375 0 
L 9.078125 0 
L 9.078125 54.6875 
L 18.109375 54.6875 
L 18.109375 46.1875 
Q 21.34375 51.125 25.703125 53.5625 
Q 30.078125 56 35.796875 56 
Q 45.21875 56 50.046875 50.171875 
Q 54.890625 44.34375 54.890625 33.015625 
z
" id="DejaVuSans-110"/>
      <path d="M 48.78125 52.59375 
L 48.78125 44.1875 
Q 44.96875 46.296875 41.140625 47.34375 
Q 37.3125 48.390625 33.40625 48.390625 
Q 24.65625 48.390625 19.8125 42.84375 
Q 14.984375 37.3125 14.984375 27.296875 
Q 14.984375 17.28125 19.8125 11.734375 
Q 24.65625 6.203125 33.40625 6.203125 
Q 37.3125 6.203125 41.140625 7.25 
Q 44.96875 8.296875 48.78125 10.40625 
L 48.78125 2.09375 
Q 45.015625 0.34375 40.984375 -0.53125 
Q 36.96875 -1.421875 32.421875 -1.421875 
Q 20.0625 -1.421875 12.78125 6.34375 
Q 5.515625 14.109375 5.515625 27.296875 
Q 5.515625 40.671875 12.859375 48.328125 
Q 20.21875 56 33.015625 56 
Q 37.15625 56 41.109375 55.140625 
Q 45.0625 54.296875 48.78125 52.59375 
z
" id="DejaVuSans-99"/>
      <path d="M 41.109375 46.296875 
Q 39.59375 47.171875 37.8125 47.578125 
Q 36.03125 48 33.890625 48 
Q 26.265625 48 22.1875 43.046875 
Q 18.109375 38.09375 18.109375 28.8125 
L 18.109375 0 
L 9.078125 0 
L 9.078125 54.6875 
L 18.109375 54.6875 
L 18.109375 46.1875 
Q 20.953125 51.171875 25.484375 53.578125 
Q 30.03125 56 36.53125 56 
Q 37.453125 56 38.578125 55.875 
Q 39.703125 55.765625 41.0625 55.515625 
z
" id="DejaVuSans-114"/>
     </defs>
     <g transform="translate(102.4 53.12)scale(0.32 -0.32)">
      <use transform="translate(0 0.015625)" xlink:href="#DejaVuSans-Oblique-100"/>
      <use transform="translate(63.476562 0.015625)" xlink:href="#DejaVuSans-32"/>
      <use transform="translate(95.263672 0.015625)" xlink:href="#DejaVuSans-61"/>
      <use transform="translate(179.052734 0.015625)" xlink:href="#DejaVuSans-32"/>
      <use transform="translate(210.839844 0.015625)" xlink:href="#DejaVuSans-112"/>
      <use transform="translate(274.316406 0.015625)" xlink:href="#DejaVuSans-111"/>
      <use transform="translate(335.498047 0.015625)" xlink:href="#DejaVuSans-115"/>
      <use transform="translate(387.597656 0.015625)" xlink:href="#DejaVuSans-105"/>
      <use transform="translate(415.380859 0.015625)" xlink:href="#DejaVuSans-116"/>
      <use transform="translate(454.589844 0.015625)" xlink:href="#DejaVuSans-105"/>
      <use transform="translate(482.373047 0.015625)" xlink:href="#DejaVuSans-118"/>
      <use transform="translate(541.552734 0.015625)" xlink:href="#DejaVuSans-101"/>
      <use transform="translate(603.076172 0.015625)" xlink:href="#DejaVuSans-32"/>
      <use transform="translate(634.863281 0.015625)" xlink:href="#DejaVuSans-103"/>
      <use transform="translate(698.339844 0.015625)" xlink:href="#DejaVuSans-97"/>
      <use transform="translate(759.619141 0.015625)" xlink:href="#DejaVuSans-105"/>
      <use transform="translate(787.402344 0.015625)" xlink:href="#DejaVuSans-110"/>
      <use transform="translate(850.78125 0.015625)" xlink:href="#DejaVuSans-115"/>
      <use transform="translate(902.880859 0.015625)" xlink:href="#DejaVuSans-32"/>
      <use transform="translate(934.667969 0.015625)" xlink:href="#DejaVuSans-99"/>
      <use transform="translate(989.648438 0.015625)" xlink:href="#DejaVuSans-111"/>
      <use transform="translate(1050.830078 0.015625)" xlink:href="#DejaVuSans-110"/>
      <use transform="translate(1114.208984 0.015625)" xlink:href="#DejaVuSans-115"/>
      <use transform="translate(1166.308594 0.015625)" xlink:href="#DejaVuSans-116"/>
      <use transform="translate(1205.517578 0.015625)" xlink:href="#DejaVuSans-114"/>
      <use transform="translate(1246.630859 0.015625)" xlink:href="#DejaVuSans-97"/>
      <use transform="translate(1307.910156 0.015625)" xlink:href="#DejaVuSans-105"/>
      <use transform="translate(1335.693359 0.015625)" xlink:href="#DejaVuSans-110"/>
      <use transform="translate(1399.072266 0.015625)" xlink:href="#DejaVuSans-116"/>
     </g>
    </g>
    <g id="line2d_12">
     <path d="M 12.8 88.96 
L 76.8 88.96 
" style="fill:none;stroke:#000080;stroke-linecap:square;stroke-width:10;"/>
    </g>
    <g id="line2d_13"/>
    <g id="text_10">
     <!-- $d$ = string stabilty constraint -->
     <defs>
      <path d="M 48.6875 27.296875 
Q 48.6875 37.203125 44.609375 42.84375 
Q 40.53125 48.484375 33.40625 48.484375 
Q 26.265625 48.484375 22.1875 42.84375 
Q 18.109375 37.203125 18.109375 27.296875 
Q 18.109375 17.390625 22.1875 11.75 
Q 26.265625 6.109375 33.40625 6.109375 
Q 40.53125 6.109375 44.609375 11.75 
Q 48.6875 17.390625 48.6875 27.296875 
z
M 18.109375 46.390625 
Q 20.953125 51.265625 25.265625 53.625 
Q 29.59375 56 35.59375 56 
Q 45.5625 56 51.78125 48.09375 
Q 58.015625 40.1875 58.015625 27.296875 
Q 58.015625 14.40625 51.78125 6.484375 
Q 45.5625 -1.421875 35.59375 -1.421875 
Q 29.59375 -1.421875 25.265625 0.953125 
Q 20.953125 3.328125 18.109375 8.203125 
L 18.109375 0 
L 9.078125 0 
L 9.078125 75.984375 
L 18.109375 75.984375 
z
" id="DejaVuSans-98"/>
      <path d="M 9.421875 75.984375 
L 18.40625 75.984375 
L 18.40625 0 
L 9.421875 0 
z
" id="DejaVuSans-108"/>
      <path d="M 32.171875 -5.078125 
Q 28.375 -14.84375 24.75 -17.8125 
Q 21.140625 -20.796875 15.09375 -20.796875 
L 7.90625 -20.796875 
L 7.90625 -13.28125 
L 13.1875 -13.28125 
Q 16.890625 -13.28125 18.9375 -11.515625 
Q 21 -9.765625 23.484375 -3.21875 
L 25.09375 0.875 
L 2.984375 54.6875 
L 12.5 54.6875 
L 29.59375 11.921875 
L 46.6875 54.6875 
L 56.203125 54.6875 
z
" id="DejaVuSans-121"/>
     </defs>
     <g transform="translate(102.4 100.16)scale(0.32 -0.32)">
      <use transform="translate(0 0.015625)" xlink:href="#DejaVuSans-Oblique-100"/>
      <use transform="translate(63.476562 0.015625)" xlink:href="#DejaVuSans-32"/>
      <use transform="translate(95.263672 0.015625)" xlink:href="#DejaVuSans-61"/>
      <use transform="translate(179.052734 0.015625)" xlink:href="#DejaVuSans-32"/>
      <use transform="translate(210.839844 0.015625)" xlink:href="#DejaVuSans-115"/>
      <use transform="translate(262.939453 0.015625)" xlink:href="#DejaVuSans-116"/>
      <use transform="translate(302.148438 0.015625)" xlink:href="#DejaVuSans-114"/>
      <use transform="translate(343.261719 0.015625)" xlink:href="#DejaVuSans-105"/>
      <use transform="translate(371.044922 0.015625)" xlink:href="#DejaVuSans-110"/>
      <use transform="translate(434.423828 0.015625)" xlink:href="#DejaVuSans-103"/>
      <use transform="translate(497.900391 0.015625)" xlink:href="#DejaVuSans-32"/>
      <use transform="translate(529.6875 0.015625)" xlink:href="#DejaVuSans-115"/>
      <use transform="translate(581.787109 0.015625)" xlink:href="#DejaVuSans-116"/>
      <use transform="translate(620.996094 0.015625)" xlink:href="#DejaVuSans-97"/>
      <use transform="translate(682.275391 0.015625)" xlink:href="#DejaVuSans-98"/>
      <use transform="translate(745.751953 0.015625)" xlink:href="#DejaVuSans-105"/>
      <use transform="translate(773.535156 0.015625)" xlink:href="#DejaVuSans-108"/>
      <use transform="translate(801.318359 0.015625)" xlink:href="#DejaVuSans-116"/>
      <use transform="translate(840.527344 0.015625)" xlink:href="#DejaVuSans-121"/>
      <use transform="translate(899.707031 0.015625)" xlink:href="#DejaVuSans-32"/>
      <use transform="translate(931.494141 0.015625)" xlink:href="#DejaVuSans-99"/>
      <use transform="translate(986.474609 0.015625)" xlink:href="#DejaVuSans-111"/>
      <use transform="translate(1047.65625 0.015625)" xlink:href="#DejaVuSans-110"/>
      <use transform="translate(1111.035156 0.015625)" xlink:href="#DejaVuSans-115"/>
      <use transform="translate(1163.134766 0.015625)" xlink:href="#DejaVuSans-116"/>
      <use transform="translate(1202.34375 0.015625)" xlink:href="#DejaVuSans-114"/>
      <use transform="translate(1243.457031 0.015625)" xlink:href="#DejaVuSans-97"/>
      <use transform="translate(1304.736328 0.015625)" xlink:href="#DejaVuSans-105"/>
      <use transform="translate(1332.519531 0.015625)" xlink:href="#DejaVuSans-110"/>
      <use transform="translate(1395.898438 0.015625)" xlink:href="#DejaVuSans-116"/>
     </g>
    </g>
    <g id="line2d_14">
     <path d="M 12.8 136 
L 76.8 136 
" style="fill:none;stroke:#6495ed;stroke-linecap:square;stroke-width:10;"/>
    </g>
    <g id="line2d_15"/>
    <g id="text_11">
     <!-- $d$ = critically damped constraint -->
     <defs>
      <path d="M 45.40625 46.390625 
L 45.40625 75.984375 
L 54.390625 75.984375 
L 54.390625 0 
L 45.40625 0 
L 45.40625 8.203125 
Q 42.578125 3.328125 38.25 0.953125 
Q 33.9375 -1.421875 27.875 -1.421875 
Q 17.96875 -1.421875 11.734375 6.484375 
Q 5.515625 14.40625 5.515625 27.296875 
Q 5.515625 40.1875 11.734375 48.09375 
Q 17.96875 56 27.875 56 
Q 33.9375 56 38.25 53.625 
Q 42.578125 51.265625 45.40625 46.390625 
z
M 14.796875 27.296875 
Q 14.796875 17.390625 18.875 11.75 
Q 22.953125 6.109375 30.078125 6.109375 
Q 37.203125 6.109375 41.296875 11.75 
Q 45.40625 17.390625 45.40625 27.296875 
Q 45.40625 37.203125 41.296875 42.84375 
Q 37.203125 48.484375 30.078125 48.484375 
Q 22.953125 48.484375 18.875 42.84375 
Q 14.796875 37.203125 14.796875 27.296875 
z
" id="DejaVuSans-100"/>
     </defs>
     <g transform="translate(102.4 147.2)scale(0.32 -0.32)">
      <use transform="translate(0 0.015625)" xlink:href="#DejaVuSans-Oblique-100"/>
      <use transform="translate(63.476562 0.015625)" xlink:href="#DejaVuSans-32"/>
      <use transform="translate(95.263672 0.015625)" xlink:href="#DejaVuSans-61"/>
      <use transform="translate(179.052734 0.015625)" xlink:href="#DejaVuSans-32"/>
      <use transform="translate(210.839844 0.015625)" xlink:href="#DejaVuSans-99"/>
      <use transform="translate(265.820312 0.015625)" xlink:href="#DejaVuSans-114"/>
      <use transform="translate(306.933594 0.015625)" xlink:href="#DejaVuSans-105"/>
      <use transform="translate(334.716797 0.015625)" xlink:href="#DejaVuSans-116"/>
      <use transform="translate(373.925781 0.015625)" xlink:href="#DejaVuSans-105"/>
      <use transform="translate(401.708984 0.015625)" xlink:href="#DejaVuSans-99"/>
      <use transform="translate(456.689453 0.015625)" xlink:href="#DejaVuSans-97"/>
      <use transform="translate(517.96875 0.015625)" xlink:href="#DejaVuSans-108"/>
      <use transform="translate(545.751953 0.015625)" xlink:href="#DejaVuSans-108"/>
      <use transform="translate(573.535156 0.015625)" xlink:href="#DejaVuSans-121"/>
      <use transform="translate(632.714844 0.015625)" xlink:href="#DejaVuSans-32"/>
      <use transform="translate(664.501953 0.015625)" xlink:href="#DejaVuSans-100"/>
      <use transform="translate(727.978516 0.015625)" xlink:href="#DejaVuSans-97"/>
      <use transform="translate(789.257812 0.015625)" xlink:href="#DejaVuSans-109"/>
      <use transform="translate(886.669922 0.015625)" xlink:href="#DejaVuSans-112"/>
      <use transform="translate(950.146484 0.015625)" xlink:href="#DejaVuSans-101"/>
      <use transform="translate(1011.669922 0.015625)" xlink:href="#DejaVuSans-100"/>
      <use transform="translate(1075.146484 0.015625)" xlink:href="#DejaVuSans-32"/>
      <use transform="translate(1106.933594 0.015625)" xlink:href="#DejaVuSans-99"/>
      <use transform="translate(1161.914062 0.015625)" xlink:href="#DejaVuSans-111"/>
      <use transform="translate(1223.095703 0.015625)" xlink:href="#DejaVuSans-110"/>
      <use transform="translate(1286.474609 0.015625)" xlink:href="#DejaVuSans-115"/>
      <use transform="translate(1338.574219 0.015625)" xlink:href="#DejaVuSans-116"/>
      <use transform="translate(1377.783203 0.015625)" xlink:href="#DejaVuSans-114"/>
      <use transform="translate(1418.896484 0.015625)" xlink:href="#DejaVuSans-97"/>
      <use transform="translate(1480.175781 0.015625)" xlink:href="#DejaVuSans-105"/>
      <use transform="translate(1507.958984 0.015625)" xlink:href="#DejaVuSans-110"/>
      <use transform="translate(1571.337891 0.015625)" xlink:href="#DejaVuSans-116"/>
     </g>
    </g>
    <g id="patch_8">
     <path d="M 12.8 194.24 
L 76.8 194.24 
L 76.8 171.84 
L 12.8 171.84 
z
" style="fill:#87ceeb;opacity:0.25;stroke:#87ceeb;stroke-linejoin:miter;"/>
    </g>
    <g id="text_12">
     <!-- admissible $h-d$ region -->
     <defs>
      <path d="M 10.59375 35.5 
L 73.1875 35.5 
L 73.1875 27.203125 
L 10.59375 27.203125 
z
" id="DejaVuSans-8722"/>
     </defs>
     <g transform="translate(102.4 194.24)scale(0.32 -0.32)">
      <use transform="translate(0 0.015625)" xlink:href="#DejaVuSans-97"/>
      <use transform="translate(61.279297 0.015625)" xlink:href="#DejaVuSans-100"/>
      <use transform="translate(124.755859 0.015625)" xlink:href="#DejaVuSans-109"/>
      <use transform="translate(222.167969 0.015625)" xlink:href="#DejaVuSans-105"/>
      <use transform="translate(249.951172 0.015625)" xlink:href="#DejaVuSans-115"/>
      <use transform="translate(302.050781 0.015625)" xlink:href="#DejaVuSans-115"/>
      <use transform="translate(354.150391 0.015625)" xlink:href="#DejaVuSans-105"/>
      <use transform="translate(381.933594 0.015625)" xlink:href="#DejaVuSans-98"/>
      <use transform="translate(445.410156 0.015625)" xlink:href="#DejaVuSans-108"/>
      <use transform="translate(473.193359 0.015625)" xlink:href="#DejaVuSans-101"/>
      <use transform="translate(534.716797 0.015625)" xlink:href="#DejaVuSans-32"/>
      <use transform="translate(566.503906 0.015625)" xlink:href="#DejaVuSans-Oblique-104"/>
      <use transform="translate(649.365234 0.015625)" xlink:href="#DejaVuSans-8722"/>
      <use transform="translate(752.636719 0.015625)" xlink:href="#DejaVuSans-Oblique-100"/>
      <use transform="translate(816.113281 0.015625)" xlink:href="#DejaVuSans-32"/>
      <use transform="translate(847.900391 0.015625)" xlink:href="#DejaVuSans-114"/>
      <use transform="translate(889.013672 0.015625)" xlink:href="#DejaVuSans-101"/>
      <use transform="translate(950.537109 0.015625)" xlink:href="#DejaVuSans-103"/>
      <use transform="translate(1014.013672 0.015625)" xlink:href="#DejaVuSans-105"/>
      <use transform="translate(1041.796875 0.015625)" xlink:href="#DejaVuSans-111"/>
      <use transform="translate(1102.978516 0.015625)" xlink:href="#DejaVuSans-110"/>
     </g>
    </g>
   </g>
  </g>
 </g>
 <defs>
  <clipPath id="pbc6a10f0be">
   <rect height="302.4" width="423.936" x="222.784" y="-0"/>
  </clipPath>
 </defs>
</svg>
