<?xml version="1.0" encoding="UTF-8" standalone="no"?>
<!-- Created with Inkscape (http://www.inkscape.org/) -->

<svg
   version="1.1"
   id="svg1"
   width="1774.08"
   height="916.79999"
   viewBox="0 0 1774.08 916.79999"
   sodipodi:docname="linear_gains_figure_rebuttal.svg"
   inkscape:version="1.3.2 (1:1.3.2+202311252150+091e20ef0f)"
   xmlns:inkscape="http://www.inkscape.org/namespaces/inkscape"
   xmlns:sodipodi="http://sodipodi.sourceforge.net/DTD/sodipodi-0.dtd"
   xmlns="http://www.w3.org/2000/svg"
   xmlns:svg="http://www.w3.org/2000/svg">
  <defs
     id="defs1">
    <clipPath
       clipPathUnits="userSpaceOnUse"
       id="clipPath4">
      <path
         d="M 99.792,82.512 H 1323.9072 V 687.6 H 99.792 Z"
         id="path4" />
    </clipPath>
    <clipPath
       clipPathUnits="userSpaceOnUse"
       id="clipPath21">
      <path
         d="M 99.792,82.512 H 1323.9072 V 687.6 H 99.792 Z"
         id="path21" />
    </clipPath>
    <clipPath
       clipPathUnits="userSpaceOnUse"
       id="clipPath23">
      <path
         d="M 99.792,82.512 H 1323.9072 V 687.6 H 99.792 Z"
         id="path23" />
    </clipPath>
    <clipPath
       clipPathUnits="userSpaceOnUse"
       id="clipPath25">
      <path
         d="M 99.792,82.512 H 1323.9072 V 687.6 H 99.792 Z"
         id="path25" />
    </clipPath>
    <clipPath
       clipPathUnits="userSpaceOnUse"
       id="clipPath39">
      <path
         d="M -1021,-463 H 1794 V 1233 H -1021 Z"
         transform="translate(-7.8124996e-5,7.8124994e-5)"
         id="path39" />
    </clipPath>
  </defs>
  <sodipodi:namedview
     id="namedview1"
     pagecolor="#ffffff"
     bordercolor="#666666"
     borderopacity="1.0"
     inkscape:showpageshadow="2"
     inkscape:pageopacity="0.0"
     inkscape:pagecheckerboard="0"
     inkscape:deskcolor="#d1d1d1"
     inkscape:zoom="0.57100021"
     inkscape:cx="887.03996"
     inkscape:cy="458.84397"
     inkscape:window-width="1848"
     inkscape:window-height="1016"
     inkscape:window-x="1992"
     inkscape:window-y="27"
     inkscape:window-maximized="1"
     inkscape:current-layer="g1">
    <inkscape:page
       x="0"
       y="0"
       inkscape:label="1"
       id="page1"
       width="1774.08"
       height="916.79999"
       margin="0"
       bleed="0" />
  </sodipodi:namedview>
  <g
     id="g1"
     inkscape:groupmode="layer"
     inkscape:label="1">
    <path
       id="path1"
       d="M 0,0 H 1330.56 V 687.6 H 0 Z"
       style="fill:#ffffff;fill-opacity:1;fill-rule:nonzero;stroke:none"
       transform="matrix(1.3333333,0,0,-1.3333333,0,916.8)" />
    <path
       id="path2"
       d="M 99.792,82.512 H 1323.9072 V 687.6 H 99.792 Z"
       style="fill:#ffffff;fill-opacity:1;fill-rule:nonzero;stroke:none"
       transform="matrix(1.3333333,0,0,-1.3333333,0,916.8)" />
    <path
       id="path3"
       d="m 99.792,82.512 v 0 l 5.72399,1.178918 5.72398,1.178918 5.72399,1.178918 5.72398,1.178917 5.72399,1.178918 5.72398,1.178918 5.72399,1.178918 5.72398,1.178918 5.72399,1.178918 5.72399,1.178917 5.72398,1.178918 5.72399,1.178918 5.72398,1.178918 5.72399,1.178918 5.72398,1.17892 5.72399,1.17892 5.72398,1.17891 5.72399,1.17892 5.72399,1.17892 5.72398,1.17892 5.72399,1.17892 5.72398,1.17891 5.72399,1.17892 5.72398,1.17892 5.72399,1.17892 5.72398,1.17891 5.72399,1.17892 5.72399,1.17892 5.72398,1.17892 5.72399,1.17891 5.72398,1.17892 5.72399,1.17892 5.72398,1.17892 5.72399,1.17892 5.72398,1.17891 5.72399,1.17892 5.72399,1.17892 5.72398,1.17892 5.72399,1.17892 5.72398,1.17891 5.72399,1.17892 5.72398,1.17892 5.72399,1.17892 5.72399,1.17891 5.72398,1.17892 5.72399,1.17892 5.72398,1.17892 5.72399,1.17892 5.72398,1.17891 5.72399,1.17892 5.72398,1.17892 5.72399,1.17892 5.72398,1.17891 5.72399,1.17892 5.72399,1.17892 5.72398,1.17892 5.72399,1.17892 5.72398,1.17891 5.72399,1.17892 5.72398,1.17892 5.72399,1.17892 5.72398,1.17892 5.72399,1.17891 5.72399,1.17892 5.72398,1.17892 5.72399,1.17892 5.72398,1.17891 5.72399,1.17892 5.72398,1.17892 5.72399,1.17892 5.72399,1.17892 5.72398,1.17891 5.72399,1.17892 5.72398,1.17892 5.72399,1.17892 5.72398,1.17892 5.72399,1.17891 5.72398,1.17892 5.72399,1.17892 5.72399,1.17892 5.72398,1.17891 5.72399,1.17892 5.72398,1.17892 5.72399,1.17892 5.72398,1.17892 5.72399,1.17891 5.72399,1.17892 5.72398,1.17892 5.72399,1.17892 5.72398,1.17891 5.72399,1.17892 5.72398,1.17892 5.72399,1.17892 5.72398,1.17892 5.72399,1.17891 5.72399,1.17892 5.72398,1.17892 5.72399,1.17892 5.72398,1.17892 5.72399,1.17891 5.72398,1.17892 5.72399,1.17892 5.72398,1.17892 5.72399,1.17891 5.72398,1.17892 5.72399,1.17892 5.72399,1.17892 5.72398,1.17892 5.72399,1.17891 5.72398,1.17892 5.72399,1.17892 5.72398,1.17892 5.72399,1.17891 5.72398,1.17892 5.72399,1.17892 5.72399,1.17892 5.72398,1.17892 5.72399,1.17891 5.72398,1.17892 5.72399,1.17892 5.72398,1.17892 5.72399,1.17892 5.72398,1.17891 5.72399,1.17892 5.72399,1.17892 5.72398,1.17892 5.72399,1.17891 5.72398,1.17892 5.72399,1.17892 5.72398,1.17892 5.72399,1.17892 5.72398,1.17891 5.72399,1.17892 5.72399,1.17892 5.72398,1.17892 5.72399,1.17892 5.72398,1.17891 5.72399,1.17892 5.72398,1.17892 5.72399,1.17892 5.72399,1.17891 5.72398,1.17892 5.72399,1.17892 5.72398,1.17892 5.72399,1.17892 5.72398,1.17891 5.72399,1.17892 5.72398,1.17892 5.72399,1.17892 5.72399,1.17892 5.72398,1.17891 5.72399,1.17892 5.72398,1.17892 5.72399,1.17892 5.72398,1.17892 5.72399,1.17891 5.72398,1.17892 5.72397,1.17892 5.724,1.17892 5.724,1.17891 5.724,1.17892 5.724,1.17892 5.7239,1.17892 5.724,1.17892 5.724,1.17891 5.724,1.17892 5.724,1.17892 5.724,1.17892 5.724,1.17891 5.7239,1.17892 5.724,1.17892 5.724,1.17892 5.724,1.17892 5.724,1.17891 5.724,1.17892 5.724,1.17892 5.7239,1.17892 5.724,1.17891 5.724,1.17892 5.724,1.17892 5.724,1.17892 5.724,1.17892 5.724,1.17891 5.7239,1.17892 5.724,1.17892 5.724,1.17892 5.724,1.17891 5.724,1.17892 5.724,1.17892 5.724,1.17892 5.7239,1.17892 5.724,1.17891 5.724,1.17892 5.724,1.17892 5.724,1.17892 5.724,1.17892 5.724,1.17891 5.7239,1.17892 5.724,1.17892 5.724,1.17892 5.724,1.17892 5.724,1.17891 5.724,1.17892 5.724,1.17892 5.7239,1.17892 5.724,1.17891 5.724,1.17892 5.724,1.17892 5.724,1.17892 5.724,1.17891 5.724,1.17892 5.7239,1.17892 5.724,1.17892 5.724,1.17892 5.724,1.17891 5.724,1.17892 5.724,1.17892 5.724,1.17892 5.7239,1.17892 5.724,1.17891 5.724,1.17892 5.724,1.17892 5.724,1.17892 5.724,1.17891 5.724,1.17892 5.7239,1.17892 5.724,1.17892 5.724,1.17892 5.724,1.17891 5.724,1.17892 5.724,1.17892 5.724,1.17892 5.7239,1.17892 5.724,1.17891 5.724,1.17892 5.724,1.17892 5.724,1.17892 5.724,1.17891 5.724,1.17892 5.7239,1.17892 5.724,1.17892 5.724,1.17892 5.724,1.17891 5.724,1.17892 5.724,1.17892 5.724,1.17892 5.7239,1.17891 5.724,1.17892 5.724,1.17892 5.724,1.17892 5.724,1.17892 5.724,1.17891 5.7239,1.17892 5.724,1.17892 5.724,1.17892 5.724,1.17892 5.724,1.17891 5.724,1.17892 5.724,1.17892 5.7239,1.17892 5.724,1.17891 5.724,1.17892 5.724,1.17892 5.724,1.17892 5.724,1.17892 5.724,1.17891 5.7239,1.17892 5.724,1.17892 5.724,1.17892 5.724,1.17892 5.724,1.17891 5.724,1.17892 5.724,1.17892 5.7239,1.17892 5.724,1.17891 5.724,1.17892 5.724,1.17892 5.724,1.17892 5.724,1.17892 5.724,1.17891 5.7239,1.17892 5.724,1.17892 5.724,1.17892 5.724,1.17892 5.724,1.17891 5.724,1.17892 5.724,1.17892 5.7239,1.17892 5.724,1.17891 5.724,1.17892 5.724,1.17892 5.724,1.17892 5.724,1.17892 5.724,1.17891 5.7239,1.17892 5.724,1.17892 5.724,1.17892 5.724,1.17891 5.724,1.17892 5.724,1.17892 5.724,1.17892 5.7239,1.17892 5.724,1.17891 5.724,1.17892 5.724,1.17892 5.724,1.17892 5.724,1.17892 5.724,1.17891 5.7239,1.17892 5.724,1.17892 5.724,1.17892 5.724,1.17891 5.724,1.17892 5.724,1.17892 5.724,1.17892 5.7239,1.17892 5.724,1.17891 5.724,1.17892 5.724,1.17892 5.724,1.17892 5.724,1.17892 5.724,1.17891 5.7239,1.17892 5.724,1.17892 5.724,1.17892 5.724,1.17891 5.724,1.17892 5.724,1.17892 5.724,1.17892 5.7239,1.17892 5.724,1.17891 5.724,1.17892 5.724,1.17892 5.724,1.17892 5.724,1.17891 5.724,1.17892 5.7239,1.17892 5.724,1.17892 5.724,1.17892 5.724,1.17891 5.724,1.17892 5.724,1.17892 5.724,1.17892 5.7239,1.17891 5.724,1.17892 5.724,1.17892 5.724,1.17892 5.724,1.17892 5.724,1.17891 5.7239,1.17892 5.724,1.17892 5.724,1.17892 5.724,1.17892 5.724,1.17891 5.724,1.17892 5.724,1.17892 5.7239,1.17892 5.724,1.17892 5.724,1.17891 5.724,1.17892 5.724,1.17892 5.724,1.17892 5.724,1.17891 5.7239,1.17892 5.724,1.17892 5.724,1.17892 5.724,1.17892 5.724,1.17891 5.724,1.17892 5.724,1.17892 5.7239,1.17892 5.724,1.17891 5.724,1.17892 5.724,1.17892 5.724,1.17892 5.724,1.17892 5.724,1.17891 5.7239,1.17892 5.724,1.17892 5.724,1.17892 5.724,1.17892 5.724,1.17891 5.724,1.17892 5.724,1.17892 5.7239,1.17892 5.724,1.17892 5.724,1.17891 5.724,1.17892 5.724,1.17892 5.724,1.17892 5.724,1.17891 5.7239,1.17892 5.724,1.17892 5.724,1.17892 5.724,1.17892 5.724,1.17891 5.724,1.17892 5.724,1.17892 5.7239,1.17892 5.724,1.17891 5.724,1.17892 5.724,1.17892 5.724,1.17892 5.724,1.17892 5.724,1.17891 5.7239,1.17892 5.724,1.17892 5.724,1.17892 5.724,1.17892 5.724,1.17891 5.724,1.17892 5.724,1.17892 5.7239,1.17892 5.724,1.17891 5.724,1.17892 5.724,1.17892 5.724,1.17892 5.724,1.17892 5.724,1.17891 5.7239,1.17892 5.724,1.17892 5.724,1.17892 5.724,1.17891 5.724,1.17892 5.724,1.17892 5.724,1.17892 5.7239,1.17892 5.724,1.17891 5.724,1.17892 5.724,1.17892 5.724,1.17892 5.724,1.17891 5.724,1.17892 5.7239,1.17892 5.724,1.17892 5.724,1.17892 5.724,1.17891 5.724,1.17892 5.724,1.17892 5.724,1.17892 5.7239,1.17892 5.724,1.17891 5.724,1.17892 5.724,1.17892 5.724,1.17892 5.724,1.17891 5.724,1.17892 5.7239,1.17892 5.724,1.17892 5.724,1.17892 5.724,1.17891 5.724,1.17892 5.724,1.17892 5.7239,1.17892 5.724,1.17891 5.724,1.17892 5.724,1.17892 5.724,1.17892 5.724,1.17892 5.724,1.17891 5.7239,1.17892 5.724,1.17892 5.724,1.17892 5.724,1.17892 5.724,1.17891 5.724,1.17892 5.724,1.17892 5.7239,1.17892 5.724,1.17891 5.724,1.17892 5.724,1.17892 5.724,1.17892 5.724,1.17892 5.724,1.17891 5.7239,1.17892 5.724,1.17892 5.724,1.17892 5.724,1.17891 5.724,1.17892 5.724,1.17892 5.724,1.17892 5.7239,1.17892 5.724,1.17891 5.724,1.17892 5.724,1.17892 5.724,1.17892 5.724,1.17892 5.724,1.17891 5.7239,1.17892 5.724,1.17892 5.724,1.17892 5.724,1.17892 5.724,1.17891 5.724,1.17892 5.724,1.17892 5.7239,1.17892 5.724,1.17891 5.724,1.17892 5.724,1.17892 v 653.6444 0 l -5.724,-2.4888 -5.724,-2.4888 -5.724,-2.4888 -5.7239,-2.4889 -5.724,-2.4888 -5.724,-2.4888 -5.724,-2.4888 -5.724,-2.4889 -5.724,-2.4888 -5.724,-2.4888 -5.7239,-2.4888 -5.724,-2.4889 -5.724,-2.4888 -5.724,-2.4888 -5.724,-2.4889 -5.724,-2.4888 -5.724,-2.4888 -5.7239,-2.4888 -5.724,-2.4889 -5.724,-2.4888 -5.724,-2.4888 -5.724,-2.4888 -5.724,-2.4889 -5.724,-2.4888 -5.7239,-2.4888 -5.724,-2.4888 -5.724,-2.4889 -5.724,-2.4888 -5.724,-2.4888 -5.724,-2.4889 -5.724,-2.4888 -5.7239,-2.4888 -5.724,-2.4888 -5.724,-2.4889 -5.724,-2.4888 -5.724,-2.4888 -5.724,-2.4888 -5.724,-2.4889 -5.7239,-2.4888 -5.724,-2.4888 -5.724,-2.4888 -5.724,-2.4889 -5.724,-2.4888 -5.724,-2.4888 -5.724,-2.4888 -5.7239,-2.4889 -5.724,-2.4888 -5.724,-2.4888 -5.724,-2.4889 -5.724,-2.4888 -5.724,-2.4888 -5.7239,-2.4888 -5.724,-2.4889 -5.724,-2.4888 -5.724,-2.4888 -5.724,-2.4888 -5.724,-2.4889 -5.724,-2.4888 -5.7239,-2.4888 -5.724,-2.4888 -5.724,-2.4889 -5.724,-2.4888 -5.724,-2.4888 -5.724,-2.4889 -5.724,-2.4888 -5.7239,-2.4888 -5.724,-2.4888 -5.724,-2.4889 -5.724,-2.4888 -5.724,-2.4888 -5.724,-2.4888 -5.724,-2.4889 -5.7239,-2.4888 -5.724,-2.4888 -5.724,-2.4888 -5.724,-2.4889 -5.724,-2.4888 -5.724,-2.4888 -5.724,-2.4889 -5.7239,-2.4888 -5.724,-2.4888 -5.724,-2.4888 -5.724,-2.4889 -5.724,-2.4888 -5.724,-2.4888 -5.724,-2.4888 -5.7239,-2.4889 -5.724,-2.4888 -5.724,-2.4888 -5.724,-2.4888 -5.724,-2.4889 -5.724,-2.4888 -5.724,-2.4888 -5.7239,-2.4889 -5.724,-2.4888 -5.724,-2.4888 -5.724,-2.4888 -5.724,-2.4889 -5.724,-2.4888 -5.724,-2.4888 -5.7239,-2.4888 -5.724,-2.4889 -5.724,-2.4888 -5.724,-2.4888 -5.724,-2.4888 -5.724,-2.4889 -5.724,-2.4888 -5.7239,-2.4888 -5.724,-2.4888 -5.724,-2.4889 -5.724,-2.4888 -5.724,-2.4888 -5.724,-2.4889 -5.724,-2.4888 -5.7239,-2.4888 -5.724,-2.4888 -5.724,-2.4889 -5.724,-2.4888 -5.724,-2.4888 -5.724,-2.4888 -5.724,-2.4889 -5.7239,-2.4888 -5.724,-2.4888 -5.724,-2.4888 -5.724,-2.4889 -5.724,-2.4888 -5.724,-2.4888 -5.724,-2.4889 -5.7239,-2.4888 -5.724,-2.4888 -5.724,-2.48883 -5.724,-2.48883 -5.724,-2.48883 -5.724,-2.48882 -5.724,-2.48883 -5.7239,-2.48883 -5.724,-2.48882 -5.724,-2.48883 -5.724,-2.48883 -5.724,-2.48882 -5.724,-2.48883 -5.724,-2.48882 -5.7239,-2.48883 -5.724,-2.48883 -5.724,-2.48882 -5.724,-2.48883 -5.724,-2.48883 -5.724,-2.48882 -5.724,-2.48883 -5.7239,-2.48883 -5.724,-2.48882 -5.724,-2.48883 -5.724,-2.48883 -5.724,-2.48882 -5.724,-2.48883 -5.7239,-2.48883 -5.724,-2.48882 -5.724,-2.48883 -5.724,-2.48883 -5.724,-2.48882 -5.724,-2.48883 -5.724,-2.48883 -5.7239,-2.48882 -5.724,-2.48883 -5.724,-2.48882 -5.724,-2.48883 -5.724,-2.48883 -5.724,-2.48883 -5.724,-2.48882 -5.7239,-2.48883 -5.724,-2.48882 -5.724,-2.48883 -5.724,-2.48883 -5.724,-2.48882 -5.724,-2.48883 -5.724,-2.48883 -5.7239,-2.48882 -5.724,-2.48883 -5.724,-2.48883 -5.724,-2.48882 -5.724,-2.48883 -5.724,-2.48883 -5.724,-2.48882 -5.7239,-2.48883 -5.724,-2.48883 -5.724,-2.48882 -5.724,-2.48883 -5.724,-2.48883 -5.724,-2.48882 -5.724,-2.48883 -5.7239,-2.48882 -5.724,-2.48883 -5.724,-2.48883 -5.724,-2.48882 -5.724,-2.48883 -5.724,-2.48883 -5.724,-2.48882 -5.7239,-2.48883 -5.724,-2.48883 -5.724,-2.48882 -5.724,-2.48883 -5.724,-2.48883 -5.724,-2.48882 -5.724,-2.48883 -5.7239,-2.48883 -5.724,-2.48882 -5.724,-2.48883 -5.724,-2.48883 -5.724,-2.48882 -5.724,-2.48883 -5.724,-2.48883 -5.7239,-2.48882 -5.724,-2.48883 -5.724,-2.48883 -5.724,-2.48882 -5.724,-2.48883 -5.724,-2.48883 -5.724,-2.48882 -5.7239,-2.48883 -5.724,-2.48883 -5.724,-2.48882 -5.724,-2.48883 -5.724,-2.48882 -5.724,-2.48883 -5.724,-2.48883 -5.7239,-2.48882 -5.724,-2.48883 -5.724,-2.48883 -5.724,-2.48882 -5.724,-2.48883 -5.724,-2.48883 -5.724,-2.48882 -5.7239,-2.48883 -5.724,-2.48883 -5.724,-2.48882 -5.724,-2.48883 -5.724,-2.48883 -5.724,-2.48882 -5.724,-2.48883 -5.7239,-2.48883 -5.724,-2.48882 -5.724,-2.48883 -5.724,-2.48883 -5.724,-2.48882 -5.724,-2.48883 -5.724,-2.48883 -5.7239,-2.48882 -5.724,-2.48883 -5.724,-2.48882 -5.724,-2.48883 -5.724,-2.48883 -5.724,-2.48882 -5.7239,-2.48883 -5.724,-2.48883 -5.724,-2.48882 -5.724,-2.48883 -5.724,-2.48883 -5.724,-2.48882 -5.724,-2.48883 -5.7239,-2.48883 -5.724,-2.48882 -5.724,-2.48883 -5.724,-2.48883 -5.724,-2.48882 -5.724,-2.48883 -5.724,-2.48883 -5.7239,-2.48882 -5.724,-2.48883 -5.724,-2.48883 -5.724,-2.48882 -5.724,-2.48883 -5.724,-2.48883 -5.724,-2.48882 -5.7239,-2.48883 -5.724,-2.48883 -5.724,-2.48882 -5.724,-2.48883 -5.724,-2.48882 -5.724,-2.48883 -5.724,-2.48883 -5.7239,-2.48882 -5.724,-2.48883 -5.724,-2.48883 -5.724,-2.48882 -5.724,-2.48883 -5.724,-2.48883 -5.724,-2.48882 -5.7239,-2.48883 -5.724,-2.48883 -5.724,-2.48882 -5.724,-2.48883 -5.724,-2.48883 -5.724,-2.48882 -5.724,-2.48883 -5.7239,-2.48883 -5.724,-2.48882 -5.724,-2.48883 -5.724,-2.48883 -5.724,-2.48882 -5.724,-2.48883 -5.724,-2.48882 -5.7239,-2.48883 -5.724,-2.48883 -5.724,-2.48882 -5.724,-2.48883 -5.724,-2.48883 -5.724,-2.48882 -5.724,-2.48883 -5.7239,-2.48883 -5.724,-2.48882 -5.724,-2.48883 -5.724,-2.48883 -5.724,-2.48882 -5.724,-2.48883 -5.724,-2.48883 -5.7239,-2.48882 -5.724,-2.48883 -5.724,-2.48883 -5.724,-2.48882 -5.724,-2.48883 -5.724,-2.48883 -5.724,-2.48882 -5.7239,-2.48883 -5.724,-2.48883 -5.724,-2.48882 -5.724,-2.48883 -5.724,-2.48883 -5.724,-2.48882 -5.724,-2.48883 -5.7239,-2.48882 -5.724,-2.48883 -5.724,-2.48883 -5.724,-2.48882 -5.724,-2.48883 -5.724,-2.48883 -5.724,-2.48882 -5.7239,-2.48883 -5.724,-2.48883 -5.724,-2.48882 -5.724,-2.48883 -5.724,-2.48883 -5.72397,-2.48882 -5.72398,-2.48883 -5.72399,-2.48883 -5.72398,-2.48882 -5.72399,-2.48883 -5.72398,-2.48883 -5.72399,-2.48882 -5.72398,-2.48883 -5.72399,-2.48883 -5.72399,-2.48882 -5.72398,-2.48883 -5.72399,-2.48883 -5.72398,-2.48882 -5.72399,-2.48883 -5.72398,-2.48882 -5.72399,-2.48883 -5.72398,-2.48883 -5.72399,-2.48882 -5.72399,-2.48883 -5.72398,-2.48883 -5.72399,-2.48882 -5.72398,-2.48883 -5.72399,-2.48883 -5.72398,-2.48882 -5.72399,-2.48883 -5.72399,-2.48883 -5.72398,-2.48882 -5.72399,-2.48883 -5.72398,-2.48883 -5.72399,-2.48882 -5.72398,-2.48883 -5.72399,-2.48883 -5.72398,-2.48882 -5.72399,-2.48883 -5.72399,-2.48882 -5.72398,-2.48883 -5.72399,-2.48883 -5.72398,-2.48883 -5.72399,-2.48882 -5.72398,-2.48883 -5.72399,-2.48883 -5.72398,-2.48882 -5.72399,-2.48883 -5.72399,-2.48882 -5.72398,-2.48883 -5.72399,-2.48883 -5.72398,-2.48882 -5.72399,-2.48883 -5.72398,-2.48883 -5.72399,-2.48882 -5.72398,-2.48883 -5.72399,-2.48883 -5.72399,-2.48882 -5.72398,-2.48883 -5.72399,-2.48883 -5.72398,-2.48882 -5.72399,-2.48883 -5.72398,-2.48883 -5.72399,-2.48882 -5.72398,-2.48883 -5.72399,-2.48883 -5.72398,-2.48882 -5.72399,-2.48883 -5.72399,-2.48883 -5.72398,-2.48882 -5.72399,-2.48883 -5.72398,-2.48883 -5.72399,-2.48882 -5.72398,-2.48883 -5.72399,-2.48882 -5.72398,-2.48883 -5.72399,-2.48883 -5.72399,-2.48882 -5.72398,-2.48883 -5.72399,-2.48883 -5.72398,-2.48882 -5.72399,-2.48883 -5.72398,-2.48883 -5.72399,-2.48882 -5.72399,-2.48883 -5.72398,-2.48883 -5.72399,-2.48882 -5.72398,-2.48883 -5.72399,-2.48883 -5.72398,-2.48882 -5.72399,-2.48883 -5.72398,-2.48883 -5.72399,-2.48882 -5.72399,-2.48883 -5.72398,-2.48883 -5.72399,-2.48882 -5.72398,-2.48883 -5.72399,-2.48883 -5.72398,-2.48882 -5.72399,-2.48883 -5.72399,-2.48882 -5.72398,-2.48883 -5.72399,-2.48883 -5.72398,-2.48882 -5.72399,-2.48883 -5.72398,-2.48883 -5.72399,-2.48882 -5.72398,-2.48883 -5.72399,-2.48883 -5.72399,-2.48882 -5.72398,-2.48883 -5.72399,-2.48883 -5.72398,-2.48882 -5.72399,-2.48883 -5.72398,-2.48883 -5.72399,-2.48882 -5.72398,-2.48883 -5.72399,-2.48883 -5.72398,-2.48882 -5.72399,-2.48883 -5.72399,-2.48883 -5.72398,-2.48882 -5.72399,-2.48883 -5.72398,-2.48883 -5.72399,-2.48882 -5.72398,-2.48883 -5.72399,-2.48882 -5.72399,-2.48883 -5.72398,-2.48883 -5.72399,-2.48882 -5.72398,-2.48883 -5.72399,-2.48883 -5.72398,-2.48882 -5.72399,-2.48883 -5.72398,-2.48883 -5.72399,-2.48882 -5.72399,-2.48883 -5.72398,-2.48883 -5.72399,-2.48882 -5.72398,-2.48883 -5.72399,-2.48883 -5.72398,-2.48882 -5.72399,-2.48883 -5.72398,-2.48883 -5.72399,-2.48882 -5.72399,-2.48883 -5.72398,-2.48882 -5.72399,-2.48883 -5.72398,-2.48883 -5.72399,-2.48883 -5.72398,-2.48882 -5.72399,-2.48883 -5.72398,-2.48882 -5.72399,-2.48883 -5.72399,-2.48883 -5.72398,-2.488824 -5.72399,-2.488827 -5.72398,-2.488826 -5.72399,-2.488827 -5.72398,-2.488826 -5.72399,-2.488827 -5.72398,-2.488826 z"
       style="fill:#87ceeb;fill-opacity:0.25;fill-rule:nonzero;stroke:#87ceeb;stroke-width:1;stroke-linecap:butt;stroke-linejoin:round;stroke-miterlimit:10;stroke-dasharray:none;stroke-opacity:0.25"
       transform="matrix(1.3333333,0,0,-1.3333333,0,916.8)"
       clip-path="url(#clipPath4)" />
    <path
       id="path5"
       d="m 99.792,82.512 v -3.5"
       style="fill:#000000;fill-opacity:1;fill-rule:nonzero;stroke:#000000;stroke-width:0.8;stroke-linecap:butt;stroke-linejoin:round;stroke-miterlimit:10;stroke-dasharray:none;stroke-opacity:1"
       transform="matrix(1.3333333,0,0,-1.3333333,0,916.8)" />
    <text
       id="text5"
       xml:space="preserve"
       transform="matrix(1.3333333,0,0,1.3333333,84.160167,862.7215)"><tspan
         style="font-variant:normal;font-weight:normal;font-size:46.08px;font-family:'DejaVu Sans';writing-mode:lr-tb;fill:#000000;fill-opacity:1;fill-rule:nonzero;stroke:none"
         x="0 29.306881 43.96032"
         y="0"
         sodipodi:role="line"
         id="tspan5">0.0</tspan></text>
    <path
       id="path6"
       d="m 263.00736,82.512 v -3.5"
       style="fill:#000000;fill-opacity:1;fill-rule:nonzero;stroke:#000000;stroke-width:0.8;stroke-linecap:butt;stroke-linejoin:round;stroke-miterlimit:10;stroke-dasharray:none;stroke-opacity:1"
       transform="matrix(1.3333333,0,0,-1.3333333,0,916.8)" />
    <text
       id="text6"
       xml:space="preserve"
       transform="matrix(1.3333333,0,0,1.3333333,301.78065,862.7215)"><tspan
         style="font-variant:normal;font-weight:normal;font-size:46.08px;font-family:'DejaVu Sans';writing-mode:lr-tb;fill:#000000;fill-opacity:1;fill-rule:nonzero;stroke:none"
         x="0 29.306881 43.96032"
         y="0"
         sodipodi:role="line"
         id="tspan6">0.2</tspan></text>
    <path
       id="path7"
       d="m 426.22272,82.512 v -3.5"
       style="fill:#000000;fill-opacity:1;fill-rule:nonzero;stroke:#000000;stroke-width:0.8;stroke-linecap:butt;stroke-linejoin:round;stroke-miterlimit:10;stroke-dasharray:none;stroke-opacity:1"
       transform="matrix(1.3333333,0,0,-1.3333333,0,916.8)" />
    <text
       id="text7"
       xml:space="preserve"
       transform="matrix(1.3333333,0,0,1.3333333,519.40113,862.7215)"><tspan
         style="font-variant:normal;font-weight:normal;font-size:46.08px;font-family:'DejaVu Sans';writing-mode:lr-tb;fill:#000000;fill-opacity:1;fill-rule:nonzero;stroke:none"
         x="0 29.306881 43.96032"
         y="0"
         sodipodi:role="line"
         id="tspan7">0.4</tspan></text>
    <path
       id="path8"
       d="m 589.43808,82.512 v -3.5"
       style="fill:#000000;fill-opacity:1;fill-rule:nonzero;stroke:#000000;stroke-width:0.8;stroke-linecap:butt;stroke-linejoin:round;stroke-miterlimit:10;stroke-dasharray:none;stroke-opacity:1"
       transform="matrix(1.3333333,0,0,-1.3333333,0,916.8)" />
    <text
       id="text8"
       xml:space="preserve"
       transform="matrix(1.3333333,0,0,1.3333333,737.02161,862.7215)"><tspan
         style="font-variant:normal;font-weight:normal;font-size:46.08px;font-family:'DejaVu Sans';writing-mode:lr-tb;fill:#000000;fill-opacity:1;fill-rule:nonzero;stroke:none"
         x="0 29.306881 43.96032"
         y="0"
         sodipodi:role="line"
         id="tspan8">0.6</tspan></text>
    <path
       id="path9"
       d="m 752.65344,82.512 v -3.5"
       style="fill:#000000;fill-opacity:1;fill-rule:nonzero;stroke:#000000;stroke-width:0.8;stroke-linecap:butt;stroke-linejoin:round;stroke-miterlimit:10;stroke-dasharray:none;stroke-opacity:1"
       transform="matrix(1.3333333,0,0,-1.3333333,0,916.8)" />
    <text
       id="text9"
       xml:space="preserve"
       transform="matrix(1.3333333,0,0,1.3333333,954.64209,862.7215)"><tspan
         style="font-variant:normal;font-weight:normal;font-size:46.08px;font-family:'DejaVu Sans';writing-mode:lr-tb;fill:#000000;fill-opacity:1;fill-rule:nonzero;stroke:none"
         x="0 29.306881 43.96032"
         y="0"
         sodipodi:role="line"
         id="tspan9">0.8</tspan></text>
    <path
       id="path10"
       d="m 915.8688,82.512 v -3.5"
       style="fill:#000000;fill-opacity:1;fill-rule:nonzero;stroke:#000000;stroke-width:0.8;stroke-linecap:butt;stroke-linejoin:round;stroke-miterlimit:10;stroke-dasharray:none;stroke-opacity:1"
       transform="matrix(1.3333333,0,0,-1.3333333,0,916.8)" />
    <text
       id="text10"
       xml:space="preserve"
       transform="matrix(1.3333333,0,0,1.3333333,1172.2626,862.7215)"><tspan
         style="font-variant:normal;font-weight:normal;font-size:46.08px;font-family:'DejaVu Sans';writing-mode:lr-tb;fill:#000000;fill-opacity:1;fill-rule:nonzero;stroke:none"
         x="0 29.306881 43.96032"
         y="0"
         sodipodi:role="line"
         id="tspan10">1.0</tspan></text>
    <path
       id="path11"
       d="m 1079.0842,82.512 v -3.5"
       style="fill:#000000;fill-opacity:1;fill-rule:nonzero;stroke:#000000;stroke-width:0.8;stroke-linecap:butt;stroke-linejoin:round;stroke-miterlimit:10;stroke-dasharray:none;stroke-opacity:1"
       transform="matrix(1.3333333,0,0,-1.3333333,0,916.8)" />
    <text
       id="text11"
       xml:space="preserve"
       transform="matrix(1.3333333,0,0,1.3333333,1389.883,862.7215)"><tspan
         style="font-variant:normal;font-weight:normal;font-size:46.08px;font-family:'DejaVu Sans';writing-mode:lr-tb;fill:#000000;fill-opacity:1;fill-rule:nonzero;stroke:none"
         x="0 29.306881 43.96032"
         y="0"
         sodipodi:role="line"
         id="tspan11">1.2</tspan></text>
    <path
       id="path12"
       d="m 1242.2995,82.512 v -3.5"
       style="fill:#000000;fill-opacity:1;fill-rule:nonzero;stroke:#000000;stroke-width:0.8;stroke-linecap:butt;stroke-linejoin:round;stroke-miterlimit:10;stroke-dasharray:none;stroke-opacity:1"
       transform="matrix(1.3333333,0,0,-1.3333333,0,916.8)" />
    <text
       id="text12"
       xml:space="preserve"
       transform="matrix(1.3333333,0,0,1.3333333,1607.5035,862.7215)"><tspan
         style="font-variant:normal;font-weight:normal;font-size:46.08px;font-family:'DejaVu Sans';writing-mode:lr-tb;fill:#000000;fill-opacity:1;fill-rule:nonzero;stroke:none"
         x="0 29.306881 43.96032"
         y="0"
         sodipodi:role="line"
         id="tspan12">1.4</tspan></text>
    <text
       id="text13"
       xml:space="preserve"
       transform="matrix(1.3333333,0,0,1.3333333,935.1328,912.30483)"><tspan
         style="font-style:oblique;font-variant:normal;font-weight:normal;font-size:32px;font-family:'DejaVu Sans';writing-mode:lr-tb;fill:#000000;fill-opacity:1;fill-rule:nonzero;stroke:none"
         x="0"
         y="0"
         id="tspan13">h</tspan></text>
    <path
       id="path13"
       d="m 99.792,82.512 h -3.5"
       style="fill:#000000;fill-opacity:1;fill-rule:nonzero;stroke:#000000;stroke-width:0.8;stroke-linecap:butt;stroke-linejoin:round;stroke-miterlimit:10;stroke-dasharray:none;stroke-opacity:1"
       transform="matrix(1.3333333,0,0,-1.3333333,0,916.8)" />
    <text
       id="text14"
       xml:space="preserve"
       x="84.597664"
       y="802.08606"
       style="font-size:16px;stroke-width:1.33333"><tspan
         style="font-variant:normal;font-weight:normal;font-size:61.44px;font-family:'DejaVu Sans';writing-mode:lr-tb;fill:#000000;fill-opacity:1;fill-rule:nonzero;stroke:none;stroke-width:1.33333"
         x="84.597664"
         y="802.08606"
         id="tspan14">0</tspan></text>
    <path
       id="path14"
       d="m 99.792,216.976 h -3.5"
       style="fill:#000000;fill-opacity:1;fill-rule:nonzero;stroke:#000000;stroke-width:0.8;stroke-linecap:butt;stroke-linejoin:round;stroke-miterlimit:10;stroke-dasharray:none;stroke-opacity:1"
       transform="matrix(1.3333333,0,0,-1.3333333,0,916.8)" />
    <text
       id="text15"
       xml:space="preserve"
       transform="matrix(1.3333333,0,0,1.3333333,45.472667,650.80075)"><tspan
         style="font-variant:normal;font-weight:normal;font-size:46.08px;font-family:'DejaVu Sans';writing-mode:lr-tb;fill:#000000;fill-opacity:1;fill-rule:nonzero;stroke:none"
         x="0 29.306881"
         y="0"
         sodipodi:role="line"
         id="tspan15">20</tspan></text>
    <path
       id="path15"
       d="m 99.792,351.44 h -3.5"
       style="fill:#000000;fill-opacity:1;fill-rule:nonzero;stroke:#000000;stroke-width:0.8;stroke-linecap:butt;stroke-linejoin:round;stroke-miterlimit:10;stroke-dasharray:none;stroke-opacity:1"
       transform="matrix(1.3333333,0,0,-1.3333333,0,916.8)" />
    <text
       id="text16"
       xml:space="preserve"
       transform="matrix(1.3333333,0,0,1.3333333,45.472667,471.51542)"><tspan
         style="font-variant:normal;font-weight:normal;font-size:46.08px;font-family:'DejaVu Sans';writing-mode:lr-tb;fill:#000000;fill-opacity:1;fill-rule:nonzero;stroke:none"
         x="0 29.306881"
         y="0"
         sodipodi:role="line"
         id="tspan16">40</tspan></text>
    <path
       id="path16"
       d="m 99.792,485.904 h -3.5"
       style="fill:#000000;fill-opacity:1;fill-rule:nonzero;stroke:#000000;stroke-width:0.8;stroke-linecap:butt;stroke-linejoin:round;stroke-miterlimit:10;stroke-dasharray:none;stroke-opacity:1"
       transform="matrix(1.3333333,0,0,-1.3333333,0,916.8)" />
    <text
       id="text17"
       xml:space="preserve"
       transform="matrix(1.3333333,0,0,1.3333333,45.472667,292.23008)"><tspan
         style="font-variant:normal;font-weight:normal;font-size:46.08px;font-family:'DejaVu Sans';writing-mode:lr-tb;fill:#000000;fill-opacity:1;fill-rule:nonzero;stroke:none"
         x="0 29.306881"
         y="0"
         sodipodi:role="line"
         id="tspan17">60</tspan></text>
    <path
       id="path17"
       d="m 99.792,620.368 h -3.5"
       style="fill:#000000;fill-opacity:1;fill-rule:nonzero;stroke:#000000;stroke-width:0.8;stroke-linecap:butt;stroke-linejoin:round;stroke-miterlimit:10;stroke-dasharray:none;stroke-opacity:1"
       transform="matrix(1.3333333,0,0,-1.3333333,0,916.8)" />
    <text
       id="text18"
       xml:space="preserve"
       transform="matrix(1.3333333,0,0,1.3333333,45.472667,112.94475)"><tspan
         style="font-variant:normal;font-weight:normal;font-size:46.08px;font-family:'DejaVu Sans';writing-mode:lr-tb;fill:#000000;fill-opacity:1;fill-rule:nonzero;stroke:none"
         x="0 29.306881"
         y="0"
         sodipodi:role="line"
         id="tspan18">80</tspan></text>
    <text
       id="text19"
       xml:space="preserve"
       transform="rotate(-90)"
       x="-461.392"
       y="36.347668"
       style="font-size:16px;stroke-width:1.33333"><tspan
         style="font-style:oblique;font-variant:normal;font-weight:normal;font-size:42.6667px;font-family:'DejaVu Sans';writing-mode:lr-tb;fill:#000000;fill-opacity:1;fill-rule:nonzero;stroke:none;stroke-width:1.33333"
         x="-461.392"
         y="36.347668"
         id="tspan19">d</tspan><tspan
         style="font-variant:normal;font-weight:normal;font-size:42.6667px;font-family:'DejaVu Sans';writing-mode:lr-tb;fill:#000000;fill-opacity:1;fill-rule:nonzero;stroke:none;stroke-width:1.33333"
         x="-434.30865 -420.74615 -404.10034 -362.53784"
         y="36.347668"
         sodipodi:role="line"
         id="tspan20"> [m]</tspan></text>
    <path
       id="path20"
       d="M 99.792,82.512 1331.56,336.20818 v 0"
       style="fill:none;stroke:#708090;stroke-width:10;stroke-linecap:square;stroke-linejoin:round;stroke-miterlimit:10;stroke-dasharray:none;stroke-opacity:1"
       transform="matrix(1.3333333,0,0,-1.3333333,0,916.8)"
       clip-path="url(#clipPath21)" />
    <path
       id="path22"
       d="M 99.792,82.512 1331.56,618.09282 v 0"
       style="fill:none;stroke:#000080;stroke-width:10;stroke-linecap:square;stroke-linejoin:round;stroke-miterlimit:10;stroke-dasharray:none;stroke-opacity:1"
       transform="matrix(1.3333333,0,0,-1.3333333,0,916.8)"
       clip-path="url(#clipPath23)" />
    <path
       id="path24"
       d="m 99.792,247.76602 74.41181,23.95001 74.41181,24.16936 74.41182,24.3887 74.41181,24.60804 74.41181,24.82739 74.41181,25.04674 74.41182,25.26607 74.41181,25.48542 74.41181,25.70477 74.41181,25.92411 74.41182,26.14346 74.41181,26.3628 74.41185,26.58214 74.4118,26.80149 80.1358,29.10845 80.1358,29.36283 29.731,10.95865 v 0"
       style="fill:none;stroke:#6495ed;stroke-width:10;stroke-linecap:square;stroke-linejoin:round;stroke-miterlimit:10;stroke-dasharray:none;stroke-opacity:1"
       transform="matrix(1.3333333,0,0,-1.3333333,0,916.8)"
       clip-path="url(#clipPath25)" />
    <path
       id="path26"
       d="M 99.792,82.512 V 687.6"
       style="fill:none;stroke:#000000;stroke-width:0.8;stroke-linecap:square;stroke-linejoin:miter;stroke-miterlimit:10;stroke-dasharray:none;stroke-opacity:1"
       transform="matrix(1.3333333,0,0,-1.3333333,0,916.8)" />
    <path
       id="path27"
       d="M 1323.9072,82.512 V 687.6"
       style="fill:none;stroke:#000000;stroke-width:0.8;stroke-linecap:square;stroke-linejoin:miter;stroke-miterlimit:10;stroke-dasharray:none;stroke-opacity:1"
       transform="matrix(1.3333333,0,0,-1.3333333,0,916.8)" />
    <path
       id="path28"
       d="M 99.792,82.512 H 1323.9072"
       style="fill:none;stroke:#000000;stroke-width:0.8;stroke-linecap:square;stroke-linejoin:miter;stroke-miterlimit:10;stroke-dasharray:none;stroke-opacity:1"
       transform="matrix(1.3333333,0,0,-1.3333333,0,916.8)" />
    <path
       id="path29"
       d="M 99.792,687.6 H 1323.9072"
       style="fill:none;stroke:#000000;stroke-width:0.8;stroke-linecap:square;stroke-linejoin:miter;stroke-miterlimit:10;stroke-dasharray:none;stroke-opacity:1"
       transform="matrix(1.3333333,0,0,-1.3333333,0,916.8)" />
    <path
       id="path30"
       d="m 152.92266,284.13335 h 824.53332 c 5.68889,0 8.53333,-2.84444 8.53333,-8.53333 V 23.866689 c 0,-5.688893 -2.84444,-8.533333 -8.53333,-8.533333 H 152.92266 c -5.68889,0 -8.53333,2.84444 -8.53333,8.533333 V 275.60002 c 0,5.68889 2.84444,8.53333 8.53333,8.53333 z"
       style="fill:#ffffff;fill-opacity:0.8;fill-rule:nonzero;stroke:#cccccc;stroke-width:1.33333;stroke-linecap:butt;stroke-linejoin:miter;stroke-miterlimit:10;stroke-dasharray:none;stroke-opacity:0.8" />
    <path
       id="path31"
       d="m 161.456,50.800021 h 85.33333"
       style="fill:none;stroke:#708090;stroke-width:13.3333;stroke-linecap:square;stroke-linejoin:round;stroke-miterlimit:10;stroke-dasharray:none;stroke-opacity:1" />
    <text
       id="text31"
       xml:space="preserve"
       x="280.92267"
       y="64.816666"
       style="font-size:16px;stroke-width:1.33333"><tspan
         style="font-style:oblique;font-variant:normal;font-weight:normal;font-size:42.6667px;font-family:'DejaVu Sans';writing-mode:lr-tb;fill:#000000;fill-opacity:1;fill-rule:nonzero;stroke:none;stroke-width:1.33333"
         x="280.92267"
         y="64.816666"
         id="tspan31">d</tspan><tspan
         style="font-variant:normal;font-weight:normal;font-size:42.6667px;font-family:'DejaVu Sans';writing-mode:lr-tb;fill:#000000;fill-opacity:1;fill-rule:nonzero;stroke:none;stroke-width:1.33333"
         x="308.00601 321.56851 357.31851 370.88101 397.96432 424.06851 446.29767 458.15182 474.88101 486.73517 511.98517 538.23517 551.79767 578.88098 605.02686 616.88098 643.92267 666.15186 679.71436 703.17267 729.27686 756.31848 778.54767 795.27679 812.81848 838.96429 850.81848 877.86017"
         y="64.816666"
         sodipodi:role="line"
         id="tspan32"> = positive gains constraint</tspan></text>
    <path
       id="path32"
       d="m 161.456,114.80002 h 85.33333"
       style="fill:none;stroke:#000080;stroke-width:13.3333;stroke-linecap:square;stroke-linejoin:round;stroke-miterlimit:10;stroke-dasharray:none;stroke-opacity:1" />
    <text
       id="text32"
       xml:space="preserve"
       x="280.92267"
       y="128.81667"
       style="font-size:16px;stroke-width:1.33333"><tspan
         style="font-style:oblique;font-variant:normal;font-weight:normal;font-size:42.6667px;font-family:'DejaVu Sans';writing-mode:lr-tb;fill:#000000;fill-opacity:1;fill-rule:nonzero;stroke:none;stroke-width:1.33333"
         x="280.92267"
         y="128.81667"
         id="tspan33">d</tspan><tspan
         style="font-variant:normal;font-weight:normal;font-size:42.6667px;font-family:'DejaVu Sans';writing-mode:lr-tb;fill:#000000;fill-opacity:1;fill-rule:nonzero;stroke:none;stroke-width:1.33333"
         x="308.00601 321.56851 357.31851 370.88101 393.11017 409.83932 427.38101 439.23517 466.27682 493.36017 506.92267 529.15186 545.88098 572.02686 599.11017 610.96436 622.81848 639.54767 664.79767 678.36017 701.81848 727.92267 754.96429 777.19348 793.92267 811.46429 837.61017 849.46429 876.50598"
         y="128.81667"
         sodipodi:role="line"
         id="tspan34"> = string stabilty constraint</tspan></text>
    <path
       id="path34"
       d="m 161.456,178.80002 h 85.33333"
       style="fill:none;stroke:#6495ed;stroke-width:13.3333;stroke-linecap:square;stroke-linejoin:round;stroke-miterlimit:10;stroke-dasharray:none;stroke-opacity:1" />
    <text
       id="text34"
       xml:space="preserve"
       x="280.92267"
       y="192.81667"
       style="font-size:16px;stroke-width:1.33333"><tspan
         style="font-style:oblique;font-variant:normal;font-weight:normal;font-size:42.6667px;font-family:'DejaVu Sans';writing-mode:lr-tb;fill:#000000;fill-opacity:1;fill-rule:nonzero;stroke:none;stroke-width:1.33333"
         x="280.92267"
         y="192.81667"
         id="tspan35">d</tspan><tspan
         style="font-variant:normal;font-weight:normal;font-size:42.6667px;font-family:'DejaVu Sans';writing-mode:lr-tb;fill:#000000;fill-opacity:1;fill-rule:nonzero;stroke:none;stroke-width:1.33333"
         x="308.00601 321.56851 357.31851 370.88101 394.33932 411.88101 423.73517 440.46432 452.31851 475.77682 501.92267 513.77686 525.63098 550.88098 564.44348 591.52686 617.67267 659.23517 686.31848 712.56848 739.65186 753.21429 776.67267 802.77679 829.81848 852.04767 868.77679 886.31848 912.46429 924.31848 951.36017"
         y="192.81667"
         sodipodi:role="line"
         id="tspan36"> = critically damped constraint</tspan></text>
    <path
       id="path36"
       d="m 161.456,257.73335 h 85.33333 V 227.86668 H 161.456 Z"
       style="fill:#87ceeb;fill-opacity:0.25;fill-rule:nonzero;stroke:#87ceeb;stroke-width:1.33333;stroke-linecap:butt;stroke-linejoin:miter;stroke-miterlimit:10;stroke-dasharray:none;stroke-opacity:0.25" />
    <text
       id="text36"
       xml:space="preserve"
       x="280.92267"
       y="256.81668"
       style="font-size:16px;stroke-width:1.33333"><tspan
         style="font-variant:normal;font-weight:normal;font-size:42.6667px;font-family:'DejaVu Sans';writing-mode:lr-tb;fill:#000000;fill-opacity:1;fill-rule:nonzero;stroke:none;stroke-width:1.33333"
         x="280.92267 307.06851 334.15182 375.71432 387.56851 409.79767 432.02682 443.88101 470.96432 482.81851 509.06848"
         y="256.81668"
         sodipodi:role="line"
         id="tspan37">admissible </tspan><tspan
         style="font-style:oblique;font-variant:normal;font-weight:normal;font-size:42.6667px;font-family:'DejaVu Sans';writing-mode:lr-tb;fill:#000000;fill-opacity:1;fill-rule:nonzero;stroke:none;stroke-width:1.33333"
         x="522.63098 602.04767"
         y="256.81668"
         sodipodi:role="line"
         id="tspan38">hd</tspan><tspan
         style="font-variant:normal;font-weight:normal;font-size:42.6667px;font-family:'DejaVu Sans';writing-mode:lr-tb;fill:#000000;fill-opacity:1;fill-rule:nonzero;stroke:none;stroke-width:1.33333"
         x="629.13098 642.69348 660.23517 686.48517 713.56848 725.42267 751.52679"
         y="256.81668"
         sodipodi:role="line"
         id="tspan39"> region</tspan></text>
    <g
       id="g40"
       transform="translate(-10,-6)">
      <path
         d="M 106,355 H 732 V 272 H 106 v 83"
         style="fill:#000000;fill-opacity:1;fill-rule:nonzero;stroke:none"
         transform="matrix(0.04266667,0,0,-0.04266667,567.98517,262.81667)"
         clip-path="url(#clipPath39)"
         id="path40" />
    </g>
  </g>
</svg>
