<?xml version="1.0" encoding="utf-8" standalone="no"?>
<!DOCTYPE svg PUBLIC "-//W3C//DTD SVG 1.1//EN"
  "http://www.w3.org/Graphics/SVG/1.1/DTD/svg11.dtd">
<!-- Created with matplotlib (https://matplotlib.org/) -->
<svg height="466.56pt" version="1.1" viewBox="0 0 1377.36 466.56" width="1377.36pt" xmlns="http://www.w3.org/2000/svg" xmlns:xlink="http://www.w3.org/1999/xlink">
 <defs>
  <style type="text/css">
*{stroke-linecap:butt;stroke-linejoin:round;}
  </style>
 </defs>
 <g id="figure_1">
  <g id="patch_1">
   <path d="M 0 466.56 
L 1377.36 466.56 
L 1377.36 0 
L 0 0 
z
" style="fill:#ffffff;"/>
  </g>
  <g id="axes_1">
   <g id="patch_2">
    <path d="M 71.62272 203.720168 
L 1158.35976 203.720168 
L 1158.35976 22.86144 
L 71.62272 22.86144 
z
" style="fill:#ffffff;"/>
   </g>
   <g id="PolyCollection_1">
    <defs>
     <path d="M 318.334137 -443.69856 
L 318.334137 -262.839832 
L 321.270261 -262.839832 
L 324.228564 -262.839832 
L 327.142161 -262.839832 
L 330.079574 -262.839832 
L 333.01731 -262.839832 
L 335.953161 -262.839832 
L 338.89458 -262.839832 
L 341.828814 -262.839832 
L 344.765366 -262.839832 
L 347.702198 -262.839832 
L 350.639563 -262.839832 
L 353.576108 -262.839832 
L 356.513521 -262.839832 
L 359.450794 -262.839832 
L 362.388019 -262.839832 
L 365.325369 -262.839832 
L 368.26267 -262.839832 
L 371.228613 -262.839832 
L 374.140354 -262.839832 
L 377.074553 -262.839832 
L 380.010909 -262.839832 
L 382.94786 -262.839832 
L 385.885918 -262.839832 
L 388.822701 -262.839832 
L 391.759659 -262.839832 
L 394.697016 -262.839832 
L 397.635956 -262.839832 
L 400.572277 -262.839832 
L 403.506924 -262.839832 
L 406.445276 -262.839832 
L 409.384944 -262.839832 
L 412.320313 -262.839832 
L 415.257859 -262.839832 
L 418.194523 -262.839832 
L 421.132714 -262.839832 
L 424.069945 -262.839832 
L 427.005054 -262.839832 
L 429.942517 -262.839832 
L 432.880581 -262.839832 
L 435.817 -262.839832 
L 438.755576 -262.839832 
L 441.705965 -262.839832 
L 444.629982 -262.839832 
L 447.564826 -262.839832 
L 450.502764 -262.839832 
L 453.440437 -262.839832 
L 456.377556 -262.839832 
L 459.314689 -262.839832 
L 462.251759 -262.839832 
L 465.188892 -262.839832 
L 468.127657 -262.839832 
L 471.064223 -262.839832 
L 474.00018 -262.839832 
L 476.937544 -262.839832 
L 479.874804 -262.839832 
L 482.812119 -262.839832 
L 485.749553 -262.839832 
L 488.686378 -262.839832 
L 491.62466 -262.839832 
L 494.561576 -262.839832 
L 497.497995 -262.839832 
L 500.434127 -262.839832 
L 503.371883 -262.839832 
L 506.309423 -262.839832 
L 509.246556 -262.839832 
L 512.183696 -262.839832 
L 515.121936 -262.839832 
L 518.059048 -262.839832 
L 520.994444 -262.839832 
L 523.932383 -262.839832 
L 526.870518 -262.839832 
L 529.806887 -262.839832 
L 532.743614 -262.839832 
L 535.680944 -262.839832 
L 538.619092 -262.839832 
L 541.560266 -262.839832 
L 544.491923 -262.839832 
L 547.429014 -262.839832 
L 550.36696 -262.839832 
L 553.304065 -262.839832 
L 556.241934 -262.839832 
L 559.178346 -262.839832 
L 562.118651 -262.839832 
L 565.051681 -262.839832 
L 568.002651 -262.839832 
L 570.926941 -262.839832 
L 573.864614 -262.839832 
L 576.801943 -262.839832 
L 579.738355 -262.839832 
L 582.676252 -262.839832 
L 585.614036 -262.839832 
L 588.550672 -262.839832 
L 591.486426 -262.839832 
L 594.423286 -262.839832 
L 597.361469 -262.839832 
L 600.298729 -262.839832 
L 603.236023 -262.839832 
L 606.17345 -262.839832 
L 609.110514 -262.839832 
L 612.047759 -262.839832 
L 614.984626 -262.839832 
L 617.921073 -262.839832 
L 620.865279 -262.839832 
L 623.796278 -262.839832 
L 626.733271 -262.839832 
L 629.670537 -262.839832 
L 632.608679 -262.839832 
L 635.5446 -262.839832 
L 638.480753 -262.839832 
L 641.429448 -262.839832 
L 644.356504 -262.839832 
L 647.293651 -262.839832 
L 650.231709 -262.839832 
L 653.169886 -262.839832 
L 656.105828 -262.839832 
L 659.042387 -262.839832 
L 661.981782 -262.839832 
L 664.91575 -262.839832 
L 667.853563 -262.839832 
L 670.790927 -262.839832 
L 673.728032 -262.839832 
L 676.665327 -262.839832 
L 679.605618 -262.839832 
L 682.538991 -262.839832 
L 685.481166 -262.839832 
L 688.413362 -262.839832 
L 691.350825 -262.839832 
L 694.288434 -262.839832 
L 697.226113 -262.839832 
L 700.162721 -262.839832 
L 703.100632 -262.839832 
L 706.037247 -262.839832 
L 708.972938 -262.839832 
L 711.909182 -262.839832 
L 714.847512 -262.839832 
L 717.785486 -262.839832 
L 720.723004 -262.839832 
L 723.659906 -262.839832 
L 726.597628 -262.839832 
L 729.534649 -262.839832 
L 732.471019 -262.839832 
L 735.407949 -262.839832 
L 738.344809 -262.839832 
L 741.286844 -262.839832 
L 744.220819 -262.839832 
L 747.157651 -262.839832 
L 750.095555 -262.839832 
L 753.032058 -262.839832 
L 755.968631 -262.839832 
L 758.904741 -262.839832 
L 761.842547 -262.839832 
L 764.779435 -262.839832 
L 767.71736 -262.839832 
L 770.670781 -262.839832 
L 773.593923 -262.839832 
L 776.528948 -262.839832 
L 779.46452 -262.839832 
L 782.401401 -262.839832 
L 785.339935 -262.839832 
L 788.277838 -262.839832 
L 791.215441 -262.839832 
L 794.152434 -262.839832 
L 797.089434 -262.839832 
L 800.026686 -262.839832 
L 802.962825 -262.839832 
L 805.909895 -262.839832 
L 808.837484 -262.839832 
L 811.774932 -262.839832 
L 814.71238 -262.839832 
L 817.64992 -262.839832 
L 820.587172 -262.839832 
L 823.525159 -262.839832 
L 826.459555 -262.839832 
L 829.398284 -262.839832 
L 832.335467 -262.839832 
L 835.2726 -262.839832 
L 838.209761 -262.839832 
L 841.14674 -262.839832 
L 844.085372 -262.839832 
L 847.021406 -262.839832 
L 849.958504 -262.839832 
L 852.895644 -262.839832 
L 855.832763 -262.839832 
L 858.770275 -262.839832 
L 861.707303 -262.839832 
L 864.645571 -262.839832 
L 867.582088 -262.839832 
L 870.518682 -262.839832 
L 873.455395 -262.839832 
L 876.393494 -262.839832 
L 879.329836 -262.839832 
L 882.267291 -262.839832 
L 885.204943 -262.839832 
L 888.1423 -262.839832 
L 891.078796 -262.839832 
L 894.01595 -262.839832 
L 896.951893 -262.839832 
L 899.889895 -262.839832 
L 902.826622 -262.839832 
L 905.764889 -262.839832 
L 908.7017 -262.839832 
L 911.639044 -262.839832 
L 914.578397 -262.839832 
L 917.513695 -262.839832 
L 920.449505 -262.839832 
L 923.386001 -262.839832 
L 926.324311 -262.839832 
L 929.262774 -262.839832 
L 932.200062 -262.839832 
L 935.138308 -262.839832 
L 938.073775 -262.839832 
L 941.016069 -262.839832 
L 943.946501 -262.839832 
L 946.892941 -262.839832 
L 949.821782 -262.839832 
L 952.759455 -262.839832 
L 955.697113 -262.839832 
L 958.634492 -262.839832 
L 961.571485 -262.839832 
L 964.508268 -262.839832 
L 967.444561 -262.839832 
L 970.381456 -262.839832 
L 973.322132 -262.839832 
L 976.263782 -262.839832 
L 979.201469 -262.839832 
L 982.131032 -262.839832 
L 985.068144 -262.839832 
L 988.009409 -262.839832 
L 990.942782 -262.839832 
L 993.880608 -262.839832 
L 996.815844 -262.839832 
L 999.753733 -262.839832 
L 1002.692071 -262.839832 
L 1005.628735 -262.839832 
L 1008.566449 -262.839832 
L 1011.503022 -262.839832 
L 1014.453811 -262.839832 
L 1017.378241 -262.839832 
L 1020.315802 -262.839832 
L 1023.25227 -262.839832 
L 1026.189382 -262.839832 
L 1029.125612 -262.839832 
L 1032.063543 -262.839832 
L 1034.999059 -262.839832 
L 1037.936885 -262.839832 
L 1040.87439 -262.839832 
L 1043.811719 -262.839832 
L 1046.749706 -262.839832 
L 1049.686286 -262.839832 
L 1052.622831 -262.839832 
L 1055.560294 -262.839832 
L 1058.499465 -262.839832 
L 1061.435723 -262.839832 
L 1064.371231 -262.839832 
L 1067.308518 -262.839832 
L 1070.246058 -262.839832 
L 1073.183254 -262.839832 
L 1076.12052 -262.839832 
L 1079.058389 -262.839832 
L 1082.00048 -262.839832 
L 1084.932459 -262.839832 
L 1087.869186 -262.839832 
L 1090.806417 -262.839832 
L 1093.744188 -262.839832 
L 1096.680866 -262.839832 
L 1099.619078 -262.839832 
L 1102.555195 -262.839832 
L 1105.490886 -262.839832 
L 1108.429833 -262.839832 
L 1111.36635 -262.839832 
L 1114.303287 -262.839832 
L 1117.247178 -262.839832 
L 1120.178254 -262.839832 
L 1123.11573 -262.839832 
L 1126.052541 -262.839832 
L 1129.003722 -262.839832 
L 1131.927347 -262.839832 
L 1134.862358 -262.839832 
L 1137.800458 -262.839832 
L 1140.737997 -262.839832 
L 1143.674682 -262.839832 
L 1146.612053 -262.839832 
L 1149.580804 -262.839832 
L 1152.487854 -262.839832 
L 1155.42402 -262.839832 
L 1158.35976 -262.839832 
L 1158.35976 -443.69856 
L 1158.35976 -443.69856 
L 1155.42402 -443.69856 
L 1152.487854 -443.69856 
L 1149.580804 -443.69856 
L 1146.612053 -443.69856 
L 1143.674682 -443.69856 
L 1140.737997 -443.69856 
L 1137.800458 -443.69856 
L 1134.862358 -443.69856 
L 1131.927347 -443.69856 
L 1129.003722 -443.69856 
L 1126.052541 -443.69856 
L 1123.11573 -443.69856 
L 1120.178254 -443.69856 
L 1117.247178 -443.69856 
L 1114.303287 -443.69856 
L 1111.36635 -443.69856 
L 1108.429833 -443.69856 
L 1105.490886 -443.69856 
L 1102.555195 -443.69856 
L 1099.619078 -443.69856 
L 1096.680866 -443.69856 
L 1093.744188 -443.69856 
L 1090.806417 -443.69856 
L 1087.869186 -443.69856 
L 1084.932459 -443.69856 
L 1082.00048 -443.69856 
L 1079.058389 -443.69856 
L 1076.12052 -443.69856 
L 1073.183254 -443.69856 
L 1070.246058 -443.69856 
L 1067.308518 -443.69856 
L 1064.371231 -443.69856 
L 1061.435723 -443.69856 
L 1058.499465 -443.69856 
L 1055.560294 -443.69856 
L 1052.622831 -443.69856 
L 1049.686286 -443.69856 
L 1046.749706 -443.69856 
L 1043.811719 -443.69856 
L 1040.87439 -443.69856 
L 1037.936885 -443.69856 
L 1034.999059 -443.69856 
L 1032.063543 -443.69856 
L 1029.125612 -443.69856 
L 1026.189382 -443.69856 
L 1023.25227 -443.69856 
L 1020.315802 -443.69856 
L 1017.378241 -443.69856 
L 1014.453811 -443.69856 
L 1011.503022 -443.69856 
L 1008.566449 -443.69856 
L 1005.628735 -443.69856 
L 1002.692071 -443.69856 
L 999.753733 -443.69856 
L 996.815844 -443.69856 
L 993.880608 -443.69856 
L 990.942782 -443.69856 
L 988.009409 -443.69856 
L 985.068144 -443.69856 
L 982.131032 -443.69856 
L 979.201469 -443.69856 
L 976.263782 -443.69856 
L 973.322132 -443.69856 
L 970.381456 -443.69856 
L 967.444561 -443.69856 
L 964.508268 -443.69856 
L 961.571485 -443.69856 
L 958.634492 -443.69856 
L 955.697113 -443.69856 
L 952.759455 -443.69856 
L 949.821782 -443.69856 
L 946.892941 -443.69856 
L 943.946501 -443.69856 
L 941.016069 -443.69856 
L 938.073775 -443.69856 
L 935.138308 -443.69856 
L 932.200062 -443.69856 
L 929.262774 -443.69856 
L 926.324311 -443.69856 
L 923.386001 -443.69856 
L 920.449505 -443.69856 
L 917.513695 -443.69856 
L 914.578397 -443.69856 
L 911.639044 -443.69856 
L 908.7017 -443.69856 
L 905.764889 -443.69856 
L 902.826622 -443.69856 
L 899.889895 -443.69856 
L 896.951893 -443.69856 
L 894.01595 -443.69856 
L 891.078796 -443.69856 
L 888.1423 -443.69856 
L 885.204943 -443.69856 
L 882.267291 -443.69856 
L 879.329836 -443.69856 
L 876.393494 -443.69856 
L 873.455395 -443.69856 
L 870.518682 -443.69856 
L 867.582088 -443.69856 
L 864.645571 -443.69856 
L 861.707303 -443.69856 
L 858.770275 -443.69856 
L 855.832763 -443.69856 
L 852.895644 -443.69856 
L 849.958504 -443.69856 
L 847.021406 -443.69856 
L 844.085372 -443.69856 
L 841.14674 -443.69856 
L 838.209761 -443.69856 
L 835.2726 -443.69856 
L 832.335467 -443.69856 
L 829.398284 -443.69856 
L 826.459555 -443.69856 
L 823.525159 -443.69856 
L 820.587172 -443.69856 
L 817.64992 -443.69856 
L 814.71238 -443.69856 
L 811.774932 -443.69856 
L 808.837484 -443.69856 
L 805.909895 -443.69856 
L 802.962825 -443.69856 
L 800.026686 -443.69856 
L 797.089434 -443.69856 
L 794.152434 -443.69856 
L 791.215441 -443.69856 
L 788.277838 -443.69856 
L 785.339935 -443.69856 
L 782.401401 -443.69856 
L 779.46452 -443.69856 
L 776.528948 -443.69856 
L 773.593923 -443.69856 
L 770.670781 -443.69856 
L 767.71736 -443.69856 
L 764.779435 -443.69856 
L 761.842547 -443.69856 
L 758.904741 -443.69856 
L 755.968631 -443.69856 
L 753.032058 -443.69856 
L 750.095555 -443.69856 
L 747.157651 -443.69856 
L 744.220819 -443.69856 
L 741.286844 -443.69856 
L 738.344809 -443.69856 
L 735.407949 -443.69856 
L 732.471019 -443.69856 
L 729.534649 -443.69856 
L 726.597628 -443.69856 
L 723.659906 -443.69856 
L 720.723004 -443.69856 
L 717.785486 -443.69856 
L 714.847512 -443.69856 
L 711.909182 -443.69856 
L 708.972938 -443.69856 
L 706.037247 -443.69856 
L 703.100632 -443.69856 
L 700.162721 -443.69856 
L 697.226113 -443.69856 
L 694.288434 -443.69856 
L 691.350825 -443.69856 
L 688.413362 -443.69856 
L 685.481166 -443.69856 
L 682.538991 -443.69856 
L 679.605618 -443.69856 
L 676.665327 -443.69856 
L 673.728032 -443.69856 
L 670.790927 -443.69856 
L 667.853563 -443.69856 
L 664.91575 -443.69856 
L 661.981782 -443.69856 
L 659.042387 -443.69856 
L 656.105828 -443.69856 
L 653.169886 -443.69856 
L 650.231709 -443.69856 
L 647.293651 -443.69856 
L 644.356504 -443.69856 
L 641.429448 -443.69856 
L 638.480753 -443.69856 
L 635.5446 -443.69856 
L 632.608679 -443.69856 
L 629.670537 -443.69856 
L 626.733271 -443.69856 
L 623.796278 -443.69856 
L 620.865279 -443.69856 
L 617.921073 -443.69856 
L 614.984626 -443.69856 
L 612.047759 -443.69856 
L 609.110514 -443.69856 
L 606.17345 -443.69856 
L 603.236023 -443.69856 
L 600.298729 -443.69856 
L 597.361469 -443.69856 
L 594.423286 -443.69856 
L 591.486426 -443.69856 
L 588.550672 -443.69856 
L 585.614036 -443.69856 
L 582.676252 -443.69856 
L 579.738355 -443.69856 
L 576.801943 -443.69856 
L 573.864614 -443.69856 
L 570.926941 -443.69856 
L 568.002651 -443.69856 
L 565.051681 -443.69856 
L 562.118651 -443.69856 
L 559.178346 -443.69856 
L 556.241934 -443.69856 
L 553.304065 -443.69856 
L 550.36696 -443.69856 
L 547.429014 -443.69856 
L 544.491923 -443.69856 
L 541.560266 -443.69856 
L 538.619092 -443.69856 
L 535.680944 -443.69856 
L 532.743614 -443.69856 
L 529.806887 -443.69856 
L 526.870518 -443.69856 
L 523.932383 -443.69856 
L 520.994444 -443.69856 
L 518.059048 -443.69856 
L 515.121936 -443.69856 
L 512.183696 -443.69856 
L 509.246556 -443.69856 
L 506.309423 -443.69856 
L 503.371883 -443.69856 
L 500.434127 -443.69856 
L 497.497995 -443.69856 
L 494.561576 -443.69856 
L 491.62466 -443.69856 
L 488.686378 -443.69856 
L 485.749553 -443.69856 
L 482.812119 -443.69856 
L 479.874804 -443.69856 
L 476.937544 -443.69856 
L 474.00018 -443.69856 
L 471.064223 -443.69856 
L 468.127657 -443.69856 
L 465.188892 -443.69856 
L 462.251759 -443.69856 
L 459.314689 -443.69856 
L 456.377556 -443.69856 
L 453.440437 -443.69856 
L 450.502764 -443.69856 
L 447.564826 -443.69856 
L 444.629982 -443.69856 
L 441.705965 -443.69856 
L 438.755576 -443.69856 
L 435.817 -443.69856 
L 432.880581 -443.69856 
L 429.942517 -443.69856 
L 427.005054 -443.69856 
L 424.069945 -443.69856 
L 421.132714 -443.69856 
L 418.194523 -443.69856 
L 415.257859 -443.69856 
L 412.320313 -443.69856 
L 409.384944 -443.69856 
L 406.445276 -443.69856 
L 403.506924 -443.69856 
L 400.572277 -443.69856 
L 397.635956 -443.69856 
L 394.697016 -443.69856 
L 391.759659 -443.69856 
L 388.822701 -443.69856 
L 385.885918 -443.69856 
L 382.94786 -443.69856 
L 380.010909 -443.69856 
L 377.074553 -443.69856 
L 374.140354 -443.69856 
L 371.228613 -443.69856 
L 368.26267 -443.69856 
L 365.325369 -443.69856 
L 362.388019 -443.69856 
L 359.450794 -443.69856 
L 356.513521 -443.69856 
L 353.576108 -443.69856 
L 350.639563 -443.69856 
L 347.702198 -443.69856 
L 344.765366 -443.69856 
L 341.828814 -443.69856 
L 338.89458 -443.69856 
L 335.953161 -443.69856 
L 333.01731 -443.69856 
L 330.079574 -443.69856 
L 327.142161 -443.69856 
L 324.228564 -443.69856 
L 321.270261 -443.69856 
L 318.334137 -443.69856 
z
" id="mb047318de7" style="stroke:#ff4500;stroke-opacity:0.1;stroke-width:3;"/>
    </defs>
    <g clip-path="url(#pbd6ec5db03)">
     <use style="fill:#ff4500;fill-opacity:0.1;stroke:#ff4500;stroke-opacity:0.1;stroke-width:3;" x="0" xlink:href="#mb047318de7" y="466.56"/>
    </g>
   </g>
   <g id="matplotlib.axis_1">
    <g id="xtick_1">
     <g id="line2d_1">
      <defs>
       <path d="M 0 0 
L 0 3.5 
" id="m3b83ee6a9a" style="stroke:#000000;stroke-width:0.8;"/>
      </defs>
      <g>
       <use style="stroke:#000000;stroke-width:0.8;" x="71.62272" xlink:href="#m3b83ee6a9a" y="203.720168"/>
      </g>
     </g>
    </g>
    <g id="xtick_2">
     <g id="line2d_2">
      <g>
       <use style="stroke:#000000;stroke-width:0.8;" x="218.481271" xlink:href="#m3b83ee6a9a" y="203.720168"/>
      </g>
     </g>
    </g>
    <g id="xtick_3">
     <g id="line2d_3">
      <g>
       <use style="stroke:#000000;stroke-width:0.8;" x="365.339823" xlink:href="#m3b83ee6a9a" y="203.720168"/>
      </g>
     </g>
    </g>
    <g id="xtick_4">
     <g id="line2d_4">
      <g>
       <use style="stroke:#000000;stroke-width:0.8;" x="512.198374" xlink:href="#m3b83ee6a9a" y="203.720168"/>
      </g>
     </g>
    </g>
    <g id="xtick_5">
     <g id="line2d_5">
      <g>
       <use style="stroke:#000000;stroke-width:0.8;" x="659.056925" xlink:href="#m3b83ee6a9a" y="203.720168"/>
      </g>
     </g>
    </g>
    <g id="xtick_6">
     <g id="line2d_6">
      <g>
       <use style="stroke:#000000;stroke-width:0.8;" x="805.915476" xlink:href="#m3b83ee6a9a" y="203.720168"/>
      </g>
     </g>
    </g>
    <g id="xtick_7">
     <g id="line2d_7">
      <g>
       <use style="stroke:#000000;stroke-width:0.8;" x="952.774028" xlink:href="#m3b83ee6a9a" y="203.720168"/>
      </g>
     </g>
    </g>
    <g id="xtick_8">
     <g id="line2d_8">
      <g>
       <use style="stroke:#000000;stroke-width:0.8;" x="1099.632579" xlink:href="#m3b83ee6a9a" y="203.720168"/>
      </g>
     </g>
    </g>
   </g>
   <g id="matplotlib.axis_2">
    <g id="ytick_1">
     <g id="line2d_9">
      <defs>
       <path d="M 0 0 
L -3.5 0 
" id="m879de8f529" style="stroke:#000000;stroke-width:0.8;"/>
      </defs>
      <g>
       <use style="stroke:#000000;stroke-width:0.8;" x="71.62272" xlink:href="#m879de8f529" y="188.648607"/>
      </g>
     </g>
     <g id="text_1">
      <!-- −1 -->
      <defs>
       <path d="M 10.59375 35.296875 
L 73.1875 35.296875 
L 73.1875 27.390625 
L 10.59375 27.390625 
z
" id="DejaVuSerif-8722"/>
       <path d="M 14.203125 0 
L 14.203125 5.171875 
L 26.90625 5.171875 
L 26.90625 65.828125 
L 12.203125 56.296875 
L 12.203125 62.703125 
L 29.984375 74.21875 
L 36.71875 74.21875 
L 36.71875 5.171875 
L 49.421875 5.171875 
L 49.421875 0 
z
" id="DejaVuSerif-49"/>
      </defs>
      <g transform="translate(35.138345 196.247045)scale(0.2 -0.2)">
       <use xlink:href="#DejaVuSerif-8722"/>
       <use x="83.789062" xlink:href="#DejaVuSerif-49"/>
      </g>
     </g>
    </g>
    <g id="ytick_2">
     <g id="line2d_10">
      <g>
       <use style="stroke:#000000;stroke-width:0.8;" x="71.62272" xlink:href="#m879de8f529" y="113.290804"/>
      </g>
     </g>
     <g id="text_2">
      <!-- 0 -->
      <defs>
       <path d="M 31.78125 3.421875 
Q 39.265625 3.421875 42.96875 11.625 
Q 46.6875 19.828125 46.6875 36.375 
Q 46.6875 52.984375 42.96875 61.1875 
Q 39.265625 69.390625 31.78125 69.390625 
Q 24.3125 69.390625 20.59375 61.1875 
Q 16.890625 52.984375 16.890625 36.375 
Q 16.890625 19.828125 20.59375 11.625 
Q 24.3125 3.421875 31.78125 3.421875 
z
M 31.78125 -1.421875 
Q 19.921875 -1.421875 13.25 8.53125 
Q 6.59375 18.5 6.59375 36.375 
Q 6.59375 54.296875 13.25 64.25 
Q 19.921875 74.21875 31.78125 74.21875 
Q 43.703125 74.21875 50.34375 64.25 
Q 56.984375 54.296875 56.984375 36.375 
Q 56.984375 18.5 50.34375 8.53125 
Q 43.703125 -1.421875 31.78125 -1.421875 
z
" id="DejaVuSerif-48"/>
      </defs>
      <g transform="translate(51.89772 120.889241)scale(0.2 -0.2)">
       <use xlink:href="#DejaVuSerif-48"/>
      </g>
     </g>
    </g>
    <g id="ytick_3">
     <g id="line2d_11">
      <g>
       <use style="stroke:#000000;stroke-width:0.8;" x="71.62272" xlink:href="#m879de8f529" y="37.933001"/>
      </g>
     </g>
     <g id="text_3">
      <!-- 1 -->
      <g transform="translate(51.89772 45.531438)scale(0.2 -0.2)">
       <use xlink:href="#DejaVuSerif-49"/>
      </g>
     </g>
    </g>
    <g id="text_4">
     <!-- [m/s$^2$] -->
     <defs>
      <path d="M 8.59375 75.984375 
L 31.296875 75.984375 
L 31.296875 70.796875 
L 17.921875 70.796875 
L 17.921875 -8.015625 
L 31.296875 -8.015625 
L 31.296875 -13.1875 
L 8.59375 -13.1875 
z
" id="DejaVuSerif-91"/>
      <path d="M 51.8125 41.796875 
Q 54.390625 47.515625 58.421875 50.421875 
Q 62.453125 53.328125 67.828125 53.328125 
Q 75.984375 53.328125 79.984375 48.265625 
Q 83.984375 43.21875 83.984375 33.015625 
L 83.984375 5.171875 
L 92.09375 5.171875 
L 92.09375 0 
L 67.1875 0 
L 67.1875 5.171875 
L 75 5.171875 
L 75 31.984375 
Q 75 39.9375 72.65625 43.3125 
Q 70.3125 46.6875 64.890625 46.6875 
Q 58.890625 46.6875 55.734375 42.140625 
Q 52.59375 37.59375 52.59375 28.90625 
L 52.59375 5.171875 
L 60.40625 5.171875 
L 60.40625 0 
L 35.796875 0 
L 35.796875 5.171875 
L 43.609375 5.171875 
L 43.609375 32.328125 
Q 43.609375 40.09375 41.265625 43.390625 
Q 38.921875 46.6875 33.5 46.6875 
Q 27.484375 46.6875 24.328125 42.140625 
Q 21.1875 37.59375 21.1875 28.90625 
L 21.1875 5.171875 
L 29 5.171875 
L 29 0 
L 4.109375 0 
L 4.109375 5.171875 
L 12.203125 5.171875 
L 12.203125 46.78125 
L 3.609375 46.78125 
L 3.609375 51.90625 
L 21.1875 51.90625 
L 21.1875 42.671875 
Q 23.6875 47.859375 27.53125 50.59375 
Q 31.390625 53.328125 36.28125 53.328125 
Q 42.328125 53.328125 46.375 50.3125 
Q 50.4375 47.3125 51.8125 41.796875 
z
" id="DejaVuSerif-109"/>
      <path d="M 25.875 72.90625 
L 33.6875 72.90625 
L 7.8125 -9.28125 
L 0 -9.28125 
z
" id="DejaVuSerif-47"/>
      <path d="M 5.609375 2.875 
L 5.609375 14.984375 
L 10.796875 14.984375 
Q 10.984375 9.1875 14.421875 6.296875 
Q 17.875 3.421875 24.609375 3.421875 
Q 30.671875 3.421875 33.84375 5.6875 
Q 37.015625 7.953125 37.015625 12.3125 
Q 37.015625 15.71875 34.6875 17.8125 
Q 32.375 19.921875 24.90625 22.3125 
L 18.40625 24.515625 
Q 11.71875 26.65625 8.71875 29.875 
Q 5.71875 33.109375 5.71875 38.09375 
Q 5.71875 45.21875 10.9375 49.265625 
Q 16.15625 53.328125 25.390625 53.328125 
Q 29.5 53.328125 34.03125 52.25 
Q 38.578125 51.171875 43.40625 49.125 
L 43.40625 37.796875 
L 38.234375 37.796875 
Q 38.03125 42.828125 34.703125 45.65625 
Q 31.390625 48.484375 25.6875 48.484375 
Q 20.015625 48.484375 17.109375 46.484375 
Q 14.203125 44.484375 14.203125 40.484375 
Q 14.203125 37.203125 16.40625 35.21875 
Q 18.609375 33.25 25.203125 31.203125 
L 32.328125 29 
Q 39.703125 26.703125 42.9375 23.265625 
Q 46.1875 19.828125 46.1875 14.40625 
Q 46.1875 7.03125 40.546875 2.796875 
Q 34.90625 -1.421875 25 -1.421875 
Q 19.96875 -1.421875 15.1875 -0.34375 
Q 10.40625 0.734375 5.609375 2.875 
z
" id="DejaVuSerif-115"/>
      <path d="M 19.1875 8.296875 
L 53.609375 8.296875 
L 53.609375 0 
L 7.328125 0 
L 7.328125 8.296875 
Q 12.9375 14.109375 22.625 23.890625 
Q 32.328125 33.6875 34.8125 36.53125 
Q 39.546875 41.84375 41.421875 45.53125 
Q 43.3125 49.21875 43.3125 52.78125 
Q 43.3125 58.59375 39.234375 62.25 
Q 35.15625 65.921875 28.609375 65.921875 
Q 23.96875 65.921875 18.8125 64.3125 
Q 13.671875 62.703125 7.8125 59.421875 
L 7.8125 69.390625 
Q 13.765625 71.78125 18.9375 73 
Q 24.125 74.21875 28.421875 74.21875 
Q 39.75 74.21875 46.484375 68.546875 
Q 53.21875 62.890625 53.21875 53.421875 
Q 53.21875 48.921875 51.53125 44.890625 
Q 49.859375 40.875 45.40625 35.40625 
Q 44.1875 33.984375 37.640625 27.21875 
Q 31.109375 20.453125 19.1875 8.296875 
z
" id="DejaVuSans-50"/>
      <path d="M 30.421875 75.984375 
L 30.421875 -13.1875 
L 7.71875 -13.1875 
L 7.71875 -8.015625 
L 21.09375 -8.015625 
L 21.09375 70.796875 
L 7.71875 70.796875 
L 7.71875 75.984375 
z
" id="DejaVuSerif-93"/>
     </defs>
     <g transform="translate(26.97897 143.990804)rotate(-90)scale(0.2 -0.2)">
      <use transform="translate(0 0.765625)" xlink:href="#DejaVuSerif-91"/>
      <use transform="translate(39.013672 0.765625)" xlink:href="#DejaVuSerif-109"/>
      <use transform="translate(133.837891 0.765625)" xlink:href="#DejaVuSerif-47"/>
      <use transform="translate(167.529297 0.765625)" xlink:href="#DejaVuSerif-115"/>
      <use transform="translate(219.804688 39.046875)scale(0.7)" xlink:href="#DejaVuSans-50"/>
      <use transform="translate(267.075195 0.765625)" xlink:href="#DejaVuSerif-93"/>
     </g>
    </g>
   </g>
   <g id="line2d_12">
    <path clip-path="url(#pbd6ec5db03)" d="M 71.62272 37.933001 
L 95.106102 37.933001 
L 98.04367 66.746274 
L 103.916725 110.552893 
L 106.8539 121.504536 
L 109.791383 121.504536 
L 115.664319 143.407854 
L 118.602349 121.504536 
L 121.539321 132.456211 
L 124.476986 132.456211 
L 130.351638 110.552893 
L 133.289023 110.552893 
L 136.226654 121.504536 
L 139.16378 110.552893 
L 142.10468 110.552893 
L 145.03778 99.601234 
L 147.97436 99.601234 
L 150.911962 110.552893 
L 153.851154 110.552893 
L 156.786187 121.504536 
L 159.72325 110.552893 
L 162.661854 121.504536 
L 165.5976 110.552893 
L 168.534145 121.504536 
L 171.471489 121.504536 
L 174.409014 110.552893 
L 177.346336 110.552893 
L 180.284485 99.601234 
L 183.220358 110.552893 
L 186.158835 110.552893 
L 189.094876 99.601234 
L 192.031428 110.552893 
L 215.530427 110.552893 
L 218.468071 99.601234 
L 221.403937 121.504536 
L 224.341077 110.552893 
L 233.154556 110.552893 
L 236.090513 121.504536 
L 239.026316 121.504536 
L 241.963316 110.552893 
L 244.900904 121.504536 
L 247.838325 110.552893 
L 250.775738 110.552893 
L 253.712787 121.504536 
L 256.651139 110.552893 
L 259.587481 110.552893 
L 262.523886 132.456211 
L 265.460977 110.552893 
L 268.398614 110.552893 
L 271.335965 121.504536 
L 277.21014 121.504536 
L 280.149738 110.552893 
L 315.392256 110.552893 
L 318.334137 99.601234 
L 321.270261 110.552893 
L 324.228564 99.601234 
L 327.142161 110.552893 
L 330.079574 110.552893 
L 333.01731 99.601234 
L 335.953161 121.504536 
L 338.89458 110.552893 
L 341.828814 110.552893 
L 344.765366 121.504536 
L 347.702198 110.552893 
L 356.513521 110.552893 
L 359.450794 99.601234 
L 362.388019 110.552893 
L 371.228613 110.552893 
L 374.140354 121.504536 
L 377.074553 121.504536 
L 380.010909 110.552893 
L 382.94786 121.504536 
L 385.885918 121.504536 
L 388.822701 110.552893 
L 391.759659 121.504536 
L 394.697016 121.504536 
L 397.635956 110.552893 
L 400.572277 110.552893 
L 403.506924 121.504536 
L 406.445276 121.504536 
L 409.384944 110.552893 
L 412.320313 132.456211 
L 415.257859 110.552893 
L 418.194523 121.504536 
L 435.817 121.504536 
L 438.755576 110.552893 
L 441.705965 121.504536 
L 444.629982 110.552893 
L 453.440437 110.552893 
L 456.377556 121.504536 
L 459.314689 110.552893 
L 462.251759 121.504536 
L 465.188892 110.552893 
L 468.127657 110.552893 
L 471.064223 121.504536 
L 474.00018 121.504536 
L 476.937544 110.552893 
L 485.749553 110.552893 
L 488.686378 99.601234 
L 491.62466 110.552893 
L 497.497995 110.552893 
L 500.434127 121.504536 
L 503.371883 110.552893 
L 506.309423 110.552893 
L 509.246556 121.504536 
L 512.183696 110.552893 
L 515.121936 110.552893 
L 518.059048 99.601234 
L 520.994444 110.552893 
L 523.932383 110.552893 
L 526.870518 88.649591 
L 529.806887 110.552893 
L 535.680944 110.552893 
L 538.619092 121.504536 
L 544.491923 99.601234 
L 547.429014 121.504536 
L 550.36696 99.601234 
L 553.304065 110.552893 
L 556.241934 99.601234 
L 559.178346 99.601234 
L 562.118651 110.552893 
L 565.051681 110.552893 
L 568.002651 121.504536 
L 570.926941 110.552893 
L 573.864614 110.552893 
L 576.801943 121.504536 
L 579.738355 121.504536 
L 582.676252 110.552893 
L 585.614036 121.504536 
L 588.550672 110.552893 
L 591.486426 121.504536 
L 594.423286 110.552893 
L 597.361469 110.552893 
L 600.298729 121.504536 
L 603.236023 110.552893 
L 606.17345 121.504536 
L 609.110514 110.552893 
L 612.047759 110.552893 
L 614.984626 121.504536 
L 617.921073 110.552893 
L 620.865279 121.504536 
L 623.796278 110.552893 
L 635.5446 110.552893 
L 638.480753 99.601234 
L 641.429448 110.552893 
L 644.356504 110.552893 
L 647.293651 99.601234 
L 650.231709 110.552893 
L 656.105828 110.552893 
L 659.042387 99.601234 
L 661.981782 99.601234 
L 664.91575 110.552893 
L 667.853563 99.601234 
L 670.790927 99.601234 
L 673.728032 110.552893 
L 688.413362 110.552893 
L 691.350825 99.601234 
L 697.226113 121.504536 
L 700.162721 110.552893 
L 703.100632 121.504536 
L 711.909182 121.504536 
L 714.847512 110.552893 
L 717.785486 132.456211 
L 720.723004 121.504536 
L 723.659906 132.456211 
L 726.597628 121.504536 
L 735.407949 121.504536 
L 738.344809 132.456211 
L 741.286844 121.504536 
L 744.220819 121.504536 
L 747.157651 132.456211 
L 750.095555 121.504536 
L 761.842547 121.504536 
L 764.779435 110.552893 
L 767.71736 132.456211 
L 770.670781 99.601234 
L 773.593923 121.504536 
L 776.528948 110.552893 
L 779.46452 110.552893 
L 782.401401 132.456211 
L 785.339935 110.552893 
L 788.277838 132.456211 
L 791.215441 110.552893 
L 794.152434 110.552893 
L 797.089434 132.456211 
L 800.026686 110.552893 
L 802.962825 110.552893 
L 805.909895 121.504536 
L 808.837484 110.552893 
L 829.398284 110.552893 
L 832.335467 121.504536 
L 835.2726 110.552893 
L 873.455395 110.552893 
L 876.393494 99.601234 
L 879.329836 99.601234 
L 882.267291 110.552893 
L 885.204943 99.601234 
L 888.1423 99.601234 
L 891.078796 110.552893 
L 894.01595 110.552893 
L 896.951893 99.601234 
L 899.889895 110.552893 
L 902.826622 99.601234 
L 905.764889 110.552893 
L 914.578397 110.552893 
L 917.513695 121.504536 
L 920.449505 121.504536 
L 923.386001 110.552893 
L 926.324311 121.504536 
L 929.262774 110.552893 
L 932.200062 121.504536 
L 935.138308 110.552893 
L 952.759455 110.552893 
L 955.697113 121.504536 
L 958.634492 121.504536 
L 961.571485 110.552893 
L 979.201469 110.552893 
L 982.131032 88.649591 
L 985.068144 110.552893 
L 1020.315802 110.552893 
L 1023.25227 121.504536 
L 1026.189382 110.552893 
L 1029.125612 110.552893 
L 1032.063543 121.504536 
L 1034.999059 99.601234 
L 1043.811719 99.601234 
L 1046.749706 110.552893 
L 1049.686286 99.601234 
L 1052.622831 110.552893 
L 1055.560294 110.552893 
L 1058.499465 188.648607 
L 1099.619078 188.648607 
L 1102.555195 181.738637 
L 1105.490886 170.78698 
L 1108.429833 170.78698 
L 1111.36635 135.194109 
L 1114.303287 146.145763 
L 1117.247178 113.290804 
L 1120.178254 135.194109 
L 1123.11573 113.290804 
L 1126.052541 113.290804 
L 1129.003722 124.242457 
L 1131.927347 113.290804 
L 1158.35976 113.290804 
L 1158.35976 113.290804 
" style="fill:none;stroke:#71b6cb;stroke-linecap:square;stroke-width:3;"/>
   </g>
   <g id="line2d_13">
    <path clip-path="url(#pbd6ec5db03)" d="M 71.62272 37.933001 
L 95.106102 37.933001 
L 98.04367 66.746274 
L 103.916725 110.552893 
L 106.8539 121.504536 
L 109.791383 121.504536 
L 115.664319 143.407854 
L 118.602349 121.504536 
L 121.539321 132.456211 
L 124.476986 132.456211 
L 130.351638 110.552893 
L 133.289023 110.552893 
L 136.226654 121.504536 
L 139.16378 110.552893 
L 142.10468 110.552893 
L 145.03778 99.601234 
L 147.97436 99.601234 
L 150.911962 110.552893 
L 153.851154 110.552893 
L 156.786187 121.504536 
L 159.72325 110.552893 
L 162.661854 121.504536 
L 165.5976 110.552893 
L 168.534145 121.504536 
L 171.471489 121.504536 
L 174.409014 110.552893 
L 177.346336 110.552893 
L 180.284485 99.601234 
L 183.220358 110.552893 
L 186.158835 110.552893 
L 189.094876 99.601234 
L 192.031428 110.552893 
L 215.530427 110.552893 
L 218.468071 99.601234 
L 221.403937 121.504536 
L 224.341077 110.552893 
L 233.154556 110.552893 
L 236.090513 121.504536 
L 239.026316 121.504536 
L 241.963316 110.552893 
L 244.900904 121.504536 
L 247.838325 110.552893 
L 250.775738 110.552893 
L 253.712787 121.504536 
L 256.651139 110.552893 
L 259.587481 110.552893 
L 262.523886 132.456211 
L 265.460977 110.552893 
L 268.398614 110.552893 
L 271.335965 121.504536 
L 277.21014 121.504536 
L 280.149738 110.552893 
L 315.392256 110.552893 
L 318.334137 37.933001 
L 515.121936 37.933001 
L 518.059048 188.648607 
L 808.837484 188.648607 
L 811.774932 37.933001 
L 1102.555195 37.933001 
L 1105.490886 188.648607 
L 1158.35976 188.648607 
L 1158.35976 188.648607 
" style="fill:none;stroke:#00a6d6;stroke-dasharray:11.1,4.8;stroke-dashoffset:0;stroke-width:3;"/>
   </g>
   <g id="patch_3">
    <path d="M 71.62272 203.720168 
L 71.62272 22.86144 
" style="fill:none;stroke:#000000;stroke-linecap:square;stroke-linejoin:miter;stroke-width:0.8;"/>
   </g>
   <g id="patch_4">
    <path d="M 1158.35976 203.720168 
L 1158.35976 22.86144 
" style="fill:none;stroke:#000000;stroke-linecap:square;stroke-linejoin:miter;stroke-width:0.8;"/>
   </g>
   <g id="patch_5">
    <path d="M 71.62272 203.720168 
L 1158.35976 203.720168 
" style="fill:none;stroke:#000000;stroke-linecap:square;stroke-linejoin:miter;stroke-width:0.8;"/>
   </g>
   <g id="patch_6">
    <path d="M 71.62272 22.86144 
L 1158.35976 22.86144 
" style="fill:none;stroke:#000000;stroke-linecap:square;stroke-linejoin:miter;stroke-width:0.8;"/>
   </g>
   <g id="text_5">
    <!-- Acceleration vehicle 1 -->
    <defs>
     <path d="M 20.015625 26.421875 
L 46.78125 26.421875 
L 33.40625 61.078125 
z
M -0.59375 0 
L -0.59375 5.171875 
L 5.8125 5.171875 
L 31.78125 72.90625 
L 39.984375 72.90625 
L 66.015625 5.171875 
L 73.1875 5.171875 
L 73.1875 0 
L 46.6875 0 
L 46.6875 5.171875 
L 54.78125 5.171875 
L 48.6875 21.1875 
L 18.015625 21.1875 
L 11.921875 5.171875 
L 19.921875 5.171875 
L 19.921875 0 
z
" id="DejaVuSerif-65"/>
     <path d="M 51.421875 15.578125 
Q 49.515625 7.28125 44.09375 2.921875 
Q 38.671875 -1.421875 30.078125 -1.421875 
Q 18.75 -1.421875 11.859375 6.078125 
Q 4.984375 13.578125 4.984375 25.984375 
Q 4.984375 38.421875 11.859375 45.875 
Q 18.75 53.328125 30.078125 53.328125 
Q 35.015625 53.328125 39.890625 52.171875 
Q 44.78125 51.03125 49.703125 48.6875 
L 49.703125 35.40625 
L 44.484375 35.40625 
Q 43.453125 42.234375 40.015625 45.359375 
Q 36.578125 48.484375 30.171875 48.484375 
Q 22.90625 48.484375 19.1875 42.84375 
Q 15.484375 37.203125 15.484375 25.984375 
Q 15.484375 14.75 19.171875 9.078125 
Q 22.859375 3.421875 30.171875 3.421875 
Q 35.984375 3.421875 39.453125 6.4375 
Q 42.921875 9.46875 44.1875 15.578125 
z
" id="DejaVuSerif-99"/>
     <path d="M 54.203125 25 
L 15.484375 25 
L 15.484375 24.609375 
Q 15.484375 14.109375 19.4375 8.765625 
Q 23.390625 3.421875 31.109375 3.421875 
Q 37.015625 3.421875 40.796875 6.515625 
Q 44.578125 9.625 46.09375 15.71875 
L 53.328125 15.71875 
Q 51.171875 7.171875 45.375 2.875 
Q 39.59375 -1.421875 30.171875 -1.421875 
Q 18.796875 -1.421875 11.890625 6.078125 
Q 4.984375 13.578125 4.984375 25.984375 
Q 4.984375 38.28125 11.765625 45.796875 
Q 18.5625 53.328125 29.59375 53.328125 
Q 41.359375 53.328125 47.65625 46.0625 
Q 53.953125 38.8125 54.203125 25 
z
M 43.609375 30.171875 
Q 43.3125 39.265625 39.765625 43.875 
Q 36.234375 48.484375 29.59375 48.484375 
Q 23.390625 48.484375 19.828125 43.84375 
Q 16.265625 39.203125 15.484375 30.171875 
z
" id="DejaVuSerif-101"/>
     <path d="M 20.515625 5.171875 
L 29 5.171875 
L 29 0 
L 2.875 0 
L 2.875 5.171875 
L 11.53125 5.171875 
L 11.53125 70.796875 
L 2.875 70.796875 
L 2.875 75.984375 
L 20.515625 75.984375 
z
" id="DejaVuSerif-108"/>
     <path d="M 47.796875 52 
L 47.796875 39.015625 
L 42.625 39.015625 
Q 42.390625 42.875 40.484375 44.78125 
Q 38.578125 46.6875 34.90625 46.6875 
Q 28.265625 46.6875 24.71875 42.09375 
Q 21.1875 37.5 21.1875 28.90625 
L 21.1875 5.171875 
L 31.59375 5.171875 
L 31.59375 0 
L 4.109375 0 
L 4.109375 5.171875 
L 12.203125 5.171875 
L 12.203125 46.78125 
L 3.609375 46.78125 
L 3.609375 51.90625 
L 21.1875 51.90625 
L 21.1875 42.671875 
Q 23.828125 48.09375 27.96875 50.703125 
Q 32.125 53.328125 38.09375 53.328125 
Q 40.28125 53.328125 42.703125 52.984375 
Q 45.125 52.640625 47.796875 52 
z
" id="DejaVuSerif-114"/>
     <path d="M 39.796875 16.3125 
L 39.796875 27.296875 
L 28.21875 27.296875 
Q 21.53125 27.296875 18.25 24.40625 
Q 14.984375 21.53125 14.984375 15.578125 
Q 14.984375 10.15625 18.296875 6.984375 
Q 21.625 3.8125 27.296875 3.8125 
Q 32.90625 3.8125 36.34375 7.28125 
Q 39.796875 10.75 39.796875 16.3125 
z
M 48.78125 32.421875 
L 48.78125 5.171875 
L 56.78125 5.171875 
L 56.78125 0 
L 39.796875 0 
L 39.796875 5.609375 
Q 36.8125 2 32.90625 0.28125 
Q 29 -1.421875 23.78125 -1.421875 
Q 15.140625 -1.421875 10.0625 3.171875 
Q 4.984375 7.765625 4.984375 15.578125 
Q 4.984375 23.640625 10.796875 28.078125 
Q 16.609375 32.515625 27.203125 32.515625 
L 39.796875 32.515625 
L 39.796875 36.078125 
Q 39.796875 42 36.203125 45.234375 
Q 32.625 48.484375 26.125 48.484375 
Q 20.75 48.484375 17.578125 46.046875 
Q 14.40625 43.609375 13.625 38.8125 
L 8.984375 38.8125 
L 8.984375 49.3125 
Q 13.671875 51.3125 18.09375 52.3125 
Q 22.515625 53.328125 26.703125 53.328125 
Q 37.5 53.328125 43.140625 47.96875 
Q 48.78125 42.625 48.78125 32.421875 
z
" id="DejaVuSerif-97"/>
     <path d="M 10.796875 46.6875 
L 2.875 46.6875 
L 2.875 51.90625 
L 10.796875 51.90625 
L 10.796875 68.015625 
L 19.828125 68.015625 
L 19.828125 51.90625 
L 36.71875 51.90625 
L 36.71875 46.6875 
L 19.828125 46.6875 
L 19.828125 13.71875 
Q 19.828125 7.125 21.09375 5.265625 
Q 22.359375 3.421875 25.78125 3.421875 
Q 29.296875 3.421875 30.90625 5.484375 
Q 32.515625 7.5625 32.625 12.203125 
L 39.40625 12.203125 
Q 39.015625 5.125 35.546875 1.84375 
Q 32.078125 -1.421875 25 -1.421875 
Q 17.234375 -1.421875 14.015625 2.015625 
Q 10.796875 5.46875 10.796875 13.71875 
z
" id="DejaVuSerif-116"/>
     <path d="M 9.71875 68.015625 
Q 9.71875 70.265625 11.34375 71.921875 
Q 12.984375 73.578125 15.28125 73.578125 
Q 17.53125 73.578125 19.15625 71.921875 
Q 20.796875 70.265625 20.796875 68.015625 
Q 20.796875 65.71875 19.1875 64.109375 
Q 17.578125 62.5 15.28125 62.5 
Q 12.984375 62.5 11.34375 64.109375 
Q 9.71875 65.71875 9.71875 68.015625 
z
M 21.1875 5.171875 
L 29.6875 5.171875 
L 29.6875 0 
L 3.609375 0 
L 3.609375 5.171875 
L 12.203125 5.171875 
L 12.203125 46.6875 
L 3.609375 46.6875 
L 3.609375 51.90625 
L 21.1875 51.90625 
z
" id="DejaVuSerif-105"/>
     <path d="M 30.078125 3.421875 
Q 37.3125 3.421875 40.984375 9.125 
Q 44.671875 14.84375 44.671875 25.984375 
Q 44.671875 37.109375 40.984375 42.796875 
Q 37.3125 48.484375 30.078125 48.484375 
Q 22.859375 48.484375 19.171875 42.796875 
Q 15.484375 37.109375 15.484375 25.984375 
Q 15.484375 14.84375 19.1875 9.125 
Q 22.90625 3.421875 30.078125 3.421875 
z
M 30.078125 -1.421875 
Q 18.75 -1.421875 11.859375 6.078125 
Q 4.984375 13.578125 4.984375 25.984375 
Q 4.984375 38.375 11.84375 45.84375 
Q 18.703125 53.328125 30.078125 53.328125 
Q 41.453125 53.328125 48.3125 45.84375 
Q 55.171875 38.375 55.171875 25.984375 
Q 55.171875 13.578125 48.3125 6.078125 
Q 41.453125 -1.421875 30.078125 -1.421875 
z
" id="DejaVuSerif-111"/>
     <path d="M 4.109375 0 
L 4.109375 5.171875 
L 12.203125 5.171875 
L 12.203125 46.6875 
L 3.609375 46.6875 
L 3.609375 51.90625 
L 21.1875 51.90625 
L 21.1875 42.671875 
Q 23.6875 47.953125 27.65625 50.640625 
Q 31.640625 53.328125 36.921875 53.328125 
Q 45.515625 53.328125 49.5625 48.390625 
Q 53.609375 43.453125 53.609375 33.015625 
L 53.609375 5.171875 
L 61.625 5.171875 
L 61.625 0 
L 36.8125 0 
L 36.8125 5.171875 
L 44.578125 5.171875 
L 44.578125 30.171875 
Q 44.578125 39.703125 42.234375 43.234375 
Q 39.890625 46.78125 33.984375 46.78125 
Q 27.734375 46.78125 24.453125 42.203125 
Q 21.1875 37.640625 21.1875 28.90625 
L 21.1875 5.171875 
L 29 5.171875 
L 29 0 
z
" id="DejaVuSerif-110"/>
     <path id="DejaVuSerif-32"/>
     <path d="M 24.703125 0 
L 5.609375 46.6875 
L -0.296875 46.6875 
L -0.296875 51.90625 
L 23.578125 51.90625 
L 23.578125 46.6875 
L 15.28125 46.6875 
L 29.890625 10.984375 
L 44.484375 46.6875 
L 36.71875 46.6875 
L 36.71875 51.90625 
L 56.203125 51.90625 
L 56.203125 46.6875 
L 50.390625 46.6875 
L 31.296875 0 
z
" id="DejaVuSerif-118"/>
     <path d="M 4.109375 0 
L 4.109375 5.171875 
L 12.203125 5.171875 
L 12.203125 70.796875 
L 3.609375 70.796875 
L 3.609375 75.984375 
L 21.1875 75.984375 
L 21.1875 42.671875 
Q 23.6875 47.953125 27.65625 50.640625 
Q 31.640625 53.328125 36.921875 53.328125 
Q 45.515625 53.328125 49.5625 48.390625 
Q 53.609375 43.453125 53.609375 33.015625 
L 53.609375 5.171875 
L 61.625 5.171875 
L 61.625 0 
L 36.8125 0 
L 36.8125 5.171875 
L 44.578125 5.171875 
L 44.578125 30.171875 
Q 44.578125 39.703125 42.25 43.1875 
Q 39.9375 46.6875 33.984375 46.6875 
Q 27.734375 46.6875 24.453125 42.140625 
Q 21.1875 37.59375 21.1875 28.90625 
L 21.1875 5.171875 
L 29 5.171875 
L 29 0 
z
" id="DejaVuSerif-104"/>
    </defs>
    <g transform="translate(479.96499 16.86144)scale(0.24 -0.24)">
     <use xlink:href="#DejaVuSerif-65"/>
     <use x="72.216797" xlink:href="#DejaVuSerif-99"/>
     <use x="128.222656" xlink:href="#DejaVuSerif-99"/>
     <use x="184.228516" xlink:href="#DejaVuSerif-101"/>
     <use x="243.408203" xlink:href="#DejaVuSerif-108"/>
     <use x="275.390625" xlink:href="#DejaVuSerif-101"/>
     <use x="334.570312" xlink:href="#DejaVuSerif-114"/>
     <use x="382.373047" xlink:href="#DejaVuSerif-97"/>
     <use x="441.992188" xlink:href="#DejaVuSerif-116"/>
     <use x="482.177734" xlink:href="#DejaVuSerif-105"/>
     <use x="514.160156" xlink:href="#DejaVuSerif-111"/>
     <use x="574.365234" xlink:href="#DejaVuSerif-110"/>
     <use x="638.769531" xlink:href="#DejaVuSerif-32"/>
     <use x="670.556641" xlink:href="#DejaVuSerif-118"/>
     <use x="727.050781" xlink:href="#DejaVuSerif-101"/>
     <use x="786.230469" xlink:href="#DejaVuSerif-104"/>
     <use x="850.634766" xlink:href="#DejaVuSerif-105"/>
     <use x="882.617188" xlink:href="#DejaVuSerif-99"/>
     <use x="938.623047" xlink:href="#DejaVuSerif-108"/>
     <use x="970.605469" xlink:href="#DejaVuSerif-101"/>
     <use x="1029.785156" xlink:href="#DejaVuSerif-32"/>
     <use x="1061.572266" xlink:href="#DejaVuSerif-49"/>
    </g>
   </g>
   <g id="legend_1">
    <g id="patch_7">
     <path d="M 1172.35976 117.887254 
L 1371.850385 117.887254 
Q 1375.850385 117.887254 1375.850385 113.887254 
L 1375.850385 27.818504 
Q 1375.850385 23.818504 1371.850385 23.818504 
L 1172.35976 23.818504 
Q 1168.35976 23.818504 1168.35976 27.818504 
L 1168.35976 113.887254 
Q 1168.35976 117.887254 1172.35976 117.887254 
z
" style="fill:#ffffff;opacity:0.8;stroke:#cccccc;stroke-linejoin:miter;"/>
    </g>
    <g id="line2d_14">
     <path d="M 1176.35976 40.015379 
L 1196.35976 40.015379 
" style="fill:none;stroke:#71b6cb;stroke-linecap:square;stroke-width:3;"/>
    </g>
    <g id="line2d_15"/>
    <g id="text_6">
     <!-- real  -->
     <g transform="translate(1212.35976 47.015379)scale(0.2 -0.2)">
      <use xlink:href="#DejaVuSerif-114"/>
      <use x="47.802734" xlink:href="#DejaVuSerif-101"/>
      <use x="106.982422" xlink:href="#DejaVuSerif-97"/>
      <use x="166.601562" xlink:href="#DejaVuSerif-108"/>
      <use x="198.583984" xlink:href="#DejaVuSerif-32"/>
     </g>
    </g>
    <g id="line2d_16">
     <path d="M 1176.35976 69.371629 
L 1196.35976 69.371629 
" style="fill:none;stroke:#00a6d6;stroke-dasharray:11.1,4.8;stroke-dashoffset:0;stroke-width:3;"/>
    </g>
    <g id="line2d_17"/>
    <g id="text_7">
     <!-- communicated  -->
     <defs>
      <path d="M 35.40625 51.90625 
L 52.203125 51.90625 
L 52.203125 5.171875 
L 60.6875 5.171875 
L 60.6875 0 
L 43.21875 0 
L 43.21875 9.1875 
Q 40.71875 4 36.765625 1.28125 
Q 32.8125 -1.421875 27.59375 -1.421875 
Q 18.953125 -1.421875 14.875 3.484375 
Q 10.796875 8.40625 10.796875 18.890625 
L 10.796875 46.6875 
L 2.6875 46.6875 
L 2.6875 51.90625 
L 19.828125 51.90625 
L 19.828125 21.6875 
Q 19.828125 12.203125 22.140625 8.6875 
Q 24.46875 5.171875 30.421875 5.171875 
Q 36.671875 5.171875 39.9375 9.765625 
Q 43.21875 14.359375 43.21875 23.09375 
L 43.21875 46.6875 
L 35.40625 46.6875 
z
" id="DejaVuSerif-117"/>
      <path d="M 52.484375 5.171875 
L 61.078125 5.171875 
L 61.078125 0 
L 43.5 0 
L 43.5 8.109375 
Q 40.875 3.21875 36.796875 0.890625 
Q 32.71875 -1.421875 26.703125 -1.421875 
Q 17.140625 -1.421875 11.0625 6.171875 
Q 4.984375 13.765625 4.984375 25.984375 
Q 4.984375 38.1875 11.03125 45.75 
Q 17.09375 53.328125 26.703125 53.328125 
Q 32.71875 53.328125 36.796875 51 
Q 40.875 48.6875 43.5 43.796875 
L 43.5 70.796875 
L 35.015625 70.796875 
L 35.015625 75.984375 
L 52.484375 75.984375 
z
M 43.5 23.390625 
L 43.5 28.515625 
Q 43.5 37.84375 39.90625 42.765625 
Q 36.328125 47.703125 29.5 47.703125 
Q 22.5625 47.703125 19.015625 42.234375 
Q 15.484375 36.765625 15.484375 25.984375 
Q 15.484375 15.234375 19.015625 9.71875 
Q 22.5625 4.203125 29.5 4.203125 
Q 36.328125 4.203125 39.90625 9.109375 
Q 43.5 14.015625 43.5 23.390625 
z
" id="DejaVuSerif-100"/>
     </defs>
     <g transform="translate(1212.35976 76.371629)scale(0.2 -0.2)">
      <use xlink:href="#DejaVuSerif-99"/>
      <use x="56.005859" xlink:href="#DejaVuSerif-111"/>
      <use x="116.210938" xlink:href="#DejaVuSerif-109"/>
      <use x="211.035156" xlink:href="#DejaVuSerif-109"/>
      <use x="305.859375" xlink:href="#DejaVuSerif-117"/>
      <use x="370.263672" xlink:href="#DejaVuSerif-110"/>
      <use x="434.667969" xlink:href="#DejaVuSerif-105"/>
      <use x="466.650391" xlink:href="#DejaVuSerif-99"/>
      <use x="522.65625" xlink:href="#DejaVuSerif-97"/>
      <use x="582.275391" xlink:href="#DejaVuSerif-116"/>
      <use x="622.460938" xlink:href="#DejaVuSerif-101"/>
      <use x="681.640625" xlink:href="#DejaVuSerif-100"/>
      <use x="745.654297" xlink:href="#DejaVuSerif-32"/>
     </g>
    </g>
    <g id="patch_8">
     <path d="M 1176.35976 105.727879 
L 1196.35976 105.727879 
L 1196.35976 91.727879 
L 1176.35976 91.727879 
z
" style="fill:#ff4500;opacity:0.1;stroke:#ff4500;stroke-linejoin:miter;stroke-width:3;"/>
    </g>
    <g id="text_8">
     <!-- attack active -->
     <defs>
      <path d="M 28.609375 0 
L 3.421875 0 
L 3.421875 5.171875 
L 11.53125 5.171875 
L 11.53125 70.796875 
L 2.875 70.796875 
L 2.875 75.984375 
L 20.515625 75.984375 
L 20.515625 26.515625 
L 42.390625 46.6875 
L 34.90625 46.6875 
L 34.90625 51.90625 
L 58.40625 51.90625 
L 58.40625 46.6875 
L 49.515625 46.6875 
L 34.078125 32.421875 
L 53.8125 5.171875 
L 61.28125 5.171875 
L 61.28125 0 
L 35.6875 0 
L 35.6875 5.171875 
L 43.109375 5.171875 
L 27.59375 26.515625 
L 20.515625 19.921875 
L 20.515625 5.171875 
L 28.609375 5.171875 
z
" id="DejaVuSerif-107"/>
     </defs>
     <g transform="translate(1212.35976 105.727879)scale(0.2 -0.2)">
      <use xlink:href="#DejaVuSerif-97"/>
      <use x="59.619141" xlink:href="#DejaVuSerif-116"/>
      <use x="99.804688" xlink:href="#DejaVuSerif-116"/>
      <use x="139.990234" xlink:href="#DejaVuSerif-97"/>
      <use x="199.609375" xlink:href="#DejaVuSerif-99"/>
      <use x="255.615234" xlink:href="#DejaVuSerif-107"/>
      <use x="316.210938" xlink:href="#DejaVuSerif-32"/>
      <use x="347.998047" xlink:href="#DejaVuSerif-97"/>
      <use x="407.617188" xlink:href="#DejaVuSerif-99"/>
      <use x="463.623047" xlink:href="#DejaVuSerif-116"/>
      <use x="503.808594" xlink:href="#DejaVuSerif-105"/>
      <use x="535.791016" xlink:href="#DejaVuSerif-118"/>
      <use x="592.285156" xlink:href="#DejaVuSerif-101"/>
     </g>
    </g>
   </g>
  </g>
  <g id="axes_2">
   <g id="patch_9">
    <path d="M 71.62272 418.03776 
L 1158.35976 418.03776 
L 1158.35976 237.179032 
L 71.62272 237.179032 
z
" style="fill:#ffffff;"/>
   </g>
   <g id="PolyCollection_2">
    <defs>
     <path d="M 318.334137 -229.380968 
L 318.334137 -48.52224 
L 321.270261 -48.52224 
L 324.228564 -48.52224 
L 327.142161 -48.52224 
L 330.079574 -48.52224 
L 333.01731 -48.52224 
L 335.953161 -48.52224 
L 338.89458 -48.52224 
L 341.828814 -48.52224 
L 344.765366 -48.52224 
L 347.702198 -48.52224 
L 350.639563 -48.52224 
L 353.576108 -48.52224 
L 356.513521 -48.52224 
L 359.450794 -48.52224 
L 362.388019 -48.52224 
L 365.325369 -48.52224 
L 368.26267 -48.52224 
L 371.228613 -48.52224 
L 374.140354 -48.52224 
L 377.074553 -48.52224 
L 380.010909 -48.52224 
L 382.94786 -48.52224 
L 385.885918 -48.52224 
L 388.822701 -48.52224 
L 391.759659 -48.52224 
L 394.697016 -48.52224 
L 397.635956 -48.52224 
L 400.572277 -48.52224 
L 403.506924 -48.52224 
L 406.445276 -48.52224 
L 409.384944 -48.52224 
L 412.320313 -48.52224 
L 415.257859 -48.52224 
L 418.194523 -48.52224 
L 421.132714 -48.52224 
L 424.069945 -48.52224 
L 427.005054 -48.52224 
L 429.942517 -48.52224 
L 432.880581 -48.52224 
L 435.817 -48.52224 
L 438.755576 -48.52224 
L 441.705965 -48.52224 
L 444.629982 -48.52224 
L 447.564826 -48.52224 
L 450.502764 -48.52224 
L 453.440437 -48.52224 
L 456.377556 -48.52224 
L 459.314689 -48.52224 
L 462.251759 -48.52224 
L 465.188892 -48.52224 
L 468.127657 -48.52224 
L 471.064223 -48.52224 
L 474.00018 -48.52224 
L 476.937544 -48.52224 
L 479.874804 -48.52224 
L 482.812119 -48.52224 
L 485.749553 -48.52224 
L 488.686378 -48.52224 
L 491.62466 -48.52224 
L 494.561576 -48.52224 
L 497.497995 -48.52224 
L 500.434127 -48.52224 
L 503.371883 -48.52224 
L 506.309423 -48.52224 
L 509.246556 -48.52224 
L 512.183696 -48.52224 
L 515.121936 -48.52224 
L 518.059048 -48.52224 
L 520.994444 -48.52224 
L 523.932383 -48.52224 
L 526.870518 -48.52224 
L 529.806887 -48.52224 
L 532.743614 -48.52224 
L 535.680944 -48.52224 
L 538.619092 -48.52224 
L 541.560266 -48.52224 
L 544.491923 -48.52224 
L 547.429014 -48.52224 
L 550.36696 -48.52224 
L 553.304065 -48.52224 
L 556.241934 -48.52224 
L 559.178346 -48.52224 
L 562.118651 -48.52224 
L 565.051681 -48.52224 
L 568.002651 -48.52224 
L 570.926941 -48.52224 
L 573.864614 -48.52224 
L 576.801943 -48.52224 
L 579.738355 -48.52224 
L 582.676252 -48.52224 
L 585.614036 -48.52224 
L 588.550672 -48.52224 
L 591.486426 -48.52224 
L 594.423286 -48.52224 
L 597.361469 -48.52224 
L 600.298729 -48.52224 
L 603.236023 -48.52224 
L 606.17345 -48.52224 
L 609.110514 -48.52224 
L 612.047759 -48.52224 
L 614.984626 -48.52224 
L 617.921073 -48.52224 
L 620.865279 -48.52224 
L 623.796278 -48.52224 
L 626.733271 -48.52224 
L 629.670537 -48.52224 
L 632.608679 -48.52224 
L 635.5446 -48.52224 
L 638.480753 -48.52224 
L 641.429448 -48.52224 
L 644.356504 -48.52224 
L 647.293651 -48.52224 
L 650.231709 -48.52224 
L 653.169886 -48.52224 
L 656.105828 -48.52224 
L 659.042387 -48.52224 
L 661.981782 -48.52224 
L 664.91575 -48.52224 
L 667.853563 -48.52224 
L 670.790927 -48.52224 
L 673.728032 -48.52224 
L 676.665327 -48.52224 
L 679.605618 -48.52224 
L 682.538991 -48.52224 
L 685.481166 -48.52224 
L 688.413362 -48.52224 
L 691.350825 -48.52224 
L 694.288434 -48.52224 
L 697.226113 -48.52224 
L 700.162721 -48.52224 
L 703.100632 -48.52224 
L 706.037247 -48.52224 
L 708.972938 -48.52224 
L 711.909182 -48.52224 
L 714.847512 -48.52224 
L 717.785486 -48.52224 
L 720.723004 -48.52224 
L 723.659906 -48.52224 
L 726.597628 -48.52224 
L 729.534649 -48.52224 
L 732.471019 -48.52224 
L 735.407949 -48.52224 
L 738.344809 -48.52224 
L 741.286844 -48.52224 
L 744.220819 -48.52224 
L 747.157651 -48.52224 
L 750.095555 -48.52224 
L 753.032058 -48.52224 
L 755.968631 -48.52224 
L 758.904741 -48.52224 
L 761.842547 -48.52224 
L 764.779435 -48.52224 
L 767.71736 -48.52224 
L 770.670781 -48.52224 
L 773.593923 -48.52224 
L 776.528948 -48.52224 
L 779.46452 -48.52224 
L 782.401401 -48.52224 
L 785.339935 -48.52224 
L 788.277838 -48.52224 
L 791.215441 -48.52224 
L 794.152434 -48.52224 
L 797.089434 -48.52224 
L 800.026686 -48.52224 
L 802.962825 -48.52224 
L 805.909895 -48.52224 
L 808.837484 -48.52224 
L 811.774932 -48.52224 
L 814.71238 -48.52224 
L 817.64992 -48.52224 
L 820.587172 -48.52224 
L 823.525159 -48.52224 
L 826.459555 -48.52224 
L 829.398284 -48.52224 
L 832.335467 -48.52224 
L 835.2726 -48.52224 
L 838.209761 -48.52224 
L 841.14674 -48.52224 
L 844.085372 -48.52224 
L 847.021406 -48.52224 
L 849.958504 -48.52224 
L 852.895644 -48.52224 
L 855.832763 -48.52224 
L 858.770275 -48.52224 
L 861.707303 -48.52224 
L 864.645571 -48.52224 
L 867.582088 -48.52224 
L 870.518682 -48.52224 
L 873.455395 -48.52224 
L 876.393494 -48.52224 
L 879.329836 -48.52224 
L 882.267291 -48.52224 
L 885.204943 -48.52224 
L 888.1423 -48.52224 
L 891.078796 -48.52224 
L 894.01595 -48.52224 
L 896.951893 -48.52224 
L 899.889895 -48.52224 
L 902.826622 -48.52224 
L 905.764889 -48.52224 
L 908.7017 -48.52224 
L 911.639044 -48.52224 
L 914.578397 -48.52224 
L 917.513695 -48.52224 
L 920.449505 -48.52224 
L 923.386001 -48.52224 
L 926.324311 -48.52224 
L 929.262774 -48.52224 
L 932.200062 -48.52224 
L 935.138308 -48.52224 
L 938.073775 -48.52224 
L 941.016069 -48.52224 
L 943.946501 -48.52224 
L 946.892941 -48.52224 
L 949.821782 -48.52224 
L 952.759455 -48.52224 
L 955.697113 -48.52224 
L 958.634492 -48.52224 
L 961.571485 -48.52224 
L 964.508268 -48.52224 
L 967.444561 -48.52224 
L 970.381456 -48.52224 
L 973.322132 -48.52224 
L 976.263782 -48.52224 
L 979.201469 -48.52224 
L 982.131032 -48.52224 
L 985.068144 -48.52224 
L 988.009409 -48.52224 
L 990.942782 -48.52224 
L 993.880608 -48.52224 
L 996.815844 -48.52224 
L 999.753733 -48.52224 
L 1002.692071 -48.52224 
L 1005.628735 -48.52224 
L 1008.566449 -48.52224 
L 1011.503022 -48.52224 
L 1014.453811 -48.52224 
L 1017.378241 -48.52224 
L 1020.315802 -48.52224 
L 1023.25227 -48.52224 
L 1026.189382 -48.52224 
L 1029.125612 -48.52224 
L 1032.063543 -48.52224 
L 1034.999059 -48.52224 
L 1037.936885 -48.52224 
L 1040.87439 -48.52224 
L 1043.811719 -48.52224 
L 1046.749706 -48.52224 
L 1049.686286 -48.52224 
L 1052.622831 -48.52224 
L 1055.560294 -48.52224 
L 1058.499465 -48.52224 
L 1061.435723 -48.52224 
L 1064.371231 -48.52224 
L 1067.308518 -48.52224 
L 1070.246058 -48.52224 
L 1073.183254 -48.52224 
L 1076.12052 -48.52224 
L 1079.058389 -48.52224 
L 1082.00048 -48.52224 
L 1084.932459 -48.52224 
L 1087.869186 -48.52224 
L 1090.806417 -48.52224 
L 1093.744188 -48.52224 
L 1096.680866 -48.52224 
L 1099.619078 -48.52224 
L 1102.555195 -48.52224 
L 1105.490886 -48.52224 
L 1108.429833 -48.52224 
L 1111.36635 -48.52224 
L 1114.303287 -48.52224 
L 1117.247178 -48.52224 
L 1120.178254 -48.52224 
L 1123.11573 -48.52224 
L 1126.052541 -48.52224 
L 1129.003722 -48.52224 
L 1131.927347 -48.52224 
L 1134.862358 -48.52224 
L 1137.800458 -48.52224 
L 1140.737997 -48.52224 
L 1143.674682 -48.52224 
L 1146.612053 -48.52224 
L 1149.580804 -48.52224 
L 1152.487854 -48.52224 
L 1155.42402 -48.52224 
L 1158.35976 -48.52224 
L 1158.35976 -229.380968 
L 1158.35976 -229.380968 
L 1155.42402 -229.380968 
L 1152.487854 -229.380968 
L 1149.580804 -229.380968 
L 1146.612053 -229.380968 
L 1143.674682 -229.380968 
L 1140.737997 -229.380968 
L 1137.800458 -229.380968 
L 1134.862358 -229.380968 
L 1131.927347 -229.380968 
L 1129.003722 -229.380968 
L 1126.052541 -229.380968 
L 1123.11573 -229.380968 
L 1120.178254 -229.380968 
L 1117.247178 -229.380968 
L 1114.303287 -229.380968 
L 1111.36635 -229.380968 
L 1108.429833 -229.380968 
L 1105.490886 -229.380968 
L 1102.555195 -229.380968 
L 1099.619078 -229.380968 
L 1096.680866 -229.380968 
L 1093.744188 -229.380968 
L 1090.806417 -229.380968 
L 1087.869186 -229.380968 
L 1084.932459 -229.380968 
L 1082.00048 -229.380968 
L 1079.058389 -229.380968 
L 1076.12052 -229.380968 
L 1073.183254 -229.380968 
L 1070.246058 -229.380968 
L 1067.308518 -229.380968 
L 1064.371231 -229.380968 
L 1061.435723 -229.380968 
L 1058.499465 -229.380968 
L 1055.560294 -229.380968 
L 1052.622831 -229.380968 
L 1049.686286 -229.380968 
L 1046.749706 -229.380968 
L 1043.811719 -229.380968 
L 1040.87439 -229.380968 
L 1037.936885 -229.380968 
L 1034.999059 -229.380968 
L 1032.063543 -229.380968 
L 1029.125612 -229.380968 
L 1026.189382 -229.380968 
L 1023.25227 -229.380968 
L 1020.315802 -229.380968 
L 1017.378241 -229.380968 
L 1014.453811 -229.380968 
L 1011.503022 -229.380968 
L 1008.566449 -229.380968 
L 1005.628735 -229.380968 
L 1002.692071 -229.380968 
L 999.753733 -229.380968 
L 996.815844 -229.380968 
L 993.880608 -229.380968 
L 990.942782 -229.380968 
L 988.009409 -229.380968 
L 985.068144 -229.380968 
L 982.131032 -229.380968 
L 979.201469 -229.380968 
L 976.263782 -229.380968 
L 973.322132 -229.380968 
L 970.381456 -229.380968 
L 967.444561 -229.380968 
L 964.508268 -229.380968 
L 961.571485 -229.380968 
L 958.634492 -229.380968 
L 955.697113 -229.380968 
L 952.759455 -229.380968 
L 949.821782 -229.380968 
L 946.892941 -229.380968 
L 943.946501 -229.380968 
L 941.016069 -229.380968 
L 938.073775 -229.380968 
L 935.138308 -229.380968 
L 932.200062 -229.380968 
L 929.262774 -229.380968 
L 926.324311 -229.380968 
L 923.386001 -229.380968 
L 920.449505 -229.380968 
L 917.513695 -229.380968 
L 914.578397 -229.380968 
L 911.639044 -229.380968 
L 908.7017 -229.380968 
L 905.764889 -229.380968 
L 902.826622 -229.380968 
L 899.889895 -229.380968 
L 896.951893 -229.380968 
L 894.01595 -229.380968 
L 891.078796 -229.380968 
L 888.1423 -229.380968 
L 885.204943 -229.380968 
L 882.267291 -229.380968 
L 879.329836 -229.380968 
L 876.393494 -229.380968 
L 873.455395 -229.380968 
L 870.518682 -229.380968 
L 867.582088 -229.380968 
L 864.645571 -229.380968 
L 861.707303 -229.380968 
L 858.770275 -229.380968 
L 855.832763 -229.380968 
L 852.895644 -229.380968 
L 849.958504 -229.380968 
L 847.021406 -229.380968 
L 844.085372 -229.380968 
L 841.14674 -229.380968 
L 838.209761 -229.380968 
L 835.2726 -229.380968 
L 832.335467 -229.380968 
L 829.398284 -229.380968 
L 826.459555 -229.380968 
L 823.525159 -229.380968 
L 820.587172 -229.380968 
L 817.64992 -229.380968 
L 814.71238 -229.380968 
L 811.774932 -229.380968 
L 808.837484 -229.380968 
L 805.909895 -229.380968 
L 802.962825 -229.380968 
L 800.026686 -229.380968 
L 797.089434 -229.380968 
L 794.152434 -229.380968 
L 791.215441 -229.380968 
L 788.277838 -229.380968 
L 785.339935 -229.380968 
L 782.401401 -229.380968 
L 779.46452 -229.380968 
L 776.528948 -229.380968 
L 773.593923 -229.380968 
L 770.670781 -229.380968 
L 767.71736 -229.380968 
L 764.779435 -229.380968 
L 761.842547 -229.380968 
L 758.904741 -229.380968 
L 755.968631 -229.380968 
L 753.032058 -229.380968 
L 750.095555 -229.380968 
L 747.157651 -229.380968 
L 744.220819 -229.380968 
L 741.286844 -229.380968 
L 738.344809 -229.380968 
L 735.407949 -229.380968 
L 732.471019 -229.380968 
L 729.534649 -229.380968 
L 726.597628 -229.380968 
L 723.659906 -229.380968 
L 720.723004 -229.380968 
L 717.785486 -229.380968 
L 714.847512 -229.380968 
L 711.909182 -229.380968 
L 708.972938 -229.380968 
L 706.037247 -229.380968 
L 703.100632 -229.380968 
L 700.162721 -229.380968 
L 697.226113 -229.380968 
L 694.288434 -229.380968 
L 691.350825 -229.380968 
L 688.413362 -229.380968 
L 685.481166 -229.380968 
L 682.538991 -229.380968 
L 679.605618 -229.380968 
L 676.665327 -229.380968 
L 673.728032 -229.380968 
L 670.790927 -229.380968 
L 667.853563 -229.380968 
L 664.91575 -229.380968 
L 661.981782 -229.380968 
L 659.042387 -229.380968 
L 656.105828 -229.380968 
L 653.169886 -229.380968 
L 650.231709 -229.380968 
L 647.293651 -229.380968 
L 644.356504 -229.380968 
L 641.429448 -229.380968 
L 638.480753 -229.380968 
L 635.5446 -229.380968 
L 632.608679 -229.380968 
L 629.670537 -229.380968 
L 626.733271 -229.380968 
L 623.796278 -229.380968 
L 620.865279 -229.380968 
L 617.921073 -229.380968 
L 614.984626 -229.380968 
L 612.047759 -229.380968 
L 609.110514 -229.380968 
L 606.17345 -229.380968 
L 603.236023 -229.380968 
L 600.298729 -229.380968 
L 597.361469 -229.380968 
L 594.423286 -229.380968 
L 591.486426 -229.380968 
L 588.550672 -229.380968 
L 585.614036 -229.380968 
L 582.676252 -229.380968 
L 579.738355 -229.380968 
L 576.801943 -229.380968 
L 573.864614 -229.380968 
L 570.926941 -229.380968 
L 568.002651 -229.380968 
L 565.051681 -229.380968 
L 562.118651 -229.380968 
L 559.178346 -229.380968 
L 556.241934 -229.380968 
L 553.304065 -229.380968 
L 550.36696 -229.380968 
L 547.429014 -229.380968 
L 544.491923 -229.380968 
L 541.560266 -229.380968 
L 538.619092 -229.380968 
L 535.680944 -229.380968 
L 532.743614 -229.380968 
L 529.806887 -229.380968 
L 526.870518 -229.380968 
L 523.932383 -229.380968 
L 520.994444 -229.380968 
L 518.059048 -229.380968 
L 515.121936 -229.380968 
L 512.183696 -229.380968 
L 509.246556 -229.380968 
L 506.309423 -229.380968 
L 503.371883 -229.380968 
L 500.434127 -229.380968 
L 497.497995 -229.380968 
L 494.561576 -229.380968 
L 491.62466 -229.380968 
L 488.686378 -229.380968 
L 485.749553 -229.380968 
L 482.812119 -229.380968 
L 479.874804 -229.380968 
L 476.937544 -229.380968 
L 474.00018 -229.380968 
L 471.064223 -229.380968 
L 468.127657 -229.380968 
L 465.188892 -229.380968 
L 462.251759 -229.380968 
L 459.314689 -229.380968 
L 456.377556 -229.380968 
L 453.440437 -229.380968 
L 450.502764 -229.380968 
L 447.564826 -229.380968 
L 444.629982 -229.380968 
L 441.705965 -229.380968 
L 438.755576 -229.380968 
L 435.817 -229.380968 
L 432.880581 -229.380968 
L 429.942517 -229.380968 
L 427.005054 -229.380968 
L 424.069945 -229.380968 
L 421.132714 -229.380968 
L 418.194523 -229.380968 
L 415.257859 -229.380968 
L 412.320313 -229.380968 
L 409.384944 -229.380968 
L 406.445276 -229.380968 
L 403.506924 -229.380968 
L 400.572277 -229.380968 
L 397.635956 -229.380968 
L 394.697016 -229.380968 
L 391.759659 -229.380968 
L 388.822701 -229.380968 
L 385.885918 -229.380968 
L 382.94786 -229.380968 
L 380.010909 -229.380968 
L 377.074553 -229.380968 
L 374.140354 -229.380968 
L 371.228613 -229.380968 
L 368.26267 -229.380968 
L 365.325369 -229.380968 
L 362.388019 -229.380968 
L 359.450794 -229.380968 
L 356.513521 -229.380968 
L 353.576108 -229.380968 
L 350.639563 -229.380968 
L 347.702198 -229.380968 
L 344.765366 -229.380968 
L 341.828814 -229.380968 
L 338.89458 -229.380968 
L 335.953161 -229.380968 
L 333.01731 -229.380968 
L 330.079574 -229.380968 
L 327.142161 -229.380968 
L 324.228564 -229.380968 
L 321.270261 -229.380968 
L 318.334137 -229.380968 
z
" id="mc6dc87b9b2" style="stroke:#ff4500;stroke-opacity:0.1;stroke-width:3;"/>
    </defs>
    <g clip-path="url(#p39e2fb561b)">
     <use style="fill:#ff4500;fill-opacity:0.1;stroke:#ff4500;stroke-opacity:0.1;stroke-width:3;" x="0" xlink:href="#mc6dc87b9b2" y="466.56"/>
    </g>
   </g>
   <g id="matplotlib.axis_3">
    <g id="xtick_9">
     <g id="line2d_18">
      <g>
       <use style="stroke:#000000;stroke-width:0.8;" x="71.62272" xlink:href="#m3b83ee6a9a" y="418.03776"/>
      </g>
     </g>
     <g id="text_9">
      <!-- 0 -->
      <g transform="translate(65.26022 440.234635)scale(0.2 -0.2)">
       <use xlink:href="#DejaVuSerif-48"/>
      </g>
     </g>
    </g>
    <g id="xtick_10">
     <g id="line2d_19">
      <g>
       <use style="stroke:#000000;stroke-width:0.8;" x="218.481271" xlink:href="#m3b83ee6a9a" y="418.03776"/>
      </g>
     </g>
     <g id="text_10">
      <!-- 5 -->
      <defs>
       <path d="M 50.296875 72.90625 
L 50.296875 64.890625 
L 16.890625 64.890625 
L 16.890625 44 
Q 19.4375 45.75 22.828125 46.625 
Q 26.21875 47.515625 30.421875 47.515625 
Q 42.234375 47.515625 49.0625 40.96875 
Q 55.90625 34.421875 55.90625 23.09375 
Q 55.90625 11.53125 49 5.046875 
Q 42.09375 -1.421875 29.59375 -1.421875 
Q 24.5625 -1.421875 19.28125 -0.1875 
Q 14.015625 1.03125 8.5 3.515625 
L 8.5 17.671875 
L 14.015625 17.671875 
Q 14.453125 10.75 18.421875 7.078125 
Q 22.40625 3.421875 29.59375 3.421875 
Q 37.3125 3.421875 41.453125 8.5 
Q 45.609375 13.578125 45.609375 23.09375 
Q 45.609375 32.5625 41.484375 37.609375 
Q 37.359375 42.671875 29.59375 42.671875 
Q 25.203125 42.671875 21.84375 41.109375 
Q 18.5 39.546875 15.921875 36.28125 
L 11.71875 36.28125 
L 11.71875 72.90625 
z
" id="DejaVuSerif-53"/>
      </defs>
      <g transform="translate(212.118771 440.234635)scale(0.2 -0.2)">
       <use xlink:href="#DejaVuSerif-53"/>
      </g>
     </g>
    </g>
    <g id="xtick_11">
     <g id="line2d_20">
      <g>
       <use style="stroke:#000000;stroke-width:0.8;" x="365.339823" xlink:href="#m3b83ee6a9a" y="418.03776"/>
      </g>
     </g>
     <g id="text_11">
      <!-- 10 -->
      <g transform="translate(352.614823 440.234635)scale(0.2 -0.2)">
       <use xlink:href="#DejaVuSerif-49"/>
       <use x="63.623047" xlink:href="#DejaVuSerif-48"/>
      </g>
     </g>
    </g>
    <g id="xtick_12">
     <g id="line2d_21">
      <g>
       <use style="stroke:#000000;stroke-width:0.8;" x="512.198374" xlink:href="#m3b83ee6a9a" y="418.03776"/>
      </g>
     </g>
     <g id="text_12">
      <!-- 15 -->
      <g transform="translate(499.473374 440.234635)scale(0.2 -0.2)">
       <use xlink:href="#DejaVuSerif-49"/>
       <use x="63.623047" xlink:href="#DejaVuSerif-53"/>
      </g>
     </g>
    </g>
    <g id="xtick_13">
     <g id="line2d_22">
      <g>
       <use style="stroke:#000000;stroke-width:0.8;" x="659.056925" xlink:href="#m3b83ee6a9a" y="418.03776"/>
      </g>
     </g>
     <g id="text_13">
      <!-- 20 -->
      <defs>
       <path d="M 12.796875 55.515625 
L 7.328125 55.515625 
L 7.328125 68.5 
Q 12.546875 71.296875 17.84375 72.75 
Q 23.140625 74.21875 28.21875 74.21875 
Q 39.59375 74.21875 46.1875 68.703125 
Q 52.78125 63.1875 52.78125 53.71875 
Q 52.78125 43.015625 37.84375 28.125 
Q 36.671875 27 36.078125 26.421875 
L 17.671875 8.015625 
L 48.09375 8.015625 
L 48.09375 17 
L 53.8125 17 
L 53.8125 0 
L 6.78125 0 
L 6.78125 5.328125 
L 28.90625 27.390625 
Q 36.234375 34.71875 39.359375 40.84375 
Q 42.484375 46.96875 42.484375 53.71875 
Q 42.484375 61.078125 38.640625 65.234375 
Q 34.8125 69.390625 28.078125 69.390625 
Q 21.09375 69.390625 17.28125 65.921875 
Q 13.484375 62.453125 12.796875 55.515625 
z
" id="DejaVuSerif-50"/>
      </defs>
      <g transform="translate(646.331925 440.234635)scale(0.2 -0.2)">
       <use xlink:href="#DejaVuSerif-50"/>
       <use x="63.623047" xlink:href="#DejaVuSerif-48"/>
      </g>
     </g>
    </g>
    <g id="xtick_14">
     <g id="line2d_23">
      <g>
       <use style="stroke:#000000;stroke-width:0.8;" x="805.915476" xlink:href="#m3b83ee6a9a" y="418.03776"/>
      </g>
     </g>
     <g id="text_14">
      <!-- 25 -->
      <g transform="translate(793.190476 440.234635)scale(0.2 -0.2)">
       <use xlink:href="#DejaVuSerif-50"/>
       <use x="63.623047" xlink:href="#DejaVuSerif-53"/>
      </g>
     </g>
    </g>
    <g id="xtick_15">
     <g id="line2d_24">
      <g>
       <use style="stroke:#000000;stroke-width:0.8;" x="952.774028" xlink:href="#m3b83ee6a9a" y="418.03776"/>
      </g>
     </g>
     <g id="text_15">
      <!-- 30 -->
      <defs>
       <path d="M 9.71875 69.828125 
Q 15.4375 71.96875 20.671875 73.09375 
Q 25.921875 74.21875 30.515625 74.21875 
Q 41.21875 74.21875 47.21875 69.59375 
Q 53.21875 64.984375 53.21875 56.78125 
Q 53.21875 50.203125 49.0625 45.78125 
Q 44.921875 41.359375 37.3125 39.796875 
Q 46.296875 38.53125 51.25 33.28125 
Q 56.203125 28.03125 56.203125 19.671875 
Q 56.203125 9.46875 49.34375 4.015625 
Q 42.484375 -1.421875 29.59375 -1.421875 
Q 23.875 -1.421875 18.421875 -0.1875 
Q 12.984375 1.03125 7.625 3.515625 
L 7.625 17.671875 
L 13.09375 17.671875 
Q 13.578125 10.640625 17.828125 7.03125 
Q 22.078125 3.421875 29.78125 3.421875 
Q 37.25 3.421875 41.578125 7.734375 
Q 45.90625 12.0625 45.90625 19.578125 
Q 45.90625 28.171875 41.453125 32.59375 
Q 37.015625 37.015625 28.421875 37.015625 
L 23.78125 37.015625 
L 23.78125 42 
L 26.21875 42 
Q 34.765625 42 39.03125 45.53125 
Q 43.3125 49.078125 43.3125 56.203125 
Q 43.3125 62.59375 39.796875 65.984375 
Q 36.28125 69.390625 29.6875 69.390625 
Q 23.09375 69.390625 19.453125 66.265625 
Q 15.828125 63.140625 15.1875 56.984375 
L 9.71875 56.984375 
z
" id="DejaVuSerif-51"/>
      </defs>
      <g transform="translate(940.049028 440.234635)scale(0.2 -0.2)">
       <use xlink:href="#DejaVuSerif-51"/>
       <use x="63.623047" xlink:href="#DejaVuSerif-48"/>
      </g>
     </g>
    </g>
    <g id="xtick_16">
     <g id="line2d_25">
      <g>
       <use style="stroke:#000000;stroke-width:0.8;" x="1099.632579" xlink:href="#m3b83ee6a9a" y="418.03776"/>
      </g>
     </g>
     <g id="text_16">
      <!-- 35 -->
      <g transform="translate(1086.907579 440.234635)scale(0.2 -0.2)">
       <use xlink:href="#DejaVuSerif-51"/>
       <use x="63.623047" xlink:href="#DejaVuSerif-53"/>
      </g>
     </g>
    </g>
    <g id="text_17">
     <!-- Time [s] -->
     <defs>
      <path d="M 19.09375 0 
L 19.09375 5.171875 
L 28.421875 5.171875 
L 28.421875 67.09375 
L 6.984375 67.09375 
L 6.984375 55.71875 
L 0.984375 55.71875 
L 0.984375 72.90625 
L 65.71875 72.90625 
L 65.71875 55.71875 
L 59.71875 55.71875 
L 59.71875 67.09375 
L 38.28125 67.09375 
L 38.28125 5.171875 
L 47.609375 5.171875 
L 47.609375 0 
z
" id="DejaVuSerif-84"/>
     </defs>
     <g transform="translate(573.608427 463.590885)scale(0.2 -0.2)">
      <use xlink:href="#DejaVuSerif-84"/>
      <use x="66.699219" xlink:href="#DejaVuSerif-105"/>
      <use x="98.681641" xlink:href="#DejaVuSerif-109"/>
      <use x="193.505859" xlink:href="#DejaVuSerif-101"/>
      <use x="252.685547" xlink:href="#DejaVuSerif-32"/>
      <use x="284.472656" xlink:href="#DejaVuSerif-91"/>
      <use x="323.486328" xlink:href="#DejaVuSerif-115"/>
      <use x="374.804688" xlink:href="#DejaVuSerif-93"/>
     </g>
    </g>
   </g>
   <g id="matplotlib.axis_4">
    <g id="ytick_4">
     <g id="line2d_26">
      <g>
       <use style="stroke:#000000;stroke-width:0.8;" x="71.62272" xlink:href="#m879de8f529" y="418.03776"/>
      </g>
     </g>
     <g id="text_18">
      <!-- 0 -->
      <g transform="translate(51.89772 425.636198)scale(0.2 -0.2)">
       <use xlink:href="#DejaVuSerif-48"/>
      </g>
     </g>
    </g>
    <g id="ytick_5">
     <g id="line2d_27">
      <g>
       <use style="stroke:#000000;stroke-width:0.8;" x="71.62272" xlink:href="#m879de8f529" y="343.024755"/>
      </g>
     </g>
     <g id="text_19">
      <!-- 1 -->
      <g transform="translate(51.89772 350.623192)scale(0.2 -0.2)">
       <use xlink:href="#DejaVuSerif-49"/>
      </g>
     </g>
    </g>
    <g id="ytick_6">
     <g id="line2d_28">
      <g>
       <use style="stroke:#000000;stroke-width:0.8;" x="71.62272" xlink:href="#m879de8f529" y="268.01175"/>
      </g>
     </g>
     <g id="text_20">
      <!-- 2 -->
      <g transform="translate(51.89772 275.610187)scale(0.2 -0.2)">
       <use xlink:href="#DejaVuSerif-50"/>
      </g>
     </g>
    </g>
    <g id="text_21">
     <!-- [m/s] -->
     <g transform="translate(43.738345 353.394334)rotate(-90)scale(0.2 -0.2)">
      <use xlink:href="#DejaVuSerif-91"/>
      <use x="39.013672" xlink:href="#DejaVuSerif-109"/>
      <use x="133.837891" xlink:href="#DejaVuSerif-47"/>
      <use x="167.529297" xlink:href="#DejaVuSerif-115"/>
      <use x="218.847656" xlink:href="#DejaVuSerif-93"/>
     </g>
    </g>
   </g>
   <g id="line2d_29">
    <path clip-path="url(#p39e2fb561b)" d="M 71.62272 418.03776 
L 74.544265 408.06103 
L 77.481216 409.985114 
L 80.419323 403.261511 
L 83.357205 384.759487 
L 86.294142 397.825377 
L 89.231584 394.560258 
L 92.16941 390.745767 
L 95.106102 389.259872 
L 98.04367 388.435136 
L 100.979472 398.987038 
L 103.916725 405.38165 
L 106.8539 416.767926 
L 109.791383 412.766376 
L 112.728705 408.367079 
L 115.664319 403.152085 
L 118.602349 391.71766 
L 121.539321 394.071782 
L 124.476986 382.055715 
L 127.414505 391.629566 
L 130.351638 390.358395 
L 133.289023 403.403249 
L 136.226654 406.208732 
L 139.16378 404.208603 
L 142.10468 399.457981 
L 145.03778 387.42905 
L 147.97436 387.403557 
L 150.911962 389.194179 
L 153.851154 402.297252 
L 156.786187 405.158035 
L 159.72325 403.210441 
L 162.661854 411.726547 
L 165.5976 398.048545 
L 168.534145 401.121763 
L 171.471489 406.891828 
L 174.409014 404.857545 
L 177.346336 411.47645 
L 180.284485 415.94957 
L 183.220358 407.761412 
L 186.158835 414.235124 
L 189.094876 401.467336 
L 192.031428 405.405264 
L 194.968421 417.697783 
L 197.905814 417.973694 
L 200.844137 417.839712 
L 203.781004 411.889711 
L 206.718698 411.938202 
L 209.656517 406.988277 
L 212.592278 413.500662 
L 215.530427 413.986429 
L 218.468071 417.741479 
L 221.403937 412.83204 
L 224.341077 404.281932 
L 227.278385 416.112786 
L 230.21535 414.424414 
L 233.154556 414.863993 
L 236.090513 408.544947 
L 239.026316 413.580193 
L 241.963316 416.394651 
L 244.900904 408.702058 
L 247.838325 411.760423 
L 250.775738 417.51637 
L 253.712787 414.905855 
L 256.651139 412.47087 
L 259.587481 407.307126 
L 262.523886 417.433266 
L 265.460977 412.021411 
L 268.398614 417.793397 
L 274.272692 413.750649 
L 277.21014 413.188271 
L 280.149738 399.437182 
L 283.100534 400.626122 
L 286.021049 407.456599 
L 288.961957 410.727977 
L 291.896857 416.535547 
L 294.83317 410.650754 
L 297.770325 416.462185 
L 300.707451 414.092485 
L 303.646377 415.825877 
L 309.519432 415.536658 
L 312.455585 414.971735 
L 315.392256 415.383948 
L 318.334137 416.283142 
L 321.270261 400.693158 
L 324.228564 402.985632 
L 327.142161 393.761507 
L 330.079574 387.849084 
L 333.01731 385.082778 
L 335.953161 385.305287 
L 338.89458 389.792396 
L 341.828814 376.9522 
L 344.765366 376.155979 
L 347.702198 366.848096 
L 350.639563 362.281344 
L 353.576108 357.942929 
L 356.513521 353.821435 
L 359.450794 352.756511 
L 362.388019 346.043843 
L 365.325369 331.11532 
L 368.26267 322.634224 
L 371.228613 331.680148 
L 374.140354 320.320302 
L 377.074553 318.079939 
L 380.010909 313.101103 
L 382.94786 302.670217 
L 385.885918 301.312359 
L 388.822701 308.573877 
L 391.759659 309.771327 
L 394.697016 319.460396 
L 397.635956 314.412537 
L 400.572277 312.467563 
L 403.506924 290.666371 
L 406.445276 301.31068 
L 409.384944 291.469315 
L 412.320313 296.372485 
L 415.257859 295.329522 
L 418.194523 297.18919 
L 421.132714 301.806383 
L 424.069945 294.790716 
L 427.005054 299.527833 
L 429.942517 304.028076 
L 432.880581 296.901342 
L 435.817 301.532911 
L 438.755576 297.381426 
L 441.705965 293.437516 
L 444.629982 301.092767 
L 447.564826 299.813781 
L 450.502764 292.897762 
L 453.440437 292.028526 
L 456.377556 282.651261 
L 459.314689 285.144842 
L 462.251759 276.111778 
L 465.188892 284.633316 
L 468.127657 284.177302 
L 471.064223 286.594598 
L 474.00018 286.040521 
L 476.937544 288.364639 
L 479.874804 282.021059 
L 482.812119 281.695659 
L 485.749553 275.685546 
L 488.686378 278.527417 
L 491.62466 275.526202 
L 494.561576 281.226528 
L 497.497995 269.53888 
L 503.371883 275.679828 
L 506.309423 275.671489 
L 512.183696 270.097574 
L 515.121936 270.368348 
L 518.059048 299.130524 
L 520.994444 303.650643 
L 523.932383 310.795243 
L 526.870518 323.283608 
L 529.806887 310.918344 
L 532.743614 306.297593 
L 535.680944 313.309845 
L 538.619092 317.120994 
L 541.560266 337.84455 
L 544.491923 357.531934 
L 547.429014 373.384448 
L 550.36696 388.444332 
L 553.304065 407.026967 
L 556.241934 393.325044 
L 559.178346 407.387898 
L 562.118651 395.093165 
L 565.051681 403.36663 
L 568.002651 408.375931 
L 570.926941 408.68828 
L 573.864614 387.777052 
L 576.801943 385.014344 
L 579.738355 366.712059 
L 582.676252 359.301617 
L 585.614036 357.96268 
L 588.550672 339.587724 
L 591.486426 350.636465 
L 594.423286 344.029803 
L 597.361469 340.603965 
L 600.298729 340.199911 
L 603.236023 328.414085 
L 606.17345 322.918533 
L 609.110514 311.996784 
L 612.047759 304.471606 
L 614.984626 305.87417 
L 617.921073 301.505622 
L 620.865279 308.757477 
L 623.796278 304.244764 
L 626.733271 302.808178 
L 629.670537 295.74243 
L 632.608679 289.029978 
L 635.5446 294.055115 
L 638.480753 290.277516 
L 641.429448 298.09078 
L 644.356504 296.961893 
L 647.293651 298.739938 
L 650.231709 294.728107 
L 653.169886 293.767354 
L 656.105828 287.153647 
L 659.042387 278.020139 
L 661.981782 289.296759 
L 664.91575 297.159052 
L 667.853563 298.927248 
L 670.790927 303.457529 
L 673.728032 299.20981 
L 676.665327 292.32398 
L 679.605618 285.782451 
L 682.538991 290.969964 
L 685.481166 278.795143 
L 688.413362 284.33203 
L 691.350825 286.741568 
L 694.288434 300.432621 
L 697.226113 296.336143 
L 700.162721 292.444497 
L 703.100632 288.747424 
L 706.037247 282.384723 
L 711.909182 281.714735 
L 714.847512 272.853167 
L 717.785486 278.687153 
L 720.723004 275.677948 
L 726.597628 281.220337 
L 729.534649 275.233981 
L 732.471019 269.546951 
L 735.407949 275.546239 
L 738.344809 278.39508 
L 741.286844 269.699495 
L 744.220819 269.990173 
L 747.157651 267.415817 
L 750.095555 270.671179 
L 753.032058 276.614255 
L 755.968631 270.858212 
L 761.842547 271.312059 
L 764.779435 262.970617 
L 767.71736 269.29873 
L 770.670781 266.758959 
L 773.593923 272.897651 
L 776.528948 270.177929 
L 779.46452 270.444685 
L 782.401401 276.399095 
L 785.339935 276.354784 
L 788.277838 282.013689 
L 791.215441 281.688657 
L 794.152434 275.678885 
L 797.089434 275.670602 
L 800.026686 269.961733 
L 802.962825 264.538299 
L 805.909895 273.638528 
L 808.837484 282.283737 
L 811.774932 301.898656 
L 814.71238 309.130864 
L 817.64992 316.001453 
L 820.587172 322.528521 
L 823.525159 328.729218 
L 826.459555 334.619898 
L 829.398284 333.089798 
L 832.335467 341.61294 
L 835.2726 344.008942 
L 838.209761 360.537601 
L 841.14674 364.837862 
L 844.085372 380.325075 
L 847.021406 383.635962 
L 849.958504 409.585253 
L 852.895644 411.433114 
L 855.832763 404.358709 
L 858.770275 392.215443 
L 861.707303 374.978341 
L 864.645571 381.407059 
L 867.582088 370.411359 
L 870.518682 377.068426 
L 873.455395 366.289675 
L 876.393494 370.302322 
L 879.329836 365.562858 
L 882.267291 352.508889 
L 885.204943 351.509593 
L 888.1423 342.008766 
L 891.078796 341.534484 
L 894.01595 332.532413 
L 896.951893 338.23294 
L 899.889895 332.24645 
L 902.826622 326.559276 
L 905.764889 326.857469 
L 908.7017 318.589248 
L 911.639044 316.435438 
L 914.578397 308.688336 
L 917.513695 309.880063 
L 920.449505 296.759738 
L 923.386001 315.650869 
L 926.324311 299.391504 
L 929.262774 289.646098 
L 932.200062 286.088954 
L 935.138308 294.111634 
L 938.073775 281.77973 
L 941.016069 292.86837 
L 943.946501 297.701596 
L 946.892941 296.592169 
L 949.821782 301.239196 
L 952.759455 299.952888 
L 955.697113 290.179422 
L 958.634492 295.147086 
L 961.571485 294.165385 
L 964.508268 296.083259 
L 967.444561 300.755749 
L 970.381456 299.493614 
L 973.322132 303.995569 
L 976.263782 285.468477 
L 979.201469 284.970705 
L 982.131032 273.095844 
L 985.068144 278.917692 
L 988.009409 267.345485 
L 990.942782 273.454855 
L 993.880608 273.557765 
L 996.815844 279.356512 
L 999.753733 279.164339 
L 1002.692071 284.682766 
L 1005.628735 289.925263 
L 1008.566449 283.503669 
L 1011.503022 288.805121 
L 1014.453811 288.140518 
L 1017.378241 281.808161 
L 1020.315802 287.194389 
L 1023.25227 283.75983 
L 1026.189382 280.497 
L 1029.125612 285.948785 
L 1032.063543 279.726016 
L 1034.999059 288.066846 
L 1037.936885 281.738173 
L 1040.87439 287.1279 
L 1043.811719 286.547158 
L 1046.749706 277.443974 
L 1049.686286 280.197923 
L 1052.622831 265.711209 
L 1055.560294 271.902284 
L 1058.499465 274.933318 
L 1061.435723 263.560335 
L 1064.371231 275.559941 
L 1067.308518 281.258583 
L 1070.246058 266.718837 
L 1073.183254 267.158547 
L 1076.12052 276.840382 
L 1079.058389 279.624503 
L 1082.00048 277.993685 
L 1084.932459 260.766696 
L 1087.869186 261.504009 
L 1090.806417 254.365605 
L 1093.744188 263.974454 
L 1096.680866 264.551388 
L 1099.619078 262.248975 
L 1102.555195 252.935448 
L 1105.490886 265.466307 
L 1108.429833 263.118149 
L 1111.36635 281.553482 
L 1114.303287 274.125225 
L 1117.247178 294.148076 
L 1120.178254 293.216325 
L 1123.11573 312.28462 
L 1126.052541 324.698513 
L 1129.003722 333.641217 
L 1131.927347 347.837773 
L 1134.862358 358.474008 
L 1137.800458 368.578431 
L 1140.737997 378.177633 
L 1143.674682 387.296875 
L 1146.612053 395.960155 
L 1152.487854 412.008881 
L 1155.42402 416.63896 
L 1158.35976 409.582664 
L 1158.35976 409.582664 
" style="fill:none;stroke:#00a6d6;stroke-linecap:square;stroke-width:3;"/>
   </g>
   <g id="line2d_30">
    <path clip-path="url(#p39e2fb561b)" d="M 71.62272 380.531257 
L 1158.35976 380.531257 
L 1158.35976 380.531257 
" style="fill:none;stroke:#808080;stroke-dasharray:11.1,4.8;stroke-dashoffset:0;stroke-width:3;"/>
   </g>
   <g id="patch_10">
    <path d="M 71.62272 418.03776 
L 71.62272 237.179032 
" style="fill:none;stroke:#000000;stroke-linecap:square;stroke-linejoin:miter;stroke-width:0.8;"/>
   </g>
   <g id="patch_11">
    <path d="M 1158.35976 418.03776 
L 1158.35976 237.179032 
" style="fill:none;stroke:#000000;stroke-linecap:square;stroke-linejoin:miter;stroke-width:0.8;"/>
   </g>
   <g id="patch_12">
    <path d="M 71.62272 418.03776 
L 1158.35976 418.03776 
" style="fill:none;stroke:#000000;stroke-linecap:square;stroke-linejoin:miter;stroke-width:0.8;"/>
   </g>
   <g id="patch_13">
    <path d="M 71.62272 237.179032 
L 1158.35976 237.179032 
" style="fill:none;stroke:#000000;stroke-linecap:square;stroke-linejoin:miter;stroke-width:0.8;"/>
   </g>
   <g id="text_22">
    <!-- Residual vehicle 2 -->
    <defs>
     <path d="M 47.90625 36.1875 
Q 51.3125 35.25 53.78125 33.03125 
Q 56.25 30.8125 58.203125 26.8125 
L 68.796875 5.171875 
L 77.6875 5.171875 
L 77.6875 0 
L 60.5 0 
L 49.125 23.1875 
Q 45.84375 29.9375 43.109375 31.90625 
Q 40.375 33.890625 35.59375 33.890625 
L 24.703125 33.890625 
L 24.703125 5.171875 
L 35.015625 5.171875 
L 35.015625 0 
L 5.515625 0 
L 5.515625 5.171875 
L 14.796875 5.171875 
L 14.796875 67.671875 
L 5.515625 67.671875 
L 5.515625 72.90625 
L 42.484375 72.90625 
Q 53.125 72.90625 58.90625 67.828125 
Q 64.703125 62.75 64.703125 53.421875 
Q 64.703125 45.90625 60.46875 41.578125 
Q 56.25 37.25 47.90625 36.1875 
z
M 24.703125 39.109375 
L 39.109375 39.109375 
Q 46.484375 39.109375 50 42.59375 
Q 53.515625 46.09375 53.515625 53.421875 
Q 53.515625 60.75 50 64.203125 
Q 46.484375 67.671875 39.109375 67.671875 
L 24.703125 67.671875 
z
" id="DejaVuSerif-82"/>
    </defs>
    <g transform="translate(504.08124 231.179032)scale(0.24 -0.24)">
     <use xlink:href="#DejaVuSerif-82"/>
     <use x="75.292969" xlink:href="#DejaVuSerif-101"/>
     <use x="134.472656" xlink:href="#DejaVuSerif-115"/>
     <use x="185.791016" xlink:href="#DejaVuSerif-105"/>
     <use x="217.773438" xlink:href="#DejaVuSerif-100"/>
     <use x="281.787109" xlink:href="#DejaVuSerif-117"/>
     <use x="346.191406" xlink:href="#DejaVuSerif-97"/>
     <use x="405.810547" xlink:href="#DejaVuSerif-108"/>
     <use x="437.792969" xlink:href="#DejaVuSerif-32"/>
     <use x="469.580078" xlink:href="#DejaVuSerif-118"/>
     <use x="526.074219" xlink:href="#DejaVuSerif-101"/>
     <use x="585.253906" xlink:href="#DejaVuSerif-104"/>
     <use x="649.658203" xlink:href="#DejaVuSerif-105"/>
     <use x="681.640625" xlink:href="#DejaVuSerif-99"/>
     <use x="737.646484" xlink:href="#DejaVuSerif-108"/>
     <use x="769.628906" xlink:href="#DejaVuSerif-101"/>
     <use x="828.808594" xlink:href="#DejaVuSerif-32"/>
     <use x="860.595703" xlink:href="#DejaVuSerif-50"/>
    </g>
   </g>
   <g id="legend_2">
    <g id="patch_14">
     <path d="M 1172.35976 332.204846 
L 1346.656635 332.204846 
Q 1350.656635 332.204846 1350.656635 328.204846 
L 1350.656635 242.136096 
Q 1350.656635 238.136096 1346.656635 238.136096 
L 1172.35976 238.136096 
Q 1168.35976 238.136096 1168.35976 242.136096 
L 1168.35976 328.204846 
Q 1168.35976 332.204846 1172.35976 332.204846 
z
" style="fill:#ffffff;opacity:0.8;stroke:#cccccc;stroke-linejoin:miter;"/>
    </g>
    <g id="line2d_31">
     <path d="M 1176.35976 254.332971 
L 1196.35976 254.332971 
" style="fill:none;stroke:#00a6d6;stroke-linecap:square;stroke-width:3;"/>
    </g>
    <g id="line2d_32"/>
    <g id="text_23">
     <!-- ${r}_{2}$ -->
     <defs>
      <path d="M 44.578125 46.390625 
Q 43.21875 47.125 41.453125 47.515625 
Q 39.703125 47.90625 37.703125 47.90625 
Q 30.515625 47.90625 25.140625 42.453125 
Q 19.78125 37.015625 18.015625 27.875 
L 12.5 0 
L 3.515625 0 
L 14.203125 54.6875 
L 23.1875 54.6875 
L 21.484375 46.1875 
Q 25.046875 50.921875 30 53.453125 
Q 34.96875 56 40.578125 56 
Q 42.046875 56 43.453125 55.828125 
Q 44.875 55.671875 46.296875 55.28125 
z
" id="DejaVuSans-Oblique-114"/>
     </defs>
     <g transform="translate(1212.35976 261.332971)scale(0.2 -0.2)">
      <use xlink:href="#DejaVuSans-Oblique-114"/>
      <use transform="translate(41.113281 -16.40625)scale(0.7)" xlink:href="#DejaVuSans-50"/>
     </g>
    </g>
    <g id="line2d_33">
     <path d="M 1176.35976 283.689221 
L 1196.35976 283.689221 
" style="fill:none;stroke:#808080;stroke-dasharray:11.1,4.8;stroke-dashoffset:0;stroke-width:3;"/>
    </g>
    <g id="line2d_34"/>
    <g id="text_24">
     <!-- $\bar{{r}}$ -->
     <defs>
      <path d="M -39.34375 74.515625 
L -10.15625 74.515625 
L -10.15625 67.28125 
L -39.34375 67.28125 
z
" id="DejaVuSans-772"/>
     </defs>
     <g transform="translate(1212.35976 290.689221)scale(0.2 -0.2)">
      <use transform="translate(50.62207 1.484375)" xlink:href="#DejaVuSans-772"/>
      <use transform="translate(0 0.265625)" xlink:href="#DejaVuSans-Oblique-114"/>
     </g>
    </g>
    <g id="patch_15">
     <path d="M 1176.35976 320.045471 
L 1196.35976 320.045471 
L 1196.35976 306.045471 
L 1176.35976 306.045471 
z
" style="fill:#ff4500;opacity:0.1;stroke:#ff4500;stroke-linejoin:miter;stroke-width:3;"/>
    </g>
    <g id="text_25">
     <!-- attack active -->
     <g transform="translate(1212.35976 320.045471)scale(0.2 -0.2)">
      <use xlink:href="#DejaVuSerif-97"/>
      <use x="59.619141" xlink:href="#DejaVuSerif-116"/>
      <use x="99.804688" xlink:href="#DejaVuSerif-116"/>
      <use x="139.990234" xlink:href="#DejaVuSerif-97"/>
      <use x="199.609375" xlink:href="#DejaVuSerif-99"/>
      <use x="255.615234" xlink:href="#DejaVuSerif-107"/>
      <use x="316.210938" xlink:href="#DejaVuSerif-32"/>
      <use x="347.998047" xlink:href="#DejaVuSerif-97"/>
      <use x="407.617188" xlink:href="#DejaVuSerif-99"/>
      <use x="463.623047" xlink:href="#DejaVuSerif-116"/>
      <use x="503.808594" xlink:href="#DejaVuSerif-105"/>
      <use x="535.791016" xlink:href="#DejaVuSerif-118"/>
      <use x="592.285156" xlink:href="#DejaVuSerif-101"/>
     </g>
    </g>
   </g>
  </g>
 </g>
 <defs>
  <clipPath id="pbd6ec5db03">
   <rect height="180.858728" width="1086.73704" x="71.62272" y="22.86144"/>
  </clipPath>
  <clipPath id="p39e2fb561b">
   <rect height="180.858728" width="1086.73704" x="71.62272" y="237.179032"/>
  </clipPath>
 </defs>
</svg>
