<?xml version="1.0" encoding="utf-8" standalone="no"?>
<!DOCTYPE svg PUBLIC "-//W3C//DTD SVG 1.1//EN"
  "http://www.w3.org/Graphics/SVG/1.1/DTD/svg11.dtd">
<!-- Created with matplotlib (https://matplotlib.org/) -->
<svg height="576pt" version="1.1" viewBox="0 0 1152 576" width="1152pt" xmlns="http://www.w3.org/2000/svg" xmlns:xlink="http://www.w3.org/1999/xlink">
 <defs>
  <style type="text/css">
*{stroke-linecap:butt;stroke-linejoin:round;}
  </style>
 </defs>
 <g id="figure_1">
  <g id="patch_1">
   <path d="M 0 576 
L 1152 576 
L 1152 0 
L 0 0 
z
" style="fill:#ffffff;"/>
  </g>
  <g id="axes_1">
   <g id="patch_2">
    <path d="M 63.36 233.088399 
L 898.56 233.088399 
L 898.56 25.92 
L 63.36 25.92 
z
" style="fill:#ffffff;"/>
   </g>
   <g id="PolyCollection_1">
    <defs>
     <path d="M 63.36 -550.08 
L 63.36 -524.18395 
L 73.8 -524.18395 
L 84.24 -524.18395 
L 94.68 -524.18395 
L 105.12 -524.18395 
L 115.56 -524.18395 
L 126 -524.18395 
L 136.44 -524.18395 
L 146.88 -524.18395 
L 157.32 -524.18395 
L 167.76 -524.18395 
L 178.2 -524.18395 
L 188.64 -524.18395 
L 199.08 -524.18395 
L 209.52 -524.18395 
L 219.96 -524.18395 
L 230.4 -524.18395 
L 240.84 -524.18395 
L 251.28 -524.18395 
L 261.72 -524.18395 
L 272.16 -524.18395 
L 282.6 -524.18395 
L 293.04 -524.18395 
L 303.48 -524.18395 
L 313.92 -524.18395 
L 324.36 -524.18395 
L 334.8 -524.18395 
L 345.24 -524.18395 
L 355.68 -524.18395 
L 366.12 -524.18395 
L 376.56 -524.18395 
L 387 -524.18395 
L 397.44 -524.18395 
L 407.88 -524.18395 
L 418.32 -524.18395 
L 428.76 -524.18395 
L 439.2 -524.18395 
L 449.64 -524.18395 
L 460.08 -524.18395 
L 470.52 -524.18395 
L 480.96 -524.18395 
L 491.4 -524.18395 
L 501.84 -524.18395 
L 512.28 -524.18395 
L 522.72 -524.18395 
L 533.16 -524.18395 
L 543.6 -524.18395 
L 554.04 -524.18395 
L 564.48 -524.18395 
L 574.92 -524.18395 
L 585.36 -524.18395 
L 595.8 -524.18395 
L 606.24 -524.18395 
L 616.68 -524.18395 
L 627.12 -524.18395 
L 637.56 -524.18395 
L 648 -524.18395 
L 658.44 -524.18395 
L 668.88 -524.18395 
L 679.32 -524.18395 
L 689.76 -524.18395 
L 700.2 -524.18395 
L 710.64 -524.18395 
L 721.08 -524.18395 
L 731.52 -524.18395 
L 741.96 -524.18395 
L 752.4 -524.18395 
L 762.84 -524.18395 
L 773.28 -524.18395 
L 783.72 -524.18395 
L 794.16 -524.18395 
L 804.6 -524.18395 
L 815.04 -524.18395 
L 825.48 -524.18395 
L 835.92 -524.18395 
L 846.36 -524.18395 
L 856.8 -524.18395 
L 867.24 -524.18395 
L 877.68 -524.18395 
L 888.12 -524.18395 
L 898.56 -524.18395 
L 898.56 -550.08 
L 898.56 -550.08 
L 888.12 -550.08 
L 877.68 -550.08 
L 867.24 -550.08 
L 856.8 -550.08 
L 846.36 -550.08 
L 835.92 -550.08 
L 825.48 -550.08 
L 815.04 -550.08 
L 804.6 -550.08 
L 794.16 -550.08 
L 783.72 -550.08 
L 773.28 -550.08 
L 762.84 -550.08 
L 752.4 -550.08 
L 741.96 -550.08 
L 731.52 -550.08 
L 721.08 -550.08 
L 710.64 -550.08 
L 700.2 -550.08 
L 689.76 -550.08 
L 679.32 -550.08 
L 668.88 -550.08 
L 658.44 -550.08 
L 648 -550.08 
L 637.56 -550.08 
L 627.12 -550.08 
L 616.68 -550.08 
L 606.24 -550.08 
L 595.8 -550.08 
L 585.36 -550.08 
L 574.92 -550.08 
L 564.48 -550.08 
L 554.04 -550.08 
L 543.6 -550.08 
L 533.16 -550.08 
L 522.72 -550.08 
L 512.28 -550.08 
L 501.84 -550.08 
L 491.4 -550.08 
L 480.96 -550.08 
L 470.52 -550.08 
L 460.08 -550.08 
L 449.64 -550.08 
L 439.2 -550.08 
L 428.76 -550.08 
L 418.32 -550.08 
L 407.88 -550.08 
L 397.44 -550.08 
L 387 -550.08 
L 376.56 -550.08 
L 366.12 -550.08 
L 355.68 -550.08 
L 345.24 -550.08 
L 334.8 -550.08 
L 324.36 -550.08 
L 313.92 -550.08 
L 303.48 -550.08 
L 293.04 -550.08 
L 282.6 -550.08 
L 272.16 -550.08 
L 261.72 -550.08 
L 251.28 -550.08 
L 240.84 -550.08 
L 230.4 -550.08 
L 219.96 -550.08 
L 209.52 -550.08 
L 199.08 -550.08 
L 188.64 -550.08 
L 178.2 -550.08 
L 167.76 -550.08 
L 157.32 -550.08 
L 146.88 -550.08 
L 136.44 -550.08 
L 126 -550.08 
L 115.56 -550.08 
L 105.12 -550.08 
L 94.68 -550.08 
L 84.24 -550.08 
L 73.8 -550.08 
L 63.36 -550.08 
z
" id="m9ffaa3189c" style="stroke:#a40606;stroke-opacity:0.3;"/>
    </defs>
    <g clip-path="url(#p067286fa8e)">
     <use style="fill:#a40606;fill-opacity:0.3;stroke:#a40606;stroke-opacity:0.3;" x="0" xlink:href="#m9ffaa3189c" y="576"/>
    </g>
   </g>
   <g id="matplotlib.axis_1">
    <g id="xtick_1">
     <g id="line2d_1">
      <defs>
       <path d="M 0 0 
L 0 3.5 
" id="m92ab8dcec7" style="stroke:#000000;stroke-width:0.8;"/>
      </defs>
      <g>
       <use style="stroke:#000000;stroke-width:0.8;" x="63.36" xlink:href="#m92ab8dcec7" y="233.088399"/>
      </g>
     </g>
     <g id="text_1">
      <!-- 0 -->
      <defs>
       <path d="M 31.78125 3.421875 
Q 39.265625 3.421875 42.96875 11.625 
Q 46.6875 19.828125 46.6875 36.375 
Q 46.6875 52.984375 42.96875 61.1875 
Q 39.265625 69.390625 31.78125 69.390625 
Q 24.3125 69.390625 20.59375 61.1875 
Q 16.890625 52.984375 16.890625 36.375 
Q 16.890625 19.828125 20.59375 11.625 
Q 24.3125 3.421875 31.78125 3.421875 
z
M 31.78125 -1.421875 
Q 19.921875 -1.421875 13.25 8.53125 
Q 6.59375 18.5 6.59375 36.375 
Q 6.59375 54.296875 13.25 64.25 
Q 19.921875 74.21875 31.78125 74.21875 
Q 43.703125 74.21875 50.34375 64.25 
Q 56.984375 54.296875 56.984375 36.375 
Q 56.984375 18.5 50.34375 8.53125 
Q 43.703125 -1.421875 31.78125 -1.421875 
z
" id="DejaVuSerif-48"/>
      </defs>
      <g transform="translate(56.9975 255.285274)scale(0.2 -0.2)">
       <use xlink:href="#DejaVuSerif-48"/>
      </g>
     </g>
    </g>
    <g id="xtick_2">
     <g id="line2d_2">
      <g>
       <use style="stroke:#000000;stroke-width:0.8;" x="167.76" xlink:href="#m92ab8dcec7" y="233.088399"/>
      </g>
     </g>
     <g id="text_2">
      <!-- 1 -->
      <defs>
       <path d="M 14.203125 0 
L 14.203125 5.171875 
L 26.90625 5.171875 
L 26.90625 65.828125 
L 12.203125 56.296875 
L 12.203125 62.703125 
L 29.984375 74.21875 
L 36.71875 74.21875 
L 36.71875 5.171875 
L 49.421875 5.171875 
L 49.421875 0 
z
" id="DejaVuSerif-49"/>
      </defs>
      <g transform="translate(161.3975 255.285274)scale(0.2 -0.2)">
       <use xlink:href="#DejaVuSerif-49"/>
      </g>
     </g>
    </g>
    <g id="xtick_3">
     <g id="line2d_3">
      <g>
       <use style="stroke:#000000;stroke-width:0.8;" x="272.16" xlink:href="#m92ab8dcec7" y="233.088399"/>
      </g>
     </g>
     <g id="text_3">
      <!-- 2 -->
      <defs>
       <path d="M 12.796875 55.515625 
L 7.328125 55.515625 
L 7.328125 68.5 
Q 12.546875 71.296875 17.84375 72.75 
Q 23.140625 74.21875 28.21875 74.21875 
Q 39.59375 74.21875 46.1875 68.703125 
Q 52.78125 63.1875 52.78125 53.71875 
Q 52.78125 43.015625 37.84375 28.125 
Q 36.671875 27 36.078125 26.421875 
L 17.671875 8.015625 
L 48.09375 8.015625 
L 48.09375 17 
L 53.8125 17 
L 53.8125 0 
L 6.78125 0 
L 6.78125 5.328125 
L 28.90625 27.390625 
Q 36.234375 34.71875 39.359375 40.84375 
Q 42.484375 46.96875 42.484375 53.71875 
Q 42.484375 61.078125 38.640625 65.234375 
Q 34.8125 69.390625 28.078125 69.390625 
Q 21.09375 69.390625 17.28125 65.921875 
Q 13.484375 62.453125 12.796875 55.515625 
z
" id="DejaVuSerif-50"/>
      </defs>
      <g transform="translate(265.7975 255.285274)scale(0.2 -0.2)">
       <use xlink:href="#DejaVuSerif-50"/>
      </g>
     </g>
    </g>
    <g id="xtick_4">
     <g id="line2d_4">
      <g>
       <use style="stroke:#000000;stroke-width:0.8;" x="376.56" xlink:href="#m92ab8dcec7" y="233.088399"/>
      </g>
     </g>
     <g id="text_4">
      <!-- 3 -->
      <defs>
       <path d="M 9.71875 69.828125 
Q 15.4375 71.96875 20.671875 73.09375 
Q 25.921875 74.21875 30.515625 74.21875 
Q 41.21875 74.21875 47.21875 69.59375 
Q 53.21875 64.984375 53.21875 56.78125 
Q 53.21875 50.203125 49.0625 45.78125 
Q 44.921875 41.359375 37.3125 39.796875 
Q 46.296875 38.53125 51.25 33.28125 
Q 56.203125 28.03125 56.203125 19.671875 
Q 56.203125 9.46875 49.34375 4.015625 
Q 42.484375 -1.421875 29.59375 -1.421875 
Q 23.875 -1.421875 18.421875 -0.1875 
Q 12.984375 1.03125 7.625 3.515625 
L 7.625 17.671875 
L 13.09375 17.671875 
Q 13.578125 10.640625 17.828125 7.03125 
Q 22.078125 3.421875 29.78125 3.421875 
Q 37.25 3.421875 41.578125 7.734375 
Q 45.90625 12.0625 45.90625 19.578125 
Q 45.90625 28.171875 41.453125 32.59375 
Q 37.015625 37.015625 28.421875 37.015625 
L 23.78125 37.015625 
L 23.78125 42 
L 26.21875 42 
Q 34.765625 42 39.03125 45.53125 
Q 43.3125 49.078125 43.3125 56.203125 
Q 43.3125 62.59375 39.796875 65.984375 
Q 36.28125 69.390625 29.6875 69.390625 
Q 23.09375 69.390625 19.453125 66.265625 
Q 15.828125 63.140625 15.1875 56.984375 
L 9.71875 56.984375 
z
" id="DejaVuSerif-51"/>
      </defs>
      <g transform="translate(370.1975 255.285274)scale(0.2 -0.2)">
       <use xlink:href="#DejaVuSerif-51"/>
      </g>
     </g>
    </g>
    <g id="xtick_5">
     <g id="line2d_5">
      <g>
       <use style="stroke:#000000;stroke-width:0.8;" x="480.96" xlink:href="#m92ab8dcec7" y="233.088399"/>
      </g>
     </g>
     <g id="text_5">
      <!-- 4 -->
      <defs>
       <path d="M 34.90625 24.703125 
L 34.90625 63.484375 
L 10.015625 24.703125 
z
M 56.390625 0 
L 23.1875 0 
L 23.1875 5.171875 
L 34.90625 5.171875 
L 34.90625 19.484375 
L 3.078125 19.484375 
L 3.078125 24.8125 
L 35.015625 74.21875 
L 44.671875 74.21875 
L 44.671875 24.703125 
L 58.59375 24.703125 
L 58.59375 19.484375 
L 44.671875 19.484375 
L 44.671875 5.171875 
L 56.390625 5.171875 
z
" id="DejaVuSerif-52"/>
      </defs>
      <g transform="translate(474.5975 255.285274)scale(0.2 -0.2)">
       <use xlink:href="#DejaVuSerif-52"/>
      </g>
     </g>
    </g>
    <g id="xtick_6">
     <g id="line2d_6">
      <g>
       <use style="stroke:#000000;stroke-width:0.8;" x="585.36" xlink:href="#m92ab8dcec7" y="233.088399"/>
      </g>
     </g>
     <g id="text_6">
      <!-- 5 -->
      <defs>
       <path d="M 50.296875 72.90625 
L 50.296875 64.890625 
L 16.890625 64.890625 
L 16.890625 44 
Q 19.4375 45.75 22.828125 46.625 
Q 26.21875 47.515625 30.421875 47.515625 
Q 42.234375 47.515625 49.0625 40.96875 
Q 55.90625 34.421875 55.90625 23.09375 
Q 55.90625 11.53125 49 5.046875 
Q 42.09375 -1.421875 29.59375 -1.421875 
Q 24.5625 -1.421875 19.28125 -0.1875 
Q 14.015625 1.03125 8.5 3.515625 
L 8.5 17.671875 
L 14.015625 17.671875 
Q 14.453125 10.75 18.421875 7.078125 
Q 22.40625 3.421875 29.59375 3.421875 
Q 37.3125 3.421875 41.453125 8.5 
Q 45.609375 13.578125 45.609375 23.09375 
Q 45.609375 32.5625 41.484375 37.609375 
Q 37.359375 42.671875 29.59375 42.671875 
Q 25.203125 42.671875 21.84375 41.109375 
Q 18.5 39.546875 15.921875 36.28125 
L 11.71875 36.28125 
L 11.71875 72.90625 
z
" id="DejaVuSerif-53"/>
      </defs>
      <g transform="translate(578.9975 255.285274)scale(0.2 -0.2)">
       <use xlink:href="#DejaVuSerif-53"/>
      </g>
     </g>
    </g>
    <g id="xtick_7">
     <g id="line2d_7">
      <g>
       <use style="stroke:#000000;stroke-width:0.8;" x="689.76" xlink:href="#m92ab8dcec7" y="233.088399"/>
      </g>
     </g>
     <g id="text_7">
      <!-- 6 -->
      <defs>
       <path d="M 32.71875 3.421875 
Q 39.59375 3.421875 43.296875 8.46875 
Q 47.015625 13.53125 47.015625 23 
Q 47.015625 32.46875 43.296875 37.515625 
Q 39.59375 42.578125 32.71875 42.578125 
Q 25.734375 42.578125 22.0625 37.6875 
Q 18.40625 32.8125 18.40625 23.578125 
Q 18.40625 13.875 22.109375 8.640625 
Q 25.828125 3.421875 32.71875 3.421875 
z
M 16.796875 40.140625 
Q 20.125 43.796875 24.3125 45.59375 
Q 28.515625 47.40625 33.796875 47.40625 
Q 44.671875 47.40625 51 40.859375 
Q 57.328125 34.328125 57.328125 23 
Q 57.328125 11.921875 50.515625 5.25 
Q 43.703125 -1.421875 32.328125 -1.421875 
Q 19.96875 -1.421875 13.328125 7.78125 
Q 6.6875 17 6.6875 34.078125 
Q 6.6875 53.21875 14.546875 63.71875 
Q 22.40625 74.21875 36.71875 74.21875 
Q 40.578125 74.21875 44.828125 73.484375 
Q 49.078125 72.75 53.515625 71.296875 
L 53.515625 59.28125 
L 48 59.28125 
Q 47.40625 64.203125 44.234375 66.796875 
Q 41.0625 69.390625 35.6875 69.390625 
Q 26.21875 69.390625 21.578125 62.203125 
Q 16.9375 55.03125 16.796875 40.140625 
z
" id="DejaVuSerif-54"/>
      </defs>
      <g transform="translate(683.3975 255.285274)scale(0.2 -0.2)">
       <use xlink:href="#DejaVuSerif-54"/>
      </g>
     </g>
    </g>
    <g id="xtick_8">
     <g id="line2d_8">
      <g>
       <use style="stroke:#000000;stroke-width:0.8;" x="794.16" xlink:href="#m92ab8dcec7" y="233.088399"/>
      </g>
     </g>
     <g id="text_8">
      <!-- 7 -->
      <defs>
       <path d="M 56.390625 67.921875 
L 27.875 0 
L 20.609375 0 
L 47.796875 64.890625 
L 14.109375 64.890625 
L 14.109375 55.90625 
L 8.40625 55.90625 
L 8.40625 72.90625 
L 56.390625 72.90625 
z
" id="DejaVuSerif-55"/>
      </defs>
      <g transform="translate(787.7975 255.285274)scale(0.2 -0.2)">
       <use xlink:href="#DejaVuSerif-55"/>
      </g>
     </g>
    </g>
    <g id="xtick_9">
     <g id="line2d_9">
      <g>
       <use style="stroke:#000000;stroke-width:0.8;" x="898.56" xlink:href="#m92ab8dcec7" y="233.088399"/>
      </g>
     </g>
     <g id="text_9">
      <!-- 8 -->
      <defs>
       <path d="M 46.578125 19.921875 
Q 46.578125 27.734375 42.6875 32.046875 
Q 38.8125 36.375 31.78125 36.375 
Q 24.75 36.375 20.875 32.046875 
Q 17 27.734375 17 19.921875 
Q 17 12.0625 20.875 7.734375 
Q 24.75 3.421875 31.78125 3.421875 
Q 38.8125 3.421875 42.6875 7.734375 
Q 46.578125 12.0625 46.578125 19.921875 
z
M 44.578125 55.328125 
Q 44.578125 61.96875 41.203125 65.671875 
Q 37.84375 69.390625 31.78125 69.390625 
Q 25.78125 69.390625 22.390625 65.671875 
Q 19 61.96875 19 55.328125 
Q 19 48.640625 22.390625 44.921875 
Q 25.78125 41.21875 31.78125 41.21875 
Q 37.84375 41.21875 41.203125 44.921875 
Q 44.578125 48.640625 44.578125 55.328125 
z
M 39.3125 38.8125 
Q 47.609375 37.703125 52.25 32.6875 
Q 56.890625 27.6875 56.890625 19.921875 
Q 56.890625 9.671875 50.390625 4.125 
Q 43.890625 -1.421875 31.78125 -1.421875 
Q 19.734375 -1.421875 13.203125 4.125 
Q 6.6875 9.671875 6.6875 19.921875 
Q 6.6875 27.6875 11.328125 32.6875 
Q 15.96875 37.703125 24.3125 38.8125 
Q 16.9375 40.140625 13 44.40625 
Q 9.078125 48.6875 9.078125 55.328125 
Q 9.078125 64.109375 15.125 69.15625 
Q 21.1875 74.21875 31.78125 74.21875 
Q 42.390625 74.21875 48.4375 69.15625 
Q 54.5 64.109375 54.5 55.328125 
Q 54.5 48.6875 50.5625 44.40625 
Q 46.625 40.140625 39.3125 38.8125 
z
" id="DejaVuSerif-56"/>
      </defs>
      <g transform="translate(892.1975 255.285274)scale(0.2 -0.2)">
       <use xlink:href="#DejaVuSerif-56"/>
      </g>
     </g>
    </g>
    <g id="text_10">
     <!-- time [s] -->
     <defs>
      <path d="M 10.796875 46.6875 
L 2.875 46.6875 
L 2.875 51.90625 
L 10.796875 51.90625 
L 10.796875 68.015625 
L 19.828125 68.015625 
L 19.828125 51.90625 
L 36.71875 51.90625 
L 36.71875 46.6875 
L 19.828125 46.6875 
L 19.828125 13.71875 
Q 19.828125 7.125 21.09375 5.265625 
Q 22.359375 3.421875 25.78125 3.421875 
Q 29.296875 3.421875 30.90625 5.484375 
Q 32.515625 7.5625 32.625 12.203125 
L 39.40625 12.203125 
Q 39.015625 5.125 35.546875 1.84375 
Q 32.078125 -1.421875 25 -1.421875 
Q 17.234375 -1.421875 14.015625 2.015625 
Q 10.796875 5.46875 10.796875 13.71875 
z
" id="DejaVuSerif-116"/>
      <path d="M 9.71875 68.015625 
Q 9.71875 70.265625 11.34375 71.921875 
Q 12.984375 73.578125 15.28125 73.578125 
Q 17.53125 73.578125 19.15625 71.921875 
Q 20.796875 70.265625 20.796875 68.015625 
Q 20.796875 65.71875 19.1875 64.109375 
Q 17.578125 62.5 15.28125 62.5 
Q 12.984375 62.5 11.34375 64.109375 
Q 9.71875 65.71875 9.71875 68.015625 
z
M 21.1875 5.171875 
L 29.6875 5.171875 
L 29.6875 0 
L 3.609375 0 
L 3.609375 5.171875 
L 12.203125 5.171875 
L 12.203125 46.6875 
L 3.609375 46.6875 
L 3.609375 51.90625 
L 21.1875 51.90625 
z
" id="DejaVuSerif-105"/>
      <path d="M 51.8125 41.796875 
Q 54.390625 47.515625 58.421875 50.421875 
Q 62.453125 53.328125 67.828125 53.328125 
Q 75.984375 53.328125 79.984375 48.265625 
Q 83.984375 43.21875 83.984375 33.015625 
L 83.984375 5.171875 
L 92.09375 5.171875 
L 92.09375 0 
L 67.1875 0 
L 67.1875 5.171875 
L 75 5.171875 
L 75 31.984375 
Q 75 39.9375 72.65625 43.3125 
Q 70.3125 46.6875 64.890625 46.6875 
Q 58.890625 46.6875 55.734375 42.140625 
Q 52.59375 37.59375 52.59375 28.90625 
L 52.59375 5.171875 
L 60.40625 5.171875 
L 60.40625 0 
L 35.796875 0 
L 35.796875 5.171875 
L 43.609375 5.171875 
L 43.609375 32.328125 
Q 43.609375 40.09375 41.265625 43.390625 
Q 38.921875 46.6875 33.5 46.6875 
Q 27.484375 46.6875 24.328125 42.140625 
Q 21.1875 37.59375 21.1875 28.90625 
L 21.1875 5.171875 
L 29 5.171875 
L 29 0 
L 4.109375 0 
L 4.109375 5.171875 
L 12.203125 5.171875 
L 12.203125 46.78125 
L 3.609375 46.78125 
L 3.609375 51.90625 
L 21.1875 51.90625 
L 21.1875 42.671875 
Q 23.6875 47.859375 27.53125 50.59375 
Q 31.390625 53.328125 36.28125 53.328125 
Q 42.328125 53.328125 46.375 50.3125 
Q 50.4375 47.3125 51.8125 41.796875 
z
" id="DejaVuSerif-109"/>
      <path d="M 54.203125 25 
L 15.484375 25 
L 15.484375 24.609375 
Q 15.484375 14.109375 19.4375 8.765625 
Q 23.390625 3.421875 31.109375 3.421875 
Q 37.015625 3.421875 40.796875 6.515625 
Q 44.578125 9.625 46.09375 15.71875 
L 53.328125 15.71875 
Q 51.171875 7.171875 45.375 2.875 
Q 39.59375 -1.421875 30.171875 -1.421875 
Q 18.796875 -1.421875 11.890625 6.078125 
Q 4.984375 13.578125 4.984375 25.984375 
Q 4.984375 38.28125 11.765625 45.796875 
Q 18.5625 53.328125 29.59375 53.328125 
Q 41.359375 53.328125 47.65625 46.0625 
Q 53.953125 38.8125 54.203125 25 
z
M 43.609375 30.171875 
Q 43.3125 39.265625 39.765625 43.875 
Q 36.234375 48.484375 29.59375 48.484375 
Q 23.390625 48.484375 19.828125 43.84375 
Q 16.265625 39.203125 15.484375 30.171875 
z
" id="DejaVuSerif-101"/>
      <path id="DejaVuSerif-32"/>
      <path d="M 8.59375 75.984375 
L 31.296875 75.984375 
L 31.296875 70.796875 
L 17.921875 70.796875 
L 17.921875 -8.015625 
L 31.296875 -8.015625 
L 31.296875 -13.1875 
L 8.59375 -13.1875 
z
" id="DejaVuSerif-91"/>
      <path d="M 5.609375 2.875 
L 5.609375 14.984375 
L 10.796875 14.984375 
Q 10.984375 9.1875 14.421875 6.296875 
Q 17.875 3.421875 24.609375 3.421875 
Q 30.671875 3.421875 33.84375 5.6875 
Q 37.015625 7.953125 37.015625 12.3125 
Q 37.015625 15.71875 34.6875 17.8125 
Q 32.375 19.921875 24.90625 22.3125 
L 18.40625 24.515625 
Q 11.71875 26.65625 8.71875 29.875 
Q 5.71875 33.109375 5.71875 38.09375 
Q 5.71875 45.21875 10.9375 49.265625 
Q 16.15625 53.328125 25.390625 53.328125 
Q 29.5 53.328125 34.03125 52.25 
Q 38.578125 51.171875 43.40625 49.125 
L 43.40625 37.796875 
L 38.234375 37.796875 
Q 38.03125 42.828125 34.703125 45.65625 
Q 31.390625 48.484375 25.6875 48.484375 
Q 20.015625 48.484375 17.109375 46.484375 
Q 14.203125 44.484375 14.203125 40.484375 
Q 14.203125 37.203125 16.40625 35.21875 
Q 18.609375 33.25 25.203125 31.203125 
L 32.328125 29 
Q 39.703125 26.703125 42.9375 23.265625 
Q 46.1875 19.828125 46.1875 14.40625 
Q 46.1875 7.03125 40.546875 2.796875 
Q 34.90625 -1.421875 25 -1.421875 
Q 19.96875 -1.421875 15.1875 -0.34375 
Q 10.40625 0.734375 5.609375 2.875 
z
" id="DejaVuSerif-115"/>
      <path d="M 30.421875 75.984375 
L 30.421875 -13.1875 
L 7.71875 -13.1875 
L 7.71875 -8.015625 
L 21.09375 -8.015625 
L 21.09375 70.796875 
L 7.71875 70.796875 
L 7.71875 75.984375 
z
" id="DejaVuSerif-93"/>
     </defs>
     <g transform="translate(442.22875 278.641524)scale(0.2 -0.2)">
      <use xlink:href="#DejaVuSerif-116"/>
      <use x="40.185547" xlink:href="#DejaVuSerif-105"/>
      <use x="72.167969" xlink:href="#DejaVuSerif-109"/>
      <use x="166.992188" xlink:href="#DejaVuSerif-101"/>
      <use x="226.171875" xlink:href="#DejaVuSerif-32"/>
      <use x="257.958984" xlink:href="#DejaVuSerif-91"/>
      <use x="296.972656" xlink:href="#DejaVuSerif-115"/>
      <use x="348.291016" xlink:href="#DejaVuSerif-93"/>
     </g>
    </g>
   </g>
   <g id="matplotlib.axis_2">
    <g id="ytick_1">
     <g id="line2d_10">
      <defs>
       <path d="M 0 0 
L -3.5 0 
" id="mc262dd41e1" style="stroke:#000000;stroke-width:0.8;"/>
      </defs>
      <g>
       <use style="stroke:#000000;stroke-width:0.8;" x="63.36" xlink:href="#mc262dd41e1" y="207.192349"/>
      </g>
     </g>
     <g id="text_11">
      <!-- −6 -->
      <defs>
       <path d="M 10.59375 35.296875 
L 73.1875 35.296875 
L 73.1875 27.390625 
L 10.59375 27.390625 
z
" id="DejaVuSerif-8722"/>
      </defs>
      <g transform="translate(26.875625 214.790787)scale(0.2 -0.2)">
       <use xlink:href="#DejaVuSerif-8722"/>
       <use x="83.789062" xlink:href="#DejaVuSerif-54"/>
      </g>
     </g>
    </g>
    <g id="ytick_2">
     <g id="line2d_11">
      <g>
       <use style="stroke:#000000;stroke-width:0.8;" x="63.36" xlink:href="#mc262dd41e1" y="155.400249"/>
      </g>
     </g>
     <g id="text_12">
      <!-- −4 -->
      <g transform="translate(26.875625 162.998687)scale(0.2 -0.2)">
       <use xlink:href="#DejaVuSerif-8722"/>
       <use x="83.789062" xlink:href="#DejaVuSerif-52"/>
      </g>
     </g>
    </g>
    <g id="ytick_3">
     <g id="line2d_12">
      <g>
       <use style="stroke:#000000;stroke-width:0.8;" x="63.36" xlink:href="#mc262dd41e1" y="103.60815"/>
      </g>
     </g>
     <g id="text_13">
      <!-- −2 -->
      <g transform="translate(26.875625 111.206587)scale(0.2 -0.2)">
       <use xlink:href="#DejaVuSerif-8722"/>
       <use x="83.789062" xlink:href="#DejaVuSerif-50"/>
      </g>
     </g>
    </g>
    <g id="ytick_4">
     <g id="line2d_13">
      <g>
       <use style="stroke:#000000;stroke-width:0.8;" x="63.36" xlink:href="#mc262dd41e1" y="51.81605"/>
      </g>
     </g>
     <g id="text_14">
      <!-- 0 -->
      <g transform="translate(43.635 59.414487)scale(0.2 -0.2)">
       <use xlink:href="#DejaVuSerif-48"/>
      </g>
     </g>
    </g>
    <g id="text_15">
     <!-- distance [m] -->
     <defs>
      <path d="M 52.484375 5.171875 
L 61.078125 5.171875 
L 61.078125 0 
L 43.5 0 
L 43.5 8.109375 
Q 40.875 3.21875 36.796875 0.890625 
Q 32.71875 -1.421875 26.703125 -1.421875 
Q 17.140625 -1.421875 11.0625 6.171875 
Q 4.984375 13.765625 4.984375 25.984375 
Q 4.984375 38.1875 11.03125 45.75 
Q 17.09375 53.328125 26.703125 53.328125 
Q 32.71875 53.328125 36.796875 51 
Q 40.875 48.6875 43.5 43.796875 
L 43.5 70.796875 
L 35.015625 70.796875 
L 35.015625 75.984375 
L 52.484375 75.984375 
z
M 43.5 23.390625 
L 43.5 28.515625 
Q 43.5 37.84375 39.90625 42.765625 
Q 36.328125 47.703125 29.5 47.703125 
Q 22.5625 47.703125 19.015625 42.234375 
Q 15.484375 36.765625 15.484375 25.984375 
Q 15.484375 15.234375 19.015625 9.71875 
Q 22.5625 4.203125 29.5 4.203125 
Q 36.328125 4.203125 39.90625 9.109375 
Q 43.5 14.015625 43.5 23.390625 
z
" id="DejaVuSerif-100"/>
      <path d="M 39.796875 16.3125 
L 39.796875 27.296875 
L 28.21875 27.296875 
Q 21.53125 27.296875 18.25 24.40625 
Q 14.984375 21.53125 14.984375 15.578125 
Q 14.984375 10.15625 18.296875 6.984375 
Q 21.625 3.8125 27.296875 3.8125 
Q 32.90625 3.8125 36.34375 7.28125 
Q 39.796875 10.75 39.796875 16.3125 
z
M 48.78125 32.421875 
L 48.78125 5.171875 
L 56.78125 5.171875 
L 56.78125 0 
L 39.796875 0 
L 39.796875 5.609375 
Q 36.8125 2 32.90625 0.28125 
Q 29 -1.421875 23.78125 -1.421875 
Q 15.140625 -1.421875 10.0625 3.171875 
Q 4.984375 7.765625 4.984375 15.578125 
Q 4.984375 23.640625 10.796875 28.078125 
Q 16.609375 32.515625 27.203125 32.515625 
L 39.796875 32.515625 
L 39.796875 36.078125 
Q 39.796875 42 36.203125 45.234375 
Q 32.625 48.484375 26.125 48.484375 
Q 20.75 48.484375 17.578125 46.046875 
Q 14.40625 43.609375 13.625 38.8125 
L 8.984375 38.8125 
L 8.984375 49.3125 
Q 13.671875 51.3125 18.09375 52.3125 
Q 22.515625 53.328125 26.703125 53.328125 
Q 37.5 53.328125 43.140625 47.96875 
Q 48.78125 42.625 48.78125 32.421875 
z
" id="DejaVuSerif-97"/>
      <path d="M 4.109375 0 
L 4.109375 5.171875 
L 12.203125 5.171875 
L 12.203125 46.6875 
L 3.609375 46.6875 
L 3.609375 51.90625 
L 21.1875 51.90625 
L 21.1875 42.671875 
Q 23.6875 47.953125 27.65625 50.640625 
Q 31.640625 53.328125 36.921875 53.328125 
Q 45.515625 53.328125 49.5625 48.390625 
Q 53.609375 43.453125 53.609375 33.015625 
L 53.609375 5.171875 
L 61.625 5.171875 
L 61.625 0 
L 36.8125 0 
L 36.8125 5.171875 
L 44.578125 5.171875 
L 44.578125 30.171875 
Q 44.578125 39.703125 42.234375 43.234375 
Q 39.890625 46.78125 33.984375 46.78125 
Q 27.734375 46.78125 24.453125 42.203125 
Q 21.1875 37.640625 21.1875 28.90625 
L 21.1875 5.171875 
L 29 5.171875 
L 29 0 
z
" id="DejaVuSerif-110"/>
      <path d="M 51.421875 15.578125 
Q 49.515625 7.28125 44.09375 2.921875 
Q 38.671875 -1.421875 30.078125 -1.421875 
Q 18.75 -1.421875 11.859375 6.078125 
Q 4.984375 13.578125 4.984375 25.984375 
Q 4.984375 38.421875 11.859375 45.875 
Q 18.75 53.328125 30.078125 53.328125 
Q 35.015625 53.328125 39.890625 52.171875 
Q 44.78125 51.03125 49.703125 48.6875 
L 49.703125 35.40625 
L 44.484375 35.40625 
Q 43.453125 42.234375 40.015625 45.359375 
Q 36.578125 48.484375 30.171875 48.484375 
Q 22.90625 48.484375 19.1875 42.84375 
Q 15.484375 37.203125 15.484375 25.984375 
Q 15.484375 14.75 19.171875 9.078125 
Q 22.859375 3.421875 30.171875 3.421875 
Q 35.984375 3.421875 39.453125 6.4375 
Q 42.921875 9.46875 44.1875 15.578125 
z
" id="DejaVuSerif-99"/>
     </defs>
     <g transform="translate(18.71625 192.640137)rotate(-90)scale(0.2 -0.2)">
      <use xlink:href="#DejaVuSerif-100"/>
      <use x="64.013672" xlink:href="#DejaVuSerif-105"/>
      <use x="95.996094" xlink:href="#DejaVuSerif-115"/>
      <use x="147.314453" xlink:href="#DejaVuSerif-116"/>
      <use x="187.5" xlink:href="#DejaVuSerif-97"/>
      <use x="247.119141" xlink:href="#DejaVuSerif-110"/>
      <use x="311.523438" xlink:href="#DejaVuSerif-99"/>
      <use x="367.529297" xlink:href="#DejaVuSerif-101"/>
      <use x="426.708984" xlink:href="#DejaVuSerif-32"/>
      <use x="458.496094" xlink:href="#DejaVuSerif-91"/>
      <use x="497.509766" xlink:href="#DejaVuSerif-109"/>
      <use x="592.333984" xlink:href="#DejaVuSerif-93"/>
     </g>
    </g>
   </g>
   <g id="line2d_14">
    <path clip-path="url(#p067286fa8e)" d="M 63.36 51.81605 
L 73.8 51.81605 
L 84.24 51.81605 
L 94.68 51.81605 
L 105.12 51.81605 
L 115.56 51.81605 
L 126 51.81605 
L 136.44 51.81605 
L 146.88 51.81605 
L 157.32 51.81605 
L 167.76 51.81605 
L 178.2 51.81605 
L 188.64 51.81605 
L 199.08 51.81605 
L 209.52 51.81605 
L 219.96 51.81605 
L 230.4 51.81605 
L 240.84 51.81605 
L 251.28 51.81605 
L 261.72 51.81605 
L 272.16 51.81605 
L 282.6 51.81605 
L 293.04 51.81605 
L 303.48 51.81605 
L 313.92 51.81605 
L 324.36 51.81605 
L 334.8 51.81605 
L 345.24 51.81605 
L 355.68 51.81605 
L 366.12 51.81605 
L 376.56 51.81605 
L 387 51.81605 
L 397.44 51.81605 
L 407.88 51.81605 
L 418.32 51.81605 
L 428.76 51.81605 
L 439.2 51.81605 
L 449.64 51.81605 
L 460.08 51.81605 
L 470.52 51.81605 
L 480.96 51.81605 
L 491.4 51.81605 
L 501.84 51.81605 
L 512.28 51.81605 
L 522.72 51.81605 
L 533.16 51.81605 
L 543.6 51.81605 
L 554.04 51.81605 
L 564.48 51.81605 
L 574.92 51.81605 
L 585.36 51.81605 
L 595.8 51.81605 
L 606.24 51.81605 
L 616.68 51.81605 
L 627.12 51.81605 
L 637.56 51.81605 
L 648 51.81605 
L 658.44 51.81605 
L 668.88 51.81605 
L 679.32 51.81605 
L 689.76 51.81605 
L 700.2 51.81605 
L 710.64 51.81605 
L 721.08 51.81605 
L 731.52 51.81605 
L 741.96 51.81605 
L 752.4 51.81605 
L 762.84 51.81605 
L 773.28 51.81605 
L 783.72 51.81605 
L 794.16 51.81605 
L 804.6 51.81605 
L 815.04 51.81605 
L 825.48 51.81605 
L 835.92 51.81605 
L 846.36 51.81605 
L 856.8 51.81605 
L 867.24 51.81605 
L 877.68 51.81605 
L 888.12 51.81605 
L 898.56 51.81605 
" style="fill:none;stroke:#a40606;stroke-linecap:square;stroke-width:3;"/>
   </g>
   <g id="line2d_15">
    <path clip-path="url(#p067286fa8e)" d="M 63.36 207.192349 
L 73.8 207.192349 
L 84.24 207.192349 
L 94.68 207.192349 
L 105.12 207.192349 
L 115.56 207.192349 
L 126 207.192349 
L 136.44 207.192349 
L 146.88 207.192349 
L 157.32 207.192349 
L 167.76 207.192349 
L 178.2 207.192349 
L 188.64 205.160027 
L 199.08 201.790437 
L 209.52 197.557314 
L 219.96 192.781388 
L 230.4 187.67792 
L 240.84 182.38973 
L 251.28 177.010108 
L 261.72 171.598676 
L 272.16 166.187245 
L 282.6 160.775813 
L 293.04 155.364382 
L 303.48 149.95295 
L 313.92 144.541519 
L 324.36 139.130087 
L 334.8 133.718656 
L 345.24 128.307224 
L 355.68 122.895793 
L 366.12 117.484361 
L 376.56 112.07293 
L 387 106.661498 
L 397.44 101.250066 
L 407.88 95.838635 
L 418.32 90.427203 
L 428.76 85.015772 
L 439.2 79.60434 
L 449.64 74.192909 
L 460.08 68.781477 
L 470.52 63.370046 
L 480.96 57.958614 
L 491.4 52.547183 
L 501.84 45.397608 
L 512.28 40.280356 
L 522.72 37.195425 
L 533.16 37.195425 
L 543.6 37.195425 
L 554.04 37.195425 
L 564.48 37.195425 
L 574.92 37.195425 
L 585.36 37.195425 
L 595.8 37.195425 
L 606.24 37.195425 
L 616.68 37.195425 
L 627.12 37.195425 
L 637.56 37.195425 
L 648 37.195425 
L 658.44 37.195425 
L 668.88 37.195425 
L 679.32 37.195425 
L 689.76 37.195425 
L 700.2 37.195425 
L 710.64 37.195425 
L 721.08 37.195425 
L 731.52 37.195425 
L 741.96 37.195425 
L 752.4 37.195425 
L 762.84 37.195425 
L 773.28 37.195425 
L 783.72 37.195425 
L 794.16 37.195425 
L 804.6 37.195425 
L 815.04 37.195425 
L 825.48 37.195425 
L 835.92 37.195425 
L 846.36 37.195425 
L 856.8 37.195425 
L 867.24 37.195425 
L 877.68 37.195425 
L 888.12 37.195425 
L 898.56 37.195425 
" style="fill:none;stroke:#57b8ff;stroke-linecap:square;stroke-width:3;"/>
   </g>
   <g id="line2d_16">
    <path clip-path="url(#p067286fa8e)" d="M 63.36 207.192349 
L 73.8 207.192349 
L 84.24 207.192349 
L 94.68 207.192349 
L 105.12 207.192349 
L 115.56 207.192349 
L 126 207.192349 
L 136.44 207.192349 
L 146.88 207.192349 
L 157.32 207.192349 
L 167.76 207.192349 
L 178.2 207.192349 
L 188.64 207.192349 
L 199.08 206.497295 
L 209.52 204.871161 
L 219.96 202.317251 
L 230.4 198.95011 
L 240.84 194.923683 
L 251.28 190.393338 
L 261.72 185.49779 
L 272.16 180.357381 
L 282.6 175.083106 
L 293.04 169.747034 
L 303.48 164.394824 
L 313.92 159.042614 
L 324.36 153.690404 
L 334.8 148.338194 
L 345.24 142.985984 
L 355.68 137.633775 
L 366.12 132.281565 
L 376.56 126.929355 
L 387 121.577145 
L 397.44 116.224935 
L 407.88 110.872725 
L 418.32 105.520515 
L 428.76 100.168306 
L 439.2 94.816096 
L 449.64 89.463886 
L 460.08 84.111676 
L 470.52 78.759466 
L 480.96 73.407256 
L 491.4 68.055046 
L 501.84 62.702837 
L 512.28 57.350627 
L 522.72 51.998417 
L 533.16 45.593599 
L 543.6 41.221102 
L 554.04 38.880928 
L 564.48 38.880928 
L 574.92 38.880928 
L 585.36 38.880928 
L 595.8 38.880928 
L 606.24 38.880928 
L 616.68 38.880928 
L 627.12 38.880928 
L 637.56 38.880928 
L 648 38.880928 
L 658.44 38.880928 
L 668.88 38.880928 
L 679.32 38.880928 
L 689.76 38.880928 
L 700.2 38.880928 
L 710.64 38.880928 
L 721.08 38.880928 
L 731.52 38.880928 
L 741.96 38.880928 
L 752.4 38.880928 
L 762.84 38.880928 
L 773.28 38.880928 
L 783.72 38.880928 
L 794.16 38.880928 
L 804.6 38.880928 
L 815.04 38.880928 
L 825.48 38.880928 
L 835.92 38.880928 
L 846.36 38.880928 
L 856.8 38.880928 
L 867.24 38.880928 
L 877.68 38.880928 
L 888.12 38.880928 
L 898.56 38.880928 
" style="fill:none;stroke:#808080;stroke-linecap:square;stroke-opacity:0.3;stroke-width:3;"/>
   </g>
   <g id="line2d_17">
    <path clip-path="url(#p067286fa8e)" d="M 63.36 207.192349 
L 73.8 207.192349 
L 84.24 207.192349 
L 94.68 207.192349 
L 105.12 207.192349 
L 115.56 207.192349 
L 126 207.192349 
L 136.44 207.192349 
L 146.88 207.192349 
L 157.32 207.192349 
L 167.76 207.192349 
L 178.2 207.192349 
L 188.64 207.192349 
L 199.08 207.192349 
L 209.52 206.954641 
L 219.96 206.236486 
L 230.4 204.874307 
L 240.84 202.79718 
L 251.28 200.011134 
L 261.72 196.575123 
L 272.16 192.578239 
L 282.6 188.123453 
L 293.04 183.31958 
L 303.48 178.265697 
L 313.92 173.056599 
L 324.36 167.770065 
L 334.8 162.45586 
L 345.24 157.141656 
L 355.68 151.827452 
L 366.12 146.513247 
L 376.56 141.199043 
L 387 135.884838 
L 397.44 130.570634 
L 407.88 125.25643 
L 418.32 119.942225 
L 428.76 114.628021 
L 439.2 109.313816 
L 449.64 103.999612 
L 460.08 98.685408 
L 470.52 93.371203 
L 480.96 88.056999 
L 491.4 82.742794 
L 501.84 77.42859 
L 512.28 72.114386 
L 522.72 66.800181 
L 533.16 61.485977 
L 543.6 56.171773 
L 554.04 50.857568 
L 564.48 45.235511 
L 574.92 41.645777 
L 585.36 39.967547 
L 595.8 39.967547 
L 606.24 39.967547 
L 616.68 39.967547 
L 627.12 39.967547 
L 637.56 39.967547 
L 648 39.967547 
L 658.44 39.967547 
L 668.88 39.967547 
L 679.32 39.967547 
L 689.76 39.967547 
L 700.2 39.967547 
L 710.64 39.967547 
L 721.08 39.967547 
L 731.52 39.967547 
L 741.96 39.967547 
L 752.4 39.967547 
L 762.84 39.967547 
L 773.28 39.967547 
L 783.72 39.967547 
L 794.16 39.967547 
L 804.6 39.967547 
L 815.04 39.967547 
L 825.48 39.967547 
L 835.92 39.967547 
L 846.36 39.967547 
L 856.8 39.967547 
L 867.24 39.967547 
L 877.68 39.967547 
L 888.12 39.967547 
L 898.56 39.967547 
" style="fill:none;stroke:#808080;stroke-linecap:square;stroke-opacity:0.3;stroke-width:3;"/>
   </g>
   <g id="line2d_18">
    <path clip-path="url(#p067286fa8e)" d="M 63.36 207.192349 
L 73.8 207.192349 
L 84.24 207.192349 
L 94.68 207.192349 
L 105.12 207.192349 
L 115.56 207.192349 
L 126 207.192349 
L 136.44 207.192349 
L 146.88 207.192349 
L 157.32 207.192349 
L 167.76 207.192349 
L 178.2 207.192349 
L 188.64 207.192349 
L 199.08 207.192349 
L 209.52 207.192349 
L 219.96 207.111053 
L 230.4 206.810034 
L 240.84 206.139253 
L 251.28 204.972838 
L 261.72 203.228089 
L 272.16 200.870085 
L 282.6 197.906865 
L 293.04 194.380423 
L 303.48 190.357703 
L 313.92 185.919041 
L 324.36 181.152124 
L 334.8 176.143516 
L 345.24 170.972315 
L 355.68 165.717585 
L 366.12 160.430127 
L 376.56 155.141641 
L 387 149.853155 
L 397.44 144.564669 
L 407.88 139.276183 
L 418.32 133.987697 
L 428.76 128.699211 
L 439.2 123.410725 
L 449.64 118.122239 
L 460.08 112.833753 
L 470.52 107.545267 
L 480.96 102.256781 
L 491.4 96.968295 
L 501.84 91.679809 
L 512.28 86.391323 
L 522.72 81.102837 
L 533.16 75.814351 
L 543.6 70.525865 
L 554.04 65.237379 
L 564.48 59.948893 
L 574.92 54.660407 
L 585.36 49.492738 
L 595.8 44.679162 
L 606.24 41.897907 
L 616.68 40.689377 
L 627.12 40.689377 
L 637.56 40.689377 
L 648 40.689377 
L 658.44 40.689377 
L 668.88 40.689377 
L 679.32 40.689377 
L 689.76 40.689377 
L 700.2 40.689377 
L 710.64 40.689377 
L 721.08 40.689377 
L 731.52 40.689377 
L 741.96 40.689377 
L 752.4 40.689377 
L 762.84 40.689377 
L 773.28 40.689377 
L 783.72 40.689377 
L 794.16 40.689377 
L 804.6 40.689377 
L 815.04 40.689377 
L 825.48 40.689377 
L 835.92 40.689377 
L 846.36 40.689377 
L 856.8 40.689377 
L 867.24 40.689377 
L 877.68 40.689377 
L 888.12 40.689377 
L 898.56 40.689377 
" style="fill:none;stroke:#808080;stroke-linecap:square;stroke-opacity:0.3;stroke-width:3;"/>
   </g>
   <g id="line2d_19">
    <path clip-path="url(#p067286fa8e)" d="M 63.36 207.192349 
L 73.8 207.192349 
L 84.24 207.192349 
L 94.68 207.192349 
L 105.12 207.192349 
L 115.56 207.192349 
L 126 207.192349 
L 136.44 207.192349 
L 146.88 207.192349 
L 157.32 207.192349 
L 167.76 207.192349 
L 178.2 207.192349 
L 188.64 207.192349 
L 199.08 207.192349 
L 209.52 207.192349 
L 219.96 207.192349 
L 230.4 207.164546 
L 240.84 207.042647 
L 251.28 206.730243 
L 261.72 206.118854 
L 272.16 205.106803 
L 282.6 203.613652 
L 293.04 201.588346 
L 303.48 199.011579 
L 313.92 195.894231 
L 324.36 192.272242 
L 334.8 188.200979 
L 345.24 183.748436 
L 355.68 178.9884 
L 366.12 173.998337 
L 376.56 168.848306 
L 387 163.614436 
L 397.44 158.346716 
L 407.88 153.076411 
L 418.32 147.806107 
L 428.76 142.535803 
L 439.2 137.265498 
L 449.64 131.995194 
L 460.08 126.724889 
L 470.52 121.454585 
L 480.96 116.184281 
L 491.4 110.913976 
L 501.84 105.643672 
L 512.28 100.373367 
L 522.72 95.103063 
L 533.16 89.832759 
L 543.6 84.562454 
L 554.04 79.29215 
L 564.48 74.021845 
L 574.92 68.751541 
L 585.36 63.481237 
L 595.8 58.210932 
L 606.24 52.940628 
L 616.68 48.129921 
L 627.12 44.143006 
L 637.56 42.041394 
L 648 41.230795 
L 658.44 41.230795 
L 668.88 41.230795 
L 679.32 41.230795 
L 689.76 41.230795 
L 700.2 41.230795 
L 710.64 41.230795 
L 721.08 41.230795 
L 731.52 41.230795 
L 741.96 41.230795 
L 752.4 41.230795 
L 762.84 41.230795 
L 773.28 41.230795 
L 783.72 41.230795 
L 794.16 41.230795 
L 804.6 41.230795 
L 815.04 41.230795 
L 825.48 41.230795 
L 835.92 41.230795 
L 846.36 41.230795 
L 856.8 41.230795 
L 867.24 41.230795 
L 877.68 41.230795 
L 888.12 41.230795 
L 898.56 41.230795 
" style="fill:none;stroke:#808080;stroke-linecap:square;stroke-opacity:0.3;stroke-width:3;"/>
   </g>
   <g id="line2d_20">
    <path clip-path="url(#p067286fa8e)" d="M 63.36 207.192349 
L 73.8 207.192349 
L 84.24 207.192349 
L 94.68 207.192349 
L 105.12 207.192349 
L 115.56 207.192349 
L 126 207.192349 
L 136.44 207.192349 
L 146.88 207.192349 
L 157.32 207.192349 
L 167.76 207.192349 
L 178.2 207.192349 
L 188.64 207.192349 
L 199.08 207.192349 
L 209.52 207.192349 
L 219.96 207.192349 
L 230.4 207.192349 
L 240.84 207.182841 
L 251.28 207.13467 
L 261.72 206.995026 
L 272.16 206.690927 
L 282.6 206.138123 
L 293.04 205.252138 
L 303.48 203.958591 
L 313.92 202.201015 
L 324.36 199.945599 
L 334.8 197.182595 
L 345.24 193.92527 
L 355.68 190.206798 
L 366.12 186.075749 
L 376.56 181.592243 
L 387 176.82152 
L 397.44 171.834162 
L 407.88 166.695236 
L 418.32 161.475583 
L 428.76 156.22329 
L 439.2 150.96844 
L 449.64 145.71359 
L 460.08 140.45874 
L 470.52 135.20389 
L 480.96 129.949039 
L 491.4 124.694189 
L 501.84 119.439339 
L 512.28 114.184489 
L 522.72 108.929639 
L 533.16 103.674789 
L 543.6 98.419938 
L 554.04 93.165088 
L 564.48 87.910238 
L 574.92 82.655388 
L 585.36 77.400538 
L 595.8 72.145688 
L 606.24 66.890837 
L 616.68 61.635987 
L 627.12 56.381137 
L 637.56 51.273306 
L 648 46.906784 
L 658.44 43.761984 
L 668.88 42.25122 
L 679.32 42.25122 
L 689.76 42.25122 
L 700.2 42.25122 
L 710.64 42.25122 
L 721.08 42.25122 
L 731.52 42.25122 
L 741.96 42.25122 
L 752.4 42.25122 
L 762.84 42.25122 
L 773.28 42.25122 
L 783.72 42.25122 
L 794.16 42.25122 
L 804.6 42.25122 
L 815.04 42.25122 
L 825.48 42.25122 
L 835.92 42.25122 
L 846.36 42.25122 
L 856.8 42.25122 
L 867.24 42.25122 
L 877.68 42.25122 
L 888.12 42.25122 
L 898.56 42.25122 
" style="fill:none;stroke:#808080;stroke-linecap:square;stroke-opacity:0.3;stroke-width:3;"/>
   </g>
   <g id="line2d_21">
    <path clip-path="url(#p067286fa8e)" d="M 63.36 207.192349 
L 73.8 207.192349 
L 84.24 207.192349 
L 94.68 207.192349 
L 105.12 207.192349 
L 115.56 207.192349 
L 126 207.192349 
L 136.44 207.192349 
L 146.88 207.192349 
L 157.32 207.192349 
L 167.76 207.192349 
L 178.2 207.192349 
L 188.64 207.192349 
L 199.08 207.192349 
L 209.52 207.192349 
L 219.96 207.192349 
L 230.4 207.192349 
L 240.84 207.192349 
L 251.28 207.189097 
L 261.72 207.170407 
L 272.16 207.109919 
L 282.6 206.964757 
L 293.04 206.677004 
L 303.48 206.178535 
L 313.92 205.397864 
L 324.36 204.267507 
L 334.8 202.7306 
L 345.24 200.745868 
L 355.68 198.2906 
L 366.12 195.361559 
L 376.56 191.973996 
L 387 188.159616 
L 397.44 183.962941 
L 407.88 179.438879 
L 418.32 174.647337 
L 428.76 169.653403 
L 439.2 164.517727 
L 449.64 159.307047 
L 460.08 154.066729 
L 470.52 148.8251 
L 480.96 143.583472 
L 491.4 138.341843 
L 501.84 133.100215 
L 512.28 127.858586 
L 522.72 122.616958 
L 533.16 117.375329 
L 543.6 112.1337 
L 554.04 106.892072 
L 564.48 101.650443 
L 574.92 96.408815 
L 585.36 91.167186 
L 595.8 85.925558 
L 606.24 80.683929 
L 616.68 75.442301 
L 627.12 70.200672 
L 637.56 64.959043 
L 648 59.717415 
L 658.44 54.475786 
L 668.88 49.632445 
L 679.32 45.310661 
L 689.76 42.871719 
L 700.2 41.823044 
L 710.64 41.823044 
L 721.08 41.823044 
L 731.52 41.823044 
L 741.96 41.823044 
L 752.4 41.823044 
L 762.84 41.823044 
L 773.28 41.823044 
L 783.72 41.823044 
L 794.16 41.823044 
L 804.6 41.823044 
L 815.04 41.823044 
L 825.48 41.823044 
L 835.92 41.823044 
L 846.36 41.823044 
L 856.8 41.823044 
L 867.24 41.823044 
L 877.68 41.823044 
L 888.12 41.823044 
L 898.56 41.823044 
" style="fill:none;stroke:#808080;stroke-linecap:square;stroke-opacity:0.3;stroke-width:3;"/>
   </g>
   <g id="line2d_22">
    <path clip-path="url(#p067286fa8e)" d="M 63.36 207.192349 
L 73.8 207.192349 
L 84.24 207.192349 
L 94.68 207.192349 
L 105.12 207.192349 
L 115.56 207.192349 
L 126 207.192349 
L 136.44 207.192349 
L 146.88 207.192349 
L 157.32 207.192349 
L 167.76 207.192349 
L 178.2 207.192349 
L 188.64 207.192349 
L 199.08 207.192349 
L 209.52 207.192349 
L 219.96 207.192349 
L 230.4 207.192349 
L 240.84 207.192349 
L 251.28 207.192349 
L 261.72 207.191237 
L 272.16 207.184087 
L 282.6 207.15853 
L 293.04 207.091491 
L 303.48 206.947488 
L 313.92 206.679158 
L 324.36 206.229984 
L 334.8 205.538699 
L 345.24 204.544558 
L 355.68 203.192638 
L 366.12 201.438439 
L 376.56 199.251305 
L 387 196.616376 
L 397.44 193.535168 
L 407.88 190.024687 
L 418.32 186.115942 
L 428.76 181.851064 
L 439.2 177.281369 
L 449.64 172.46274 
L 460.08 167.456078 
L 470.52 162.318219 
L 480.96 157.112841 
L 491.4 151.882041 
L 501.84 146.651241 
L 512.28 141.420442 
L 522.72 136.189642 
L 533.16 130.958842 
L 543.6 125.728042 
L 554.04 120.497242 
L 564.48 115.266442 
L 574.92 110.035642 
L 585.36 104.804842 
L 595.8 99.574043 
L 606.24 94.343243 
L 616.68 89.112443 
L 627.12 83.881643 
L 637.56 78.650843 
L 648 73.420043 
L 658.44 68.189243 
L 668.88 62.958443 
L 679.32 57.727644 
L 689.76 52.646323 
L 700.2 48.207059 
L 710.64 44.751441 
L 721.08 42.953654 
L 731.52 42.953654 
L 741.96 42.953654 
L 752.4 42.953654 
L 762.84 42.953654 
L 773.28 42.953654 
L 783.72 42.953654 
L 794.16 42.953654 
L 804.6 42.953654 
L 815.04 42.953654 
L 825.48 42.953654 
L 835.92 42.953654 
L 846.36 42.953654 
L 856.8 42.953654 
L 867.24 42.953654 
L 877.68 42.953654 
L 888.12 42.953654 
L 898.56 42.953654 
" style="fill:none;stroke:#808080;stroke-linecap:square;stroke-opacity:0.3;stroke-width:3;"/>
   </g>
   <g id="line2d_23">
    <path clip-path="url(#p067286fa8e)" d="M 63.36 207.192349 
L 73.8 207.192349 
L 84.24 207.192349 
L 94.68 207.192349 
L 105.12 207.192349 
L 115.56 207.192349 
L 126 207.192349 
L 136.44 207.192349 
L 146.88 207.192349 
L 157.32 207.192349 
L 167.76 207.192349 
L 178.2 207.192349 
L 188.64 207.192349 
L 199.08 207.192349 
L 209.52 207.192349 
L 219.96 207.192349 
L 230.4 207.192349 
L 240.84 207.192349 
L 251.28 207.192349 
L 261.72 207.192349 
L 272.16 207.191969 
L 282.6 207.189264 
L 293.04 207.178682 
L 303.48 207.148551 
L 313.92 207.078806 
L 324.36 206.93963 
L 334.8 206.691482 
L 345.24 206.286646 
L 355.68 205.672115 
L 366.12 204.793373 
L 376.56 203.598552 
L 387 202.042428 
L 397.44 200.089789 
L 407.88 197.717891 
L 418.32 194.917805 
L 428.76 191.694773 
L 439.2 188.067433 
L 449.64 184.066594 
L 460.08 179.732788 
L 470.52 175.114743 
L 480.96 170.265218 
L 491.4 165.241897 
L 501.84 160.099049 
L 512.28 154.89702 
L 522.72 149.674378 
L 533.16 144.451736 
L 543.6 139.229095 
L 554.04 134.006453 
L 564.48 128.783811 
L 574.92 123.561169 
L 585.36 118.338528 
L 595.8 113.115886 
L 606.24 107.893244 
L 616.68 102.670603 
L 627.12 97.447961 
L 637.56 92.225319 
L 648 87.002678 
L 658.44 81.780036 
L 668.88 76.557394 
L 679.32 71.334753 
L 689.76 66.112111 
L 700.2 60.889469 
L 710.64 55.666827 
L 721.08 50.818678 
L 731.52 46.205062 
L 741.96 43.483016 
L 752.4 42.238385 
L 762.84 42.238385 
L 773.28 42.238385 
L 783.72 42.238385 
L 794.16 42.238385 
L 804.6 42.238385 
L 815.04 42.238385 
L 825.48 42.238385 
L 835.92 42.238385 
L 846.36 42.238385 
L 856.8 42.238385 
L 867.24 42.238385 
L 877.68 42.238385 
L 888.12 42.238385 
L 898.56 42.238385 
" style="fill:none;stroke:#3d348b;stroke-linecap:square;stroke-width:3;"/>
   </g>
   <g id="patch_3">
    <path d="M 63.36 233.088399 
L 63.36 25.92 
" style="fill:none;stroke:#000000;stroke-linecap:square;stroke-linejoin:miter;stroke-width:0.8;"/>
   </g>
   <g id="patch_4">
    <path d="M 898.56 233.088399 
L 898.56 25.92 
" style="fill:none;stroke:#000000;stroke-linecap:square;stroke-linejoin:miter;stroke-width:0.8;"/>
   </g>
   <g id="patch_5">
    <path d="M 63.36 233.088399 
L 898.56 233.088399 
" style="fill:none;stroke:#000000;stroke-linecap:square;stroke-linejoin:miter;stroke-width:0.8;"/>
   </g>
   <g id="patch_6">
    <path d="M 63.36 25.92 
L 898.56 25.92 
" style="fill:none;stroke:#000000;stroke-linecap:square;stroke-linejoin:miter;stroke-width:0.8;"/>
   </g>
   <g id="text_16">
    <!-- Relative position -->
    <defs>
     <path d="M 47.90625 36.1875 
Q 51.3125 35.25 53.78125 33.03125 
Q 56.25 30.8125 58.203125 26.8125 
L 68.796875 5.171875 
L 77.6875 5.171875 
L 77.6875 0 
L 60.5 0 
L 49.125 23.1875 
Q 45.84375 29.9375 43.109375 31.90625 
Q 40.375 33.890625 35.59375 33.890625 
L 24.703125 33.890625 
L 24.703125 5.171875 
L 35.015625 5.171875 
L 35.015625 0 
L 5.515625 0 
L 5.515625 5.171875 
L 14.796875 5.171875 
L 14.796875 67.671875 
L 5.515625 67.671875 
L 5.515625 72.90625 
L 42.484375 72.90625 
Q 53.125 72.90625 58.90625 67.828125 
Q 64.703125 62.75 64.703125 53.421875 
Q 64.703125 45.90625 60.46875 41.578125 
Q 56.25 37.25 47.90625 36.1875 
z
M 24.703125 39.109375 
L 39.109375 39.109375 
Q 46.484375 39.109375 50 42.59375 
Q 53.515625 46.09375 53.515625 53.421875 
Q 53.515625 60.75 50 64.203125 
Q 46.484375 67.671875 39.109375 67.671875 
L 24.703125 67.671875 
z
" id="DejaVuSerif-82"/>
     <path d="M 20.515625 5.171875 
L 29 5.171875 
L 29 0 
L 2.875 0 
L 2.875 5.171875 
L 11.53125 5.171875 
L 11.53125 70.796875 
L 2.875 70.796875 
L 2.875 75.984375 
L 20.515625 75.984375 
z
" id="DejaVuSerif-108"/>
     <path d="M 24.703125 0 
L 5.609375 46.6875 
L -0.296875 46.6875 
L -0.296875 51.90625 
L 23.578125 51.90625 
L 23.578125 46.6875 
L 15.28125 46.6875 
L 29.890625 10.984375 
L 44.484375 46.6875 
L 36.71875 46.6875 
L 36.71875 51.90625 
L 56.203125 51.90625 
L 56.203125 46.6875 
L 50.390625 46.6875 
L 31.296875 0 
z
" id="DejaVuSerif-118"/>
     <path d="M 20.515625 28.515625 
L 20.515625 23.390625 
Q 20.515625 14.015625 24.09375 9.109375 
Q 27.6875 4.203125 34.515625 4.203125 
Q 41.40625 4.203125 44.9375 9.71875 
Q 48.484375 15.234375 48.484375 25.984375 
Q 48.484375 36.765625 44.9375 42.234375 
Q 41.40625 47.703125 34.515625 47.703125 
Q 27.6875 47.703125 24.09375 42.765625 
Q 20.515625 37.84375 20.515625 28.515625 
z
M 11.53125 46.6875 
L 2.875 46.6875 
L 2.875 51.90625 
L 20.515625 51.90625 
L 20.515625 43.796875 
Q 23.140625 48.6875 27.21875 51 
Q 31.296875 53.328125 37.3125 53.328125 
Q 46.875 53.328125 52.921875 45.75 
Q 58.984375 38.1875 58.984375 25.984375 
Q 58.984375 13.765625 52.921875 6.171875 
Q 46.875 -1.421875 37.3125 -1.421875 
Q 31.296875 -1.421875 27.21875 0.890625 
Q 23.140625 3.21875 20.515625 8.109375 
L 20.515625 -15.578125 
L 29 -15.578125 
L 29 -20.796875 
L 2.875 -20.796875 
L 2.875 -15.578125 
L 11.53125 -15.578125 
z
" id="DejaVuSerif-112"/>
     <path d="M 30.078125 3.421875 
Q 37.3125 3.421875 40.984375 9.125 
Q 44.671875 14.84375 44.671875 25.984375 
Q 44.671875 37.109375 40.984375 42.796875 
Q 37.3125 48.484375 30.078125 48.484375 
Q 22.859375 48.484375 19.171875 42.796875 
Q 15.484375 37.109375 15.484375 25.984375 
Q 15.484375 14.84375 19.1875 9.125 
Q 22.90625 3.421875 30.078125 3.421875 
z
M 30.078125 -1.421875 
Q 18.75 -1.421875 11.859375 6.078125 
Q 4.984375 13.578125 4.984375 25.984375 
Q 4.984375 38.375 11.84375 45.84375 
Q 18.703125 53.328125 30.078125 53.328125 
Q 41.453125 53.328125 48.3125 45.84375 
Q 55.171875 38.375 55.171875 25.984375 
Q 55.171875 13.578125 48.3125 6.078125 
Q 41.453125 -1.421875 30.078125 -1.421875 
z
" id="DejaVuSerif-111"/>
    </defs>
    <g transform="translate(378.95625 19.92)scale(0.24 -0.24)">
     <use xlink:href="#DejaVuSerif-82"/>
     <use x="75.292969" xlink:href="#DejaVuSerif-101"/>
     <use x="134.472656" xlink:href="#DejaVuSerif-108"/>
     <use x="166.455078" xlink:href="#DejaVuSerif-97"/>
     <use x="226.074219" xlink:href="#DejaVuSerif-116"/>
     <use x="266.259766" xlink:href="#DejaVuSerif-105"/>
     <use x="298.242188" xlink:href="#DejaVuSerif-118"/>
     <use x="354.736328" xlink:href="#DejaVuSerif-101"/>
     <use x="413.916016" xlink:href="#DejaVuSerif-32"/>
     <use x="445.703125" xlink:href="#DejaVuSerif-112"/>
     <use x="509.716797" xlink:href="#DejaVuSerif-111"/>
     <use x="569.921875" xlink:href="#DejaVuSerif-115"/>
     <use x="621.240234" xlink:href="#DejaVuSerif-105"/>
     <use x="653.222656" xlink:href="#DejaVuSerif-116"/>
     <use x="693.408203" xlink:href="#DejaVuSerif-105"/>
     <use x="725.390625" xlink:href="#DejaVuSerif-111"/>
     <use x="785.595703" xlink:href="#DejaVuSerif-110"/>
    </g>
   </g>
   <g id="legend_1">
    <g id="patch_7">
     <path d="M 920.912 176.271146 
L 1138.68075 176.271146 
Q 1142.68075 176.271146 1142.68075 172.271146 
L 1142.68075 27.489896 
Q 1142.68075 23.489896 1138.68075 23.489896 
L 920.912 23.489896 
Q 916.912 23.489896 916.912 27.489896 
L 916.912 172.271146 
Q 916.912 176.271146 920.912 176.271146 
z
" style="fill:#ffffff;opacity:0.8;stroke:#cccccc;stroke-linejoin:miter;"/>
    </g>
    <g id="line2d_24">
     <path d="M 924.912 39.686771 
L 964.912 39.686771 
" style="fill:none;stroke:#808080;stroke-dasharray:11.1,4.8;stroke-dashoffset:0;stroke-width:3;"/>
    </g>
    <g id="line2d_25"/>
    <g id="text_17">
     <!-- d -->
     <g transform="translate(980.912 46.686771)scale(0.2 -0.2)">
      <use xlink:href="#DejaVuSerif-100"/>
     </g>
    </g>
    <g id="line2d_26">
     <path d="M 924.912 69.043021 
L 964.912 69.043021 
" style="fill:none;stroke:#57b8ff;stroke-linecap:square;stroke-width:3;"/>
    </g>
    <g id="line2d_27"/>
    <g id="text_18">
     <!-- first follower -->
     <defs>
      <path d="M 43.015625 63.71875 
L 38.28125 63.71875 
Q 38.234375 67.390625 36.203125 69.28125 
Q 34.1875 71.1875 30.328125 71.1875 
Q 25.296875 71.1875 23.234375 68.421875 
Q 21.1875 65.671875 21.1875 58.59375 
L 21.1875 51.90625 
L 35.6875 51.90625 
L 35.6875 46.6875 
L 21.1875 46.6875 
L 21.1875 5.171875 
L 32.71875 5.171875 
L 32.71875 0 
L 3.609375 0 
L 3.609375 5.171875 
L 12.203125 5.171875 
L 12.203125 46.6875 
L 3.609375 46.6875 
L 3.609375 51.90625 
L 12.203125 51.90625 
L 12.203125 58.40625 
Q 12.203125 67.09375 16.71875 71.53125 
Q 21.234375 75.984375 29.984375 75.984375 
Q 33.25 75.984375 36.515625 75.390625 
Q 39.796875 74.8125 43.015625 73.578125 
z
" id="DejaVuSerif-102"/>
      <path d="M 47.796875 52 
L 47.796875 39.015625 
L 42.625 39.015625 
Q 42.390625 42.875 40.484375 44.78125 
Q 38.578125 46.6875 34.90625 46.6875 
Q 28.265625 46.6875 24.71875 42.09375 
Q 21.1875 37.5 21.1875 28.90625 
L 21.1875 5.171875 
L 31.59375 5.171875 
L 31.59375 0 
L 4.109375 0 
L 4.109375 5.171875 
L 12.203125 5.171875 
L 12.203125 46.78125 
L 3.609375 46.78125 
L 3.609375 51.90625 
L 21.1875 51.90625 
L 21.1875 42.671875 
Q 23.828125 48.09375 27.96875 50.703125 
Q 32.125 53.328125 38.09375 53.328125 
Q 40.28125 53.328125 42.703125 52.984375 
Q 45.125 52.640625 47.796875 52 
z
" id="DejaVuSerif-114"/>
      <path d="M 48 51.90625 
L 61.28125 11.375 
L 73 46.6875 
L 65.484375 46.6875 
L 65.484375 51.90625 
L 84.28125 51.90625 
L 84.28125 46.6875 
L 78.515625 46.6875 
L 63.09375 0 
L 55.609375 0 
L 42.828125 38.8125 
L 29.984375 0 
L 22.796875 0 
L 7.421875 46.6875 
L 1.609375 46.6875 
L 1.609375 51.90625 
L 25.09375 51.90625 
L 25.09375 46.6875 
L 16.703125 46.6875 
L 28.328125 11.375 
L 41.703125 51.90625 
z
" id="DejaVuSerif-119"/>
     </defs>
     <g transform="translate(980.912 76.043021)scale(0.2 -0.2)">
      <use xlink:href="#DejaVuSerif-102"/>
      <use x="37.011719" xlink:href="#DejaVuSerif-105"/>
      <use x="68.994141" xlink:href="#DejaVuSerif-114"/>
      <use x="116.796875" xlink:href="#DejaVuSerif-115"/>
      <use x="168.115234" xlink:href="#DejaVuSerif-116"/>
      <use x="208.300781" xlink:href="#DejaVuSerif-32"/>
      <use x="240.087891" xlink:href="#DejaVuSerif-102"/>
      <use x="277.099609" xlink:href="#DejaVuSerif-111"/>
      <use x="337.304688" xlink:href="#DejaVuSerif-108"/>
      <use x="369.287109" xlink:href="#DejaVuSerif-108"/>
      <use x="401.269531" xlink:href="#DejaVuSerif-111"/>
      <use x="461.474609" xlink:href="#DejaVuSerif-119"/>
      <use x="547.070312" xlink:href="#DejaVuSerif-101"/>
      <use x="606.25" xlink:href="#DejaVuSerif-114"/>
     </g>
    </g>
    <g id="line2d_28">
     <path d="M 924.912 98.399271 
L 964.912 98.399271 
" style="fill:none;stroke:#808080;stroke-linecap:square;stroke-opacity:0.3;stroke-width:3;"/>
    </g>
    <g id="line2d_29"/>
    <g id="text_19">
     <!-- other followers -->
     <defs>
      <path d="M 4.109375 0 
L 4.109375 5.171875 
L 12.203125 5.171875 
L 12.203125 70.796875 
L 3.609375 70.796875 
L 3.609375 75.984375 
L 21.1875 75.984375 
L 21.1875 42.671875 
Q 23.6875 47.953125 27.65625 50.640625 
Q 31.640625 53.328125 36.921875 53.328125 
Q 45.515625 53.328125 49.5625 48.390625 
Q 53.609375 43.453125 53.609375 33.015625 
L 53.609375 5.171875 
L 61.625 5.171875 
L 61.625 0 
L 36.8125 0 
L 36.8125 5.171875 
L 44.578125 5.171875 
L 44.578125 30.171875 
Q 44.578125 39.703125 42.25 43.1875 
Q 39.9375 46.6875 33.984375 46.6875 
Q 27.734375 46.6875 24.453125 42.140625 
Q 21.1875 37.59375 21.1875 28.90625 
L 21.1875 5.171875 
L 29 5.171875 
L 29 0 
z
" id="DejaVuSerif-104"/>
     </defs>
     <g transform="translate(980.912 105.399271)scale(0.2 -0.2)">
      <use xlink:href="#DejaVuSerif-111"/>
      <use x="60.205078" xlink:href="#DejaVuSerif-116"/>
      <use x="100.390625" xlink:href="#DejaVuSerif-104"/>
      <use x="164.794922" xlink:href="#DejaVuSerif-101"/>
      <use x="223.974609" xlink:href="#DejaVuSerif-114"/>
      <use x="271.777344" xlink:href="#DejaVuSerif-32"/>
      <use x="303.564453" xlink:href="#DejaVuSerif-102"/>
      <use x="340.576172" xlink:href="#DejaVuSerif-111"/>
      <use x="400.78125" xlink:href="#DejaVuSerif-108"/>
      <use x="432.763672" xlink:href="#DejaVuSerif-108"/>
      <use x="464.746094" xlink:href="#DejaVuSerif-111"/>
      <use x="524.951172" xlink:href="#DejaVuSerif-119"/>
      <use x="610.546875" xlink:href="#DejaVuSerif-101"/>
      <use x="669.726562" xlink:href="#DejaVuSerif-114"/>
      <use x="717.529297" xlink:href="#DejaVuSerif-115"/>
     </g>
    </g>
    <g id="line2d_30">
     <path d="M 924.912 127.755521 
L 964.912 127.755521 
" style="fill:none;stroke:#3d348b;stroke-linecap:square;stroke-width:3;"/>
    </g>
    <g id="line2d_31"/>
    <g id="text_20">
     <!-- last follower -->
     <g transform="translate(980.912 134.755521)scale(0.2 -0.2)">
      <use xlink:href="#DejaVuSerif-108"/>
      <use x="31.982422" xlink:href="#DejaVuSerif-97"/>
      <use x="91.601562" xlink:href="#DejaVuSerif-115"/>
      <use x="142.919922" xlink:href="#DejaVuSerif-116"/>
      <use x="183.105469" xlink:href="#DejaVuSerif-32"/>
      <use x="214.892578" xlink:href="#DejaVuSerif-102"/>
      <use x="251.904297" xlink:href="#DejaVuSerif-111"/>
      <use x="312.109375" xlink:href="#DejaVuSerif-108"/>
      <use x="344.091797" xlink:href="#DejaVuSerif-108"/>
      <use x="376.074219" xlink:href="#DejaVuSerif-111"/>
      <use x="436.279297" xlink:href="#DejaVuSerif-119"/>
      <use x="521.875" xlink:href="#DejaVuSerif-101"/>
      <use x="581.054688" xlink:href="#DejaVuSerif-114"/>
     </g>
    </g>
    <g id="patch_8">
     <path d="M 924.912 164.111771 
L 964.912 164.111771 
L 964.912 150.111771 
L 924.912 150.111771 
z
" style="fill:#a40606;opacity:0.3;stroke:#a40606;stroke-linejoin:miter;"/>
    </g>
    <g id="text_21">
     <!-- collision -->
     <g transform="translate(980.912 164.111771)scale(0.2 -0.2)">
      <use xlink:href="#DejaVuSerif-99"/>
      <use x="56.005859" xlink:href="#DejaVuSerif-111"/>
      <use x="116.210938" xlink:href="#DejaVuSerif-108"/>
      <use x="148.193359" xlink:href="#DejaVuSerif-108"/>
      <use x="180.175781" xlink:href="#DejaVuSerif-105"/>
      <use x="212.158203" xlink:href="#DejaVuSerif-115"/>
      <use x="263.476562" xlink:href="#DejaVuSerif-105"/>
      <use x="295.458984" xlink:href="#DejaVuSerif-111"/>
      <use x="355.664062" xlink:href="#DejaVuSerif-110"/>
     </g>
    </g>
   </g>
   <g id="line2d_32">
    <path clip-path="url(#p067286fa8e)" d="M 63.36 207.192349 
L 73.8 207.192349 
L 84.24 207.192349 
L 94.68 207.192349 
L 105.12 207.192349 
L 115.56 207.192349 
L 126 207.192349 
L 136.44 207.192349 
L 146.88 207.192349 
L 157.32 207.192349 
L 167.76 207.192349 
L 178.2 207.192349 
L 188.64 207.192349 
L 199.08 207.192349 
L 209.52 207.192349 
L 219.96 207.192349 
L 230.4 207.192349 
L 240.84 207.192349 
L 251.28 207.192349 
L 261.72 207.192349 
L 272.16 207.192349 
L 282.6 207.192349 
L 293.04 207.192349 
L 303.48 207.192349 
L 313.92 207.192349 
L 324.36 207.192349 
L 334.8 207.192349 
L 345.24 207.192349 
L 355.68 207.192349 
L 366.12 207.192349 
L 376.56 207.192349 
L 387 207.192349 
L 397.44 207.192349 
L 407.88 207.192349 
L 418.32 207.192349 
L 428.76 207.192349 
L 439.2 207.192349 
L 449.64 207.192349 
L 460.08 207.192349 
L 470.52 207.192349 
L 480.96 207.192349 
L 491.4 207.192349 
L 501.84 207.192349 
L 512.28 207.192349 
L 522.72 207.192349 
L 533.16 207.192349 
L 543.6 207.192349 
L 554.04 207.192349 
L 564.48 207.192349 
L 574.92 207.192349 
L 585.36 207.192349 
L 595.8 207.192349 
L 606.24 207.192349 
L 616.68 207.192349 
L 627.12 207.192349 
L 637.56 207.192349 
L 648 207.192349 
L 658.44 207.192349 
L 668.88 207.192349 
L 679.32 207.192349 
L 689.76 207.192349 
L 700.2 207.192349 
L 710.64 207.192349 
L 721.08 207.192349 
L 731.52 207.192349 
L 741.96 207.192349 
L 752.4 207.192349 
L 762.84 207.192349 
L 773.28 207.192349 
L 783.72 207.192349 
L 794.16 207.192349 
L 804.6 207.192349 
L 815.04 207.192349 
L 825.48 207.192349 
L 835.92 207.192349 
L 846.36 207.192349 
L 856.8 207.192349 
L 867.24 207.192349 
L 877.68 207.192349 
L 888.12 207.192349 
L 898.56 207.192349 
" style="fill:none;stroke:#808080;stroke-dasharray:11.1,4.8;stroke-dashoffset:0;stroke-width:3;"/>
   </g>
  </g>
  <g id="axes_2">
   <g id="patch_9">
    <path d="M 63.36 524.16 
L 898.56 524.16 
L 898.56 316.991601 
L 63.36 316.991601 
z
" style="fill:#ffffff;"/>
   </g>
   <g id="matplotlib.axis_3">
    <g id="xtick_10">
     <g id="line2d_33">
      <g>
       <use style="stroke:#000000;stroke-width:0.8;" x="63.36" xlink:href="#m92ab8dcec7" y="524.16"/>
      </g>
     </g>
     <g id="text_22">
      <!-- 0 -->
      <g transform="translate(56.9975 546.356875)scale(0.2 -0.2)">
       <use xlink:href="#DejaVuSerif-48"/>
      </g>
     </g>
    </g>
    <g id="xtick_11">
     <g id="line2d_34">
      <g>
       <use style="stroke:#000000;stroke-width:0.8;" x="167.76" xlink:href="#m92ab8dcec7" y="524.16"/>
      </g>
     </g>
     <g id="text_23">
      <!-- 1 -->
      <g transform="translate(161.3975 546.356875)scale(0.2 -0.2)">
       <use xlink:href="#DejaVuSerif-49"/>
      </g>
     </g>
    </g>
    <g id="xtick_12">
     <g id="line2d_35">
      <g>
       <use style="stroke:#000000;stroke-width:0.8;" x="272.16" xlink:href="#m92ab8dcec7" y="524.16"/>
      </g>
     </g>
     <g id="text_24">
      <!-- 2 -->
      <g transform="translate(265.7975 546.356875)scale(0.2 -0.2)">
       <use xlink:href="#DejaVuSerif-50"/>
      </g>
     </g>
    </g>
    <g id="xtick_13">
     <g id="line2d_36">
      <g>
       <use style="stroke:#000000;stroke-width:0.8;" x="376.56" xlink:href="#m92ab8dcec7" y="524.16"/>
      </g>
     </g>
     <g id="text_25">
      <!-- 3 -->
      <g transform="translate(370.1975 546.356875)scale(0.2 -0.2)">
       <use xlink:href="#DejaVuSerif-51"/>
      </g>
     </g>
    </g>
    <g id="xtick_14">
     <g id="line2d_37">
      <g>
       <use style="stroke:#000000;stroke-width:0.8;" x="480.96" xlink:href="#m92ab8dcec7" y="524.16"/>
      </g>
     </g>
     <g id="text_26">
      <!-- 4 -->
      <g transform="translate(474.5975 546.356875)scale(0.2 -0.2)">
       <use xlink:href="#DejaVuSerif-52"/>
      </g>
     </g>
    </g>
    <g id="xtick_15">
     <g id="line2d_38">
      <g>
       <use style="stroke:#000000;stroke-width:0.8;" x="585.36" xlink:href="#m92ab8dcec7" y="524.16"/>
      </g>
     </g>
     <g id="text_27">
      <!-- 5 -->
      <g transform="translate(578.9975 546.356875)scale(0.2 -0.2)">
       <use xlink:href="#DejaVuSerif-53"/>
      </g>
     </g>
    </g>
    <g id="xtick_16">
     <g id="line2d_39">
      <g>
       <use style="stroke:#000000;stroke-width:0.8;" x="689.76" xlink:href="#m92ab8dcec7" y="524.16"/>
      </g>
     </g>
     <g id="text_28">
      <!-- 6 -->
      <g transform="translate(683.3975 546.356875)scale(0.2 -0.2)">
       <use xlink:href="#DejaVuSerif-54"/>
      </g>
     </g>
    </g>
    <g id="xtick_17">
     <g id="line2d_40">
      <g>
       <use style="stroke:#000000;stroke-width:0.8;" x="794.16" xlink:href="#m92ab8dcec7" y="524.16"/>
      </g>
     </g>
     <g id="text_29">
      <!-- 7 -->
      <g transform="translate(787.7975 546.356875)scale(0.2 -0.2)">
       <use xlink:href="#DejaVuSerif-55"/>
      </g>
     </g>
    </g>
    <g id="xtick_18">
     <g id="line2d_41">
      <g>
       <use style="stroke:#000000;stroke-width:0.8;" x="898.56" xlink:href="#m92ab8dcec7" y="524.16"/>
      </g>
     </g>
     <g id="text_30">
      <!-- 8 -->
      <g transform="translate(892.1975 546.356875)scale(0.2 -0.2)">
       <use xlink:href="#DejaVuSerif-56"/>
      </g>
     </g>
    </g>
    <g id="text_31">
     <!-- time [s] -->
     <g transform="translate(442.22875 569.713125)scale(0.2 -0.2)">
      <use xlink:href="#DejaVuSerif-116"/>
      <use x="40.185547" xlink:href="#DejaVuSerif-105"/>
      <use x="72.167969" xlink:href="#DejaVuSerif-109"/>
      <use x="166.992188" xlink:href="#DejaVuSerif-101"/>
      <use x="226.171875" xlink:href="#DejaVuSerif-32"/>
      <use x="257.958984" xlink:href="#DejaVuSerif-91"/>
      <use x="296.972656" xlink:href="#DejaVuSerif-115"/>
      <use x="348.291016" xlink:href="#DejaVuSerif-93"/>
     </g>
    </g>
   </g>
   <g id="matplotlib.axis_4">
    <g id="ytick_5">
     <g id="line2d_42">
      <g>
       <use style="stroke:#000000;stroke-width:0.8;" x="63.36" xlink:href="#mc262dd41e1" y="472.684302"/>
      </g>
     </g>
     <g id="text_32">
      <!-- −5 -->
      <g transform="translate(26.875625 480.28274)scale(0.2 -0.2)">
       <use xlink:href="#DejaVuSerif-8722"/>
       <use x="83.789062" xlink:href="#DejaVuSerif-53"/>
      </g>
     </g>
    </g>
    <g id="ytick_6">
     <g id="line2d_43">
      <g>
       <use style="stroke:#000000;stroke-width:0.8;" x="63.36" xlink:href="#mc262dd41e1" y="398.844849"/>
      </g>
     </g>
     <g id="text_33">
      <!-- 0 -->
      <g transform="translate(43.635 406.443287)scale(0.2 -0.2)">
       <use xlink:href="#DejaVuSerif-48"/>
      </g>
     </g>
    </g>
    <g id="ytick_7">
     <g id="line2d_44">
      <g>
       <use style="stroke:#000000;stroke-width:0.8;" x="63.36" xlink:href="#mc262dd41e1" y="325.005397"/>
      </g>
     </g>
     <g id="text_34">
      <!-- 5 -->
      <g transform="translate(43.635 332.603834)scale(0.2 -0.2)">
       <use xlink:href="#DejaVuSerif-53"/>
      </g>
     </g>
    </g>
    <g id="text_35">
     <!-- acceleration [m/s^2] -->
     <defs>
      <path d="M 25.875 72.90625 
L 33.6875 72.90625 
L 7.8125 -9.28125 
L 0 -9.28125 
z
" id="DejaVuSerif-47"/>
      <path d="M 46.6875 72.90625 
L 73.1875 45.703125 
L 65.71875 45.703125 
L 41.890625 64.3125 
L 18.109375 45.703125 
L 10.59375 45.703125 
L 37.109375 72.90625 
z
" id="DejaVuSerif-94"/>
     </defs>
     <g transform="translate(18.71625 526.9008)rotate(-90)scale(0.2 -0.2)">
      <use xlink:href="#DejaVuSerif-97"/>
      <use x="59.619141" xlink:href="#DejaVuSerif-99"/>
      <use x="115.625" xlink:href="#DejaVuSerif-99"/>
      <use x="171.630859" xlink:href="#DejaVuSerif-101"/>
      <use x="230.810547" xlink:href="#DejaVuSerif-108"/>
      <use x="262.792969" xlink:href="#DejaVuSerif-101"/>
      <use x="321.972656" xlink:href="#DejaVuSerif-114"/>
      <use x="369.775391" xlink:href="#DejaVuSerif-97"/>
      <use x="429.394531" xlink:href="#DejaVuSerif-116"/>
      <use x="469.580078" xlink:href="#DejaVuSerif-105"/>
      <use x="501.5625" xlink:href="#DejaVuSerif-111"/>
      <use x="561.767578" xlink:href="#DejaVuSerif-110"/>
      <use x="626.171875" xlink:href="#DejaVuSerif-32"/>
      <use x="657.958984" xlink:href="#DejaVuSerif-91"/>
      <use x="696.972656" xlink:href="#DejaVuSerif-109"/>
      <use x="791.796875" xlink:href="#DejaVuSerif-47"/>
      <use x="825.488281" xlink:href="#DejaVuSerif-115"/>
      <use x="876.806641" xlink:href="#DejaVuSerif-94"/>
      <use x="960.595703" xlink:href="#DejaVuSerif-50"/>
      <use x="1024.21875" xlink:href="#DejaVuSerif-93"/>
     </g>
    </g>
   </g>
   <g id="line2d_45">
    <path clip-path="url(#p15f924603b)" d="M 63.36 514.743255 
L 73.8 514.743255 
L 84.24 514.743255 
L 94.68 514.743255 
L 105.12 514.743255 
L 115.56 514.743255 
L 126 514.743255 
L 136.44 514.743255 
L 146.88 514.743255 
L 157.32 514.743255 
L 167.76 514.743255 
L 178.2 514.743255 
L 188.64 514.743255 
L 199.08 514.743255 
L 209.52 514.743255 
L 219.96 514.743255 
L 230.4 514.743255 
L 240.84 514.743255 
L 251.28 514.743255 
L 261.72 514.743255 
L 272.16 514.743255 
L 282.6 514.743255 
L 293.04 514.743255 
L 303.48 514.743255 
L 313.92 514.743255 
L 324.36 514.743255 
L 334.8 514.743255 
L 345.24 514.743255 
L 355.68 514.743255 
L 366.12 514.743255 
L 376.56 514.743255 
L 387 514.743255 
L 397.44 514.743255 
L 407.88 514.743255 
L 418.32 514.743255 
L 428.76 514.743255 
L 439.2 514.743255 
L 449.64 514.743255 
L 460.08 514.743255 
L 470.52 514.743255 
L 480.96 514.743255 
L 491.4 514.743255 
L 501.84 514.743255 
L 512.28 514.743255 
L 522.72 514.743255 
L 533.16 514.743255 
L 543.6 514.743255 
L 554.04 514.743255 
L 564.48 514.743255 
L 574.92 514.743255 
L 585.36 514.743255 
L 595.8 514.743255 
L 606.24 514.743255 
L 616.68 514.743255 
L 627.12 514.743255 
L 637.56 514.743255 
L 648 514.743255 
L 658.44 514.743255 
L 668.88 514.743255 
L 679.32 514.743255 
L 689.76 514.743255 
L 700.2 514.743255 
L 710.64 514.743255 
L 721.08 514.743255 
L 731.52 514.743255 
L 741.96 514.743255 
L 752.4 514.743255 
L 762.84 514.743255 
L 773.28 514.743255 
L 783.72 514.743255 
L 794.16 514.743255 
L 804.6 514.743255 
L 815.04 514.743255 
L 825.48 514.743255 
L 835.92 514.743255 
L 846.36 514.743255 
L 856.8 514.743255 
L 867.24 514.743255 
L 877.68 514.743255 
L 888.12 514.743255 
L 898.56 514.743255 
" style="fill:none;stroke:#808080;stroke-dasharray:11.1,4.8;stroke-dashoffset:0;stroke-width:3;"/>
   </g>
   <g id="line2d_46">
    <path clip-path="url(#p15f924603b)" d="M 63.36 326.408346 
L 73.8 326.408346 
L 84.24 326.408346 
L 94.68 326.408346 
L 105.12 326.408346 
L 115.56 326.408346 
L 126 326.408346 
L 136.44 326.408346 
L 146.88 326.408346 
L 157.32 326.408346 
L 167.76 326.408346 
L 178.2 326.408346 
L 188.64 326.408346 
L 199.08 326.408346 
L 209.52 326.408346 
L 219.96 326.408346 
L 230.4 326.408346 
L 240.84 326.408346 
L 251.28 326.408346 
L 261.72 326.408346 
L 272.16 326.408346 
L 282.6 326.408346 
L 293.04 326.408346 
L 303.48 326.408346 
L 313.92 326.408346 
L 324.36 326.408346 
L 334.8 326.408346 
L 345.24 326.408346 
L 355.68 326.408346 
L 366.12 326.408346 
L 376.56 326.408346 
L 387 326.408346 
L 397.44 326.408346 
L 407.88 326.408346 
L 418.32 326.408346 
L 428.76 326.408346 
L 439.2 326.408346 
L 449.64 326.408346 
L 460.08 326.408346 
L 470.52 326.408346 
L 480.96 326.408346 
L 491.4 326.408346 
L 501.84 326.408346 
L 512.28 326.408346 
L 522.72 326.408346 
L 533.16 326.408346 
L 543.6 326.408346 
L 554.04 326.408346 
L 564.48 326.408346 
L 574.92 326.408346 
L 585.36 326.408346 
L 595.8 326.408346 
L 606.24 326.408346 
L 616.68 326.408346 
L 627.12 326.408346 
L 637.56 326.408346 
L 648 326.408346 
L 658.44 326.408346 
L 668.88 326.408346 
L 679.32 326.408346 
L 689.76 326.408346 
L 700.2 326.408346 
L 710.64 326.408346 
L 721.08 326.408346 
L 731.52 326.408346 
L 741.96 326.408346 
L 752.4 326.408346 
L 762.84 326.408346 
L 773.28 326.408346 
L 783.72 326.408346 
L 794.16 326.408346 
L 804.6 326.408346 
L 815.04 326.408346 
L 825.48 326.408346 
L 835.92 326.408346 
L 846.36 326.408346 
L 856.8 326.408346 
L 867.24 326.408346 
L 877.68 326.408346 
L 888.12 326.408346 
L 898.56 326.408346 
" style="fill:none;stroke:#808080;stroke-dasharray:11.1,4.8;stroke-dashoffset:0;stroke-width:3;"/>
   </g>
   <g id="line2d_47">
    <path clip-path="url(#p15f924603b)" d="M 63.36 398.844849 
L 73.8 398.844849 
L 84.24 398.844849 
L 94.68 398.844849 
L 105.12 398.844849 
L 115.56 398.844849 
L 126 398.844849 
L 136.44 398.844849 
L 146.88 398.844849 
L 157.32 398.844849 
L 167.76 514.743255 
L 178.2 514.743255 
L 188.64 514.743255 
L 199.08 514.743255 
L 209.52 514.743255 
L 219.96 514.743255 
L 230.4 514.743255 
L 240.84 514.743255 
L 251.28 514.743255 
L 261.72 514.743255 
L 272.16 514.743255 
L 282.6 514.743255 
L 293.04 514.743255 
L 303.48 514.743255 
L 313.92 514.743255 
L 324.36 514.743255 
L 334.8 514.743255 
L 345.24 514.743255 
L 355.68 514.743255 
L 366.12 514.743255 
L 376.56 514.743255 
L 387 514.743255 
L 397.44 514.743255 
L 407.88 514.743255 
L 418.32 514.743255 
L 428.76 514.743255 
L 439.2 514.743255 
L 449.64 514.743255 
L 460.08 514.743255 
L 470.52 514.743255 
L 480.96 514.743255 
L 491.4 514.743255 
L 501.84 398.844849 
L 512.28 398.844849 
L 522.72 398.844849 
L 533.16 398.844849 
L 543.6 398.844849 
L 554.04 398.844849 
L 564.48 398.844849 
L 574.92 398.844849 
L 585.36 398.844849 
L 595.8 398.844849 
L 606.24 398.844849 
L 616.68 398.844849 
L 627.12 398.844849 
L 637.56 398.844849 
L 648 398.844849 
L 658.44 398.844849 
L 668.88 398.844849 
L 679.32 398.844849 
L 689.76 398.844849 
L 700.2 398.844849 
L 710.64 398.844849 
L 721.08 398.844849 
L 731.52 398.844849 
L 741.96 398.844849 
L 752.4 398.844849 
L 762.84 398.844849 
L 773.28 398.844849 
L 783.72 398.844849 
L 794.16 398.844849 
L 804.6 398.844849 
L 815.04 398.844849 
L 825.48 398.844849 
L 835.92 398.844849 
L 846.36 398.844849 
L 856.8 398.844849 
L 867.24 398.844849 
L 877.68 398.844849 
L 888.12 398.844849 
L 898.56 398.844849 
" style="fill:none;stroke:#ea7317;stroke-linecap:square;stroke-width:3;"/>
   </g>
   <g id="line2d_48">
    <path clip-path="url(#p15f924603b)" d="M 63.36 398.844849 
L 73.8 398.844849 
L 84.24 398.844849 
L 94.68 398.844849 
L 105.12 398.844849 
L 115.56 398.844849 
L 126 398.844849 
L 136.44 398.844849 
L 146.88 398.844849 
L 157.32 398.844849 
L 167.76 398.844849 
L 178.2 438.482104 
L 188.64 465.498022 
L 199.08 483.788529 
L 209.52 496.064343 
L 219.96 504.209004 
L 230.4 509.529118 
L 240.84 512.929222 
L 251.28 514.743255 
L 261.72 514.743255 
L 272.16 514.743255 
L 282.6 514.743255 
L 293.04 514.743255 
L 303.48 514.743255 
L 313.92 514.743255 
L 324.36 514.743255 
L 334.8 514.743255 
L 345.24 514.743255 
L 355.68 514.743255 
L 366.12 514.743255 
L 376.56 514.743255 
L 387 514.743255 
L 397.44 514.743255 
L 407.88 514.743255 
L 418.32 514.743255 
L 428.76 514.743255 
L 439.2 514.743255 
L 449.64 514.743255 
L 460.08 514.743255 
L 470.52 514.743255 
L 480.96 514.743255 
L 491.4 514.743255 
L 501.84 514.743255 
L 512.28 507.614974 
L 522.72 466.585093 
L 533.16 398.844849 
L 543.6 398.844849 
L 554.04 398.844849 
L 564.48 398.844849 
L 574.92 398.844849 
L 585.36 398.844849 
L 595.8 398.844849 
L 606.24 398.844849 
L 616.68 398.844849 
L 627.12 398.844849 
L 637.56 398.844849 
L 648 398.844849 
L 658.44 398.844849 
L 668.88 398.844849 
L 679.32 398.844849 
L 689.76 398.844849 
L 700.2 398.844849 
L 710.64 398.844849 
L 721.08 398.844849 
L 731.52 398.844849 
L 741.96 398.844849 
L 752.4 398.844849 
L 762.84 398.844849 
L 773.28 398.844849 
L 783.72 398.844849 
L 794.16 398.844849 
L 804.6 398.844849 
L 815.04 398.844849 
L 825.48 398.844849 
L 835.92 398.844849 
L 846.36 398.844849 
L 856.8 398.844849 
L 867.24 398.844849 
L 877.68 398.844849 
L 888.12 398.844849 
L 898.56 398.844849 
" style="fill:none;stroke:#57b8ff;stroke-linecap:square;stroke-width:3;"/>
   </g>
   <g id="line2d_49">
    <path clip-path="url(#p15f924603b)" d="M 63.36 398.844849 
L 73.8 398.844849 
L 84.24 398.844849 
L 94.68 398.844849 
L 105.12 398.844849 
L 115.56 398.844849 
L 126 398.844849 
L 136.44 398.844849 
L 146.88 398.844849 
L 157.32 398.844849 
L 167.76 398.844849 
L 178.2 398.844849 
L 188.64 412.400791 
L 199.08 430.879679 
L 209.52 449.687796 
L 219.96 466.611487 
L 230.4 480.791936 
L 240.84 492.10255 
L 251.28 500.779396 
L 261.72 507.109261 
L 272.16 511.219061 
L 282.6 513.82298 
L 293.04 514.743255 
L 303.48 514.743255 
L 313.92 514.743255 
L 324.36 514.743255 
L 334.8 514.743255 
L 345.24 514.743255 
L 355.68 514.743255 
L 366.12 514.743255 
L 376.56 514.743255 
L 387 514.743255 
L 397.44 514.743255 
L 407.88 514.743255 
L 418.32 514.743255 
L 428.76 514.743255 
L 439.2 514.743255 
L 449.64 514.743255 
L 460.08 514.743255 
L 470.52 514.743255 
L 480.96 514.743255 
L 491.4 514.743255 
L 501.84 514.743255 
L 512.28 514.743255 
L 522.72 514.743255 
L 533.16 514.743255 
L 543.6 486.088554 
L 554.04 452.834338 
L 564.48 398.844849 
L 574.92 398.844849 
L 585.36 398.844849 
L 595.8 398.844849 
L 606.24 398.844849 
L 616.68 398.844849 
L 627.12 398.844849 
L 637.56 398.844849 
L 648 398.844849 
L 658.44 398.844849 
L 668.88 398.844849 
L 679.32 398.844849 
L 689.76 398.844849 
L 700.2 398.844849 
L 710.64 398.844849 
L 721.08 398.844849 
L 731.52 398.844849 
L 741.96 398.844849 
L 752.4 398.844849 
L 762.84 398.844849 
L 773.28 398.844849 
L 783.72 398.844849 
L 794.16 398.844849 
L 804.6 398.844849 
L 815.04 398.844849 
L 825.48 398.844849 
L 835.92 398.844849 
L 846.36 398.844849 
L 856.8 398.844849 
L 867.24 398.844849 
L 877.68 398.844849 
L 888.12 398.844849 
L 898.56 398.844849 
" style="fill:none;stroke:#808080;stroke-linecap:square;stroke-opacity:0.3;stroke-width:3;"/>
   </g>
   <g id="line2d_50">
    <path clip-path="url(#p15f924603b)" d="M 63.36 398.844849 
L 73.8 398.844849 
L 84.24 398.844849 
L 94.68 398.844849 
L 105.12 398.844849 
L 115.56 398.844849 
L 126 398.844849 
L 136.44 398.844849 
L 146.88 398.844849 
L 157.32 398.844849 
L 167.76 398.844849 
L 178.2 398.844849 
L 188.64 398.844849 
L 199.08 403.480981 
L 209.52 412.960651 
L 219.96 425.839787 
L 230.4 440.363935 
L 240.84 455.036657 
L 251.28 468.794144 
L 261.72 480.996208 
L 272.16 491.311494 
L 282.6 499.56554 
L 293.04 505.891646 
L 303.48 510.327323 
L 313.92 513.165268 
L 324.36 514.743255 
L 334.8 514.743255 
L 345.24 514.743255 
L 355.68 514.743255 
L 366.12 514.743255 
L 376.56 514.743255 
L 387 514.743255 
L 397.44 514.743255 
L 407.88 514.743255 
L 418.32 514.743255 
L 428.76 514.743255 
L 439.2 514.743255 
L 449.64 514.743255 
L 460.08 514.743255 
L 470.52 514.743255 
L 480.96 514.743255 
L 491.4 514.743255 
L 501.84 514.743255 
L 512.28 514.743255 
L 522.72 514.743255 
L 533.16 514.743255 
L 543.6 514.743255 
L 554.04 514.743255 
L 564.48 507.853345 
L 574.92 468.011646 
L 585.36 441.19333 
L 595.8 398.844849 
L 606.24 398.844849 
L 616.68 398.844849 
L 627.12 398.844849 
L 637.56 398.844849 
L 648 398.844849 
L 658.44 398.844849 
L 668.88 398.844849 
L 679.32 398.844849 
L 689.76 398.844849 
L 700.2 398.844849 
L 710.64 398.844849 
L 721.08 398.844849 
L 731.52 398.844849 
L 741.96 398.844849 
L 752.4 398.844849 
L 762.84 398.844849 
L 773.28 398.844849 
L 783.72 398.844849 
L 794.16 398.844849 
L 804.6 398.844849 
L 815.04 398.844849 
L 825.48 398.844849 
L 835.92 398.844849 
L 846.36 398.844849 
L 856.8 398.844849 
L 867.24 398.844849 
L 877.68 398.844849 
L 888.12 398.844849 
L 898.56 398.844849 
" style="fill:none;stroke:#808080;stroke-linecap:square;stroke-opacity:0.3;stroke-width:3;"/>
   </g>
   <g id="line2d_51">
    <path clip-path="url(#p15f924603b)" d="M 63.36 398.844849 
L 73.8 398.844849 
L 84.24 398.844849 
L 94.68 398.844849 
L 105.12 398.844849 
L 115.56 398.844849 
L 126 398.844849 
L 136.44 398.844849 
L 146.88 398.844849 
L 157.32 398.844849 
L 167.76 398.844849 
L 178.2 398.844849 
L 188.64 398.844849 
L 199.08 398.844849 
L 209.52 400.430407 
L 219.96 404.753136 
L 230.4 412.099162 
L 240.84 422.055635 
L 251.28 433.821681 
L 261.72 446.482212 
L 272.16 459.192372 
L 282.6 471.263917 
L 293.04 482.171511 
L 303.48 491.607789 
L 313.92 499.382149 
L 324.36 505.471004 
L 334.8 509.979786 
L 345.24 512.876867 
L 355.68 514.684618 
L 366.12 514.743255 
L 376.56 514.743255 
L 387 514.743255 
L 397.44 514.743255 
L 407.88 514.743255 
L 418.32 514.743255 
L 428.76 514.743255 
L 439.2 514.743255 
L 449.64 514.743255 
L 460.08 514.743255 
L 470.52 514.743255 
L 480.96 514.743255 
L 491.4 514.743255 
L 501.84 514.743255 
L 512.28 514.743255 
L 522.72 514.743255 
L 533.16 514.743255 
L 543.6 514.743255 
L 554.04 514.743255 
L 564.48 514.743255 
L 574.92 514.743255 
L 585.36 514.743255 
L 595.8 488.533527 
L 606.24 455.310992 
L 616.68 433.002608 
L 627.12 398.844849 
L 637.56 398.844849 
L 648 398.844849 
L 658.44 398.844849 
L 668.88 398.844849 
L 679.32 398.844849 
L 689.76 398.844849 
L 700.2 398.844849 
L 710.64 398.844849 
L 721.08 398.844849 
L 731.52 398.844849 
L 741.96 398.844849 
L 752.4 398.844849 
L 762.84 398.844849 
L 773.28 398.844849 
L 783.72 398.844849 
L 794.16 398.844849 
L 804.6 398.844849 
L 815.04 398.844849 
L 825.48 398.844849 
L 835.92 398.844849 
L 846.36 398.844849 
L 856.8 398.844849 
L 867.24 398.844849 
L 877.68 398.844849 
L 888.12 398.844849 
L 898.56 398.844849 
" style="fill:none;stroke:#808080;stroke-linecap:square;stroke-opacity:0.3;stroke-width:3;"/>
   </g>
   <g id="line2d_52">
    <path clip-path="url(#p15f924603b)" d="M 63.36 398.844849 
L 73.8 398.844849 
L 84.24 398.844849 
L 94.68 398.844849 
L 105.12 398.844849 
L 115.56 398.844849 
L 126 398.844849 
L 136.44 398.844849 
L 146.88 398.844849 
L 157.32 398.844849 
L 167.76 398.844849 
L 178.2 398.844849 
L 188.64 398.844849 
L 199.08 398.844849 
L 209.52 398.844849 
L 219.96 399.38711 
L 230.4 401.235077 
L 240.84 405.005271 
L 251.28 410.972875 
L 261.72 419.046311 
L 272.16 428.844799 
L 282.6 439.815458 
L 293.04 451.343429 
L 303.48 462.829391 
L 313.92 473.761141 
L 324.36 483.727463 
L 334.8 492.444273 
L 345.24 499.758982 
L 355.68 505.561971 
L 366.12 509.962171 
L 376.56 512.812854 
L 387 514.595878 
L 397.44 514.743255 
L 407.88 514.743255 
L 418.32 514.743255 
L 428.76 514.743255 
L 439.2 514.743255 
L 449.64 514.743255 
L 460.08 514.743255 
L 470.52 514.743255 
L 480.96 514.743255 
L 491.4 514.743255 
L 501.84 514.743255 
L 512.28 514.743255 
L 522.72 514.743255 
L 533.16 514.743255 
L 543.6 514.743255 
L 554.04 514.743255 
L 564.48 514.743255 
L 574.92 514.743255 
L 585.36 514.743255 
L 595.8 514.743255 
L 606.24 514.743255 
L 616.68 506.359135 
L 627.12 472.468156 
L 637.56 444.730911 
L 648 426.162377 
L 658.44 398.844849 
L 668.88 398.844849 
L 679.32 398.844849 
L 689.76 398.844849 
L 700.2 398.844849 
L 710.64 398.844849 
L 721.08 398.844849 
L 731.52 398.844849 
L 741.96 398.844849 
L 752.4 398.844849 
L 762.84 398.844849 
L 773.28 398.844849 
L 783.72 398.844849 
L 794.16 398.844849 
L 804.6 398.844849 
L 815.04 398.844849 
L 825.48 398.844849 
L 835.92 398.844849 
L 846.36 398.844849 
L 856.8 398.844849 
L 867.24 398.844849 
L 877.68 398.844849 
L 888.12 398.844849 
L 898.56 398.844849 
" style="fill:none;stroke:#808080;stroke-linecap:square;stroke-opacity:0.3;stroke-width:3;"/>
   </g>
   <g id="line2d_53">
    <path clip-path="url(#p15f924603b)" d="M 63.36 398.844849 
L 73.8 398.844849 
L 84.24 398.844849 
L 94.68 398.844849 
L 105.12 398.844849 
L 115.56 398.844849 
L 126 398.844849 
L 136.44 398.844849 
L 146.88 398.844849 
L 157.32 398.844849 
L 167.76 398.844849 
L 178.2 398.844849 
L 188.64 398.844849 
L 199.08 398.844849 
L 209.52 398.844849 
L 219.96 398.844849 
L 230.4 399.030303 
L 240.84 399.788708 
L 251.28 401.594452 
L 261.72 404.863278 
L 272.16 409.844276 
L 282.6 416.573144 
L 293.04 424.881011 
L 303.48 434.438807 
L 313.92 444.814603 
L 324.36 455.537526 
L 334.8 466.14621 
L 345.24 476.230682 
L 355.68 485.462185 
L 366.12 493.582907 
L 376.56 500.458664 
L 387 505.95233 
L 397.44 510.139579 
L 407.88 512.881929 
L 418.32 514.597386 
L 428.76 514.743255 
L 439.2 514.743255 
L 449.64 514.743255 
L 460.08 514.743255 
L 470.52 514.743255 
L 480.96 514.743255 
L 491.4 514.743255 
L 501.84 514.743255 
L 512.28 514.743255 
L 522.72 514.743255 
L 533.16 514.743255 
L 543.6 514.743255 
L 554.04 514.743255 
L 564.48 514.743255 
L 574.92 514.743255 
L 585.36 514.743255 
L 595.8 514.743255 
L 606.24 514.743255 
L 616.68 514.743255 
L 627.12 514.743255 
L 637.56 514.743255 
L 648 492.029902 
L 658.44 458.283381 
L 668.88 435.413028 
L 679.32 398.844849 
L 689.76 398.844849 
L 700.2 398.844849 
L 710.64 398.844849 
L 721.08 398.844849 
L 731.52 398.844849 
L 741.96 398.844849 
L 752.4 398.844849 
L 762.84 398.844849 
L 773.28 398.844849 
L 783.72 398.844849 
L 794.16 398.844849 
L 804.6 398.844849 
L 815.04 398.844849 
L 825.48 398.844849 
L 835.92 398.844849 
L 846.36 398.844849 
L 856.8 398.844849 
L 867.24 398.844849 
L 877.68 398.844849 
L 888.12 398.844849 
L 898.56 398.844849 
" style="fill:none;stroke:#808080;stroke-linecap:square;stroke-opacity:0.3;stroke-width:3;"/>
   </g>
   <g id="line2d_54">
    <path clip-path="url(#p15f924603b)" d="M 63.36 398.844849 
L 73.8 398.844849 
L 84.24 398.844849 
L 94.68 398.844849 
L 105.12 398.844849 
L 115.56 398.844849 
L 126 398.844849 
L 136.44 398.844849 
L 146.88 398.844849 
L 157.32 398.844849 
L 167.76 398.844849 
L 178.2 398.844849 
L 188.64 398.844849 
L 199.08 398.844849 
L 209.52 398.844849 
L 219.96 398.844849 
L 230.4 398.844849 
L 240.84 398.908274 
L 251.28 399.210878 
L 261.72 400.034494 
L 272.16 401.712682 
L 282.6 404.556482 
L 293.04 408.787767 
L 303.48 414.497014 
L 313.92 421.630062 
L 324.36 429.999141 
L 334.8 439.312679 
L 345.24 449.212522 
L 355.68 459.313834 
L 366.12 469.242546 
L 376.56 478.657301 
L 387 487.282241 
L 397.44 494.885854 
L 407.88 501.340034 
L 418.32 506.514134 
L 428.76 510.465961 
L 439.2 513.053099 
L 449.64 514.668503 
L 460.08 514.743255 
L 470.52 514.743255 
L 480.96 514.743255 
L 491.4 514.743255 
L 501.84 514.743255 
L 512.28 514.743255 
L 522.72 514.743255 
L 533.16 514.743255 
L 543.6 514.743255 
L 554.04 514.743255 
L 564.48 514.743255 
L 574.92 514.743255 
L 585.36 514.743255 
L 595.8 514.743255 
L 606.24 514.743255 
L 616.68 514.743255 
L 627.12 514.743255 
L 637.56 514.743255 
L 648 514.743255 
L 658.44 514.743255 
L 668.88 506.218786 
L 679.32 478.128368 
L 689.76 448.709697 
L 700.2 428.961669 
L 710.64 398.844849 
L 721.08 398.844849 
L 731.52 398.844849 
L 741.96 398.844849 
L 752.4 398.844849 
L 762.84 398.844849 
L 773.28 398.844849 
L 783.72 398.844849 
L 794.16 398.844849 
L 804.6 398.844849 
L 815.04 398.844849 
L 825.48 398.844849 
L 835.92 398.844849 
L 846.36 398.844849 
L 856.8 398.844849 
L 867.24 398.844849 
L 877.68 398.844849 
L 888.12 398.844849 
L 898.56 398.844849 
" style="fill:none;stroke:#808080;stroke-linecap:square;stroke-opacity:0.3;stroke-width:3;"/>
   </g>
   <g id="line2d_55">
    <path clip-path="url(#p15f924603b)" d="M 63.36 398.844849 
L 73.8 398.844849 
L 84.24 398.844849 
L 94.68 398.844849 
L 105.12 398.844849 
L 115.56 398.844849 
L 126 398.844849 
L 136.44 398.844849 
L 146.88 398.844849 
L 157.32 398.844849 
L 167.76 398.844849 
L 178.2 398.844849 
L 188.64 398.844849 
L 199.08 398.844849 
L 209.52 398.844849 
L 219.96 398.844849 
L 230.4 398.844849 
L 240.84 398.844849 
L 251.28 398.866541 
L 261.72 398.984816 
L 272.16 399.347039 
L 282.6 400.167437 
L 293.04 401.69769 
L 303.48 404.183935 
L 313.92 407.822986 
L 324.36 412.728055 
L 334.8 418.909387 
L 345.24 426.271548 
L 355.68 434.624631 
L 366.12 443.705819 
L 376.56 453.207106 
L 387 462.801813 
L 397.44 472.17389 
L 407.88 481.030587 
L 418.32 489.131139 
L 428.76 496.269909 
L 439.2 502.329993 
L 449.64 507.186662 
L 460.08 510.892838 
L 470.52 513.293483 
L 480.96 514.743255 
L 491.4 514.743255 
L 501.84 514.743255 
L 512.28 514.743255 
L 522.72 514.743255 
L 533.16 514.743255 
L 543.6 514.743255 
L 554.04 514.743255 
L 564.48 514.743255 
L 574.92 514.743255 
L 585.36 514.743255 
L 595.8 514.743255 
L 606.24 514.743255 
L 616.68 514.743255 
L 627.12 514.743255 
L 637.56 514.743255 
L 648 514.743255 
L 658.44 514.743255 
L 668.88 514.743255 
L 679.32 514.743255 
L 689.76 514.743255 
L 700.2 493.386881 
L 710.64 463.109907 
L 721.08 438.804188 
L 731.52 398.844849 
L 741.96 398.844849 
L 752.4 398.844849 
L 762.84 398.844849 
L 773.28 398.844849 
L 783.72 398.844849 
L 794.16 398.844849 
L 804.6 398.844849 
L 815.04 398.844849 
L 825.48 398.844849 
L 835.92 398.844849 
L 846.36 398.844849 
L 856.8 398.844849 
L 867.24 398.844849 
L 877.68 398.844849 
L 888.12 398.844849 
L 898.56 398.844849 
" style="fill:none;stroke:#808080;stroke-linecap:square;stroke-opacity:0.3;stroke-width:3;"/>
   </g>
   <g id="line2d_56">
    <path clip-path="url(#p15f924603b)" d="M 63.36 398.844849 
L 73.8 398.844849 
L 84.24 398.844849 
L 94.68 398.844849 
L 105.12 398.844849 
L 115.56 398.844849 
L 126 398.844849 
L 136.44 398.844849 
L 146.88 398.844849 
L 157.32 398.844849 
L 167.76 398.844849 
L 178.2 398.844849 
L 188.64 398.844849 
L 199.08 398.844849 
L 209.52 398.844849 
L 219.96 398.844849 
L 230.4 398.844849 
L 240.84 398.844849 
L 251.28 398.844849 
L 261.72 398.852268 
L 272.16 398.897774 
L 282.6 399.052648 
L 293.04 399.438621 
L 303.48 400.224419 
L 313.92 401.608561 
L 324.36 403.792573 
L 334.8 406.950963 
L 345.24 411.204189 
L 355.68 416.599451 
L 366.12 423.101631 
L 376.56 430.59473 
L 387 438.892562 
L 397.44 447.755317 
L 407.88 456.910999 
L 418.32 466.07445 
L 428.76 474.970118 
L 439.2 483.341746 
L 449.64 490.977181 
L 460.08 497.692122 
L 470.52 503.382278 
L 480.96 507.926917 
L 491.4 511.368295 
L 501.84 513.567787 
L 512.28 514.743255 
L 522.72 514.743255 
L 533.16 514.743255 
L 543.6 514.743255 
L 554.04 514.743255 
L 564.48 514.743255 
L 574.92 514.743255 
L 585.36 514.743255 
L 595.8 514.743255 
L 606.24 514.743255 
L 616.68 514.743255 
L 627.12 514.743255 
L 637.56 514.743255 
L 648 514.743255 
L 658.44 514.743255 
L 668.88 514.743255 
L 679.32 514.743255 
L 689.76 514.743255 
L 700.2 514.743255 
L 710.64 514.743255 
L 721.08 506.71646 
L 731.52 483.098267 
L 741.96 452.169656 
L 752.4 431.367517 
L 762.84 398.844849 
L 773.28 398.844849 
L 783.72 398.844849 
L 794.16 398.844849 
L 804.6 398.844849 
L 815.04 398.844849 
L 825.48 398.844849 
L 835.92 398.844849 
L 846.36 398.844849 
L 856.8 398.844849 
L 867.24 398.844849 
L 877.68 398.844849 
L 888.12 398.844849 
L 898.56 398.844849 
" style="fill:none;stroke:#3d348b;stroke-linecap:square;stroke-width:3;"/>
   </g>
   <g id="patch_10">
    <path d="M 63.36 524.16 
L 63.36 316.991601 
" style="fill:none;stroke:#000000;stroke-linecap:square;stroke-linejoin:miter;stroke-width:0.8;"/>
   </g>
   <g id="patch_11">
    <path d="M 898.56 524.16 
L 898.56 316.991601 
" style="fill:none;stroke:#000000;stroke-linecap:square;stroke-linejoin:miter;stroke-width:0.8;"/>
   </g>
   <g id="patch_12">
    <path d="M 63.36 524.16 
L 898.56 524.16 
" style="fill:none;stroke:#000000;stroke-linecap:square;stroke-linejoin:miter;stroke-width:0.8;"/>
   </g>
   <g id="patch_13">
    <path d="M 63.36 316.991601 
L 898.56 316.991601 
" style="fill:none;stroke:#000000;stroke-linecap:square;stroke-linejoin:miter;stroke-width:0.8;"/>
   </g>
   <g id="text_36">
    <!-- Acceleration -->
    <defs>
     <path d="M 20.015625 26.421875 
L 46.78125 26.421875 
L 33.40625 61.078125 
z
M -0.59375 0 
L -0.59375 5.171875 
L 5.8125 5.171875 
L 31.78125 72.90625 
L 39.984375 72.90625 
L 66.015625 5.171875 
L 73.1875 5.171875 
L 73.1875 0 
L 46.6875 0 
L 46.6875 5.171875 
L 54.78125 5.171875 
L 48.6875 21.1875 
L 18.015625 21.1875 
L 11.921875 5.171875 
L 19.921875 5.171875 
L 19.921875 0 
z
" id="DejaVuSerif-65"/>
    </defs>
    <g transform="translate(404.30625 310.991601)scale(0.24 -0.24)">
     <use xlink:href="#DejaVuSerif-65"/>
     <use x="72.216797" xlink:href="#DejaVuSerif-99"/>
     <use x="128.222656" xlink:href="#DejaVuSerif-99"/>
     <use x="184.228516" xlink:href="#DejaVuSerif-101"/>
     <use x="243.408203" xlink:href="#DejaVuSerif-108"/>
     <use x="275.390625" xlink:href="#DejaVuSerif-101"/>
     <use x="334.570312" xlink:href="#DejaVuSerif-114"/>
     <use x="382.373047" xlink:href="#DejaVuSerif-97"/>
     <use x="441.992188" xlink:href="#DejaVuSerif-116"/>
     <use x="482.177734" xlink:href="#DejaVuSerif-105"/>
     <use x="514.160156" xlink:href="#DejaVuSerif-111"/>
     <use x="574.365234" xlink:href="#DejaVuSerif-110"/>
    </g>
   </g>
   <g id="legend_2">
    <g id="patch_14">
     <path d="M 920.912 467.342747 
L 1138.68075 467.342747 
Q 1142.68075 467.342747 1142.68075 463.342747 
L 1142.68075 318.561497 
Q 1142.68075 314.561497 1138.68075 314.561497 
L 920.912 314.561497 
Q 916.912 314.561497 916.912 318.561497 
L 916.912 463.342747 
Q 916.912 467.342747 920.912 467.342747 
z
" style="fill:#ffffff;opacity:0.8;stroke:#cccccc;stroke-linejoin:miter;"/>
    </g>
    <g id="line2d_57">
     <path d="M 924.912 330.758372 
L 964.912 330.758372 
" style="fill:none;stroke:#808080;stroke-dasharray:11.1,4.8;stroke-dashoffset:0;stroke-width:3;"/>
    </g>
    <g id="line2d_58"/>
    <g id="text_37">
     <!-- u limits -->
     <defs>
      <path d="M 35.40625 51.90625 
L 52.203125 51.90625 
L 52.203125 5.171875 
L 60.6875 5.171875 
L 60.6875 0 
L 43.21875 0 
L 43.21875 9.1875 
Q 40.71875 4 36.765625 1.28125 
Q 32.8125 -1.421875 27.59375 -1.421875 
Q 18.953125 -1.421875 14.875 3.484375 
Q 10.796875 8.40625 10.796875 18.890625 
L 10.796875 46.6875 
L 2.6875 46.6875 
L 2.6875 51.90625 
L 19.828125 51.90625 
L 19.828125 21.6875 
Q 19.828125 12.203125 22.140625 8.6875 
Q 24.46875 5.171875 30.421875 5.171875 
Q 36.671875 5.171875 39.9375 9.765625 
Q 43.21875 14.359375 43.21875 23.09375 
L 43.21875 46.6875 
L 35.40625 46.6875 
z
" id="DejaVuSerif-117"/>
     </defs>
     <g transform="translate(980.912 337.758372)scale(0.2 -0.2)">
      <use xlink:href="#DejaVuSerif-117"/>
      <use x="64.404297" xlink:href="#DejaVuSerif-32"/>
      <use x="96.191406" xlink:href="#DejaVuSerif-108"/>
      <use x="128.173828" xlink:href="#DejaVuSerif-105"/>
      <use x="160.15625" xlink:href="#DejaVuSerif-109"/>
      <use x="254.980469" xlink:href="#DejaVuSerif-105"/>
      <use x="286.962891" xlink:href="#DejaVuSerif-116"/>
      <use x="327.148438" xlink:href="#DejaVuSerif-115"/>
     </g>
    </g>
    <g id="line2d_59">
     <path d="M 924.912 360.114622 
L 964.912 360.114622 
" style="fill:none;stroke:#ea7317;stroke-linecap:square;stroke-width:3;"/>
    </g>
    <g id="line2d_60"/>
    <g id="text_38">
     <!-- leader -->
     <g transform="translate(980.912 367.114622)scale(0.2 -0.2)">
      <use xlink:href="#DejaVuSerif-108"/>
      <use x="31.982422" xlink:href="#DejaVuSerif-101"/>
      <use x="91.162109" xlink:href="#DejaVuSerif-97"/>
      <use x="150.78125" xlink:href="#DejaVuSerif-100"/>
      <use x="214.794922" xlink:href="#DejaVuSerif-101"/>
      <use x="273.974609" xlink:href="#DejaVuSerif-114"/>
     </g>
    </g>
    <g id="line2d_61">
     <path d="M 924.912 389.470872 
L 964.912 389.470872 
" style="fill:none;stroke:#57b8ff;stroke-linecap:square;stroke-width:3;"/>
    </g>
    <g id="line2d_62"/>
    <g id="text_39">
     <!-- first follower -->
     <g transform="translate(980.912 396.470872)scale(0.2 -0.2)">
      <use xlink:href="#DejaVuSerif-102"/>
      <use x="37.011719" xlink:href="#DejaVuSerif-105"/>
      <use x="68.994141" xlink:href="#DejaVuSerif-114"/>
      <use x="116.796875" xlink:href="#DejaVuSerif-115"/>
      <use x="168.115234" xlink:href="#DejaVuSerif-116"/>
      <use x="208.300781" xlink:href="#DejaVuSerif-32"/>
      <use x="240.087891" xlink:href="#DejaVuSerif-102"/>
      <use x="277.099609" xlink:href="#DejaVuSerif-111"/>
      <use x="337.304688" xlink:href="#DejaVuSerif-108"/>
      <use x="369.287109" xlink:href="#DejaVuSerif-108"/>
      <use x="401.269531" xlink:href="#DejaVuSerif-111"/>
      <use x="461.474609" xlink:href="#DejaVuSerif-119"/>
      <use x="547.070312" xlink:href="#DejaVuSerif-101"/>
      <use x="606.25" xlink:href="#DejaVuSerif-114"/>
     </g>
    </g>
    <g id="line2d_63">
     <path d="M 924.912 418.827122 
L 964.912 418.827122 
" style="fill:none;stroke:#808080;stroke-linecap:square;stroke-opacity:0.3;stroke-width:3;"/>
    </g>
    <g id="line2d_64"/>
    <g id="text_40">
     <!-- other followers -->
     <g transform="translate(980.912 425.827122)scale(0.2 -0.2)">
      <use xlink:href="#DejaVuSerif-111"/>
      <use x="60.205078" xlink:href="#DejaVuSerif-116"/>
      <use x="100.390625" xlink:href="#DejaVuSerif-104"/>
      <use x="164.794922" xlink:href="#DejaVuSerif-101"/>
      <use x="223.974609" xlink:href="#DejaVuSerif-114"/>
      <use x="271.777344" xlink:href="#DejaVuSerif-32"/>
      <use x="303.564453" xlink:href="#DejaVuSerif-102"/>
      <use x="340.576172" xlink:href="#DejaVuSerif-111"/>
      <use x="400.78125" xlink:href="#DejaVuSerif-108"/>
      <use x="432.763672" xlink:href="#DejaVuSerif-108"/>
      <use x="464.746094" xlink:href="#DejaVuSerif-111"/>
      <use x="524.951172" xlink:href="#DejaVuSerif-119"/>
      <use x="610.546875" xlink:href="#DejaVuSerif-101"/>
      <use x="669.726562" xlink:href="#DejaVuSerif-114"/>
      <use x="717.529297" xlink:href="#DejaVuSerif-115"/>
     </g>
    </g>
    <g id="line2d_65">
     <path d="M 924.912 448.183372 
L 964.912 448.183372 
" style="fill:none;stroke:#3d348b;stroke-linecap:square;stroke-width:3;"/>
    </g>
    <g id="line2d_66"/>
    <g id="text_41">
     <!-- last follower -->
     <g transform="translate(980.912 455.183372)scale(0.2 -0.2)">
      <use xlink:href="#DejaVuSerif-108"/>
      <use x="31.982422" xlink:href="#DejaVuSerif-97"/>
      <use x="91.601562" xlink:href="#DejaVuSerif-115"/>
      <use x="142.919922" xlink:href="#DejaVuSerif-116"/>
      <use x="183.105469" xlink:href="#DejaVuSerif-32"/>
      <use x="214.892578" xlink:href="#DejaVuSerif-102"/>
      <use x="251.904297" xlink:href="#DejaVuSerif-111"/>
      <use x="312.109375" xlink:href="#DejaVuSerif-108"/>
      <use x="344.091797" xlink:href="#DejaVuSerif-108"/>
      <use x="376.074219" xlink:href="#DejaVuSerif-111"/>
      <use x="436.279297" xlink:href="#DejaVuSerif-119"/>
      <use x="521.875" xlink:href="#DejaVuSerif-101"/>
      <use x="581.054688" xlink:href="#DejaVuSerif-114"/>
     </g>
    </g>
   </g>
  </g>
 </g>
 <defs>
  <clipPath id="p067286fa8e">
   <rect height="207.168399" width="835.2" x="63.36" y="25.92"/>
  </clipPath>
  <clipPath id="p15f924603b">
   <rect height="207.168399" width="835.2" x="63.36" y="316.991601"/>
  </clipPath>
 </defs>
</svg>
