<?xml version="1.0" encoding="utf-8" standalone="no"?>
<!DOCTYPE svg PUBLIC "-//W3C//DTD SVG 1.1//EN"
  "http://www.w3.org/Graphics/SVG/1.1/DTD/svg11.dtd">
<svg xmlns:xlink="http://www.w3.org/1999/xlink" width="683.3608pt" height="388.9668pt" viewBox="0 0 683.3608 388.9668" xmlns="http://www.w3.org/2000/svg" version="1.1">
 <metadata>
  <rdf:RDF xmlns:dc="http://purl.org/dc/elements/1.1/" xmlns:cc="http://creativecommons.org/ns#" xmlns:rdf="http://www.w3.org/1999/02/22-rdf-syntax-ns#">
   <cc:Work>
    <dc:type rdf:resource="http://purl.org/dc/dcmitype/StillImage"/>
    <dc:date>2024-10-07T12:58:38.365949</dc:date>
    <dc:format>image/svg+xml</dc:format>
    <dc:creator>
     <cc:Agent>
      <dc:title>Matplotlib v3.8.3, https://matplotlib.org/</dc:title>
     </cc:Agent>
    </dc:creator>
   </cc:Work>
  </rdf:RDF>
 </metadata>
 <defs>
  <style type="text/css">*{stroke-linejoin: round; stroke-linecap: butt}</style>
 </defs>
 <g id="figure_1">
  <g id="patch_1">
   <path d="M 0 388.9668 
L 683.3608 388.9668 
L 683.3608 0 
L 0 0 
L 0 388.9668 
z
" style="fill: none"/>
  </g>
  <g id="axes_1">
   <g id="patch_2">
    <path d="M 222.784 302.4 
L 646.72 302.4 
L 646.72 -0 
L 222.784 -0 
L 222.784 302.4 
z
" style="fill: none"/>
   </g>
   <g id="PolyCollection_1">
    <path d="M 222.784 302.4 
L 222.784 302.4 
L 224.766333 301.810822 
L 226.748665 301.221643 
L 228.730998 300.632465 
L 230.713331 300.043287 
L 232.695663 299.454108 
L 234.677996 298.86493 
L 236.660329 298.275752 
L 238.642661 297.686573 
L 240.624994 297.097395 
L 242.607327 296.508216 
L 244.589659 295.919038 
L 246.571992 295.32986 
L 248.554325 294.740681 
L 250.536657 294.151503 
L 252.51899 293.562325 
L 254.501323 292.973146 
L 256.483655 292.383968 
L 258.465988 291.79479 
L 260.448321 291.205611 
L 262.430653 290.616433 
L 264.412986 290.027255 
L 266.395319 289.438076 
L 268.377651 288.848898 
L 270.359984 288.259719 
L 272.342317 287.670541 
L 274.324649 287.081363 
L 276.306982 286.492184 
L 278.289315 285.903006 
L 280.271647 285.313828 
L 282.25398 284.724649 
L 284.236313 284.135471 
L 286.218645 283.546293 
L 288.200978 282.957114 
L 290.183311 282.367936 
L 292.165643 281.778758 
L 294.147976 281.189579 
L 296.130309 280.600401 
L 298.112641 280.011222 
L 300.094974 279.422044 
L 302.077307 278.832866 
L 304.059639 278.243687 
L 306.041972 277.654509 
L 308.024305 277.065331 
L 310.006637 276.476152 
L 311.98897 275.886974 
L 313.971303 275.297796 
L 315.953635 274.708617 
L 317.935968 274.119439 
L 319.918301 273.530261 
L 321.900633 272.941082 
L 323.882966 272.351904 
L 325.865299 271.762725 
L 327.847631 271.173547 
L 329.829964 270.584369 
L 331.812297 269.99519 
L 333.794629 269.406012 
L 335.776962 268.816834 
L 337.759295 268.227655 
L 339.741627 267.638477 
L 341.72396 267.049299 
L 343.706293 266.46012 
L 345.688625 265.870942 
L 347.670958 265.281764 
L 349.653291 264.692585 
L 351.635623 264.103407 
L 353.617956 263.514228 
L 355.600289 262.92505 
L 357.582621 262.335872 
L 359.564954 261.746693 
L 361.547287 261.157515 
L 363.529619 260.568337 
L 365.511952 259.979158 
L 367.494285 259.38998 
L 369.476617 258.800802 
L 371.45895 258.211623 
L 373.441283 257.622445 
L 375.423615 257.033267 
L 377.405948 256.444088 
L 379.388281 255.85491 
L 381.370613 255.265731 
L 383.352946 254.676553 
L 385.335279 254.087375 
L 387.317611 253.498196 
L 389.299944 252.909018 
L 391.282277 252.31984 
L 393.264609 251.730661 
L 395.246942 251.141483 
L 397.229275 250.552305 
L 399.211607 249.963126 
L 401.19394 249.373948 
L 403.176273 248.78477 
L 405.158605 248.195591 
L 407.140938 247.606413 
L 409.123271 247.017234 
L 411.105603 246.428056 
L 413.087936 245.838878 
L 415.070269 245.249699 
L 417.052601 244.660521 
L 419.034934 244.071343 
L 421.017267 243.482164 
L 422.999599 242.892986 
L 424.981932 242.303808 
L 426.964265 241.714629 
L 428.946597 241.125451 
L 430.92893 240.536273 
L 432.911263 239.947094 
L 434.893595 239.357916 
L 436.875928 238.768737 
L 438.858261 238.179559 
L 440.840593 237.590381 
L 442.822926 237.001202 
L 444.805259 236.412024 
L 446.787591 235.822846 
L 448.769924 235.233667 
L 450.752257 234.644489 
L 452.734589 234.055311 
L 454.716922 233.466132 
L 456.699255 232.876954 
L 458.681587 232.287776 
L 460.66392 231.698597 
L 462.646253 231.109419 
L 464.628585 230.52024 
L 466.610918 229.931062 
L 468.593251 229.341884 
L 470.575583 228.752705 
L 472.557916 228.163527 
L 474.540248 227.574349 
L 476.522581 226.98517 
L 478.504914 226.395992 
L 480.487246 225.806814 
L 482.469579 225.217635 
L 484.451912 224.628457 
L 486.434244 224.039279 
L 488.416577 223.4501 
L 490.39891 222.860922 
L 492.381242 222.271743 
L 494.363575 221.682565 
L 496.345908 221.093387 
L 498.32824 220.504208 
L 500.310573 219.91503 
L 502.292906 219.325852 
L 504.275238 218.736673 
L 506.257571 218.147495 
L 508.239904 217.558317 
L 510.222236 216.969138 
L 512.204569 216.37996 
L 514.186902 215.790782 
L 516.169234 215.201603 
L 518.151567 214.612425 
L 520.1339 214.023246 
L 522.116232 213.434068 
L 524.098565 212.84489 
L 526.080898 212.255711 
L 528.06323 211.666533 
L 530.045563 211.077355 
L 532.027896 210.488176 
L 534.010228 209.898998 
L 535.992561 209.30982 
L 537.974894 208.720641 
L 539.957226 208.131463 
L 541.939559 207.542285 
L 543.921892 206.953106 
L 545.904224 206.363928 
L 547.886557 205.774749 
L 549.86889 205.185571 
L 551.851222 204.596393 
L 553.833555 204.007214 
L 555.815888 203.418036 
L 557.79822 202.828858 
L 559.780553 202.239679 
L 561.762886 201.650501 
L 563.745218 201.061323 
L 565.727551 200.472144 
L 567.709884 199.882966 
L 569.692216 199.293788 
L 571.674549 198.704609 
L 573.656882 198.115431 
L 575.639214 197.526253 
L 577.621547 196.937074 
L 579.60388 196.347896 
L 581.586212 195.758717 
L 583.568545 195.169539 
L 585.550878 194.580361 
L 587.53321 193.991182 
L 589.515543 193.402004 
L 591.497876 192.812826 
L 593.480208 192.223647 
L 595.462541 191.634469 
L 597.444874 191.045291 
L 599.427206 190.456112 
L 601.409539 189.866934 
L 603.391872 189.277756 
L 605.374204 188.688577 
L 607.356537 188.099399 
L 609.33887 187.51022 
L 611.321202 186.921042 
L 613.303535 186.331864 
L 615.285868 185.742685 
L 617.2682 185.153507 
L 619.250533 184.564329 
L 621.232866 183.97515 
L 623.215198 183.385972 
L 625.197531 182.796794 
L 627.179864 182.207615 
L 629.162196 181.618437 
L 631.144529 181.029259 
L 633.126862 180.44008 
L 635.109194 179.850902 
L 637.091527 179.261723 
L 639.07386 178.672545 
L 641.056192 178.083367 
L 643.038525 177.494188 
L 645.020858 176.90501 
L 647.00319 176.315832 
L 648.985523 175.726653 
L 650.967856 175.137475 
L 652.950188 174.548297 
L 654.932521 173.959118 
L 656.914854 173.36994 
L 658.897186 172.780762 
L 660.879519 172.191583 
L 662.861852 171.602405 
L 664.844184 171.013226 
L 666.826517 170.424048 
L 668.80885 169.83487 
L 670.791182 169.245691 
L 672.773515 168.656513 
L 674.755848 168.067335 
L 676.73818 167.478156 
L 678.720513 166.888978 
L 680.702846 166.2998 
L 682.685178 165.710621 
L 684.667511 165.121443 
L 686.649844 164.532265 
L 688.632176 163.943086 
L 690.614509 163.353908 
L 692.596842 162.764729 
L 694.579174 162.175551 
L 696.561507 161.586373 
L 698.54384 160.997194 
L 700.526172 160.408016 
L 702.508505 159.818838 
L 704.490838 159.229659 
L 706.47317 158.640481 
L 708.455503 158.051303 
L 710.437836 157.462124 
L 712.420168 156.872946 
L 714.402501 156.283768 
L 716.384834 155.694589 
L 718.367166 155.105411 
L 720.349499 154.516232 
L 722.331832 153.927054 
L 724.314164 153.337876 
L 726.296497 152.748697 
L 728.27883 152.159519 
L 730.261162 151.570341 
L 732.243495 150.981162 
L 734.225828 150.391984 
L 736.20816 149.802806 
L 738.190493 149.213627 
L 740.172826 148.624449 
L 742.155158 148.035271 
L 744.137491 147.446092 
L 746.119824 146.856914 
L 748.102156 146.267735 
L 750.084489 145.678557 
L 752.066822 145.089379 
L 754.049154 144.5002 
L 756.031487 143.911022 
L 758.01382 143.321844 
L 759.996152 142.732665 
L 761.978485 142.143487 
L 763.960818 141.554309 
L 765.94315 140.96513 
L 767.925483 140.375952 
L 769.907816 139.786774 
L 771.890148 139.197595 
L 773.872481 138.608417 
L 775.854814 138.019238 
L 777.837146 137.43006 
L 779.819479 136.840882 
L 781.801812 136.251703 
L 783.784144 135.662525 
L 785.766477 135.073347 
L 787.74881 134.484168 
L 789.731142 133.89499 
L 791.713475 133.305812 
L 793.695808 132.716633 
L 795.67814 132.127455 
L 797.660473 131.538277 
L 799.642806 130.949098 
L 801.625138 130.35992 
L 803.607471 129.770741 
L 805.589804 129.181563 
L 807.572136 128.592385 
L 809.554469 128.003206 
L 811.536802 127.414028 
L 813.519134 126.82485 
L 815.501467 126.235671 
L 817.4838 125.646493 
L 819.466132 125.057315 
L 821.448465 124.468136 
L 823.430798 123.878958 
L 825.41313 123.28978 
L 827.395463 122.700601 
L 829.377796 122.111423 
L 831.360128 121.522244 
L 833.342461 120.933066 
L 835.324794 120.343888 
L 837.307126 119.754709 
L 839.289459 119.165531 
L 841.271792 118.576353 
L 843.254124 117.987174 
L 845.236457 117.397996 
L 847.21879 116.808818 
L 849.201122 116.219639 
L 851.183455 115.630461 
L 853.165788 115.041283 
L 855.14812 114.452104 
L 857.130453 113.862926 
L 859.112786 113.273747 
L 861.095118 112.684569 
L 863.077451 112.095391 
L 865.059784 111.506212 
L 867.042116 110.917034 
L 869.024449 110.327856 
L 871.006782 109.738677 
L 872.989114 109.149499 
L 874.971447 108.560321 
L 876.95378 107.971142 
L 878.936112 107.381964 
L 880.918445 106.792786 
L 882.900778 106.203607 
L 884.88311 105.614429 
L 886.865443 105.025251 
L 888.847776 104.436072 
L 890.830108 103.846894 
L 892.812441 103.257715 
L 894.794774 102.668537 
L 896.777106 102.079359 
L 898.759439 101.49018 
L 900.741772 100.901002 
L 902.724104 100.311824 
L 904.706437 99.722645 
L 906.68877 99.133467 
L 908.671102 98.544289 
L 910.653435 97.95511 
L 912.635768 97.365932 
L 914.6181 96.776754 
L 916.600433 96.187575 
L 918.582766 95.598397 
L 920.565098 95.009218 
L 922.547431 94.42004 
L 924.529764 93.830862 
L 926.512096 93.241683 
L 928.494429 92.652505 
L 930.476762 92.063327 
L 932.459094 91.474148 
L 934.441427 90.88497 
L 936.42376 90.295792 
L 938.406092 89.706613 
L 940.388425 89.117435 
L 942.370758 88.528257 
L 944.35309 87.939078 
L 946.335423 87.3499 
L 948.317756 86.760721 
L 950.300088 86.171543 
L 952.282421 85.582365 
L 954.264754 84.993186 
L 956.247086 84.404008 
L 958.229419 83.81483 
L 960.211752 83.225651 
L 962.194084 82.636473 
L 964.176417 82.047295 
L 966.158749 81.458116 
L 968.141082 80.868938 
L 970.123415 80.27976 
L 972.105747 79.690581 
L 974.08808 79.101403 
L 976.070413 78.512224 
L 978.052745 77.923046 
L 980.035078 77.333868 
L 982.017411 76.744689 
L 983.999743 76.155511 
L 985.982076 75.566333 
L 987.964409 74.977154 
L 989.946741 74.387976 
L 991.929074 73.798798 
L 993.911407 73.209619 
L 995.893739 72.620441 
L 997.876072 72.031263 
L 999.858405 71.442084 
L 1001.840737 70.852906 
L 1003.82307 70.263727 
L 1005.805403 69.674549 
L 1007.787735 69.085371 
L 1009.770068 68.496192 
L 1011.752401 67.907014 
L 1013.734733 67.317836 
L 1015.717066 66.728657 
L 1017.699399 66.139479 
L 1019.681731 65.550301 
L 1021.664064 64.961122 
L 1023.646397 64.371944 
L 1025.628729 63.782766 
L 1027.611062 63.193587 
L 1029.593395 62.604409 
L 1031.575727 62.01523 
L 1033.55806 61.426052 
L 1035.540393 60.836874 
L 1037.522725 60.247695 
L 1039.505058 59.658517 
L 1041.487391 59.069339 
L 1043.469723 58.48016 
L 1045.452056 57.890982 
L 1047.434389 57.301804 
L 1049.416721 56.712625 
L 1051.399054 56.123447 
L 1053.381387 55.534269 
L 1055.363719 54.94509 
L 1057.346052 54.355912 
L 1059.328385 53.766733 
L 1061.310717 53.177555 
L 1063.29305 52.588377 
L 1065.275383 51.999198 
L 1067.257715 51.41002 
L 1069.240048 50.820842 
L 1071.222381 50.231663 
L 1073.204713 49.642485 
L 1075.187046 49.053307 
L 1077.169379 48.464128 
L 1079.151711 47.87495 
L 1081.134044 47.285772 
L 1083.116377 46.696593 
L 1085.098709 46.107415 
L 1087.081042 45.518236 
L 1089.063375 44.929058 
L 1091.045707 44.33988 
L 1093.02804 43.750701 
L 1095.010373 43.161523 
L 1096.992705 42.572345 
L 1098.975038 41.983166 
L 1100.957371 41.393988 
L 1102.939703 40.80481 
L 1104.922036 40.215631 
L 1106.904369 39.626453 
L 1108.886701 39.037275 
L 1110.869034 38.448096 
L 1112.851367 37.858918 
L 1114.833699 37.269739 
L 1116.816032 36.680561 
L 1118.798365 36.091383 
L 1120.780697 35.502204 
L 1122.76303 34.913026 
L 1124.745363 34.323848 
L 1126.727695 33.734669 
L 1128.710028 33.145491 
L 1130.692361 32.556313 
L 1132.674693 31.967134 
L 1134.657026 31.377956 
L 1136.639359 30.788778 
L 1138.621691 30.199599 
L 1140.604024 29.610421 
L 1142.586357 29.021242 
L 1144.568689 28.432064 
L 1146.551022 27.842886 
L 1148.533355 27.253707 
L 1150.515687 26.664529 
L 1152.49802 26.075351 
L 1154.480353 25.486172 
L 1156.462685 24.896994 
L 1158.445018 24.307816 
L 1160.427351 23.718637 
L 1162.409683 23.129459 
L 1164.392016 22.540281 
L 1166.374349 21.951102 
L 1168.356681 21.361924 
L 1170.339014 20.772745 
L 1172.321347 20.183567 
L 1174.303679 19.594389 
L 1176.286012 19.00521 
L 1178.268345 18.416032 
L 1180.250677 17.826854 
L 1182.23301 17.237675 
L 1184.215343 16.648497 
L 1186.197675 16.059319 
L 1188.180008 15.47014 
L 1190.162341 14.880962 
L 1192.144673 14.291784 
L 1194.127006 13.702605 
L 1196.109339 13.113427 
L 1198.091671 12.524248 
L 1200.074004 11.93507 
L 1202.056337 11.345892 
L 1204.038669 10.756713 
L 1206.021002 10.167535 
L 1208.003335 9.578357 
L 1209.985667 8.989178 
L 1211.968 8.4 
L 1211.968 -318.266667 
L 1211.968 -318.266667 
L 1209.985667 -317.022846 
L 1208.003335 -315.779025 
L 1206.021002 -314.535204 
L 1204.038669 -313.291383 
L 1202.056337 -312.047562 
L 1200.074004 -310.803741 
L 1198.091671 -309.55992 
L 1196.109339 -308.316099 
L 1194.127006 -307.072278 
L 1192.144673 -305.828457 
L 1190.162341 -304.584636 
L 1188.180008 -303.340815 
L 1186.197675 -302.096994 
L 1184.215343 -300.853173 
L 1182.23301 -299.609352 
L 1180.250677 -298.365531 
L 1178.268345 -297.12171 
L 1176.286012 -295.877889 
L 1174.303679 -294.634068 
L 1172.321347 -293.390247 
L 1170.339014 -292.146426 
L 1168.356681 -290.902605 
L 1166.374349 -289.658784 
L 1164.392016 -288.414963 
L 1162.409683 -287.171142 
L 1160.427351 -285.927321 
L 1158.445018 -284.6835 
L 1156.462685 -283.439679 
L 1154.480353 -282.195858 
L 1152.49802 -280.952037 
L 1150.515687 -279.708216 
L 1148.533355 -278.464395 
L 1146.551022 -277.220574 
L 1144.568689 -275.976754 
L 1142.586357 -274.732933 
L 1140.604024 -273.489112 
L 1138.621691 -272.245291 
L 1136.639359 -271.00147 
L 1134.657026 -269.757649 
L 1132.674693 -268.513828 
L 1130.692361 -267.270007 
L 1128.710028 -266.026186 
L 1126.727695 -264.782365 
L 1124.745363 -263.538544 
L 1122.76303 -262.294723 
L 1120.780697 -261.050902 
L 1118.798365 -259.807081 
L 1116.816032 -258.56326 
L 1114.833699 -257.319439 
L 1112.851367 -256.075618 
L 1110.869034 -254.831797 
L 1108.886701 -253.587976 
L 1106.904369 -252.344155 
L 1104.922036 -251.100334 
L 1102.939703 -249.856513 
L 1100.957371 -248.612692 
L 1098.975038 -247.368871 
L 1096.992705 -246.12505 
L 1095.010373 -244.881229 
L 1093.02804 -243.637408 
L 1091.045707 -242.393587 
L 1089.063375 -241.149766 
L 1087.081042 -239.905945 
L 1085.098709 -238.662124 
L 1083.116377 -237.418303 
L 1081.134044 -236.174482 
L 1079.151711 -234.930661 
L 1077.169379 -233.68684 
L 1075.187046 -232.443019 
L 1073.204713 -231.199198 
L 1071.222381 -229.955377 
L 1069.240048 -228.711556 
L 1067.257715 -227.467735 
L 1065.275383 -226.223914 
L 1063.29305 -224.980094 
L 1061.310717 -223.736273 
L 1059.328385 -222.492452 
L 1057.346052 -221.248631 
L 1055.363719 -220.00481 
L 1053.381387 -218.760989 
L 1051.399054 -217.517168 
L 1049.416721 -216.273347 
L 1047.434389 -215.029526 
L 1045.452056 -213.785705 
L 1043.469723 -212.541884 
L 1041.487391 -211.298063 
L 1039.505058 -210.054242 
L 1037.522725 -208.810421 
L 1035.540393 -207.5666 
L 1033.55806 -206.322779 
L 1031.575727 -205.078958 
L 1029.593395 -203.835137 
L 1027.611062 -202.591316 
L 1025.628729 -201.347495 
L 1023.646397 -200.103674 
L 1021.664064 -198.859853 
L 1019.681731 -197.616032 
L 1017.699399 -196.372211 
L 1015.717066 -195.12839 
L 1013.734733 -193.884569 
L 1011.752401 -192.640748 
L 1009.770068 -191.396927 
L 1007.787735 -190.153106 
L 1005.805403 -188.909285 
L 1003.82307 -187.665464 
L 1001.840737 -186.421643 
L 999.858405 -185.177822 
L 997.876072 -183.934001 
L 995.893739 -182.69018 
L 993.911407 -181.446359 
L 991.929074 -180.202538 
L 989.946741 -178.958717 
L 987.964409 -177.714896 
L 985.982076 -176.471075 
L 983.999743 -175.227255 
L 982.017411 -173.983434 
L 980.035078 -172.739613 
L 978.052745 -171.495792 
L 976.070413 -170.251971 
L 974.08808 -169.00815 
L 972.105747 -167.764329 
L 970.123415 -166.520508 
L 968.141082 -165.276687 
L 966.158749 -164.032866 
L 964.176417 -162.789045 
L 962.194084 -161.545224 
L 960.211752 -160.301403 
L 958.229419 -159.057582 
L 956.247086 -157.813761 
L 954.264754 -156.56994 
L 952.282421 -155.326119 
L 950.300088 -154.082298 
L 948.317756 -152.838477 
L 946.335423 -151.594656 
L 944.35309 -150.350835 
L 942.370758 -149.107014 
L 940.388425 -147.863193 
L 938.406092 -146.619372 
L 936.42376 -145.375551 
L 934.441427 -144.13173 
L 932.459094 -142.887909 
L 930.476762 -141.644088 
L 928.494429 -140.400267 
L 926.512096 -139.156446 
L 924.529764 -137.912625 
L 922.547431 -136.668804 
L 920.565098 -135.424983 
L 918.582766 -134.181162 
L 916.600433 -132.937341 
L 914.6181 -131.69352 
L 912.635768 -130.449699 
L 910.653435 -129.205878 
L 908.671102 -127.962057 
L 906.68877 -126.718236 
L 904.706437 -125.474415 
L 902.724104 -124.230595 
L 900.741772 -122.986774 
L 898.759439 -121.742953 
L 896.777106 -120.499132 
L 894.794774 -119.255311 
L 892.812441 -118.01149 
L 890.830108 -116.767669 
L 888.847776 -115.523848 
L 886.865443 -114.280027 
L 884.88311 -113.036206 
L 882.900778 -111.792385 
L 880.918445 -110.548564 
L 878.936112 -109.304743 
L 876.95378 -108.060922 
L 874.971447 -106.817101 
L 872.989114 -105.57328 
L 871.006782 -104.329459 
L 869.024449 -103.085638 
L 867.042116 -101.841817 
L 865.059784 -100.597996 
L 863.077451 -99.354175 
L 861.095118 -98.110354 
L 859.112786 -96.866533 
L 857.130453 -95.622712 
L 855.14812 -94.378891 
L 853.165788 -93.13507 
L 851.183455 -91.891249 
L 849.201122 -90.647428 
L 847.21879 -89.403607 
L 845.236457 -88.159786 
L 843.254124 -86.915965 
L 841.271792 -85.672144 
L 839.289459 -84.428323 
L 837.307126 -83.184502 
L 835.324794 -81.940681 
L 833.342461 -80.69686 
L 831.360128 -79.453039 
L 829.377796 -78.209218 
L 827.395463 -76.965397 
L 825.41313 -75.721576 
L 823.430798 -74.477756 
L 821.448465 -73.233935 
L 819.466132 -71.990114 
L 817.4838 -70.746293 
L 815.501467 -69.502472 
L 813.519134 -68.258651 
L 811.536802 -67.01483 
L 809.554469 -65.771009 
L 807.572136 -64.527188 
L 805.589804 -63.283367 
L 803.607471 -62.039546 
L 801.625138 -60.795725 
L 799.642806 -59.551904 
L 797.660473 -58.308083 
L 795.67814 -57.064262 
L 793.695808 -55.820441 
L 791.713475 -54.57662 
L 789.731142 -53.332799 
L 787.74881 -52.088978 
L 785.766477 -50.845157 
L 783.784144 -49.601336 
L 781.801812 -48.357515 
L 779.819479 -47.113694 
L 777.837146 -45.869873 
L 775.854814 -44.626052 
L 773.872481 -43.382231 
L 771.890148 -42.13841 
L 769.907816 -40.894589 
L 767.925483 -39.650768 
L 765.94315 -38.406947 
L 763.960818 -37.163126 
L 761.978485 -35.919305 
L 759.996152 -34.675484 
L 758.01382 -33.431663 
L 756.031487 -32.187842 
L 754.049154 -30.944021 
L 752.066822 -29.7002 
L 750.084489 -28.456379 
L 748.102156 -27.212558 
L 746.119824 -25.968737 
L 744.137491 -24.724916 
L 742.155158 -23.481096 
L 740.172826 -22.237275 
L 738.190493 -20.993454 
L 736.20816 -19.749633 
L 734.225828 -18.505812 
L 732.243495 -17.261991 
L 730.261162 -16.01817 
L 728.27883 -14.774349 
L 726.296497 -13.530528 
L 724.314164 -12.286707 
L 722.331832 -11.042886 
L 720.349499 -9.799065 
L 718.367166 -8.555244 
L 716.384834 -7.311423 
L 714.402501 -6.067602 
L 712.420168 -4.823781 
L 710.437836 -3.57996 
L 708.455503 -2.336139 
L 706.47317 -1.092318 
L 704.490838 0.151503 
L 702.508505 1.395324 
L 700.526172 2.639145 
L 698.54384 3.882966 
L 696.561507 5.126787 
L 694.579174 6.370608 
L 692.596842 7.614429 
L 690.614509 8.85825 
L 688.632176 10.102071 
L 686.649844 11.345892 
L 684.667511 12.589713 
L 682.685178 13.833534 
L 680.702846 15.077355 
L 678.720513 16.321176 
L 676.73818 17.564997 
L 674.755848 18.808818 
L 672.773515 20.052639 
L 670.791182 21.29646 
L 668.80885 22.540281 
L 666.826517 23.784102 
L 664.844184 25.027923 
L 662.861852 26.271743 
L 660.879519 27.515564 
L 658.897186 28.759385 
L 656.914854 30.003206 
L 654.932521 31.247027 
L 652.950188 32.490848 
L 650.967856 33.734669 
L 648.985523 34.97849 
L 647.00319 36.222311 
L 645.020858 37.466132 
L 643.038525 38.709953 
L 641.056192 39.953774 
L 639.07386 41.197595 
L 637.091527 42.441416 
L 635.109194 43.685237 
L 633.126862 44.929058 
L 631.144529 46.172879 
L 629.162196 47.4167 
L 627.179864 48.660521 
L 625.197531 49.904342 
L 623.215198 51.148163 
L 621.232866 52.391984 
L 619.250533 53.635805 
L 617.2682 54.879626 
L 615.285868 56.123447 
L 613.303535 57.367268 
L 611.321202 58.611089 
L 609.33887 59.85491 
L 607.356537 61.098731 
L 605.374204 62.342552 
L 603.391872 63.586373 
L 601.409539 64.830194 
L 599.427206 66.074015 
L 597.444874 67.317836 
L 595.462541 68.561657 
L 593.480208 69.805478 
L 591.497876 71.049299 
L 589.515543 72.29312 
L 587.53321 73.536941 
L 585.550878 74.780762 
L 583.568545 76.024582 
L 581.586212 77.268403 
L 579.60388 78.512224 
L 577.621547 79.756045 
L 575.639214 80.999866 
L 573.656882 82.243687 
L 571.674549 83.487508 
L 569.692216 84.731329 
L 567.709884 85.97515 
L 565.727551 87.218971 
L 563.745218 88.462792 
L 561.762886 89.706613 
L 559.780553 90.950434 
L 557.79822 92.194255 
L 555.815888 93.438076 
L 553.833555 94.681897 
L 551.851222 95.925718 
L 549.86889 97.169539 
L 547.886557 98.41336 
L 545.904224 99.657181 
L 543.921892 100.901002 
L 541.939559 102.144823 
L 539.957226 103.388644 
L 537.974894 104.632465 
L 535.992561 105.876286 
L 534.010228 107.120107 
L 532.027896 108.363928 
L 530.045563 109.607749 
L 528.06323 110.85157 
L 526.080898 112.095391 
L 524.098565 113.339212 
L 522.116232 114.583033 
L 520.1339 115.826854 
L 518.151567 117.070675 
L 516.169234 118.314496 
L 514.186902 119.558317 
L 512.204569 120.802138 
L 510.222236 122.045959 
L 508.239904 123.28978 
L 506.257571 124.533601 
L 504.275238 125.777422 
L 502.292906 127.021242 
L 500.310573 128.265063 
L 498.32824 129.508884 
L 496.345908 130.752705 
L 494.363575 131.996526 
L 492.381242 133.240347 
L 490.39891 134.484168 
L 488.416577 135.727989 
L 486.434244 136.97181 
L 484.451912 138.215631 
L 482.469579 139.459452 
L 480.487246 140.703273 
L 478.504914 141.947094 
L 476.522581 143.190915 
L 474.540248 144.434736 
L 472.557916 145.678557 
L 470.575583 146.922378 
L 468.593251 148.166199 
L 466.610918 149.41002 
L 464.628585 150.653841 
L 462.646253 151.897662 
L 460.66392 153.141483 
L 458.681587 154.385304 
L 456.699255 155.629125 
L 454.716922 156.872946 
L 452.734589 158.116767 
L 450.752257 159.360588 
L 448.769924 160.604409 
L 446.787591 161.84823 
L 444.805259 163.092051 
L 442.822926 164.335872 
L 440.840593 165.579693 
L 438.858261 166.823514 
L 436.875928 168.067335 
L 434.893595 169.311156 
L 432.911263 170.554977 
L 430.92893 171.798798 
L 428.946597 173.042619 
L 426.964265 174.28644 
L 424.981932 175.530261 
L 422.999599 176.774081 
L 421.017267 178.017902 
L 419.034934 179.261723 
L 417.052601 180.505544 
L 415.070269 181.749365 
L 413.087936 182.993186 
L 411.105603 184.237007 
L 409.123271 185.480828 
L 407.140938 186.724649 
L 405.158605 187.96847 
L 403.176273 189.212291 
L 401.19394 190.456112 
L 399.211607 191.699933 
L 397.229275 192.943754 
L 395.246942 194.187575 
L 393.264609 195.431396 
L 391.282277 196.675217 
L 389.299944 197.919038 
L 387.317611 199.162859 
L 385.335279 200.40668 
L 383.352946 201.650501 
L 381.370613 202.894322 
L 379.388281 204.138143 
L 377.405948 205.381964 
L 375.423615 206.625785 
L 373.441283 207.869606 
L 371.45895 209.113427 
L 369.476617 210.357248 
L 367.494285 211.601069 
L 365.511952 212.84489 
L 363.529619 214.088711 
L 361.547287 215.332532 
L 359.564954 216.576353 
L 357.582621 217.820174 
L 355.600289 219.063995 
L 353.617956 220.307816 
L 351.635623 221.551637 
L 349.653291 222.795458 
L 347.670958 224.039279 
L 345.688625 225.2831 
L 343.706293 226.526921 
L 341.72396 227.770741 
L 339.741627 229.014562 
L 337.759295 230.258383 
L 335.776962 231.502204 
L 333.794629 232.746025 
L 331.812297 233.989846 
L 329.829964 235.233667 
L 327.847631 236.477488 
L 325.865299 237.721309 
L 323.882966 238.96513 
L 321.900633 240.208951 
L 319.918301 241.452772 
L 317.935968 242.696593 
L 315.953635 243.940414 
L 313.971303 245.184235 
L 311.98897 246.428056 
L 310.006637 247.671877 
L 308.024305 248.915698 
L 306.041972 250.159519 
L 304.059639 251.40334 
L 302.077307 252.647161 
L 300.094974 253.890982 
L 298.112641 255.134803 
L 296.130309 256.378624 
L 294.147976 257.622445 
L 292.165643 258.866266 
L 290.183311 260.110087 
L 288.200978 261.353908 
L 286.218645 262.597729 
L 284.236313 263.84155 
L 282.25398 265.085371 
L 280.271647 266.329192 
L 278.289315 267.573013 
L 276.306982 268.816834 
L 274.324649 270.060655 
L 272.342317 271.304476 
L 270.359984 272.548297 
L 268.377651 273.792118 
L 266.395319 275.035939 
L 264.412986 276.27976 
L 262.430653 277.52358 
L 260.448321 278.767401 
L 258.465988 280.011222 
L 256.483655 281.255043 
L 254.501323 282.498864 
L 252.51899 283.742685 
L 250.536657 284.986506 
L 248.554325 286.230327 
L 246.571992 287.474148 
L 244.589659 288.717969 
L 242.607327 289.96179 
L 240.624994 291.205611 
L 238.642661 292.449432 
L 236.660329 293.693253 
L 234.677996 294.937074 
L 232.695663 296.180895 
L 230.713331 297.424716 
L 228.730998 298.668537 
L 226.748665 299.912358 
L 224.766333 301.156179 
L 222.784 302.4 
z
" clip-path="url(#p475cccd419)" style="fill: #87ceeb; fill-opacity: 0.25; stroke: #87ceeb; stroke-opacity: 0.25"/>
   </g>
   <g id="matplotlib.axis_1">
    <g id="xtick_1">
     <g id="line2d_1">
      <defs>
       <path id="m508738c86a" d="M 0 0 
L 0 3.5 
" style="stroke: #000000; stroke-width: 0.8"/>
      </defs>
      <g>
       <use xlink:href="#m508738c86a" x="222.784" y="302.4" style="stroke: #000000; stroke-width: 0.8"/>
      </g>
     </g>
     <g id="text_1">
      <!-- 0.0 -->
      <g transform="translate(186.1432 344.4136) scale(0.4608 -0.4608)">
       <defs>
        <path id="DejaVuSans-30" d="M 2034 4250 
Q 1547 4250 1301 3770 
Q 1056 3291 1056 2328 
Q 1056 1369 1301 889 
Q 1547 409 2034 409 
Q 2525 409 2770 889 
Q 3016 1369 3016 2328 
Q 3016 3291 2770 3770 
Q 2525 4250 2034 4250 
z
M 2034 4750 
Q 2819 4750 3233 4129 
Q 3647 3509 3647 2328 
Q 3647 1150 3233 529 
Q 2819 -91 2034 -91 
Q 1250 -91 836 529 
Q 422 1150 422 2328 
Q 422 3509 836 4129 
Q 1250 4750 2034 4750 
z
" transform="scale(0.015625)"/>
        <path id="DejaVuSans-2e" d="M 684 794 
L 1344 794 
L 1344 0 
L 684 0 
L 684 794 
z
" transform="scale(0.015625)"/>
       </defs>
       <use xlink:href="#DejaVuSans-30"/>
       <use xlink:href="#DejaVuSans-2e" x="63.623047"/>
       <use xlink:href="#DejaVuSans-30" x="95.410156"/>
      </g>
     </g>
    </g>
    <g id="xtick_2">
     <g id="line2d_2">
      <g>
       <use xlink:href="#m508738c86a" x="364.096" y="302.4" style="stroke: #000000; stroke-width: 0.8"/>
      </g>
     </g>
     <g id="text_2">
      <!-- 0.5 -->
      <g transform="translate(327.4552 344.4136) scale(0.4608 -0.4608)">
       <defs>
        <path id="DejaVuSans-35" d="M 691 4666 
L 3169 4666 
L 3169 4134 
L 1269 4134 
L 1269 2991 
Q 1406 3038 1543 3061 
Q 1681 3084 1819 3084 
Q 2600 3084 3056 2656 
Q 3513 2228 3513 1497 
Q 3513 744 3044 326 
Q 2575 -91 1722 -91 
Q 1428 -91 1123 -41 
Q 819 9 494 109 
L 494 744 
Q 775 591 1075 516 
Q 1375 441 1709 441 
Q 2250 441 2565 725 
Q 2881 1009 2881 1497 
Q 2881 1984 2565 2268 
Q 2250 2553 1709 2553 
Q 1456 2553 1204 2497 
Q 953 2441 691 2322 
L 691 4666 
z
" transform="scale(0.015625)"/>
       </defs>
       <use xlink:href="#DejaVuSans-30"/>
       <use xlink:href="#DejaVuSans-2e" x="63.623047"/>
       <use xlink:href="#DejaVuSans-35" x="95.410156"/>
      </g>
     </g>
    </g>
    <g id="xtick_3">
     <g id="line2d_3">
      <g>
       <use xlink:href="#m508738c86a" x="505.408" y="302.4" style="stroke: #000000; stroke-width: 0.8"/>
      </g>
     </g>
     <g id="text_3">
      <!-- 1.0 -->
      <g transform="translate(468.7672 344.4136) scale(0.4608 -0.4608)">
       <defs>
        <path id="DejaVuSans-31" d="M 794 531 
L 1825 531 
L 1825 4091 
L 703 3866 
L 703 4441 
L 1819 4666 
L 2450 4666 
L 2450 531 
L 3481 531 
L 3481 0 
L 794 0 
L 794 531 
z
" transform="scale(0.015625)"/>
       </defs>
       <use xlink:href="#DejaVuSans-31"/>
       <use xlink:href="#DejaVuSans-2e" x="63.623047"/>
       <use xlink:href="#DejaVuSans-30" x="95.410156"/>
      </g>
     </g>
    </g>
    <g id="xtick_4">
     <g id="line2d_4">
      <g>
       <use xlink:href="#m508738c86a" x="646.72" y="302.4" style="stroke: #000000; stroke-width: 0.8"/>
      </g>
     </g>
     <g id="text_4">
      <!-- 1.5 -->
      <g transform="translate(610.0792 344.4136) scale(0.4608 -0.4608)">
       <use xlink:href="#DejaVuSans-31"/>
       <use xlink:href="#DejaVuSans-2e" x="63.623047"/>
       <use xlink:href="#DejaVuSans-35" x="95.410156"/>
      </g>
     </g>
    </g>
    <g id="text_5">
     <!-- $h$ -->
     <g transform="translate(424.512 382.3118) scale(0.32 -0.32)">
      <defs>
       <path id="DejaVuSans-Oblique-68" d="M 3566 2113 
L 3156 0 
L 2578 0 
L 2988 2091 
Q 3016 2238 3031 2350 
Q 3047 2463 3047 2528 
Q 3047 2791 2881 2937 
Q 2716 3084 2419 3084 
Q 1956 3084 1617 2771 
Q 1278 2459 1178 1941 
L 800 0 
L 225 0 
L 1172 4863 
L 1747 4863 
L 1375 2950 
Q 1594 3244 1934 3414 
Q 2275 3584 2650 3584 
Q 3113 3584 3367 3334 
Q 3622 3084 3622 2631 
Q 3622 2519 3608 2391 
Q 3594 2263 3566 2113 
z
" transform="scale(0.015625)"/>
      </defs>
      <use xlink:href="#DejaVuSans-Oblique-68" transform="translate(0 0.015625)"/>
     </g>
    </g>
   </g>
   <g id="matplotlib.axis_2">
    <g id="ytick_1">
     <g id="line2d_5">
      <defs>
       <path id="md9c8ef1d1c" d="M 0 0 
L -3.5 0 
" style="stroke: #000000; stroke-width: 0.8"/>
      </defs>
      <g>
       <use xlink:href="#md9c8ef1d1c" x="222.784" y="302.4" style="stroke: #000000; stroke-width: 0.8"/>
      </g>
     </g>
     <g id="text_6">
      <!-- 0 -->
      <g transform="translate(186.4656 319.9068) scale(0.4608 -0.4608)">
       <use xlink:href="#DejaVuSans-30"/>
      </g>
     </g>
    </g>
    <g id="ytick_2">
     <g id="line2d_6">
      <g>
       <use xlink:href="#md9c8ef1d1c" x="222.784" y="134.4" style="stroke: #000000; stroke-width: 0.8"/>
      </g>
     </g>
     <g id="text_7">
      <!-- 50 -->
      <g transform="translate(157.1472 151.9068) scale(0.4608 -0.4608)">
       <use xlink:href="#DejaVuSans-35"/>
       <use xlink:href="#DejaVuSans-30" x="63.623047"/>
      </g>
     </g>
    </g>
    <g id="text_8">
     <!-- $d$ [m] -->
     <g transform="translate(146.4922 194.56) rotate(-90) scale(0.32 -0.32)">
      <defs>
       <path id="DejaVuSans-Oblique-64" d="M 2675 525 
Q 2444 222 2128 65 
Q 1813 -91 1428 -91 
Q 903 -91 598 267 
Q 294 625 294 1247 
Q 294 1766 478 2236 
Q 663 2706 1013 3078 
Q 1244 3325 1534 3454 
Q 1825 3584 2144 3584 
Q 2481 3584 2739 3421 
Q 2997 3259 3138 2956 
L 3513 4863 
L 4091 4863 
L 3144 0 
L 2566 0 
L 2675 525 
z
M 891 1350 
Q 891 897 1095 644 
Q 1300 391 1663 391 
Q 1931 391 2161 520 
Q 2391 650 2566 903 
Q 2750 1166 2856 1509 
Q 2963 1853 2963 2188 
Q 2963 2622 2758 2865 
Q 2553 3109 2194 3109 
Q 1922 3109 1687 2981 
Q 1453 2853 1288 2613 
Q 1106 2353 998 2009 
Q 891 1666 891 1350 
z
" transform="scale(0.015625)"/>
       <path id="DejaVuSans-20" transform="scale(0.015625)"/>
       <path id="DejaVuSans-5b" d="M 550 4863 
L 1875 4863 
L 1875 4416 
L 1125 4416 
L 1125 -397 
L 1875 -397 
L 1875 -844 
L 550 -844 
L 550 4863 
z
" transform="scale(0.015625)"/>
       <path id="DejaVuSans-6d" d="M 3328 2828 
Q 3544 3216 3844 3400 
Q 4144 3584 4550 3584 
Q 5097 3584 5394 3201 
Q 5691 2819 5691 2113 
L 5691 0 
L 5113 0 
L 5113 2094 
Q 5113 2597 4934 2840 
Q 4756 3084 4391 3084 
Q 3944 3084 3684 2787 
Q 3425 2491 3425 1978 
L 3425 0 
L 2847 0 
L 2847 2094 
Q 2847 2600 2669 2842 
Q 2491 3084 2119 3084 
Q 1678 3084 1418 2786 
Q 1159 2488 1159 1978 
L 1159 0 
L 581 0 
L 581 3500 
L 1159 3500 
L 1159 2956 
Q 1356 3278 1631 3431 
Q 1906 3584 2284 3584 
Q 2666 3584 2933 3390 
Q 3200 3197 3328 2828 
z
" transform="scale(0.015625)"/>
       <path id="DejaVuSans-5d" d="M 1947 4863 
L 1947 -844 
L 622 -844 
L 622 -397 
L 1369 -397 
L 1369 4416 
L 622 4416 
L 622 4863 
L 1947 4863 
z
" transform="scale(0.015625)"/>
      </defs>
      <use xlink:href="#DejaVuSans-Oblique-64" transform="translate(0 0.015625)"/>
      <use xlink:href="#DejaVuSans-20" transform="translate(63.476562 0.015625)"/>
      <use xlink:href="#DejaVuSans-5b" transform="translate(95.263672 0.015625)"/>
      <use xlink:href="#DejaVuSans-6d" transform="translate(134.277344 0.015625)"/>
      <use xlink:href="#DejaVuSans-5d" transform="translate(231.689453 0.015625)"/>
     </g>
    </g>
   </g>
   <g id="line2d_7">
    <path d="M 222.784 302.4 
L 684.3608 165.212602 
L 684.3608 165.212602 
" clip-path="url(#p475cccd419)" style="fill: none; stroke: #708090; stroke-width: 10; stroke-linecap: square"/>
   </g>
   <g id="line2d_8">
    <path d="M 222.784 302.4 
L 684.3608 12.78216 
L 684.3608 12.78216 
" clip-path="url(#p475cccd419)" style="fill: none; stroke: #000080; stroke-width: 10; stroke-linecap: square"/>
   </g>
   <g id="line2d_9">
    <path d="M 222.784 219.812315 
L 260.448321 202.281742 
L 298.112641 184.517011 
L 335.776962 166.51812 
L 375.423615 147.31895 
L 415.070269 127.860324 
L 454.716922 108.142243 
L 494.363575 88.164706 
L 534.010228 67.927713 
L 573.656882 47.431264 
L 613.303535 26.67536 
L 652.950188 5.659999 
L 665.413404 -1 
L 665.413404 -1 
" clip-path="url(#p475cccd419)" style="fill: none; stroke: #6495ed; stroke-width: 10; stroke-linecap: square"/>
   </g>
   <g id="patch_3">
    <path d="M 222.784 302.4 
L 222.784 -0 
" style="fill: none; stroke: #000000; stroke-width: 0.8; stroke-linejoin: miter; stroke-linecap: square"/>
   </g>
   <g id="patch_4">
    <path d="M 646.72 302.4 
L 646.72 -0 
" style="fill: none; stroke: #000000; stroke-width: 0.8; stroke-linejoin: miter; stroke-linecap: square"/>
   </g>
   <g id="patch_5">
    <path d="M 222.784 302.4 
L 646.72 302.4 
" style="fill: none; stroke: #000000; stroke-width: 0.8; stroke-linejoin: miter; stroke-linecap: square"/>
   </g>
   <g id="patch_6">
    <path d="M 222.784 -0 
L 646.72 -0 
" style="fill: none; stroke: #000000; stroke-width: 0.8; stroke-linejoin: miter; stroke-linecap: square"/>
   </g>
   <g id="legend_1">
    <g id="patch_7">
     <path d="M 6.4 213.76 
L 624.32 213.76 
Q 630.72 213.76 630.72 207.36 
L 630.72 22.4 
Q 630.72 16 624.32 16 
L 6.4 16 
Q 0 16 0 22.4 
L 0 207.36 
Q 0 213.76 6.4 213.76 
z
" style="fill: #ffffff; opacity: 0.8; stroke: #cccccc; stroke-linejoin: miter"/>
    </g>
    <g id="line2d_10">
     <path d="M 12.8 41.92 
L 44.8 41.92 
L 76.8 41.92 
" style="fill: none; stroke: #708090; stroke-width: 10; stroke-linecap: square"/>
    </g>
    <g id="text_9">
     <!-- $d$ &gt; positive gains constraint -->
     <g transform="translate(102.4 53.12) scale(0.32 -0.32)">
      <defs>
       <path id="DejaVuSans-3e" d="M 678 3150 
L 678 3719 
L 4684 2266 
L 4684 1747 
L 678 294 
L 678 863 
L 3897 2003 
L 678 3150 
z
" transform="scale(0.015625)"/>
       <path id="DejaVuSans-70" d="M 1159 525 
L 1159 -1331 
L 581 -1331 
L 581 3500 
L 1159 3500 
L 1159 2969 
Q 1341 3281 1617 3432 
Q 1894 3584 2278 3584 
Q 2916 3584 3314 3078 
Q 3713 2572 3713 1747 
Q 3713 922 3314 415 
Q 2916 -91 2278 -91 
Q 1894 -91 1617 61 
Q 1341 213 1159 525 
z
M 3116 1747 
Q 3116 2381 2855 2742 
Q 2594 3103 2138 3103 
Q 1681 3103 1420 2742 
Q 1159 2381 1159 1747 
Q 1159 1113 1420 752 
Q 1681 391 2138 391 
Q 2594 391 2855 752 
Q 3116 1113 3116 1747 
z
" transform="scale(0.015625)"/>
       <path id="DejaVuSans-6f" d="M 1959 3097 
Q 1497 3097 1228 2736 
Q 959 2375 959 1747 
Q 959 1119 1226 758 
Q 1494 397 1959 397 
Q 2419 397 2687 759 
Q 2956 1122 2956 1747 
Q 2956 2369 2687 2733 
Q 2419 3097 1959 3097 
z
M 1959 3584 
Q 2709 3584 3137 3096 
Q 3566 2609 3566 1747 
Q 3566 888 3137 398 
Q 2709 -91 1959 -91 
Q 1206 -91 779 398 
Q 353 888 353 1747 
Q 353 2609 779 3096 
Q 1206 3584 1959 3584 
z
" transform="scale(0.015625)"/>
       <path id="DejaVuSans-73" d="M 2834 3397 
L 2834 2853 
Q 2591 2978 2328 3040 
Q 2066 3103 1784 3103 
Q 1356 3103 1142 2972 
Q 928 2841 928 2578 
Q 928 2378 1081 2264 
Q 1234 2150 1697 2047 
L 1894 2003 
Q 2506 1872 2764 1633 
Q 3022 1394 3022 966 
Q 3022 478 2636 193 
Q 2250 -91 1575 -91 
Q 1294 -91 989 -36 
Q 684 19 347 128 
L 347 722 
Q 666 556 975 473 
Q 1284 391 1588 391 
Q 1994 391 2212 530 
Q 2431 669 2431 922 
Q 2431 1156 2273 1281 
Q 2116 1406 1581 1522 
L 1381 1569 
Q 847 1681 609 1914 
Q 372 2147 372 2553 
Q 372 3047 722 3315 
Q 1072 3584 1716 3584 
Q 2034 3584 2315 3537 
Q 2597 3491 2834 3397 
z
" transform="scale(0.015625)"/>
       <path id="DejaVuSans-69" d="M 603 3500 
L 1178 3500 
L 1178 0 
L 603 0 
L 603 3500 
z
M 603 4863 
L 1178 4863 
L 1178 4134 
L 603 4134 
L 603 4863 
z
" transform="scale(0.015625)"/>
       <path id="DejaVuSans-74" d="M 1172 4494 
L 1172 3500 
L 2356 3500 
L 2356 3053 
L 1172 3053 
L 1172 1153 
Q 1172 725 1289 603 
Q 1406 481 1766 481 
L 2356 481 
L 2356 0 
L 1766 0 
Q 1100 0 847 248 
Q 594 497 594 1153 
L 594 3053 
L 172 3053 
L 172 3500 
L 594 3500 
L 594 4494 
L 1172 4494 
z
" transform="scale(0.015625)"/>
       <path id="DejaVuSans-76" d="M 191 3500 
L 800 3500 
L 1894 563 
L 2988 3500 
L 3597 3500 
L 2284 0 
L 1503 0 
L 191 3500 
z
" transform="scale(0.015625)"/>
       <path id="DejaVuSans-65" d="M 3597 1894 
L 3597 1613 
L 953 1613 
Q 991 1019 1311 708 
Q 1631 397 2203 397 
Q 2534 397 2845 478 
Q 3156 559 3463 722 
L 3463 178 
Q 3153 47 2828 -22 
Q 2503 -91 2169 -91 
Q 1331 -91 842 396 
Q 353 884 353 1716 
Q 353 2575 817 3079 
Q 1281 3584 2069 3584 
Q 2775 3584 3186 3129 
Q 3597 2675 3597 1894 
z
M 3022 2063 
Q 3016 2534 2758 2815 
Q 2500 3097 2075 3097 
Q 1594 3097 1305 2825 
Q 1016 2553 972 2059 
L 3022 2063 
z
" transform="scale(0.015625)"/>
       <path id="DejaVuSans-67" d="M 2906 1791 
Q 2906 2416 2648 2759 
Q 2391 3103 1925 3103 
Q 1463 3103 1205 2759 
Q 947 2416 947 1791 
Q 947 1169 1205 825 
Q 1463 481 1925 481 
Q 2391 481 2648 825 
Q 2906 1169 2906 1791 
z
M 3481 434 
Q 3481 -459 3084 -895 
Q 2688 -1331 1869 -1331 
Q 1566 -1331 1297 -1286 
Q 1028 -1241 775 -1147 
L 775 -588 
Q 1028 -725 1275 -790 
Q 1522 -856 1778 -856 
Q 2344 -856 2625 -561 
Q 2906 -266 2906 331 
L 2906 616 
Q 2728 306 2450 153 
Q 2172 0 1784 0 
Q 1141 0 747 490 
Q 353 981 353 1791 
Q 353 2603 747 3093 
Q 1141 3584 1784 3584 
Q 2172 3584 2450 3431 
Q 2728 3278 2906 2969 
L 2906 3500 
L 3481 3500 
L 3481 434 
z
" transform="scale(0.015625)"/>
       <path id="DejaVuSans-61" d="M 2194 1759 
Q 1497 1759 1228 1600 
Q 959 1441 959 1056 
Q 959 750 1161 570 
Q 1363 391 1709 391 
Q 2188 391 2477 730 
Q 2766 1069 2766 1631 
L 2766 1759 
L 2194 1759 
z
M 3341 1997 
L 3341 0 
L 2766 0 
L 2766 531 
Q 2569 213 2275 61 
Q 1981 -91 1556 -91 
Q 1019 -91 701 211 
Q 384 513 384 1019 
Q 384 1609 779 1909 
Q 1175 2209 1959 2209 
L 2766 2209 
L 2766 2266 
Q 2766 2663 2505 2880 
Q 2244 3097 1772 3097 
Q 1472 3097 1187 3025 
Q 903 2953 641 2809 
L 641 3341 
Q 956 3463 1253 3523 
Q 1550 3584 1831 3584 
Q 2591 3584 2966 3190 
Q 3341 2797 3341 1997 
z
" transform="scale(0.015625)"/>
       <path id="DejaVuSans-6e" d="M 3513 2113 
L 3513 0 
L 2938 0 
L 2938 2094 
Q 2938 2591 2744 2837 
Q 2550 3084 2163 3084 
Q 1697 3084 1428 2787 
Q 1159 2491 1159 1978 
L 1159 0 
L 581 0 
L 581 3500 
L 1159 3500 
L 1159 2956 
Q 1366 3272 1645 3428 
Q 1925 3584 2291 3584 
Q 2894 3584 3203 3211 
Q 3513 2838 3513 2113 
z
" transform="scale(0.015625)"/>
       <path id="DejaVuSans-63" d="M 3122 3366 
L 3122 2828 
Q 2878 2963 2633 3030 
Q 2388 3097 2138 3097 
Q 1578 3097 1268 2742 
Q 959 2388 959 1747 
Q 959 1106 1268 751 
Q 1578 397 2138 397 
Q 2388 397 2633 464 
Q 2878 531 3122 666 
L 3122 134 
Q 2881 22 2623 -34 
Q 2366 -91 2075 -91 
Q 1284 -91 818 406 
Q 353 903 353 1747 
Q 353 2603 823 3093 
Q 1294 3584 2113 3584 
Q 2378 3584 2631 3529 
Q 2884 3475 3122 3366 
z
" transform="scale(0.015625)"/>
       <path id="DejaVuSans-72" d="M 2631 2963 
Q 2534 3019 2420 3045 
Q 2306 3072 2169 3072 
Q 1681 3072 1420 2755 
Q 1159 2438 1159 1844 
L 1159 0 
L 581 0 
L 581 3500 
L 1159 3500 
L 1159 2956 
Q 1341 3275 1631 3429 
Q 1922 3584 2338 3584 
Q 2397 3584 2469 3576 
Q 2541 3569 2628 3553 
L 2631 2963 
z
" transform="scale(0.015625)"/>
      </defs>
      <use xlink:href="#DejaVuSans-Oblique-64" transform="translate(0 0.015625)"/>
      <use xlink:href="#DejaVuSans-20" transform="translate(63.476562 0.015625)"/>
      <use xlink:href="#DejaVuSans-3e" transform="translate(95.263672 0.015625)"/>
      <use xlink:href="#DejaVuSans-20" transform="translate(179.052734 0.015625)"/>
      <use xlink:href="#DejaVuSans-70" transform="translate(210.839844 0.015625)"/>
      <use xlink:href="#DejaVuSans-6f" transform="translate(274.316406 0.015625)"/>
      <use xlink:href="#DejaVuSans-73" transform="translate(335.498047 0.015625)"/>
      <use xlink:href="#DejaVuSans-69" transform="translate(387.597656 0.015625)"/>
      <use xlink:href="#DejaVuSans-74" transform="translate(415.380859 0.015625)"/>
      <use xlink:href="#DejaVuSans-69" transform="translate(454.589844 0.015625)"/>
      <use xlink:href="#DejaVuSans-76" transform="translate(482.373047 0.015625)"/>
      <use xlink:href="#DejaVuSans-65" transform="translate(541.552734 0.015625)"/>
      <use xlink:href="#DejaVuSans-20" transform="translate(603.076172 0.015625)"/>
      <use xlink:href="#DejaVuSans-67" transform="translate(634.863281 0.015625)"/>
      <use xlink:href="#DejaVuSans-61" transform="translate(698.339844 0.015625)"/>
      <use xlink:href="#DejaVuSans-69" transform="translate(759.619141 0.015625)"/>
      <use xlink:href="#DejaVuSans-6e" transform="translate(787.402344 0.015625)"/>
      <use xlink:href="#DejaVuSans-73" transform="translate(850.78125 0.015625)"/>
      <use xlink:href="#DejaVuSans-20" transform="translate(902.880859 0.015625)"/>
      <use xlink:href="#DejaVuSans-63" transform="translate(934.667969 0.015625)"/>
      <use xlink:href="#DejaVuSans-6f" transform="translate(989.648438 0.015625)"/>
      <use xlink:href="#DejaVuSans-6e" transform="translate(1050.830078 0.015625)"/>
      <use xlink:href="#DejaVuSans-73" transform="translate(1114.208984 0.015625)"/>
      <use xlink:href="#DejaVuSans-74" transform="translate(1166.308594 0.015625)"/>
      <use xlink:href="#DejaVuSans-72" transform="translate(1205.517578 0.015625)"/>
      <use xlink:href="#DejaVuSans-61" transform="translate(1246.630859 0.015625)"/>
      <use xlink:href="#DejaVuSans-69" transform="translate(1307.910156 0.015625)"/>
      <use xlink:href="#DejaVuSans-6e" transform="translate(1335.693359 0.015625)"/>
      <use xlink:href="#DejaVuSans-74" transform="translate(1399.072266 0.015625)"/>
     </g>
    </g>
    <g id="line2d_11">
     <path d="M 12.8 88.96 
L 44.8 88.96 
L 76.8 88.96 
" style="fill: none; stroke: #000080; stroke-width: 10; stroke-linecap: square"/>
    </g>
    <g id="text_10">
     <!-- $d$ &lt; string stabilty constraint -->
     <g transform="translate(102.4 100.16) scale(0.32 -0.32)">
      <defs>
       <path id="DejaVuSans-3c" d="M 4684 3150 
L 1459 2003 
L 4684 863 
L 4684 294 
L 678 1747 
L 678 2266 
L 4684 3719 
L 4684 3150 
z
" transform="scale(0.015625)"/>
       <path id="DejaVuSans-62" d="M 3116 1747 
Q 3116 2381 2855 2742 
Q 2594 3103 2138 3103 
Q 1681 3103 1420 2742 
Q 1159 2381 1159 1747 
Q 1159 1113 1420 752 
Q 1681 391 2138 391 
Q 2594 391 2855 752 
Q 3116 1113 3116 1747 
z
M 1159 2969 
Q 1341 3281 1617 3432 
Q 1894 3584 2278 3584 
Q 2916 3584 3314 3078 
Q 3713 2572 3713 1747 
Q 3713 922 3314 415 
Q 2916 -91 2278 -91 
Q 1894 -91 1617 61 
Q 1341 213 1159 525 
L 1159 0 
L 581 0 
L 581 4863 
L 1159 4863 
L 1159 2969 
z
" transform="scale(0.015625)"/>
       <path id="DejaVuSans-6c" d="M 603 4863 
L 1178 4863 
L 1178 0 
L 603 0 
L 603 4863 
z
" transform="scale(0.015625)"/>
       <path id="DejaVuSans-79" d="M 2059 -325 
Q 1816 -950 1584 -1140 
Q 1353 -1331 966 -1331 
L 506 -1331 
L 506 -850 
L 844 -850 
Q 1081 -850 1212 -737 
Q 1344 -625 1503 -206 
L 1606 56 
L 191 3500 
L 800 3500 
L 1894 763 
L 2988 3500 
L 3597 3500 
L 2059 -325 
z
" transform="scale(0.015625)"/>
      </defs>
      <use xlink:href="#DejaVuSans-Oblique-64" transform="translate(0 0.015625)"/>
      <use xlink:href="#DejaVuSans-20" transform="translate(63.476562 0.015625)"/>
      <use xlink:href="#DejaVuSans-3c" transform="translate(95.263672 0.015625)"/>
      <use xlink:href="#DejaVuSans-20" transform="translate(179.052734 0.015625)"/>
      <use xlink:href="#DejaVuSans-73" transform="translate(210.839844 0.015625)"/>
      <use xlink:href="#DejaVuSans-74" transform="translate(262.939453 0.015625)"/>
      <use xlink:href="#DejaVuSans-72" transform="translate(302.148438 0.015625)"/>
      <use xlink:href="#DejaVuSans-69" transform="translate(343.261719 0.015625)"/>
      <use xlink:href="#DejaVuSans-6e" transform="translate(371.044922 0.015625)"/>
      <use xlink:href="#DejaVuSans-67" transform="translate(434.423828 0.015625)"/>
      <use xlink:href="#DejaVuSans-20" transform="translate(497.900391 0.015625)"/>
      <use xlink:href="#DejaVuSans-73" transform="translate(529.6875 0.015625)"/>
      <use xlink:href="#DejaVuSans-74" transform="translate(581.787109 0.015625)"/>
      <use xlink:href="#DejaVuSans-61" transform="translate(620.996094 0.015625)"/>
      <use xlink:href="#DejaVuSans-62" transform="translate(682.275391 0.015625)"/>
      <use xlink:href="#DejaVuSans-69" transform="translate(745.751953 0.015625)"/>
      <use xlink:href="#DejaVuSans-6c" transform="translate(773.535156 0.015625)"/>
      <use xlink:href="#DejaVuSans-74" transform="translate(801.318359 0.015625)"/>
      <use xlink:href="#DejaVuSans-79" transform="translate(840.527344 0.015625)"/>
      <use xlink:href="#DejaVuSans-20" transform="translate(899.707031 0.015625)"/>
      <use xlink:href="#DejaVuSans-63" transform="translate(931.494141 0.015625)"/>
      <use xlink:href="#DejaVuSans-6f" transform="translate(986.474609 0.015625)"/>
      <use xlink:href="#DejaVuSans-6e" transform="translate(1047.65625 0.015625)"/>
      <use xlink:href="#DejaVuSans-73" transform="translate(1111.035156 0.015625)"/>
      <use xlink:href="#DejaVuSans-74" transform="translate(1163.134766 0.015625)"/>
      <use xlink:href="#DejaVuSans-72" transform="translate(1202.34375 0.015625)"/>
      <use xlink:href="#DejaVuSans-61" transform="translate(1243.457031 0.015625)"/>
      <use xlink:href="#DejaVuSans-69" transform="translate(1304.736328 0.015625)"/>
      <use xlink:href="#DejaVuSans-6e" transform="translate(1332.519531 0.015625)"/>
      <use xlink:href="#DejaVuSans-74" transform="translate(1395.898438 0.015625)"/>
     </g>
    </g>
    <g id="line2d_12">
     <path d="M 12.8 136 
L 44.8 136 
L 76.8 136 
" style="fill: none; stroke: #6495ed; stroke-width: 10; stroke-linecap: square"/>
    </g>
    <g id="text_11">
     <!-- $d$ &lt; critically damped constraint -->
     <g transform="translate(102.4 147.2) scale(0.32 -0.32)">
      <defs>
       <path id="DejaVuSans-64" d="M 2906 2969 
L 2906 4863 
L 3481 4863 
L 3481 0 
L 2906 0 
L 2906 525 
Q 2725 213 2448 61 
Q 2172 -91 1784 -91 
Q 1150 -91 751 415 
Q 353 922 353 1747 
Q 353 2572 751 3078 
Q 1150 3584 1784 3584 
Q 2172 3584 2448 3432 
Q 2725 3281 2906 2969 
z
M 947 1747 
Q 947 1113 1208 752 
Q 1469 391 1925 391 
Q 2381 391 2643 752 
Q 2906 1113 2906 1747 
Q 2906 2381 2643 2742 
Q 2381 3103 1925 3103 
Q 1469 3103 1208 2742 
Q 947 2381 947 1747 
z
" transform="scale(0.015625)"/>
      </defs>
      <use xlink:href="#DejaVuSans-Oblique-64" transform="translate(0 0.015625)"/>
      <use xlink:href="#DejaVuSans-20" transform="translate(63.476562 0.015625)"/>
      <use xlink:href="#DejaVuSans-3c" transform="translate(95.263672 0.015625)"/>
      <use xlink:href="#DejaVuSans-20" transform="translate(179.052734 0.015625)"/>
      <use xlink:href="#DejaVuSans-63" transform="translate(210.839844 0.015625)"/>
      <use xlink:href="#DejaVuSans-72" transform="translate(265.820312 0.015625)"/>
      <use xlink:href="#DejaVuSans-69" transform="translate(306.933594 0.015625)"/>
      <use xlink:href="#DejaVuSans-74" transform="translate(334.716797 0.015625)"/>
      <use xlink:href="#DejaVuSans-69" transform="translate(373.925781 0.015625)"/>
      <use xlink:href="#DejaVuSans-63" transform="translate(401.708984 0.015625)"/>
      <use xlink:href="#DejaVuSans-61" transform="translate(456.689453 0.015625)"/>
      <use xlink:href="#DejaVuSans-6c" transform="translate(517.96875 0.015625)"/>
      <use xlink:href="#DejaVuSans-6c" transform="translate(545.751953 0.015625)"/>
      <use xlink:href="#DejaVuSans-79" transform="translate(573.535156 0.015625)"/>
      <use xlink:href="#DejaVuSans-20" transform="translate(632.714844 0.015625)"/>
      <use xlink:href="#DejaVuSans-64" transform="translate(664.501953 0.015625)"/>
      <use xlink:href="#DejaVuSans-61" transform="translate(727.978516 0.015625)"/>
      <use xlink:href="#DejaVuSans-6d" transform="translate(789.257812 0.015625)"/>
      <use xlink:href="#DejaVuSans-70" transform="translate(886.669922 0.015625)"/>
      <use xlink:href="#DejaVuSans-65" transform="translate(950.146484 0.015625)"/>
      <use xlink:href="#DejaVuSans-64" transform="translate(1011.669922 0.015625)"/>
      <use xlink:href="#DejaVuSans-20" transform="translate(1075.146484 0.015625)"/>
      <use xlink:href="#DejaVuSans-63" transform="translate(1106.933594 0.015625)"/>
      <use xlink:href="#DejaVuSans-6f" transform="translate(1161.914062 0.015625)"/>
      <use xlink:href="#DejaVuSans-6e" transform="translate(1223.095703 0.015625)"/>
      <use xlink:href="#DejaVuSans-73" transform="translate(1286.474609 0.015625)"/>
      <use xlink:href="#DejaVuSans-74" transform="translate(1338.574219 0.015625)"/>
      <use xlink:href="#DejaVuSans-72" transform="translate(1377.783203 0.015625)"/>
      <use xlink:href="#DejaVuSans-61" transform="translate(1418.896484 0.015625)"/>
      <use xlink:href="#DejaVuSans-69" transform="translate(1480.175781 0.015625)"/>
      <use xlink:href="#DejaVuSans-6e" transform="translate(1507.958984 0.015625)"/>
      <use xlink:href="#DejaVuSans-74" transform="translate(1571.337891 0.015625)"/>
     </g>
    </g>
    <g id="patch_8">
     <path d="M 12.8 194.24 
L 76.8 194.24 
L 76.8 171.84 
L 12.8 171.84 
z
" style="fill: #87ceeb; fill-opacity: 0.25; stroke: #87ceeb; stroke-opacity: 0.25; stroke-linejoin: miter"/>
    </g>
    <g id="text_12">
     <!-- admissible $h-d$ region -->
     <g transform="translate(102.4 194.24) scale(0.32 -0.32)">
      <defs>
       <path id="DejaVuSans-2212" d="M 678 2272 
L 4684 2272 
L 4684 1741 
L 678 1741 
L 678 2272 
z
" transform="scale(0.015625)"/>
      </defs>
      <use xlink:href="#DejaVuSans-61" transform="translate(0 0.015625)"/>
      <use xlink:href="#DejaVuSans-64" transform="translate(61.279297 0.015625)"/>
      <use xlink:href="#DejaVuSans-6d" transform="translate(124.755859 0.015625)"/>
      <use xlink:href="#DejaVuSans-69" transform="translate(222.167969 0.015625)"/>
      <use xlink:href="#DejaVuSans-73" transform="translate(249.951172 0.015625)"/>
      <use xlink:href="#DejaVuSans-73" transform="translate(302.050781 0.015625)"/>
      <use xlink:href="#DejaVuSans-69" transform="translate(354.150391 0.015625)"/>
      <use xlink:href="#DejaVuSans-62" transform="translate(381.933594 0.015625)"/>
      <use xlink:href="#DejaVuSans-6c" transform="translate(445.410156 0.015625)"/>
      <use xlink:href="#DejaVuSans-65" transform="translate(473.193359 0.015625)"/>
      <use xlink:href="#DejaVuSans-20" transform="translate(534.716797 0.015625)"/>
      <use xlink:href="#DejaVuSans-Oblique-68" transform="translate(566.503906 0.015625)"/>
      <use xlink:href="#DejaVuSans-2212" transform="translate(649.365234 0.015625)"/>
      <use xlink:href="#DejaVuSans-Oblique-64" transform="translate(752.636719 0.015625)"/>
      <use xlink:href="#DejaVuSans-20" transform="translate(816.113281 0.015625)"/>
      <use xlink:href="#DejaVuSans-72" transform="translate(847.900391 0.015625)"/>
      <use xlink:href="#DejaVuSans-65" transform="translate(889.013672 0.015625)"/>
      <use xlink:href="#DejaVuSans-67" transform="translate(950.537109 0.015625)"/>
      <use xlink:href="#DejaVuSans-69" transform="translate(1014.013672 0.015625)"/>
      <use xlink:href="#DejaVuSans-6f" transform="translate(1041.796875 0.015625)"/>
      <use xlink:href="#DejaVuSans-6e" transform="translate(1102.978516 0.015625)"/>
     </g>
    </g>
   </g>
  </g>
 </g>
 <defs>
  <clipPath id="p475cccd419">
   <rect x="222.784" y="-0" width="423.936" height="302.4"/>
  </clipPath>
 </defs>
</svg>
