<?xml version="1.0" encoding="utf-8" standalone="no"?>
<!DOCTYPE svg PUBLIC "-//W3C//DTD SVG 1.1//EN"
  "http://www.w3.org/Graphics/SVG/1.1/DTD/svg11.dtd">
<!-- Created with matplotlib (https://matplotlib.org/) -->
<svg height="476.64pt" version="1.1" viewBox="0 0 1375.92 476.64" width="1375.92pt" xmlns="http://www.w3.org/2000/svg" xmlns:xlink="http://www.w3.org/1999/xlink">
 <defs>
  <style type="text/css">
*{stroke-linecap:butt;stroke-linejoin:round;}
  </style>
 </defs>
 <g id="figure_1">
  <g id="patch_1">
   <path d="M 0 476.64 
L 1375.92 476.64 
L 1375.92 0 
L 0 0 
z
" style="fill:#ffffff;"/>
  </g>
  <g id="axes_1">
   <g id="patch_2">
    <path d="M 99.06624 211.393657 
L 1150.26912 211.393657 
L 1150.26912 23.35536 
L 99.06624 23.35536 
z
" style="fill:#ffffff;"/>
   </g>
   <g id="PolyCollection_1">
    <defs>
     <path d="M 337.710679 -453.28464 
L 337.710679 -265.246343 
L 340.550799 -265.246343 
L 343.412371 -265.246343 
L 346.230699 -265.246343 
L 349.072064 -265.246343 
L 351.913742 -265.246343 
L 354.753597 -265.246343 
L 357.598837 -265.246343 
L 360.437127 -265.246343 
L 363.27766 -265.246343 
L 366.118463 -265.246343 
L 368.959782 -265.246343 
L 371.800307 -265.246343 
L 374.641673 -265.246343 
L 377.482903 -265.246343 
L 380.324086 -265.246343 
L 383.165391 -265.246343 
L 386.006648 -265.246343 
L 388.87561 -265.246343 
L 391.692143 -265.246343 
L 394.5304 -265.246343 
L 397.370743 -265.246343 
L 400.211661 -265.246343 
L 403.05365 -265.246343 
L 405.894406 -265.246343 
L 408.735332 -265.246343 
L 411.576643 -265.246343 
L 414.419486 -265.246343 
L 417.259795 -265.246343 
L 420.098485 -265.246343 
L 422.940758 -265.246343 
L 425.784305 -265.246343 
L 428.623693 -265.246343 
L 431.465187 -265.246343 
L 434.305828 -265.246343 
L 437.147945 -265.246343 
L 439.989135 -265.246343 
L 442.828272 -265.246343 
L 445.669685 -265.246343 
L 448.511681 -265.246343 
L 451.352085 -265.246343 
L 454.194575 -265.246343 
L 457.048492 -265.246343 
L 459.8769 -265.246343 
L 462.715779 -265.246343 
L 465.557653 -265.246343 
L 468.39927 -265.246343 
L 471.240351 -265.246343 
L 474.081445 -265.246343 
L 476.922479 -265.246343 
L 479.763574 -265.246343 
L 482.606247 -265.246343 
L 485.446793 -265.246343 
L 488.28675 -265.246343 
L 491.128068 -265.246343 
L 493.969285 -265.246343 
L 496.810556 -265.246343 
L 499.651942 -265.246343 
L 502.492738 -265.246343 
L 505.334944 -265.246343 
L 508.175829 -265.246343 
L 511.016233 -265.246343 
L 513.856359 -265.246343 
L 516.698056 -265.246343 
L 519.539544 -265.246343 
L 522.380639 -265.246343 
L 525.22174 -265.246343 
L 528.063905 -265.246343 
L 530.90498 -265.246343 
L 533.744394 -265.246343 
L 536.586268 -265.246343 
L 539.428332 -265.246343 
L 542.268688 -265.246343 
L 545.10939 -265.246343 
L 547.950674 -265.246343 
L 550.792751 -265.246343 
L 553.637754 -265.246343 
L 556.473552 -265.246343 
L 559.314606 -265.246343 
L 562.156487 -265.246343 
L 564.997554 -265.246343 
L 567.83936 -265.246343 
L 570.679757 -265.246343 
L 573.523921 -265.246343 
L 576.361046 -265.246343 
L 579.215526 -265.246343 
L 582.044197 -265.246343 
L 584.885814 -265.246343 
L 587.727098 -265.246343 
L 590.567495 -265.246343 
L 593.409328 -265.246343 
L 596.251053 -265.246343 
L 599.091667 -265.246343 
L 601.931427 -265.246343 
L 604.772257 -265.246343 
L 607.614368 -265.246343 
L 610.455585 -265.246343 
L 613.296835 -265.246343 
L 616.138215 -265.246343 
L 618.979242 -265.246343 
L 621.820445 -265.246343 
L 624.661282 -265.246343 
L 627.501713 -265.246343 
L 630.349649 -265.246343 
L 633.18481 -265.246343 
L 636.02577 -265.246343 
L 638.866993 -265.246343 
L 641.709063 -265.246343 
L 644.548986 -265.246343 
L 647.389132 -265.246343 
L 650.241411 -265.246343 
L 653.072758 -265.246343 
L 655.913866 -265.246343 
L 658.755855 -265.246343 
L 661.597959 -265.246343 
L 664.437902 -265.246343 
L 667.278442 -265.246343 
L 670.121724 -265.246343 
L 672.959757 -265.246343 
L 675.801509 -265.246343 
L 678.642827 -265.246343 
L 681.483895 -265.246343 
L 684.325146 -265.246343 
L 687.169295 -265.246343 
L 690.006752 -265.246343 
L 692.852724 -265.246343 
L 695.689044 -265.246343 
L 698.530457 -265.246343 
L 701.372012 -265.246343 
L 704.213635 -265.246343 
L 707.054222 -265.246343 
L 709.896068 -265.246343 
L 712.736662 -265.246343 
L 715.576361 -265.246343 
L 718.416596 -265.246343 
L 721.258849 -265.246343 
L 724.100756 -265.246343 
L 726.942224 -265.246343 
L 729.783095 -265.246343 
L 732.624759 -265.246343 
L 735.465745 -265.246343 
L 738.306101 -265.246343 
L 741.147 -265.246343 
L 743.98783 -265.246343 
L 746.833667 -265.246343 
L 749.671706 -265.246343 
L 752.51251 -265.246343 
L 755.35435 -265.246343 
L 758.194835 -265.246343 
L 761.035388 -265.246343 
L 763.875493 -265.246343 
L 766.717239 -265.246343 
L 769.558096 -265.246343 
L 772.399956 -265.246343 
L 775.256807 -265.246343 
L 778.084368 -265.246343 
L 780.923423 -265.246343 
L 783.763008 -265.246343 
L 786.603859 -265.246343 
L 789.446308 -265.246343 
L 792.288148 -265.246343 
L 795.129696 -265.246343 
L 797.970656 -265.246343 
L 800.811622 -265.246343 
L 803.652832 -265.246343 
L 806.492965 -265.246343 
L 809.343671 -265.246343 
L 812.175533 -265.246343 
L 815.016933 -265.246343 
L 817.858332 -265.246343 
L 820.69982 -265.246343 
L 823.54103 -265.246343 
L 826.382951 -265.246343 
L 829.221397 -265.246343 
L 832.064037 -265.246343 
L 834.905179 -265.246343 
L 837.746273 -265.246343 
L 840.587395 -265.246343 
L 843.428341 -265.246343 
L 846.270885 -265.246343 
L 849.110917 -265.246343 
L 851.951977 -265.246343 
L 854.793079 -265.246343 
L 857.63416 -265.246343 
L 860.475621 -265.246343 
L 863.316614 -265.246343 
L 866.158806 -265.246343 
L 868.999305 -265.246343 
L 871.839878 -265.246343 
L 874.680566 -265.246343 
L 877.522596 -265.246343 
L 880.362925 -265.246343 
L 883.204331 -265.246343 
L 886.045927 -265.246343 
L 888.887239 -265.246343 
L 891.727717 -265.246343 
L 894.568832 -265.246343 
L 897.408775 -265.246343 
L 900.25071 -265.246343 
L 903.091412 -265.246343 
L 905.933604 -265.246343 
L 908.774387 -265.246343 
L 911.615685 -265.246343 
L 914.458927 -265.246343 
L 917.298247 -265.246343 
L 920.138062 -265.246343 
L 922.97854 -265.246343 
L 925.820773 -265.246343 
L 928.663154 -265.246343 
L 931.504398 -265.246343 
L 934.34657 -265.246343 
L 937.186053 -265.246343 
L 940.03214 -265.246343 
L 942.866752 -265.246343 
L 945.716849 -265.246343 
L 948.549923 -265.246343 
L 951.39154 -265.246343 
L 954.233143 -265.246343 
L 957.074474 -265.246343 
L 959.915434 -265.246343 
L 962.75619 -265.246343 
L 965.596472 -265.246343 
L 968.437336 -265.246343 
L 971.281858 -265.246343 
L 974.127322 -265.246343 
L 976.968952 -265.246343 
L 979.802724 -265.246343 
L 982.643799 -265.246343 
L 985.48889 -265.246343 
L 988.326347 -265.246343 
L 991.168113 -265.246343 
L 994.007372 -265.246343 
L 996.849198 -265.246343 
L 999.691458 -265.246343 
L 1002.532099 -265.246343 
L 1005.373756 -265.246343 
L 1008.214308 -265.246343 
L 1011.068612 -265.246343 
L 1013.897419 -265.246343 
L 1016.738927 -265.246343 
L 1019.579378 -265.246343 
L 1022.420453 -265.246343 
L 1025.260674 -265.246343 
L 1028.102541 -265.246343 
L 1030.942071 -265.246343 
L 1033.783836 -265.246343 
L 1036.62529 -265.246343 
L 1039.466574 -265.246343 
L 1042.308495 -265.246343 
L 1045.149055 -265.246343 
L 1047.989581 -265.246343 
L 1050.830994 -265.246343 
L 1053.67406 -265.246343 
L 1056.514308 -265.246343 
L 1059.353831 -265.246343 
L 1062.195075 -265.246343 
L 1065.036562 -265.246343 
L 1067.877718 -265.246343 
L 1070.718941 -265.246343 
L 1073.560747 -265.246343 
L 1076.406638 -265.246343 
L 1079.242747 -265.246343 
L 1082.083449 -265.246343 
L 1084.924639 -265.246343 
L 1087.76635 -265.246343 
L 1090.607004 -265.246343 
L 1093.449142 -265.246343 
L 1096.289255 -265.246343 
L 1099.128954 -265.246343 
L 1101.971803 -265.246343 
L 1104.812302 -265.246343 
L 1107.653207 -265.246343 
L 1110.500838 -265.246343 
L 1113.336074 -265.246343 
L 1116.1775 -265.246343 
L 1119.018284 -265.246343 
L 1121.872967 -265.246343 
L 1124.700995 -265.246343 
L 1127.540037 -265.246343 
L 1130.382066 -265.246343 
L 1133.223554 -265.246343 
L 1136.064215 -265.246343 
L 1138.90554 -265.246343 
L 1141.777219 -265.246343 
L 1144.589213 -265.246343 
L 1147.429373 -265.246343 
L 1150.26912 -265.246343 
L 1150.26912 -453.28464 
L 1150.26912 -453.28464 
L 1147.429373 -453.28464 
L 1144.589213 -453.28464 
L 1141.777219 -453.28464 
L 1138.90554 -453.28464 
L 1136.064215 -453.28464 
L 1133.223554 -453.28464 
L 1130.382066 -453.28464 
L 1127.540037 -453.28464 
L 1124.700995 -453.28464 
L 1121.872967 -453.28464 
L 1119.018284 -453.28464 
L 1116.1775 -453.28464 
L 1113.336074 -453.28464 
L 1110.500838 -453.28464 
L 1107.653207 -453.28464 
L 1104.812302 -453.28464 
L 1101.971803 -453.28464 
L 1099.128954 -453.28464 
L 1096.289255 -453.28464 
L 1093.449142 -453.28464 
L 1090.607004 -453.28464 
L 1087.76635 -453.28464 
L 1084.924639 -453.28464 
L 1082.083449 -453.28464 
L 1079.242747 -453.28464 
L 1076.406638 -453.28464 
L 1073.560747 -453.28464 
L 1070.718941 -453.28464 
L 1067.877718 -453.28464 
L 1065.036562 -453.28464 
L 1062.195075 -453.28464 
L 1059.353831 -453.28464 
L 1056.514308 -453.28464 
L 1053.67406 -453.28464 
L 1050.830994 -453.28464 
L 1047.989581 -453.28464 
L 1045.149055 -453.28464 
L 1042.308495 -453.28464 
L 1039.466574 -453.28464 
L 1036.62529 -453.28464 
L 1033.783836 -453.28464 
L 1030.942071 -453.28464 
L 1028.102541 -453.28464 
L 1025.260674 -453.28464 
L 1022.420453 -453.28464 
L 1019.579378 -453.28464 
L 1016.738927 -453.28464 
L 1013.897419 -453.28464 
L 1011.068612 -453.28464 
L 1008.214308 -453.28464 
L 1005.373756 -453.28464 
L 1002.532099 -453.28464 
L 999.691458 -453.28464 
L 996.849198 -453.28464 
L 994.007372 -453.28464 
L 991.168113 -453.28464 
L 988.326347 -453.28464 
L 985.48889 -453.28464 
L 982.643799 -453.28464 
L 979.802724 -453.28464 
L 976.968952 -453.28464 
L 974.127322 -453.28464 
L 971.281858 -453.28464 
L 968.437336 -453.28464 
L 965.596472 -453.28464 
L 962.75619 -453.28464 
L 959.915434 -453.28464 
L 957.074474 -453.28464 
L 954.233143 -453.28464 
L 951.39154 -453.28464 
L 948.549923 -453.28464 
L 945.716849 -453.28464 
L 942.866752 -453.28464 
L 940.03214 -453.28464 
L 937.186053 -453.28464 
L 934.34657 -453.28464 
L 931.504398 -453.28464 
L 928.663154 -453.28464 
L 925.820773 -453.28464 
L 922.97854 -453.28464 
L 920.138062 -453.28464 
L 917.298247 -453.28464 
L 914.458927 -453.28464 
L 911.615685 -453.28464 
L 908.774387 -453.28464 
L 905.933604 -453.28464 
L 903.091412 -453.28464 
L 900.25071 -453.28464 
L 897.408775 -453.28464 
L 894.568832 -453.28464 
L 891.727717 -453.28464 
L 888.887239 -453.28464 
L 886.045927 -453.28464 
L 883.204331 -453.28464 
L 880.362925 -453.28464 
L 877.522596 -453.28464 
L 874.680566 -453.28464 
L 871.839878 -453.28464 
L 868.999305 -453.28464 
L 866.158806 -453.28464 
L 863.316614 -453.28464 
L 860.475621 -453.28464 
L 857.63416 -453.28464 
L 854.793079 -453.28464 
L 851.951977 -453.28464 
L 849.110917 -453.28464 
L 846.270885 -453.28464 
L 843.428341 -453.28464 
L 840.587395 -453.28464 
L 837.746273 -453.28464 
L 834.905179 -453.28464 
L 832.064037 -453.28464 
L 829.221397 -453.28464 
L 826.382951 -453.28464 
L 823.54103 -453.28464 
L 820.69982 -453.28464 
L 817.858332 -453.28464 
L 815.016933 -453.28464 
L 812.175533 -453.28464 
L 809.343671 -453.28464 
L 806.492965 -453.28464 
L 803.652832 -453.28464 
L 800.811622 -453.28464 
L 797.970656 -453.28464 
L 795.129696 -453.28464 
L 792.288148 -453.28464 
L 789.446308 -453.28464 
L 786.603859 -453.28464 
L 783.763008 -453.28464 
L 780.923423 -453.28464 
L 778.084368 -453.28464 
L 775.256807 -453.28464 
L 772.399956 -453.28464 
L 769.558096 -453.28464 
L 766.717239 -453.28464 
L 763.875493 -453.28464 
L 761.035388 -453.28464 
L 758.194835 -453.28464 
L 755.35435 -453.28464 
L 752.51251 -453.28464 
L 749.671706 -453.28464 
L 746.833667 -453.28464 
L 743.98783 -453.28464 
L 741.147 -453.28464 
L 738.306101 -453.28464 
L 735.465745 -453.28464 
L 732.624759 -453.28464 
L 729.783095 -453.28464 
L 726.942224 -453.28464 
L 724.100756 -453.28464 
L 721.258849 -453.28464 
L 718.416596 -453.28464 
L 715.576361 -453.28464 
L 712.736662 -453.28464 
L 709.896068 -453.28464 
L 707.054222 -453.28464 
L 704.213635 -453.28464 
L 701.372012 -453.28464 
L 698.530457 -453.28464 
L 695.689044 -453.28464 
L 692.852724 -453.28464 
L 690.006752 -453.28464 
L 687.169295 -453.28464 
L 684.325146 -453.28464 
L 681.483895 -453.28464 
L 678.642827 -453.28464 
L 675.801509 -453.28464 
L 672.959757 -453.28464 
L 670.121724 -453.28464 
L 667.278442 -453.28464 
L 664.437902 -453.28464 
L 661.597959 -453.28464 
L 658.755855 -453.28464 
L 655.913866 -453.28464 
L 653.072758 -453.28464 
L 650.241411 -453.28464 
L 647.389132 -453.28464 
L 644.548986 -453.28464 
L 641.709063 -453.28464 
L 638.866993 -453.28464 
L 636.02577 -453.28464 
L 633.18481 -453.28464 
L 630.349649 -453.28464 
L 627.501713 -453.28464 
L 624.661282 -453.28464 
L 621.820445 -453.28464 
L 618.979242 -453.28464 
L 616.138215 -453.28464 
L 613.296835 -453.28464 
L 610.455585 -453.28464 
L 607.614368 -453.28464 
L 604.772257 -453.28464 
L 601.931427 -453.28464 
L 599.091667 -453.28464 
L 596.251053 -453.28464 
L 593.409328 -453.28464 
L 590.567495 -453.28464 
L 587.727098 -453.28464 
L 584.885814 -453.28464 
L 582.044197 -453.28464 
L 579.215526 -453.28464 
L 576.361046 -453.28464 
L 573.523921 -453.28464 
L 570.679757 -453.28464 
L 567.83936 -453.28464 
L 564.997554 -453.28464 
L 562.156487 -453.28464 
L 559.314606 -453.28464 
L 556.473552 -453.28464 
L 553.637754 -453.28464 
L 550.792751 -453.28464 
L 547.950674 -453.28464 
L 545.10939 -453.28464 
L 542.268688 -453.28464 
L 539.428332 -453.28464 
L 536.586268 -453.28464 
L 533.744394 -453.28464 
L 530.90498 -453.28464 
L 528.063905 -453.28464 
L 525.22174 -453.28464 
L 522.380639 -453.28464 
L 519.539544 -453.28464 
L 516.698056 -453.28464 
L 513.856359 -453.28464 
L 511.016233 -453.28464 
L 508.175829 -453.28464 
L 505.334944 -453.28464 
L 502.492738 -453.28464 
L 499.651942 -453.28464 
L 496.810556 -453.28464 
L 493.969285 -453.28464 
L 491.128068 -453.28464 
L 488.28675 -453.28464 
L 485.446793 -453.28464 
L 482.606247 -453.28464 
L 479.763574 -453.28464 
L 476.922479 -453.28464 
L 474.081445 -453.28464 
L 471.240351 -453.28464 
L 468.39927 -453.28464 
L 465.557653 -453.28464 
L 462.715779 -453.28464 
L 459.8769 -453.28464 
L 457.048492 -453.28464 
L 454.194575 -453.28464 
L 451.352085 -453.28464 
L 448.511681 -453.28464 
L 445.669685 -453.28464 
L 442.828272 -453.28464 
L 439.989135 -453.28464 
L 437.147945 -453.28464 
L 434.305828 -453.28464 
L 431.465187 -453.28464 
L 428.623693 -453.28464 
L 425.784305 -453.28464 
L 422.940758 -453.28464 
L 420.098485 -453.28464 
L 417.259795 -453.28464 
L 414.419486 -453.28464 
L 411.576643 -453.28464 
L 408.735332 -453.28464 
L 405.894406 -453.28464 
L 403.05365 -453.28464 
L 400.211661 -453.28464 
L 397.370743 -453.28464 
L 394.5304 -453.28464 
L 391.692143 -453.28464 
L 388.87561 -453.28464 
L 386.006648 -453.28464 
L 383.165391 -453.28464 
L 380.324086 -453.28464 
L 377.482903 -453.28464 
L 374.641673 -453.28464 
L 371.800307 -453.28464 
L 368.959782 -453.28464 
L 366.118463 -453.28464 
L 363.27766 -453.28464 
L 360.437127 -453.28464 
L 357.598837 -453.28464 
L 354.753597 -453.28464 
L 351.913742 -453.28464 
L 349.072064 -453.28464 
L 346.230699 -453.28464 
L 343.412371 -453.28464 
L 340.550799 -453.28464 
L 337.710679 -453.28464 
z
" id="maa34e22e96" style="stroke:#ff4500;stroke-opacity:0.1;stroke-width:3;"/>
    </defs>
    <g clip-path="url(#p7309581d3d)">
     <use style="fill:#ff4500;fill-opacity:0.1;stroke:#ff4500;stroke-opacity:0.1;stroke-width:3;" x="0" xlink:href="#maa34e22e96" y="476.64"/>
    </g>
   </g>
   <g id="matplotlib.axis_1">
    <g id="xtick_1">
     <g id="line2d_1">
      <defs>
       <path d="M 0 0 
L 0 3.5 
" id="m6e8a59d8ca" style="stroke:#000000;stroke-width:0.8;"/>
      </defs>
      <g>
       <use style="stroke:#000000;stroke-width:0.8;" x="99.06624" xlink:href="#m6e8a59d8ca" y="211.393657"/>
      </g>
     </g>
    </g>
    <g id="xtick_2">
     <g id="line2d_2">
      <g>
       <use style="stroke:#000000;stroke-width:0.8;" x="241.122806" xlink:href="#m6e8a59d8ca" y="211.393657"/>
      </g>
     </g>
    </g>
    <g id="xtick_3">
     <g id="line2d_3">
      <g>
       <use style="stroke:#000000;stroke-width:0.8;" x="383.179372" xlink:href="#m6e8a59d8ca" y="211.393657"/>
      </g>
     </g>
    </g>
    <g id="xtick_4">
     <g id="line2d_4">
      <g>
       <use style="stroke:#000000;stroke-width:0.8;" x="525.235938" xlink:href="#m6e8a59d8ca" y="211.393657"/>
      </g>
     </g>
    </g>
    <g id="xtick_5">
     <g id="line2d_5">
      <g>
       <use style="stroke:#000000;stroke-width:0.8;" x="667.292504" xlink:href="#m6e8a59d8ca" y="211.393657"/>
      </g>
     </g>
    </g>
    <g id="xtick_6">
     <g id="line2d_6">
      <g>
       <use style="stroke:#000000;stroke-width:0.8;" x="809.34907" xlink:href="#m6e8a59d8ca" y="211.393657"/>
      </g>
     </g>
    </g>
    <g id="xtick_7">
     <g id="line2d_7">
      <g>
       <use style="stroke:#000000;stroke-width:0.8;" x="951.405636" xlink:href="#m6e8a59d8ca" y="211.393657"/>
      </g>
     </g>
    </g>
    <g id="xtick_8">
     <g id="line2d_8">
      <g>
       <use style="stroke:#000000;stroke-width:0.8;" x="1093.462202" xlink:href="#m6e8a59d8ca" y="211.393657"/>
      </g>
     </g>
    </g>
   </g>
   <g id="matplotlib.axis_2">
    <g id="ytick_1">
     <g id="line2d_9">
      <defs>
       <path d="M 0 0 
L -3.5 0 
" id="m4934300a3f" style="stroke:#000000;stroke-width:0.8;"/>
      </defs>
      <g>
       <use style="stroke:#000000;stroke-width:0.8;" x="99.06624" xlink:href="#m4934300a3f" y="195.723799"/>
      </g>
     </g>
     <g id="text_1">
      <!-- −1 -->
      <defs>
       <path d="M 10.59375 35.296875 
L 73.1875 35.296875 
L 73.1875 27.390625 
L 10.59375 27.390625 
z
" id="DejaVuSerif-8722"/>
       <path d="M 14.203125 0 
L 14.203125 5.171875 
L 26.90625 5.171875 
L 26.90625 65.828125 
L 12.203125 56.296875 
L 12.203125 62.703125 
L 29.984375 74.21875 
L 36.71875 74.21875 
L 36.71875 5.171875 
L 49.421875 5.171875 
L 49.421875 0 
z
" id="DejaVuSerif-49"/>
      </defs>
      <g transform="translate(62.581865 203.322237)scale(0.2 -0.2)">
       <use xlink:href="#DejaVuSerif-8722"/>
       <use x="83.789062" xlink:href="#DejaVuSerif-49"/>
      </g>
     </g>
    </g>
    <g id="ytick_2">
     <g id="line2d_10">
      <g>
       <use style="stroke:#000000;stroke-width:0.8;" x="99.06624" xlink:href="#m4934300a3f" y="117.374509"/>
      </g>
     </g>
     <g id="text_2">
      <!-- 0 -->
      <defs>
       <path d="M 31.78125 3.421875 
Q 39.265625 3.421875 42.96875 11.625 
Q 46.6875 19.828125 46.6875 36.375 
Q 46.6875 52.984375 42.96875 61.1875 
Q 39.265625 69.390625 31.78125 69.390625 
Q 24.3125 69.390625 20.59375 61.1875 
Q 16.890625 52.984375 16.890625 36.375 
Q 16.890625 19.828125 20.59375 11.625 
Q 24.3125 3.421875 31.78125 3.421875 
z
M 31.78125 -1.421875 
Q 19.921875 -1.421875 13.25 8.53125 
Q 6.59375 18.5 6.59375 36.375 
Q 6.59375 54.296875 13.25 64.25 
Q 19.921875 74.21875 31.78125 74.21875 
Q 43.703125 74.21875 50.34375 64.25 
Q 56.984375 54.296875 56.984375 36.375 
Q 56.984375 18.5 50.34375 8.53125 
Q 43.703125 -1.421875 31.78125 -1.421875 
z
" id="DejaVuSerif-48"/>
      </defs>
      <g transform="translate(79.34124 124.972946)scale(0.2 -0.2)">
       <use xlink:href="#DejaVuSerif-48"/>
      </g>
     </g>
    </g>
    <g id="ytick_3">
     <g id="line2d_11">
      <g>
       <use style="stroke:#000000;stroke-width:0.8;" x="99.06624" xlink:href="#m4934300a3f" y="39.025218"/>
      </g>
     </g>
     <g id="text_3">
      <!-- 1 -->
      <g transform="translate(79.34124 46.623656)scale(0.2 -0.2)">
       <use xlink:href="#DejaVuSerif-49"/>
      </g>
     </g>
    </g>
    <g id="text_4">
     <!-- Acceleration 1 [m/s^2] -->
     <defs>
      <path d="M 20.015625 26.421875 
L 46.78125 26.421875 
L 33.40625 61.078125 
z
M -0.59375 0 
L -0.59375 5.171875 
L 5.8125 5.171875 
L 31.78125 72.90625 
L 39.984375 72.90625 
L 66.015625 5.171875 
L 73.1875 5.171875 
L 73.1875 0 
L 46.6875 0 
L 46.6875 5.171875 
L 54.78125 5.171875 
L 48.6875 21.1875 
L 18.015625 21.1875 
L 11.921875 5.171875 
L 19.921875 5.171875 
L 19.921875 0 
z
" id="DejaVuSerif-65"/>
      <path d="M 51.421875 15.578125 
Q 49.515625 7.28125 44.09375 2.921875 
Q 38.671875 -1.421875 30.078125 -1.421875 
Q 18.75 -1.421875 11.859375 6.078125 
Q 4.984375 13.578125 4.984375 25.984375 
Q 4.984375 38.421875 11.859375 45.875 
Q 18.75 53.328125 30.078125 53.328125 
Q 35.015625 53.328125 39.890625 52.171875 
Q 44.78125 51.03125 49.703125 48.6875 
L 49.703125 35.40625 
L 44.484375 35.40625 
Q 43.453125 42.234375 40.015625 45.359375 
Q 36.578125 48.484375 30.171875 48.484375 
Q 22.90625 48.484375 19.1875 42.84375 
Q 15.484375 37.203125 15.484375 25.984375 
Q 15.484375 14.75 19.171875 9.078125 
Q 22.859375 3.421875 30.171875 3.421875 
Q 35.984375 3.421875 39.453125 6.4375 
Q 42.921875 9.46875 44.1875 15.578125 
z
" id="DejaVuSerif-99"/>
      <path d="M 54.203125 25 
L 15.484375 25 
L 15.484375 24.609375 
Q 15.484375 14.109375 19.4375 8.765625 
Q 23.390625 3.421875 31.109375 3.421875 
Q 37.015625 3.421875 40.796875 6.515625 
Q 44.578125 9.625 46.09375 15.71875 
L 53.328125 15.71875 
Q 51.171875 7.171875 45.375 2.875 
Q 39.59375 -1.421875 30.171875 -1.421875 
Q 18.796875 -1.421875 11.890625 6.078125 
Q 4.984375 13.578125 4.984375 25.984375 
Q 4.984375 38.28125 11.765625 45.796875 
Q 18.5625 53.328125 29.59375 53.328125 
Q 41.359375 53.328125 47.65625 46.0625 
Q 53.953125 38.8125 54.203125 25 
z
M 43.609375 30.171875 
Q 43.3125 39.265625 39.765625 43.875 
Q 36.234375 48.484375 29.59375 48.484375 
Q 23.390625 48.484375 19.828125 43.84375 
Q 16.265625 39.203125 15.484375 30.171875 
z
" id="DejaVuSerif-101"/>
      <path d="M 20.515625 5.171875 
L 29 5.171875 
L 29 0 
L 2.875 0 
L 2.875 5.171875 
L 11.53125 5.171875 
L 11.53125 70.796875 
L 2.875 70.796875 
L 2.875 75.984375 
L 20.515625 75.984375 
z
" id="DejaVuSerif-108"/>
      <path d="M 47.796875 52 
L 47.796875 39.015625 
L 42.625 39.015625 
Q 42.390625 42.875 40.484375 44.78125 
Q 38.578125 46.6875 34.90625 46.6875 
Q 28.265625 46.6875 24.71875 42.09375 
Q 21.1875 37.5 21.1875 28.90625 
L 21.1875 5.171875 
L 31.59375 5.171875 
L 31.59375 0 
L 4.109375 0 
L 4.109375 5.171875 
L 12.203125 5.171875 
L 12.203125 46.78125 
L 3.609375 46.78125 
L 3.609375 51.90625 
L 21.1875 51.90625 
L 21.1875 42.671875 
Q 23.828125 48.09375 27.96875 50.703125 
Q 32.125 53.328125 38.09375 53.328125 
Q 40.28125 53.328125 42.703125 52.984375 
Q 45.125 52.640625 47.796875 52 
z
" id="DejaVuSerif-114"/>
      <path d="M 39.796875 16.3125 
L 39.796875 27.296875 
L 28.21875 27.296875 
Q 21.53125 27.296875 18.25 24.40625 
Q 14.984375 21.53125 14.984375 15.578125 
Q 14.984375 10.15625 18.296875 6.984375 
Q 21.625 3.8125 27.296875 3.8125 
Q 32.90625 3.8125 36.34375 7.28125 
Q 39.796875 10.75 39.796875 16.3125 
z
M 48.78125 32.421875 
L 48.78125 5.171875 
L 56.78125 5.171875 
L 56.78125 0 
L 39.796875 0 
L 39.796875 5.609375 
Q 36.8125 2 32.90625 0.28125 
Q 29 -1.421875 23.78125 -1.421875 
Q 15.140625 -1.421875 10.0625 3.171875 
Q 4.984375 7.765625 4.984375 15.578125 
Q 4.984375 23.640625 10.796875 28.078125 
Q 16.609375 32.515625 27.203125 32.515625 
L 39.796875 32.515625 
L 39.796875 36.078125 
Q 39.796875 42 36.203125 45.234375 
Q 32.625 48.484375 26.125 48.484375 
Q 20.75 48.484375 17.578125 46.046875 
Q 14.40625 43.609375 13.625 38.8125 
L 8.984375 38.8125 
L 8.984375 49.3125 
Q 13.671875 51.3125 18.09375 52.3125 
Q 22.515625 53.328125 26.703125 53.328125 
Q 37.5 53.328125 43.140625 47.96875 
Q 48.78125 42.625 48.78125 32.421875 
z
" id="DejaVuSerif-97"/>
      <path d="M 10.796875 46.6875 
L 2.875 46.6875 
L 2.875 51.90625 
L 10.796875 51.90625 
L 10.796875 68.015625 
L 19.828125 68.015625 
L 19.828125 51.90625 
L 36.71875 51.90625 
L 36.71875 46.6875 
L 19.828125 46.6875 
L 19.828125 13.71875 
Q 19.828125 7.125 21.09375 5.265625 
Q 22.359375 3.421875 25.78125 3.421875 
Q 29.296875 3.421875 30.90625 5.484375 
Q 32.515625 7.5625 32.625 12.203125 
L 39.40625 12.203125 
Q 39.015625 5.125 35.546875 1.84375 
Q 32.078125 -1.421875 25 -1.421875 
Q 17.234375 -1.421875 14.015625 2.015625 
Q 10.796875 5.46875 10.796875 13.71875 
z
" id="DejaVuSerif-116"/>
      <path d="M 9.71875 68.015625 
Q 9.71875 70.265625 11.34375 71.921875 
Q 12.984375 73.578125 15.28125 73.578125 
Q 17.53125 73.578125 19.15625 71.921875 
Q 20.796875 70.265625 20.796875 68.015625 
Q 20.796875 65.71875 19.1875 64.109375 
Q 17.578125 62.5 15.28125 62.5 
Q 12.984375 62.5 11.34375 64.109375 
Q 9.71875 65.71875 9.71875 68.015625 
z
M 21.1875 5.171875 
L 29.6875 5.171875 
L 29.6875 0 
L 3.609375 0 
L 3.609375 5.171875 
L 12.203125 5.171875 
L 12.203125 46.6875 
L 3.609375 46.6875 
L 3.609375 51.90625 
L 21.1875 51.90625 
z
" id="DejaVuSerif-105"/>
      <path d="M 30.078125 3.421875 
Q 37.3125 3.421875 40.984375 9.125 
Q 44.671875 14.84375 44.671875 25.984375 
Q 44.671875 37.109375 40.984375 42.796875 
Q 37.3125 48.484375 30.078125 48.484375 
Q 22.859375 48.484375 19.171875 42.796875 
Q 15.484375 37.109375 15.484375 25.984375 
Q 15.484375 14.84375 19.1875 9.125 
Q 22.90625 3.421875 30.078125 3.421875 
z
M 30.078125 -1.421875 
Q 18.75 -1.421875 11.859375 6.078125 
Q 4.984375 13.578125 4.984375 25.984375 
Q 4.984375 38.375 11.84375 45.84375 
Q 18.703125 53.328125 30.078125 53.328125 
Q 41.453125 53.328125 48.3125 45.84375 
Q 55.171875 38.375 55.171875 25.984375 
Q 55.171875 13.578125 48.3125 6.078125 
Q 41.453125 -1.421875 30.078125 -1.421875 
z
" id="DejaVuSerif-111"/>
      <path d="M 4.109375 0 
L 4.109375 5.171875 
L 12.203125 5.171875 
L 12.203125 46.6875 
L 3.609375 46.6875 
L 3.609375 51.90625 
L 21.1875 51.90625 
L 21.1875 42.671875 
Q 23.6875 47.953125 27.65625 50.640625 
Q 31.640625 53.328125 36.921875 53.328125 
Q 45.515625 53.328125 49.5625 48.390625 
Q 53.609375 43.453125 53.609375 33.015625 
L 53.609375 5.171875 
L 61.625 5.171875 
L 61.625 0 
L 36.8125 0 
L 36.8125 5.171875 
L 44.578125 5.171875 
L 44.578125 30.171875 
Q 44.578125 39.703125 42.234375 43.234375 
Q 39.890625 46.78125 33.984375 46.78125 
Q 27.734375 46.78125 24.453125 42.203125 
Q 21.1875 37.640625 21.1875 28.90625 
L 21.1875 5.171875 
L 29 5.171875 
L 29 0 
z
" id="DejaVuSerif-110"/>
      <path id="DejaVuSerif-32"/>
      <path d="M 8.59375 75.984375 
L 31.296875 75.984375 
L 31.296875 70.796875 
L 17.921875 70.796875 
L 17.921875 -8.015625 
L 31.296875 -8.015625 
L 31.296875 -13.1875 
L 8.59375 -13.1875 
z
" id="DejaVuSerif-91"/>
      <path d="M 51.8125 41.796875 
Q 54.390625 47.515625 58.421875 50.421875 
Q 62.453125 53.328125 67.828125 53.328125 
Q 75.984375 53.328125 79.984375 48.265625 
Q 83.984375 43.21875 83.984375 33.015625 
L 83.984375 5.171875 
L 92.09375 5.171875 
L 92.09375 0 
L 67.1875 0 
L 67.1875 5.171875 
L 75 5.171875 
L 75 31.984375 
Q 75 39.9375 72.65625 43.3125 
Q 70.3125 46.6875 64.890625 46.6875 
Q 58.890625 46.6875 55.734375 42.140625 
Q 52.59375 37.59375 52.59375 28.90625 
L 52.59375 5.171875 
L 60.40625 5.171875 
L 60.40625 0 
L 35.796875 0 
L 35.796875 5.171875 
L 43.609375 5.171875 
L 43.609375 32.328125 
Q 43.609375 40.09375 41.265625 43.390625 
Q 38.921875 46.6875 33.5 46.6875 
Q 27.484375 46.6875 24.328125 42.140625 
Q 21.1875 37.59375 21.1875 28.90625 
L 21.1875 5.171875 
L 29 5.171875 
L 29 0 
L 4.109375 0 
L 4.109375 5.171875 
L 12.203125 5.171875 
L 12.203125 46.78125 
L 3.609375 46.78125 
L 3.609375 51.90625 
L 21.1875 51.90625 
L 21.1875 42.671875 
Q 23.6875 47.859375 27.53125 50.59375 
Q 31.390625 53.328125 36.28125 53.328125 
Q 42.328125 53.328125 46.375 50.3125 
Q 50.4375 47.3125 51.8125 41.796875 
z
" id="DejaVuSerif-109"/>
      <path d="M 25.875 72.90625 
L 33.6875 72.90625 
L 7.8125 -9.28125 
L 0 -9.28125 
z
" id="DejaVuSerif-47"/>
      <path d="M 5.609375 2.875 
L 5.609375 14.984375 
L 10.796875 14.984375 
Q 10.984375 9.1875 14.421875 6.296875 
Q 17.875 3.421875 24.609375 3.421875 
Q 30.671875 3.421875 33.84375 5.6875 
Q 37.015625 7.953125 37.015625 12.3125 
Q 37.015625 15.71875 34.6875 17.8125 
Q 32.375 19.921875 24.90625 22.3125 
L 18.40625 24.515625 
Q 11.71875 26.65625 8.71875 29.875 
Q 5.71875 33.109375 5.71875 38.09375 
Q 5.71875 45.21875 10.9375 49.265625 
Q 16.15625 53.328125 25.390625 53.328125 
Q 29.5 53.328125 34.03125 52.25 
Q 38.578125 51.171875 43.40625 49.125 
L 43.40625 37.796875 
L 38.234375 37.796875 
Q 38.03125 42.828125 34.703125 45.65625 
Q 31.390625 48.484375 25.6875 48.484375 
Q 20.015625 48.484375 17.109375 46.484375 
Q 14.203125 44.484375 14.203125 40.484375 
Q 14.203125 37.203125 16.40625 35.21875 
Q 18.609375 33.25 25.203125 31.203125 
L 32.328125 29 
Q 39.703125 26.703125 42.9375 23.265625 
Q 46.1875 19.828125 46.1875 14.40625 
Q 46.1875 7.03125 40.546875 2.796875 
Q 34.90625 -1.421875 25 -1.421875 
Q 19.96875 -1.421875 15.1875 -0.34375 
Q 10.40625 0.734375 5.609375 2.875 
z
" id="DejaVuSerif-115"/>
      <path d="M 46.6875 72.90625 
L 73.1875 45.703125 
L 65.71875 45.703125 
L 41.890625 64.3125 
L 18.109375 45.703125 
L 10.59375 45.703125 
L 37.109375 72.90625 
z
" id="DejaVuSerif-94"/>
      <path d="M 12.796875 55.515625 
L 7.328125 55.515625 
L 7.328125 68.5 
Q 12.546875 71.296875 17.84375 72.75 
Q 23.140625 74.21875 28.21875 74.21875 
Q 39.59375 74.21875 46.1875 68.703125 
Q 52.78125 63.1875 52.78125 53.71875 
Q 52.78125 43.015625 37.84375 28.125 
Q 36.671875 27 36.078125 26.421875 
L 17.671875 8.015625 
L 48.09375 8.015625 
L 48.09375 17 
L 53.8125 17 
L 53.8125 0 
L 6.78125 0 
L 6.78125 5.328125 
L 28.90625 27.390625 
Q 36.234375 34.71875 39.359375 40.84375 
Q 42.484375 46.96875 42.484375 53.71875 
Q 42.484375 61.078125 38.640625 65.234375 
Q 34.8125 69.390625 28.078125 69.390625 
Q 21.09375 69.390625 17.28125 65.921875 
Q 13.484375 62.453125 12.796875 55.515625 
z
" id="DejaVuSerif-50"/>
      <path d="M 30.421875 75.984375 
L 30.421875 -13.1875 
L 7.71875 -13.1875 
L 7.71875 -8.015625 
L 21.09375 -8.015625 
L 21.09375 70.796875 
L 7.71875 70.796875 
L 7.71875 75.984375 
z
" id="DejaVuSerif-93"/>
     </defs>
     <g transform="translate(54.42249 234.499509)rotate(-90)scale(0.2 -0.2)">
      <use xlink:href="#DejaVuSerif-65"/>
      <use x="72.216797" xlink:href="#DejaVuSerif-99"/>
      <use x="128.222656" xlink:href="#DejaVuSerif-99"/>
      <use x="184.228516" xlink:href="#DejaVuSerif-101"/>
      <use x="243.408203" xlink:href="#DejaVuSerif-108"/>
      <use x="275.390625" xlink:href="#DejaVuSerif-101"/>
      <use x="334.570312" xlink:href="#DejaVuSerif-114"/>
      <use x="382.373047" xlink:href="#DejaVuSerif-97"/>
      <use x="441.992188" xlink:href="#DejaVuSerif-116"/>
      <use x="482.177734" xlink:href="#DejaVuSerif-105"/>
      <use x="514.160156" xlink:href="#DejaVuSerif-111"/>
      <use x="574.365234" xlink:href="#DejaVuSerif-110"/>
      <use x="638.769531" xlink:href="#DejaVuSerif-32"/>
      <use x="670.556641" xlink:href="#DejaVuSerif-49"/>
      <use x="734.179688" xlink:href="#DejaVuSerif-32"/>
      <use x="765.966797" xlink:href="#DejaVuSerif-91"/>
      <use x="804.980469" xlink:href="#DejaVuSerif-109"/>
      <use x="899.804688" xlink:href="#DejaVuSerif-47"/>
      <use x="933.496094" xlink:href="#DejaVuSerif-115"/>
      <use x="984.814453" xlink:href="#DejaVuSerif-94"/>
      <use x="1068.603516" xlink:href="#DejaVuSerif-50"/>
      <use x="1132.226562" xlink:href="#DejaVuSerif-93"/>
     </g>
    </g>
   </g>
   <g id="line2d_12">
    <path clip-path="url(#p7309581d3d)" d="M 99.06624 39.025218 
L 121.781762 39.025218 
L 124.623277 68.982296 
L 130.304294 114.527911 
L 133.14543 125.914302 
L 135.986863 125.914302 
L 141.667766 148.687119 
L 144.509727 125.914302 
L 147.350666 137.300727 
L 150.192276 137.300727 
L 155.874838 114.527911 
L 158.716176 114.527911 
L 161.557752 125.914302 
L 164.39884 114.527911 
L 167.243579 114.527911 
L 170.080772 103.141502 
L 172.921332 103.141502 
L 175.76288 114.527911 
L 178.605967 114.527911 
L 181.445029 125.914302 
L 184.286056 114.527911 
L 187.128573 125.914302 
L 189.968327 114.527911 
L 192.808853 125.914302 
L 195.650151 125.914302 
L 198.491625 114.527911 
L 201.332902 114.527911 
L 204.174979 103.141502 
L 207.014855 114.527911 
L 209.85725 114.527911 
L 212.697288 103.141502 
L 215.537821 114.527911 
L 238.268448 114.527911 
L 241.110037 103.141502 
L 243.949906 125.914302 
L 246.791008 114.527911 
L 255.316304 114.527911 
L 258.15626 125.914302 
L 260.996068 125.914302 
L 263.837034 114.527911 
L 266.678569 125.914302 
L 269.519942 114.527911 
L 272.361307 114.527911 
L 275.202321 125.914302 
L 278.044594 114.527911 
L 280.884924 114.527911 
L 283.725314 137.300727 
L 286.566368 114.527911 
L 289.40795 114.527911 
L 292.249255 125.914302 
L 297.931356 125.914302 
L 300.774836 114.527911 
L 334.864992 114.527911 
L 337.710679 103.141502 
L 340.550799 114.527911 
L 343.412371 103.141502 
L 346.230699 114.527911 
L 349.072064 114.527911 
L 351.913742 103.141502 
L 354.753597 125.914302 
L 357.598837 114.527911 
L 360.437127 114.527911 
L 363.27766 125.914302 
L 366.118463 114.527911 
L 374.641673 114.527911 
L 377.482903 103.141502 
L 380.324086 114.527911 
L 388.87561 114.527911 
L 391.692143 125.914302 
L 394.5304 125.914302 
L 397.370743 114.527911 
L 400.211661 125.914302 
L 403.05365 125.914302 
L 405.894406 114.527911 
L 408.735332 125.914302 
L 411.576643 125.914302 
L 414.419486 114.527911 
L 417.259795 114.527911 
L 420.098485 125.914302 
L 422.940758 125.914302 
L 425.784305 114.527911 
L 428.623693 137.300727 
L 431.465187 114.527911 
L 434.305828 125.914302 
L 451.352085 125.914302 
L 454.194575 114.527911 
L 457.048492 125.914302 
L 459.8769 114.527911 
L 468.39927 114.527911 
L 471.240351 125.914302 
L 474.081445 114.527911 
L 476.922479 125.914302 
L 479.763574 114.527911 
L 482.606247 114.527911 
L 485.446793 125.914302 
L 488.28675 125.914302 
L 491.128068 114.527911 
L 499.651942 114.527911 
L 502.492738 103.141502 
L 505.334944 114.527911 
L 511.016233 114.527911 
L 513.856359 125.914302 
L 516.698056 114.527911 
L 519.539544 114.527911 
L 522.380639 125.914302 
L 525.22174 114.527911 
L 528.063905 114.527911 
L 530.90498 103.141502 
L 533.744394 114.527911 
L 536.586268 114.527911 
L 539.428332 91.755111 
L 542.268688 114.527911 
L 547.950674 114.527911 
L 550.792751 125.914302 
L 556.473552 103.141502 
L 559.314606 125.914302 
L 562.156487 103.141502 
L 564.997554 114.527911 
L 567.83936 103.141502 
L 570.679757 103.141502 
L 573.523921 114.527911 
L 576.361046 114.527911 
L 579.215526 125.914302 
L 582.044197 114.527911 
L 584.885814 114.527911 
L 587.727098 125.914302 
L 590.567495 125.914302 
L 593.409328 114.527911 
L 596.251053 125.914302 
L 599.091667 114.527911 
L 601.931427 125.914302 
L 604.772257 114.527911 
L 607.614368 114.527911 
L 610.455585 125.914302 
L 613.296835 114.527911 
L 616.138215 125.914302 
L 618.979242 114.527911 
L 621.820445 114.527911 
L 624.661282 125.914302 
L 627.501713 114.527911 
L 630.349649 125.914302 
L 633.18481 114.527911 
L 644.548986 114.527911 
L 647.389132 103.141502 
L 650.241411 114.527911 
L 653.072758 114.527911 
L 655.913866 103.141502 
L 658.755855 114.527911 
L 664.437902 114.527911 
L 667.278442 103.141502 
L 670.121724 103.141502 
L 672.959757 114.527911 
L 675.801509 103.141502 
L 678.642827 103.141502 
L 681.483895 114.527911 
L 695.689044 114.527911 
L 698.530457 103.141502 
L 704.213635 125.914302 
L 707.054222 114.527911 
L 709.896068 125.914302 
L 718.416596 125.914302 
L 721.258849 114.527911 
L 724.100756 137.300727 
L 726.942224 125.914302 
L 729.783095 137.300727 
L 732.624759 125.914302 
L 741.147 125.914302 
L 743.98783 137.300727 
L 746.833667 125.914302 
L 749.671706 125.914302 
L 752.51251 137.300727 
L 755.35435 125.914302 
L 766.717239 125.914302 
L 769.558096 114.527911 
L 772.399956 137.300727 
L 775.256807 103.141502 
L 778.084368 125.914302 
L 780.923423 114.527911 
L 783.763008 114.527911 
L 786.603859 137.300727 
L 789.446308 114.527911 
L 792.288148 137.300727 
L 795.129696 114.527911 
L 797.970656 114.527911 
L 800.811622 137.300727 
L 803.652832 114.527911 
L 806.492965 114.527911 
L 809.343671 125.914302 
L 812.175533 114.527911 
L 832.064037 114.527911 
L 834.905179 125.914302 
L 837.746273 114.527911 
L 874.680566 114.527911 
L 877.522596 103.141502 
L 880.362925 103.141502 
L 883.204331 114.527911 
L 886.045927 103.141502 
L 888.887239 103.141502 
L 891.727717 114.527911 
L 894.568832 114.527911 
L 897.408775 103.141502 
L 900.25071 114.527911 
L 903.091412 103.141502 
L 905.933604 114.527911 
L 914.458927 114.527911 
L 917.298247 125.914302 
L 920.138062 125.914302 
L 922.97854 114.527911 
L 925.820773 125.914302 
L 928.663154 114.527911 
L 931.504398 125.914302 
L 934.34657 114.527911 
L 951.39154 114.527911 
L 954.233143 125.914302 
L 957.074474 125.914302 
L 959.915434 114.527911 
L 976.968952 114.527911 
L 979.802724 91.755111 
L 982.643799 114.527911 
L 1016.738927 114.527911 
L 1019.579378 125.914302 
L 1022.420453 114.527911 
L 1025.260674 114.527911 
L 1028.102541 125.914302 
L 1030.942071 103.141502 
L 1039.466574 103.141502 
L 1042.308495 114.527911 
L 1045.149055 103.141502 
L 1047.989581 114.527911 
L 1050.830994 114.527911 
L 1053.67406 195.723799 
L 1093.449142 195.723799 
L 1096.289255 188.539523 
L 1099.128954 177.153118 
L 1101.971803 177.153118 
L 1104.812302 140.147312 
L 1107.653207 151.533715 
L 1110.500838 117.374509 
L 1113.336074 140.147312 
L 1116.1775 117.374509 
L 1119.018284 117.374509 
L 1121.872967 128.760911 
L 1124.700995 117.374509 
L 1150.26912 117.374509 
L 1150.26912 117.374509 
" style="fill:none;stroke:#71b6cb;stroke-linecap:square;stroke-width:3;"/>
   </g>
   <g id="line2d_13">
    <path clip-path="url(#p7309581d3d)" d="M 99.06624 39.025218 
L 121.781762 39.025218 
L 124.623277 68.982296 
L 130.304294 114.527911 
L 133.14543 125.914302 
L 135.986863 125.914302 
L 141.667766 148.687119 
L 144.509727 125.914302 
L 147.350666 137.300727 
L 150.192276 137.300727 
L 155.874838 114.527911 
L 158.716176 114.527911 
L 161.557752 125.914302 
L 164.39884 114.527911 
L 167.243579 114.527911 
L 170.080772 103.141502 
L 172.921332 103.141502 
L 175.76288 114.527911 
L 178.605967 114.527911 
L 181.445029 125.914302 
L 184.286056 114.527911 
L 187.128573 125.914302 
L 189.968327 114.527911 
L 192.808853 125.914302 
L 195.650151 125.914302 
L 198.491625 114.527911 
L 201.332902 114.527911 
L 204.174979 103.141502 
L 207.014855 114.527911 
L 209.85725 114.527911 
L 212.697288 103.141502 
L 215.537821 114.527911 
L 238.268448 114.527911 
L 241.110037 103.141502 
L 243.949906 125.914302 
L 246.791008 114.527911 
L 255.316304 114.527911 
L 258.15626 125.914302 
L 260.996068 125.914302 
L 263.837034 114.527911 
L 266.678569 125.914302 
L 269.519942 114.527911 
L 272.361307 114.527911 
L 275.202321 125.914302 
L 278.044594 114.527911 
L 280.884924 114.527911 
L 283.725314 137.300727 
L 286.566368 114.527911 
L 289.40795 114.527911 
L 292.249255 125.914302 
L 297.931356 125.914302 
L 300.774836 114.527911 
L 334.864992 114.527911 
L 337.710679 39.025218 
L 528.063905 39.025218 
L 530.90498 195.723799 
L 812.175533 195.723799 
L 815.016933 39.025218 
L 1096.289255 39.025218 
L 1099.128954 195.723799 
L 1150.26912 195.723799 
L 1150.26912 195.723799 
" style="fill:none;stroke:#00a6d6;stroke-dasharray:11.1,4.8;stroke-dashoffset:0;stroke-width:3;"/>
   </g>
   <g id="patch_3">
    <path d="M 99.06624 211.393657 
L 99.06624 23.35536 
" style="fill:none;stroke:#000000;stroke-linecap:square;stroke-linejoin:miter;stroke-width:0.8;"/>
   </g>
   <g id="patch_4">
    <path d="M 1150.26912 211.393657 
L 1150.26912 23.35536 
" style="fill:none;stroke:#000000;stroke-linecap:square;stroke-linejoin:miter;stroke-width:0.8;"/>
   </g>
   <g id="patch_5">
    <path d="M 99.06624 211.393657 
L 1150.26912 211.393657 
" style="fill:none;stroke:#000000;stroke-linecap:square;stroke-linejoin:miter;stroke-width:0.8;"/>
   </g>
   <g id="patch_6">
    <path d="M 99.06624 23.35536 
L 1150.26912 23.35536 
" style="fill:none;stroke:#000000;stroke-linecap:square;stroke-linejoin:miter;stroke-width:0.8;"/>
   </g>
   <g id="text_5">
    <!-- Acceleration vehicle 1 -->
    <defs>
     <path d="M 24.703125 0 
L 5.609375 46.6875 
L -0.296875 46.6875 
L -0.296875 51.90625 
L 23.578125 51.90625 
L 23.578125 46.6875 
L 15.28125 46.6875 
L 29.890625 10.984375 
L 44.484375 46.6875 
L 36.71875 46.6875 
L 36.71875 51.90625 
L 56.203125 51.90625 
L 56.203125 46.6875 
L 50.390625 46.6875 
L 31.296875 0 
z
" id="DejaVuSerif-118"/>
     <path d="M 4.109375 0 
L 4.109375 5.171875 
L 12.203125 5.171875 
L 12.203125 70.796875 
L 3.609375 70.796875 
L 3.609375 75.984375 
L 21.1875 75.984375 
L 21.1875 42.671875 
Q 23.6875 47.953125 27.65625 50.640625 
Q 31.640625 53.328125 36.921875 53.328125 
Q 45.515625 53.328125 49.5625 48.390625 
Q 53.609375 43.453125 53.609375 33.015625 
L 53.609375 5.171875 
L 61.625 5.171875 
L 61.625 0 
L 36.8125 0 
L 36.8125 5.171875 
L 44.578125 5.171875 
L 44.578125 30.171875 
Q 44.578125 39.703125 42.25 43.1875 
Q 39.9375 46.6875 33.984375 46.6875 
Q 27.734375 46.6875 24.453125 42.140625 
Q 21.1875 37.59375 21.1875 28.90625 
L 21.1875 5.171875 
L 29 5.171875 
L 29 0 
z
" id="DejaVuSerif-104"/>
    </defs>
    <g transform="translate(489.64143 17.35536)scale(0.24 -0.24)">
     <use xlink:href="#DejaVuSerif-65"/>
     <use x="72.216797" xlink:href="#DejaVuSerif-99"/>
     <use x="128.222656" xlink:href="#DejaVuSerif-99"/>
     <use x="184.228516" xlink:href="#DejaVuSerif-101"/>
     <use x="243.408203" xlink:href="#DejaVuSerif-108"/>
     <use x="275.390625" xlink:href="#DejaVuSerif-101"/>
     <use x="334.570312" xlink:href="#DejaVuSerif-114"/>
     <use x="382.373047" xlink:href="#DejaVuSerif-97"/>
     <use x="441.992188" xlink:href="#DejaVuSerif-116"/>
     <use x="482.177734" xlink:href="#DejaVuSerif-105"/>
     <use x="514.160156" xlink:href="#DejaVuSerif-111"/>
     <use x="574.365234" xlink:href="#DejaVuSerif-110"/>
     <use x="638.769531" xlink:href="#DejaVuSerif-32"/>
     <use x="670.556641" xlink:href="#DejaVuSerif-118"/>
     <use x="727.050781" xlink:href="#DejaVuSerif-101"/>
     <use x="786.230469" xlink:href="#DejaVuSerif-104"/>
     <use x="850.634766" xlink:href="#DejaVuSerif-105"/>
     <use x="882.617188" xlink:href="#DejaVuSerif-99"/>
     <use x="938.623047" xlink:href="#DejaVuSerif-108"/>
     <use x="970.605469" xlink:href="#DejaVuSerif-101"/>
     <use x="1029.785156" xlink:href="#DejaVuSerif-32"/>
     <use x="1061.572266" xlink:href="#DejaVuSerif-49"/>
    </g>
   </g>
   <g id="legend_1">
    <g id="patch_7">
     <path d="M 1164.26912 118.022195 
L 1363.759745 118.022195 
Q 1367.759745 118.022195 1367.759745 114.022195 
L 1367.759745 27.953445 
Q 1367.759745 23.953445 1363.759745 23.953445 
L 1164.26912 23.953445 
Q 1160.26912 23.953445 1160.26912 27.953445 
L 1160.26912 114.022195 
Q 1160.26912 118.022195 1164.26912 118.022195 
z
" style="fill:#ffffff;opacity:0.8;stroke:#cccccc;stroke-linejoin:miter;"/>
    </g>
    <g id="line2d_14">
     <path d="M 1168.26912 40.15032 
L 1188.26912 40.15032 
" style="fill:none;stroke:#71b6cb;stroke-linecap:square;stroke-width:3;"/>
    </g>
    <g id="line2d_15"/>
    <g id="text_6">
     <!-- real  -->
     <g transform="translate(1204.26912 47.15032)scale(0.2 -0.2)">
      <use xlink:href="#DejaVuSerif-114"/>
      <use x="47.802734" xlink:href="#DejaVuSerif-101"/>
      <use x="106.982422" xlink:href="#DejaVuSerif-97"/>
      <use x="166.601562" xlink:href="#DejaVuSerif-108"/>
      <use x="198.583984" xlink:href="#DejaVuSerif-32"/>
     </g>
    </g>
    <g id="line2d_16">
     <path d="M 1168.26912 69.50657 
L 1188.26912 69.50657 
" style="fill:none;stroke:#00a6d6;stroke-dasharray:11.1,4.8;stroke-dashoffset:0;stroke-width:3;"/>
    </g>
    <g id="line2d_17"/>
    <g id="text_7">
     <!-- communicated  -->
     <defs>
      <path d="M 35.40625 51.90625 
L 52.203125 51.90625 
L 52.203125 5.171875 
L 60.6875 5.171875 
L 60.6875 0 
L 43.21875 0 
L 43.21875 9.1875 
Q 40.71875 4 36.765625 1.28125 
Q 32.8125 -1.421875 27.59375 -1.421875 
Q 18.953125 -1.421875 14.875 3.484375 
Q 10.796875 8.40625 10.796875 18.890625 
L 10.796875 46.6875 
L 2.6875 46.6875 
L 2.6875 51.90625 
L 19.828125 51.90625 
L 19.828125 21.6875 
Q 19.828125 12.203125 22.140625 8.6875 
Q 24.46875 5.171875 30.421875 5.171875 
Q 36.671875 5.171875 39.9375 9.765625 
Q 43.21875 14.359375 43.21875 23.09375 
L 43.21875 46.6875 
L 35.40625 46.6875 
z
" id="DejaVuSerif-117"/>
      <path d="M 52.484375 5.171875 
L 61.078125 5.171875 
L 61.078125 0 
L 43.5 0 
L 43.5 8.109375 
Q 40.875 3.21875 36.796875 0.890625 
Q 32.71875 -1.421875 26.703125 -1.421875 
Q 17.140625 -1.421875 11.0625 6.171875 
Q 4.984375 13.765625 4.984375 25.984375 
Q 4.984375 38.1875 11.03125 45.75 
Q 17.09375 53.328125 26.703125 53.328125 
Q 32.71875 53.328125 36.796875 51 
Q 40.875 48.6875 43.5 43.796875 
L 43.5 70.796875 
L 35.015625 70.796875 
L 35.015625 75.984375 
L 52.484375 75.984375 
z
M 43.5 23.390625 
L 43.5 28.515625 
Q 43.5 37.84375 39.90625 42.765625 
Q 36.328125 47.703125 29.5 47.703125 
Q 22.5625 47.703125 19.015625 42.234375 
Q 15.484375 36.765625 15.484375 25.984375 
Q 15.484375 15.234375 19.015625 9.71875 
Q 22.5625 4.203125 29.5 4.203125 
Q 36.328125 4.203125 39.90625 9.109375 
Q 43.5 14.015625 43.5 23.390625 
z
" id="DejaVuSerif-100"/>
     </defs>
     <g transform="translate(1204.26912 76.50657)scale(0.2 -0.2)">
      <use xlink:href="#DejaVuSerif-99"/>
      <use x="56.005859" xlink:href="#DejaVuSerif-111"/>
      <use x="116.210938" xlink:href="#DejaVuSerif-109"/>
      <use x="211.035156" xlink:href="#DejaVuSerif-109"/>
      <use x="305.859375" xlink:href="#DejaVuSerif-117"/>
      <use x="370.263672" xlink:href="#DejaVuSerif-110"/>
      <use x="434.667969" xlink:href="#DejaVuSerif-105"/>
      <use x="466.650391" xlink:href="#DejaVuSerif-99"/>
      <use x="522.65625" xlink:href="#DejaVuSerif-97"/>
      <use x="582.275391" xlink:href="#DejaVuSerif-116"/>
      <use x="622.460938" xlink:href="#DejaVuSerif-101"/>
      <use x="681.640625" xlink:href="#DejaVuSerif-100"/>
      <use x="745.654297" xlink:href="#DejaVuSerif-32"/>
     </g>
    </g>
    <g id="patch_8">
     <path d="M 1168.26912 105.86282 
L 1188.26912 105.86282 
L 1188.26912 91.86282 
L 1168.26912 91.86282 
z
" style="fill:#ff4500;opacity:0.1;stroke:#ff4500;stroke-linejoin:miter;stroke-width:3;"/>
    </g>
    <g id="text_8">
     <!-- attack active -->
     <defs>
      <path d="M 28.609375 0 
L 3.421875 0 
L 3.421875 5.171875 
L 11.53125 5.171875 
L 11.53125 70.796875 
L 2.875 70.796875 
L 2.875 75.984375 
L 20.515625 75.984375 
L 20.515625 26.515625 
L 42.390625 46.6875 
L 34.90625 46.6875 
L 34.90625 51.90625 
L 58.40625 51.90625 
L 58.40625 46.6875 
L 49.515625 46.6875 
L 34.078125 32.421875 
L 53.8125 5.171875 
L 61.28125 5.171875 
L 61.28125 0 
L 35.6875 0 
L 35.6875 5.171875 
L 43.109375 5.171875 
L 27.59375 26.515625 
L 20.515625 19.921875 
L 20.515625 5.171875 
L 28.609375 5.171875 
z
" id="DejaVuSerif-107"/>
     </defs>
     <g transform="translate(1204.26912 105.86282)scale(0.2 -0.2)">
      <use xlink:href="#DejaVuSerif-97"/>
      <use x="59.619141" xlink:href="#DejaVuSerif-116"/>
      <use x="99.804688" xlink:href="#DejaVuSerif-116"/>
      <use x="139.990234" xlink:href="#DejaVuSerif-97"/>
      <use x="199.609375" xlink:href="#DejaVuSerif-99"/>
      <use x="255.615234" xlink:href="#DejaVuSerif-107"/>
      <use x="316.210938" xlink:href="#DejaVuSerif-32"/>
      <use x="347.998047" xlink:href="#DejaVuSerif-97"/>
      <use x="407.617188" xlink:href="#DejaVuSerif-99"/>
      <use x="463.623047" xlink:href="#DejaVuSerif-116"/>
      <use x="503.808594" xlink:href="#DejaVuSerif-105"/>
      <use x="535.791016" xlink:href="#DejaVuSerif-118"/>
      <use x="592.285156" xlink:href="#DejaVuSerif-101"/>
     </g>
    </g>
   </g>
  </g>
  <g id="axes_2">
   <g id="patch_9">
    <path d="M 99.06624 434.21904 
L 1150.26912 434.21904 
L 1150.26912 246.180743 
L 99.06624 246.180743 
z
" style="fill:#ffffff;"/>
   </g>
   <g id="PolyCollection_2">
    <defs>
     <path d="M 337.710679 -230.459257 
L 337.710679 -42.42096 
L 340.550799 -42.42096 
L 343.412371 -42.42096 
L 346.230699 -42.42096 
L 349.072064 -42.42096 
L 351.913742 -42.42096 
L 354.753597 -42.42096 
L 357.598837 -42.42096 
L 360.437127 -42.42096 
L 363.27766 -42.42096 
L 366.118463 -42.42096 
L 368.959782 -42.42096 
L 371.800307 -42.42096 
L 374.641673 -42.42096 
L 377.482903 -42.42096 
L 380.324086 -42.42096 
L 383.165391 -42.42096 
L 386.006648 -42.42096 
L 388.87561 -42.42096 
L 391.692143 -42.42096 
L 394.5304 -42.42096 
L 397.370743 -42.42096 
L 400.211661 -42.42096 
L 403.05365 -42.42096 
L 405.894406 -42.42096 
L 408.735332 -42.42096 
L 411.576643 -42.42096 
L 414.419486 -42.42096 
L 417.259795 -42.42096 
L 420.098485 -42.42096 
L 422.940758 -42.42096 
L 425.784305 -42.42096 
L 428.623693 -42.42096 
L 431.465187 -42.42096 
L 434.305828 -42.42096 
L 437.147945 -42.42096 
L 439.989135 -42.42096 
L 442.828272 -42.42096 
L 445.669685 -42.42096 
L 448.511681 -42.42096 
L 451.352085 -42.42096 
L 454.194575 -42.42096 
L 457.048492 -42.42096 
L 459.8769 -42.42096 
L 462.715779 -42.42096 
L 465.557653 -42.42096 
L 468.39927 -42.42096 
L 471.240351 -42.42096 
L 474.081445 -42.42096 
L 476.922479 -42.42096 
L 479.763574 -42.42096 
L 482.606247 -42.42096 
L 485.446793 -42.42096 
L 488.28675 -42.42096 
L 491.128068 -42.42096 
L 493.969285 -42.42096 
L 496.810556 -42.42096 
L 499.651942 -42.42096 
L 502.492738 -42.42096 
L 505.334944 -42.42096 
L 508.175829 -42.42096 
L 511.016233 -42.42096 
L 513.856359 -42.42096 
L 516.698056 -42.42096 
L 519.539544 -42.42096 
L 522.380639 -42.42096 
L 525.22174 -42.42096 
L 528.063905 -42.42096 
L 530.90498 -42.42096 
L 533.744394 -42.42096 
L 536.586268 -42.42096 
L 539.428332 -42.42096 
L 542.268688 -42.42096 
L 545.10939 -42.42096 
L 547.950674 -42.42096 
L 550.792751 -42.42096 
L 553.637754 -42.42096 
L 556.473552 -42.42096 
L 559.314606 -42.42096 
L 562.156487 -42.42096 
L 564.997554 -42.42096 
L 567.83936 -42.42096 
L 570.679757 -42.42096 
L 573.523921 -42.42096 
L 576.361046 -42.42096 
L 579.215526 -42.42096 
L 582.044197 -42.42096 
L 584.885814 -42.42096 
L 587.727098 -42.42096 
L 590.567495 -42.42096 
L 593.409328 -42.42096 
L 596.251053 -42.42096 
L 599.091667 -42.42096 
L 601.931427 -42.42096 
L 604.772257 -42.42096 
L 607.614368 -42.42096 
L 610.455585 -42.42096 
L 613.296835 -42.42096 
L 616.138215 -42.42096 
L 618.979242 -42.42096 
L 621.820445 -42.42096 
L 624.661282 -42.42096 
L 627.501713 -42.42096 
L 630.349649 -42.42096 
L 633.18481 -42.42096 
L 636.02577 -42.42096 
L 638.866993 -42.42096 
L 641.709063 -42.42096 
L 644.548986 -42.42096 
L 647.389132 -42.42096 
L 650.241411 -42.42096 
L 653.072758 -42.42096 
L 655.913866 -42.42096 
L 658.755855 -42.42096 
L 661.597959 -42.42096 
L 664.437902 -42.42096 
L 667.278442 -42.42096 
L 670.121724 -42.42096 
L 672.959757 -42.42096 
L 675.801509 -42.42096 
L 678.642827 -42.42096 
L 681.483895 -42.42096 
L 684.325146 -42.42096 
L 687.169295 -42.42096 
L 690.006752 -42.42096 
L 692.852724 -42.42096 
L 695.689044 -42.42096 
L 698.530457 -42.42096 
L 701.372012 -42.42096 
L 704.213635 -42.42096 
L 707.054222 -42.42096 
L 709.896068 -42.42096 
L 712.736662 -42.42096 
L 715.576361 -42.42096 
L 718.416596 -42.42096 
L 721.258849 -42.42096 
L 724.100756 -42.42096 
L 726.942224 -42.42096 
L 729.783095 -42.42096 
L 732.624759 -42.42096 
L 735.465745 -42.42096 
L 738.306101 -42.42096 
L 741.147 -42.42096 
L 743.98783 -42.42096 
L 746.833667 -42.42096 
L 749.671706 -42.42096 
L 752.51251 -42.42096 
L 755.35435 -42.42096 
L 758.194835 -42.42096 
L 761.035388 -42.42096 
L 763.875493 -42.42096 
L 766.717239 -42.42096 
L 769.558096 -42.42096 
L 772.399956 -42.42096 
L 775.256807 -42.42096 
L 778.084368 -42.42096 
L 780.923423 -42.42096 
L 783.763008 -42.42096 
L 786.603859 -42.42096 
L 789.446308 -42.42096 
L 792.288148 -42.42096 
L 795.129696 -42.42096 
L 797.970656 -42.42096 
L 800.811622 -42.42096 
L 803.652832 -42.42096 
L 806.492965 -42.42096 
L 809.343671 -42.42096 
L 812.175533 -42.42096 
L 815.016933 -42.42096 
L 817.858332 -42.42096 
L 820.69982 -42.42096 
L 823.54103 -42.42096 
L 826.382951 -42.42096 
L 829.221397 -42.42096 
L 832.064037 -42.42096 
L 834.905179 -42.42096 
L 837.746273 -42.42096 
L 840.587395 -42.42096 
L 843.428341 -42.42096 
L 846.270885 -42.42096 
L 849.110917 -42.42096 
L 851.951977 -42.42096 
L 854.793079 -42.42096 
L 857.63416 -42.42096 
L 860.475621 -42.42096 
L 863.316614 -42.42096 
L 866.158806 -42.42096 
L 868.999305 -42.42096 
L 871.839878 -42.42096 
L 874.680566 -42.42096 
L 877.522596 -42.42096 
L 880.362925 -42.42096 
L 883.204331 -42.42096 
L 886.045927 -42.42096 
L 888.887239 -42.42096 
L 891.727717 -42.42096 
L 894.568832 -42.42096 
L 897.408775 -42.42096 
L 900.25071 -42.42096 
L 903.091412 -42.42096 
L 905.933604 -42.42096 
L 908.774387 -42.42096 
L 911.615685 -42.42096 
L 914.458927 -42.42096 
L 917.298247 -42.42096 
L 920.138062 -42.42096 
L 922.97854 -42.42096 
L 925.820773 -42.42096 
L 928.663154 -42.42096 
L 931.504398 -42.42096 
L 934.34657 -42.42096 
L 937.186053 -42.42096 
L 940.03214 -42.42096 
L 942.866752 -42.42096 
L 945.716849 -42.42096 
L 948.549923 -42.42096 
L 951.39154 -42.42096 
L 954.233143 -42.42096 
L 957.074474 -42.42096 
L 959.915434 -42.42096 
L 962.75619 -42.42096 
L 965.596472 -42.42096 
L 968.437336 -42.42096 
L 971.281858 -42.42096 
L 974.127322 -42.42096 
L 976.968952 -42.42096 
L 979.802724 -42.42096 
L 982.643799 -42.42096 
L 985.48889 -42.42096 
L 988.326347 -42.42096 
L 991.168113 -42.42096 
L 994.007372 -42.42096 
L 996.849198 -42.42096 
L 999.691458 -42.42096 
L 1002.532099 -42.42096 
L 1005.373756 -42.42096 
L 1008.214308 -42.42096 
L 1011.068612 -42.42096 
L 1013.897419 -42.42096 
L 1016.738927 -42.42096 
L 1019.579378 -42.42096 
L 1022.420453 -42.42096 
L 1025.260674 -42.42096 
L 1028.102541 -42.42096 
L 1030.942071 -42.42096 
L 1033.783836 -42.42096 
L 1036.62529 -42.42096 
L 1039.466574 -42.42096 
L 1042.308495 -42.42096 
L 1045.149055 -42.42096 
L 1047.989581 -42.42096 
L 1050.830994 -42.42096 
L 1053.67406 -42.42096 
L 1056.514308 -42.42096 
L 1059.353831 -42.42096 
L 1062.195075 -42.42096 
L 1065.036562 -42.42096 
L 1067.877718 -42.42096 
L 1070.718941 -42.42096 
L 1073.560747 -42.42096 
L 1076.406638 -42.42096 
L 1079.242747 -42.42096 
L 1082.083449 -42.42096 
L 1084.924639 -42.42096 
L 1087.76635 -42.42096 
L 1090.607004 -42.42096 
L 1093.449142 -42.42096 
L 1096.289255 -42.42096 
L 1099.128954 -42.42096 
L 1101.971803 -42.42096 
L 1104.812302 -42.42096 
L 1107.653207 -42.42096 
L 1110.500838 -42.42096 
L 1113.336074 -42.42096 
L 1116.1775 -42.42096 
L 1119.018284 -42.42096 
L 1121.872967 -42.42096 
L 1124.700995 -42.42096 
L 1127.540037 -42.42096 
L 1130.382066 -42.42096 
L 1133.223554 -42.42096 
L 1136.064215 -42.42096 
L 1138.90554 -42.42096 
L 1141.777219 -42.42096 
L 1144.589213 -42.42096 
L 1147.429373 -42.42096 
L 1150.26912 -42.42096 
L 1150.26912 -230.459257 
L 1150.26912 -230.459257 
L 1147.429373 -230.459257 
L 1144.589213 -230.459257 
L 1141.777219 -230.459257 
L 1138.90554 -230.459257 
L 1136.064215 -230.459257 
L 1133.223554 -230.459257 
L 1130.382066 -230.459257 
L 1127.540037 -230.459257 
L 1124.700995 -230.459257 
L 1121.872967 -230.459257 
L 1119.018284 -230.459257 
L 1116.1775 -230.459257 
L 1113.336074 -230.459257 
L 1110.500838 -230.459257 
L 1107.653207 -230.459257 
L 1104.812302 -230.459257 
L 1101.971803 -230.459257 
L 1099.128954 -230.459257 
L 1096.289255 -230.459257 
L 1093.449142 -230.459257 
L 1090.607004 -230.459257 
L 1087.76635 -230.459257 
L 1084.924639 -230.459257 
L 1082.083449 -230.459257 
L 1079.242747 -230.459257 
L 1076.406638 -230.459257 
L 1073.560747 -230.459257 
L 1070.718941 -230.459257 
L 1067.877718 -230.459257 
L 1065.036562 -230.459257 
L 1062.195075 -230.459257 
L 1059.353831 -230.459257 
L 1056.514308 -230.459257 
L 1053.67406 -230.459257 
L 1050.830994 -230.459257 
L 1047.989581 -230.459257 
L 1045.149055 -230.459257 
L 1042.308495 -230.459257 
L 1039.466574 -230.459257 
L 1036.62529 -230.459257 
L 1033.783836 -230.459257 
L 1030.942071 -230.459257 
L 1028.102541 -230.459257 
L 1025.260674 -230.459257 
L 1022.420453 -230.459257 
L 1019.579378 -230.459257 
L 1016.738927 -230.459257 
L 1013.897419 -230.459257 
L 1011.068612 -230.459257 
L 1008.214308 -230.459257 
L 1005.373756 -230.459257 
L 1002.532099 -230.459257 
L 999.691458 -230.459257 
L 996.849198 -230.459257 
L 994.007372 -230.459257 
L 991.168113 -230.459257 
L 988.326347 -230.459257 
L 985.48889 -230.459257 
L 982.643799 -230.459257 
L 979.802724 -230.459257 
L 976.968952 -230.459257 
L 974.127322 -230.459257 
L 971.281858 -230.459257 
L 968.437336 -230.459257 
L 965.596472 -230.459257 
L 962.75619 -230.459257 
L 959.915434 -230.459257 
L 957.074474 -230.459257 
L 954.233143 -230.459257 
L 951.39154 -230.459257 
L 948.549923 -230.459257 
L 945.716849 -230.459257 
L 942.866752 -230.459257 
L 940.03214 -230.459257 
L 937.186053 -230.459257 
L 934.34657 -230.459257 
L 931.504398 -230.459257 
L 928.663154 -230.459257 
L 925.820773 -230.459257 
L 922.97854 -230.459257 
L 920.138062 -230.459257 
L 917.298247 -230.459257 
L 914.458927 -230.459257 
L 911.615685 -230.459257 
L 908.774387 -230.459257 
L 905.933604 -230.459257 
L 903.091412 -230.459257 
L 900.25071 -230.459257 
L 897.408775 -230.459257 
L 894.568832 -230.459257 
L 891.727717 -230.459257 
L 888.887239 -230.459257 
L 886.045927 -230.459257 
L 883.204331 -230.459257 
L 880.362925 -230.459257 
L 877.522596 -230.459257 
L 874.680566 -230.459257 
L 871.839878 -230.459257 
L 868.999305 -230.459257 
L 866.158806 -230.459257 
L 863.316614 -230.459257 
L 860.475621 -230.459257 
L 857.63416 -230.459257 
L 854.793079 -230.459257 
L 851.951977 -230.459257 
L 849.110917 -230.459257 
L 846.270885 -230.459257 
L 843.428341 -230.459257 
L 840.587395 -230.459257 
L 837.746273 -230.459257 
L 834.905179 -230.459257 
L 832.064037 -230.459257 
L 829.221397 -230.459257 
L 826.382951 -230.459257 
L 823.54103 -230.459257 
L 820.69982 -230.459257 
L 817.858332 -230.459257 
L 815.016933 -230.459257 
L 812.175533 -230.459257 
L 809.343671 -230.459257 
L 806.492965 -230.459257 
L 803.652832 -230.459257 
L 800.811622 -230.459257 
L 797.970656 -230.459257 
L 795.129696 -230.459257 
L 792.288148 -230.459257 
L 789.446308 -230.459257 
L 786.603859 -230.459257 
L 783.763008 -230.459257 
L 780.923423 -230.459257 
L 778.084368 -230.459257 
L 775.256807 -230.459257 
L 772.399956 -230.459257 
L 769.558096 -230.459257 
L 766.717239 -230.459257 
L 763.875493 -230.459257 
L 761.035388 -230.459257 
L 758.194835 -230.459257 
L 755.35435 -230.459257 
L 752.51251 -230.459257 
L 749.671706 -230.459257 
L 746.833667 -230.459257 
L 743.98783 -230.459257 
L 741.147 -230.459257 
L 738.306101 -230.459257 
L 735.465745 -230.459257 
L 732.624759 -230.459257 
L 729.783095 -230.459257 
L 726.942224 -230.459257 
L 724.100756 -230.459257 
L 721.258849 -230.459257 
L 718.416596 -230.459257 
L 715.576361 -230.459257 
L 712.736662 -230.459257 
L 709.896068 -230.459257 
L 707.054222 -230.459257 
L 704.213635 -230.459257 
L 701.372012 -230.459257 
L 698.530457 -230.459257 
L 695.689044 -230.459257 
L 692.852724 -230.459257 
L 690.006752 -230.459257 
L 687.169295 -230.459257 
L 684.325146 -230.459257 
L 681.483895 -230.459257 
L 678.642827 -230.459257 
L 675.801509 -230.459257 
L 672.959757 -230.459257 
L 670.121724 -230.459257 
L 667.278442 -230.459257 
L 664.437902 -230.459257 
L 661.597959 -230.459257 
L 658.755855 -230.459257 
L 655.913866 -230.459257 
L 653.072758 -230.459257 
L 650.241411 -230.459257 
L 647.389132 -230.459257 
L 644.548986 -230.459257 
L 641.709063 -230.459257 
L 638.866993 -230.459257 
L 636.02577 -230.459257 
L 633.18481 -230.459257 
L 630.349649 -230.459257 
L 627.501713 -230.459257 
L 624.661282 -230.459257 
L 621.820445 -230.459257 
L 618.979242 -230.459257 
L 616.138215 -230.459257 
L 613.296835 -230.459257 
L 610.455585 -230.459257 
L 607.614368 -230.459257 
L 604.772257 -230.459257 
L 601.931427 -230.459257 
L 599.091667 -230.459257 
L 596.251053 -230.459257 
L 593.409328 -230.459257 
L 590.567495 -230.459257 
L 587.727098 -230.459257 
L 584.885814 -230.459257 
L 582.044197 -230.459257 
L 579.215526 -230.459257 
L 576.361046 -230.459257 
L 573.523921 -230.459257 
L 570.679757 -230.459257 
L 567.83936 -230.459257 
L 564.997554 -230.459257 
L 562.156487 -230.459257 
L 559.314606 -230.459257 
L 556.473552 -230.459257 
L 553.637754 -230.459257 
L 550.792751 -230.459257 
L 547.950674 -230.459257 
L 545.10939 -230.459257 
L 542.268688 -230.459257 
L 539.428332 -230.459257 
L 536.586268 -230.459257 
L 533.744394 -230.459257 
L 530.90498 -230.459257 
L 528.063905 -230.459257 
L 525.22174 -230.459257 
L 522.380639 -230.459257 
L 519.539544 -230.459257 
L 516.698056 -230.459257 
L 513.856359 -230.459257 
L 511.016233 -230.459257 
L 508.175829 -230.459257 
L 505.334944 -230.459257 
L 502.492738 -230.459257 
L 499.651942 -230.459257 
L 496.810556 -230.459257 
L 493.969285 -230.459257 
L 491.128068 -230.459257 
L 488.28675 -230.459257 
L 485.446793 -230.459257 
L 482.606247 -230.459257 
L 479.763574 -230.459257 
L 476.922479 -230.459257 
L 474.081445 -230.459257 
L 471.240351 -230.459257 
L 468.39927 -230.459257 
L 465.557653 -230.459257 
L 462.715779 -230.459257 
L 459.8769 -230.459257 
L 457.048492 -230.459257 
L 454.194575 -230.459257 
L 451.352085 -230.459257 
L 448.511681 -230.459257 
L 445.669685 -230.459257 
L 442.828272 -230.459257 
L 439.989135 -230.459257 
L 437.147945 -230.459257 
L 434.305828 -230.459257 
L 431.465187 -230.459257 
L 428.623693 -230.459257 
L 425.784305 -230.459257 
L 422.940758 -230.459257 
L 420.098485 -230.459257 
L 417.259795 -230.459257 
L 414.419486 -230.459257 
L 411.576643 -230.459257 
L 408.735332 -230.459257 
L 405.894406 -230.459257 
L 403.05365 -230.459257 
L 400.211661 -230.459257 
L 397.370743 -230.459257 
L 394.5304 -230.459257 
L 391.692143 -230.459257 
L 388.87561 -230.459257 
L 386.006648 -230.459257 
L 383.165391 -230.459257 
L 380.324086 -230.459257 
L 377.482903 -230.459257 
L 374.641673 -230.459257 
L 371.800307 -230.459257 
L 368.959782 -230.459257 
L 366.118463 -230.459257 
L 363.27766 -230.459257 
L 360.437127 -230.459257 
L 357.598837 -230.459257 
L 354.753597 -230.459257 
L 351.913742 -230.459257 
L 349.072064 -230.459257 
L 346.230699 -230.459257 
L 343.412371 -230.459257 
L 340.550799 -230.459257 
L 337.710679 -230.459257 
z
" id="mca22205a2a" style="stroke:#ff4500;stroke-opacity:0.1;stroke-width:3;"/>
    </defs>
    <g clip-path="url(#p83bc3770cb)">
     <use style="fill:#ff4500;fill-opacity:0.1;stroke:#ff4500;stroke-opacity:0.1;stroke-width:3;" x="0" xlink:href="#mca22205a2a" y="476.64"/>
    </g>
   </g>
   <g id="matplotlib.axis_3">
    <g id="xtick_9">
     <g id="line2d_18">
      <g>
       <use style="stroke:#000000;stroke-width:0.8;" x="99.06624" xlink:href="#m6e8a59d8ca" y="434.21904"/>
      </g>
     </g>
     <g id="text_9">
      <!-- 0 -->
      <g transform="translate(92.70374 456.415915)scale(0.2 -0.2)">
       <use xlink:href="#DejaVuSerif-48"/>
      </g>
     </g>
    </g>
    <g id="xtick_10">
     <g id="line2d_19">
      <g>
       <use style="stroke:#000000;stroke-width:0.8;" x="241.122806" xlink:href="#m6e8a59d8ca" y="434.21904"/>
      </g>
     </g>
     <g id="text_10">
      <!-- 5 -->
      <defs>
       <path d="M 50.296875 72.90625 
L 50.296875 64.890625 
L 16.890625 64.890625 
L 16.890625 44 
Q 19.4375 45.75 22.828125 46.625 
Q 26.21875 47.515625 30.421875 47.515625 
Q 42.234375 47.515625 49.0625 40.96875 
Q 55.90625 34.421875 55.90625 23.09375 
Q 55.90625 11.53125 49 5.046875 
Q 42.09375 -1.421875 29.59375 -1.421875 
Q 24.5625 -1.421875 19.28125 -0.1875 
Q 14.015625 1.03125 8.5 3.515625 
L 8.5 17.671875 
L 14.015625 17.671875 
Q 14.453125 10.75 18.421875 7.078125 
Q 22.40625 3.421875 29.59375 3.421875 
Q 37.3125 3.421875 41.453125 8.5 
Q 45.609375 13.578125 45.609375 23.09375 
Q 45.609375 32.5625 41.484375 37.609375 
Q 37.359375 42.671875 29.59375 42.671875 
Q 25.203125 42.671875 21.84375 41.109375 
Q 18.5 39.546875 15.921875 36.28125 
L 11.71875 36.28125 
L 11.71875 72.90625 
z
" id="DejaVuSerif-53"/>
      </defs>
      <g transform="translate(234.760306 456.415915)scale(0.2 -0.2)">
       <use xlink:href="#DejaVuSerif-53"/>
      </g>
     </g>
    </g>
    <g id="xtick_11">
     <g id="line2d_20">
      <g>
       <use style="stroke:#000000;stroke-width:0.8;" x="383.179372" xlink:href="#m6e8a59d8ca" y="434.21904"/>
      </g>
     </g>
     <g id="text_11">
      <!-- 10 -->
      <g transform="translate(370.454372 456.415915)scale(0.2 -0.2)">
       <use xlink:href="#DejaVuSerif-49"/>
       <use x="63.623047" xlink:href="#DejaVuSerif-48"/>
      </g>
     </g>
    </g>
    <g id="xtick_12">
     <g id="line2d_21">
      <g>
       <use style="stroke:#000000;stroke-width:0.8;" x="525.235938" xlink:href="#m6e8a59d8ca" y="434.21904"/>
      </g>
     </g>
     <g id="text_12">
      <!-- 15 -->
      <g transform="translate(512.510938 456.415915)scale(0.2 -0.2)">
       <use xlink:href="#DejaVuSerif-49"/>
       <use x="63.623047" xlink:href="#DejaVuSerif-53"/>
      </g>
     </g>
    </g>
    <g id="xtick_13">
     <g id="line2d_22">
      <g>
       <use style="stroke:#000000;stroke-width:0.8;" x="667.292504" xlink:href="#m6e8a59d8ca" y="434.21904"/>
      </g>
     </g>
     <g id="text_13">
      <!-- 20 -->
      <g transform="translate(654.567504 456.415915)scale(0.2 -0.2)">
       <use xlink:href="#DejaVuSerif-50"/>
       <use x="63.623047" xlink:href="#DejaVuSerif-48"/>
      </g>
     </g>
    </g>
    <g id="xtick_14">
     <g id="line2d_23">
      <g>
       <use style="stroke:#000000;stroke-width:0.8;" x="809.34907" xlink:href="#m6e8a59d8ca" y="434.21904"/>
      </g>
     </g>
     <g id="text_14">
      <!-- 25 -->
      <g transform="translate(796.62407 456.415915)scale(0.2 -0.2)">
       <use xlink:href="#DejaVuSerif-50"/>
       <use x="63.623047" xlink:href="#DejaVuSerif-53"/>
      </g>
     </g>
    </g>
    <g id="xtick_15">
     <g id="line2d_24">
      <g>
       <use style="stroke:#000000;stroke-width:0.8;" x="951.405636" xlink:href="#m6e8a59d8ca" y="434.21904"/>
      </g>
     </g>
     <g id="text_15">
      <!-- 30 -->
      <defs>
       <path d="M 9.71875 69.828125 
Q 15.4375 71.96875 20.671875 73.09375 
Q 25.921875 74.21875 30.515625 74.21875 
Q 41.21875 74.21875 47.21875 69.59375 
Q 53.21875 64.984375 53.21875 56.78125 
Q 53.21875 50.203125 49.0625 45.78125 
Q 44.921875 41.359375 37.3125 39.796875 
Q 46.296875 38.53125 51.25 33.28125 
Q 56.203125 28.03125 56.203125 19.671875 
Q 56.203125 9.46875 49.34375 4.015625 
Q 42.484375 -1.421875 29.59375 -1.421875 
Q 23.875 -1.421875 18.421875 -0.1875 
Q 12.984375 1.03125 7.625 3.515625 
L 7.625 17.671875 
L 13.09375 17.671875 
Q 13.578125 10.640625 17.828125 7.03125 
Q 22.078125 3.421875 29.78125 3.421875 
Q 37.25 3.421875 41.578125 7.734375 
Q 45.90625 12.0625 45.90625 19.578125 
Q 45.90625 28.171875 41.453125 32.59375 
Q 37.015625 37.015625 28.421875 37.015625 
L 23.78125 37.015625 
L 23.78125 42 
L 26.21875 42 
Q 34.765625 42 39.03125 45.53125 
Q 43.3125 49.078125 43.3125 56.203125 
Q 43.3125 62.59375 39.796875 65.984375 
Q 36.28125 69.390625 29.6875 69.390625 
Q 23.09375 69.390625 19.453125 66.265625 
Q 15.828125 63.140625 15.1875 56.984375 
L 9.71875 56.984375 
z
" id="DejaVuSerif-51"/>
      </defs>
      <g transform="translate(938.680636 456.415915)scale(0.2 -0.2)">
       <use xlink:href="#DejaVuSerif-51"/>
       <use x="63.623047" xlink:href="#DejaVuSerif-48"/>
      </g>
     </g>
    </g>
    <g id="xtick_16">
     <g id="line2d_25">
      <g>
       <use style="stroke:#000000;stroke-width:0.8;" x="1093.462202" xlink:href="#m6e8a59d8ca" y="434.21904"/>
      </g>
     </g>
     <g id="text_16">
      <!-- 35 -->
      <g transform="translate(1080.737202 456.415915)scale(0.2 -0.2)">
       <use xlink:href="#DejaVuSerif-51"/>
       <use x="63.623047" xlink:href="#DejaVuSerif-53"/>
      </g>
     </g>
    </g>
    <g id="text_17">
     <!-- Time [s] -->
     <defs>
      <path d="M 19.09375 0 
L 19.09375 5.171875 
L 28.421875 5.171875 
L 28.421875 67.09375 
L 6.984375 67.09375 
L 6.984375 55.71875 
L 0.984375 55.71875 
L 0.984375 72.90625 
L 65.71875 72.90625 
L 65.71875 55.71875 
L 59.71875 55.71875 
L 59.71875 67.09375 
L 38.28125 67.09375 
L 38.28125 5.171875 
L 47.609375 5.171875 
L 47.609375 0 
z
" id="DejaVuSerif-84"/>
     </defs>
     <g transform="translate(583.284868 479.772165)scale(0.2 -0.2)">
      <use xlink:href="#DejaVuSerif-84"/>
      <use x="66.699219" xlink:href="#DejaVuSerif-105"/>
      <use x="98.681641" xlink:href="#DejaVuSerif-109"/>
      <use x="193.505859" xlink:href="#DejaVuSerif-101"/>
      <use x="252.685547" xlink:href="#DejaVuSerif-32"/>
      <use x="284.472656" xlink:href="#DejaVuSerif-91"/>
      <use x="323.486328" xlink:href="#DejaVuSerif-115"/>
      <use x="374.804688" xlink:href="#DejaVuSerif-93"/>
     </g>
    </g>
   </g>
   <g id="matplotlib.axis_4">
    <g id="ytick_4">
     <g id="line2d_26">
      <g>
       <use style="stroke:#000000;stroke-width:0.8;" x="99.06624" xlink:href="#m4934300a3f" y="434.21904"/>
      </g>
     </g>
     <g id="text_18">
      <!-- 0 -->
      <g transform="translate(79.34124 441.817477)scale(0.2 -0.2)">
       <use xlink:href="#DejaVuSerif-48"/>
      </g>
     </g>
    </g>
    <g id="ytick_5">
     <g id="line2d_27">
      <g>
       <use style="stroke:#000000;stroke-width:0.8;" x="99.06624" xlink:href="#m4934300a3f" y="356.228235"/>
      </g>
     </g>
     <g id="text_19">
      <!-- 1 -->
      <g transform="translate(79.34124 363.826672)scale(0.2 -0.2)">
       <use xlink:href="#DejaVuSerif-49"/>
      </g>
     </g>
    </g>
    <g id="ytick_6">
     <g id="line2d_28">
      <g>
       <use style="stroke:#000000;stroke-width:0.8;" x="99.06624" xlink:href="#m4934300a3f" y="278.23743"/>
      </g>
     </g>
     <g id="text_20">
      <!-- 2 -->
      <g transform="translate(79.34124 285.835867)scale(0.2 -0.2)">
       <use xlink:href="#DejaVuSerif-50"/>
      </g>
     </g>
    </g>
    <g id="text_21">
     <!-- Residual 2 [m/s] -->
     <defs>
      <path d="M 47.90625 36.1875 
Q 51.3125 35.25 53.78125 33.03125 
Q 56.25 30.8125 58.203125 26.8125 
L 68.796875 5.171875 
L 77.6875 5.171875 
L 77.6875 0 
L 60.5 0 
L 49.125 23.1875 
Q 45.84375 29.9375 43.109375 31.90625 
Q 40.375 33.890625 35.59375 33.890625 
L 24.703125 33.890625 
L 24.703125 5.171875 
L 35.015625 5.171875 
L 35.015625 0 
L 5.515625 0 
L 5.515625 5.171875 
L 14.796875 5.171875 
L 14.796875 67.671875 
L 5.515625 67.671875 
L 5.515625 72.90625 
L 42.484375 72.90625 
Q 53.125 72.90625 58.90625 67.828125 
Q 64.703125 62.75 64.703125 53.421875 
Q 64.703125 45.90625 60.46875 41.578125 
Q 56.25 37.25 47.90625 36.1875 
z
M 24.703125 39.109375 
L 39.109375 39.109375 
Q 46.484375 39.109375 50 42.59375 
Q 53.515625 46.09375 53.515625 53.421875 
Q 53.515625 60.75 50 64.203125 
Q 46.484375 67.671875 39.109375 67.671875 
L 24.703125 67.671875 
z
" id="DejaVuSerif-82"/>
     </defs>
     <g transform="translate(71.181865 422.485829)rotate(-90)scale(0.2 -0.2)">
      <use xlink:href="#DejaVuSerif-82"/>
      <use x="75.292969" xlink:href="#DejaVuSerif-101"/>
      <use x="134.472656" xlink:href="#DejaVuSerif-115"/>
      <use x="185.791016" xlink:href="#DejaVuSerif-105"/>
      <use x="217.773438" xlink:href="#DejaVuSerif-100"/>
      <use x="281.787109" xlink:href="#DejaVuSerif-117"/>
      <use x="346.191406" xlink:href="#DejaVuSerif-97"/>
      <use x="405.810547" xlink:href="#DejaVuSerif-108"/>
      <use x="437.792969" xlink:href="#DejaVuSerif-32"/>
      <use x="469.580078" xlink:href="#DejaVuSerif-50"/>
      <use x="533.203125" xlink:href="#DejaVuSerif-32"/>
      <use x="564.990234" xlink:href="#DejaVuSerif-91"/>
      <use x="604.003906" xlink:href="#DejaVuSerif-109"/>
      <use x="698.828125" xlink:href="#DejaVuSerif-47"/>
      <use x="732.519531" xlink:href="#DejaVuSerif-115"/>
      <use x="783.837891" xlink:href="#DejaVuSerif-93"/>
     </g>
    </g>
   </g>
   <g id="line2d_29">
    <path clip-path="url(#p83bc3770cb)" d="M 99.06624 434.21904 
L 101.892256 423.846263 
L 104.733175 425.846727 
L 107.575211 418.856216 
L 110.417031 399.619716 
L 113.257936 413.204284 
L 116.099329 409.809549 
L 118.941094 405.843633 
L 121.781762 404.298753 
L 124.623277 403.441278 
L 127.463084 414.412059 
L 130.304294 421.060518 
L 133.14543 432.898798 
L 135.986863 428.738397 
L 138.828141 424.164461 
L 141.667766 418.742446 
L 144.509727 406.854108 
L 147.350666 409.301681 
L 150.192276 396.808611 
L 153.033743 406.762516 
L 155.874838 405.440884 
L 158.716176 419.003581 
L 161.557752 421.920434 
L 164.39884 419.840906 
L 167.243579 414.901698 
L 170.080772 402.395253 
L 172.921332 402.368748 
L 175.76288 404.230452 
L 178.605967 417.853679 
L 181.445029 420.828027 
L 184.286056 418.803119 
L 187.128573 427.65729 
L 189.968327 413.436311 
L 192.808853 416.631526 
L 195.650151 422.630647 
L 198.491625 420.515608 
L 201.332902 427.397265 
L 204.174979 432.047955 
L 207.014855 423.534751 
L 209.85725 430.26545 
L 212.697288 416.990818 
L 215.537821 421.08507 
L 218.37878 433.865567 
L 221.220125 434.15243 
L 224.062372 434.01313 
L 226.903209 427.826931 
L 229.744846 427.877347 
L 232.586604 422.730924 
L 235.426371 429.501833 
L 238.268448 430.006883 
L 241.110037 433.910997 
L 243.949906 428.806668 
L 246.791008 419.917145 
L 249.632272 432.21765 
L 252.473204 430.462254 
L 255.316304 430.919283 
L 258.15626 424.349389 
L 260.996068 429.58452 
L 263.837034 432.510704 
L 266.678569 424.512737 
L 269.519942 427.692511 
L 272.361307 433.676952 
L 275.202321 430.962807 
L 278.044594 428.431161 
L 280.884924 423.062431 
L 283.725314 433.590549 
L 286.566368 427.963859 
L 289.40795 433.964977 
L 295.089957 429.761743 
L 297.931356 429.17704 
L 300.774836 414.880073 
L 303.629146 416.116211 
L 306.454167 423.217837 
L 309.298912 426.61908 
L 312.137846 432.657193 
L 314.978148 426.538792 
L 317.819264 432.580919 
L 320.660351 430.117149 
L 323.50318 431.919351 
L 329.184198 431.618652 
L 332.024344 431.031303 
L 334.864992 431.459879 
L 337.710679 432.394768 
L 340.550799 416.185908 
L 343.412371 418.569386 
L 346.230699 408.97909 
L 349.072064 402.831961 
L 351.913742 399.95584 
L 354.753597 400.187183 
L 357.598837 404.852416 
L 360.437127 391.502502 
L 363.27766 390.674674 
L 366.118463 380.997294 
L 368.959782 376.249255 
L 371.800307 371.738617 
L 374.641673 367.453512 
L 377.482903 366.346314 
L 380.324086 359.367172 
L 383.165391 343.84603 
L 386.006648 335.028258 
L 388.87561 344.43328 
L 391.692143 332.62248 
L 394.5304 330.293182 
L 397.370743 325.1167 
L 400.211661 314.271739 
L 403.05365 312.859977 
L 405.894406 320.409756 
L 408.735332 321.654742 
L 411.576643 331.728439 
L 414.419486 326.480195 
L 417.259795 324.45801 
L 420.098485 301.791374 
L 422.940758 312.858231 
L 425.784305 302.626193 
L 428.623693 307.724004 
L 431.465187 306.639639 
L 434.305828 308.57313 
L 437.147945 313.373612 
L 439.989135 306.079444 
L 442.828272 311.00461 
L 445.669685 315.683501 
L 448.511681 308.273856 
L 451.352085 313.089284 
L 454.194575 308.772998 
L 457.048492 304.672525 
L 459.8769 312.631668 
L 462.715779 311.30191 
L 465.557653 304.111345 
L 468.39927 303.207603 
L 471.240351 293.458087 
L 474.081445 296.050656 
L 476.922479 286.659006 
L 479.763574 295.518824 
L 482.606247 295.044708 
L 485.446793 297.557964 
L 488.28675 296.981891 
L 491.128068 299.39827 
L 493.969285 292.802869 
L 496.810556 292.464551 
L 499.651942 286.215853 
L 502.492738 289.170538 
L 505.334944 286.050185 
L 508.175829 291.976797 
L 511.016233 279.825182 
L 516.698056 286.209908 
L 519.539544 286.201238 
L 525.22174 280.406055 
L 528.063905 280.687578 
L 530.90498 310.59153 
L 533.744394 315.291084 
L 536.586268 322.719304 
L 539.428332 335.703422 
L 542.268688 322.847292 
L 545.10939 318.043111 
L 547.950674 325.333729 
L 550.792751 329.296169 
L 553.637754 350.842391 
L 556.473552 371.311307 
L 559.314606 387.79312 
L 562.156487 403.450838 
L 564.997554 422.771151 
L 567.83936 408.5253 
L 570.679757 423.146409 
L 573.523921 410.363611 
L 576.361046 418.965509 
L 579.215526 424.173664 
L 582.044197 424.498412 
L 584.885814 402.757069 
L 587.727098 399.884689 
L 590.567495 380.855856 
L 593.409328 373.151241 
L 596.251053 371.759153 
L 599.091667 352.654764 
L 601.931427 364.142108 
L 604.772257 357.27318 
L 607.614368 353.711347 
L 610.455585 353.291253 
L 613.296835 341.037563 
L 616.138215 335.323854 
L 618.979242 323.968544 
L 621.820445 316.144638 
L 624.661282 317.602879 
L 627.501713 313.060913 
L 630.349649 320.600645 
L 633.18481 315.90879 
L 636.02577 314.415176 
L 638.866993 307.068939 
L 641.709063 300.090022 
L 644.548986 305.314642 
L 647.389132 301.387083 
L 650.241411 309.510511 
L 653.072758 308.336811 
L 655.913866 310.185439 
L 658.755855 306.014349 
L 661.597959 305.015457 
L 664.437902 298.139206 
L 667.278442 288.643123 
L 670.121724 300.367392 
L 672.959757 308.541796 
L 675.801509 310.380184 
L 678.642827 315.090305 
L 681.483895 310.673963 
L 684.325146 303.514786 
L 687.169295 296.713576 
L 690.006752 302.107019 
L 692.852724 289.448893 
L 695.689044 295.205578 
L 698.530457 297.710768 
L 701.372012 311.945316 
L 704.213635 307.68622 
L 707.054222 303.640086 
L 709.896068 299.796251 
L 712.736662 293.180968 
L 718.416596 292.484384 
L 721.258849 283.271038 
L 724.100756 289.336616 
L 726.942224 286.207954 
L 732.624759 291.97036 
L 735.465745 285.746363 
L 738.306101 279.833575 
L 741.147 286.071017 
L 743.98783 289.032948 
L 746.833667 279.992174 
L 749.671706 280.294391 
L 752.51251 277.61784 
L 755.35435 281.00243 
L 758.194835 287.18143 
L 761.035388 281.196888 
L 766.717239 281.668752 
L 769.558096 272.996179 
L 772.399956 279.5755 
L 775.256807 276.934907 
L 778.084368 283.317287 
L 780.923423 280.4896 
L 783.763008 280.766946 
L 786.603859 286.957728 
L 789.446308 286.911659 
L 792.288148 292.795206 
L 795.129696 292.457271 
L 797.970656 286.208928 
L 800.811622 286.200316 
L 803.652832 280.264822 
L 806.492965 274.626093 
L 809.343671 284.087575 
L 812.175533 293.075974 
L 815.016933 313.469549 
L 817.858332 320.988854 
L 820.69982 328.132186 
L 823.54103 334.91836 
L 826.382951 341.365207 
L 829.221397 347.489729 
L 832.064037 345.898889 
L 834.905179 354.760375 
L 837.746273 357.251492 
L 840.587395 374.436291 
L 843.428341 378.907259 
L 846.270885 395.00927 
L 849.110917 398.45159 
L 851.951977 425.430993 
L 854.793079 427.352209 
L 857.63416 419.996971 
L 860.475621 407.371652 
L 863.316614 389.450286 
L 866.158806 396.134206 
L 868.999305 384.702008 
L 871.839878 391.623342 
L 874.680566 380.416705 
L 877.522596 384.588643 
L 880.362925 379.661036 
L 883.204331 366.088862 
L 886.045927 365.049897 
L 888.887239 355.171914 
L 891.727717 354.678805 
L 894.568832 345.319377 
L 897.408775 351.246199 
L 900.25071 345.022063 
L 903.091412 339.109124 
L 905.933604 339.419154 
L 908.774387 330.822709 
L 911.615685 328.583399 
L 914.458927 320.528759 
L 917.298247 321.767794 
L 920.138062 308.12663 
L 922.97854 327.767685 
L 925.820773 310.86287 
L 928.663154 300.7306 
L 931.504398 297.032247 
L 934.34657 305.373404 
L 937.186053 292.551959 
L 940.03214 304.080787 
L 942.866752 309.105877 
L 945.716849 307.952409 
L 948.549923 312.78391 
L 951.39154 311.44654 
L 954.233143 301.285095 
L 957.074474 306.449961 
L 959.915434 305.429289 
L 962.75619 307.423297 
L 965.596472 312.281271 
L 968.437336 310.969033 
L 971.281858 315.649703 
L 974.127322 296.387139 
L 976.968952 295.869607 
L 979.802724 283.523348 
L 982.643799 289.576306 
L 985.48889 277.544716 
L 988.326347 283.896611 
L 991.168113 284.003605 
L 994.007372 290.032546 
L 996.849198 289.832744 
L 999.691458 295.570237 
L 1002.532099 301.020846 
L 1005.373756 294.344334 
L 1008.214308 299.856238 
L 1011.068612 299.165252 
L 1013.897419 292.581519 
L 1016.738927 298.181564 
L 1019.579378 294.610664 
L 1022.420453 291.218308 
L 1025.260674 296.886514 
L 1028.102541 290.416718 
L 1030.942071 299.088656 
L 1033.783836 292.508753 
L 1036.62529 298.112436 
L 1039.466574 297.50864 
L 1042.308495 288.044086 
L 1045.149055 290.907359 
L 1047.989581 275.845565 
L 1050.830994 282.282407 
L 1053.67406 285.433765 
L 1056.514308 273.609307 
L 1059.353831 286.085262 
L 1062.195075 292.010125 
L 1065.036562 276.893192 
L 1067.877718 277.350358 
L 1070.718941 287.416534 
L 1073.560747 290.311176 
L 1076.406638 288.615619 
L 1079.242747 270.704768 
L 1082.083449 271.471351 
L 1084.924639 264.049573 
L 1087.76635 274.039865 
L 1090.607004 274.639702 
L 1093.449142 272.24589 
L 1096.289255 262.562643 
L 1099.128954 275.59094 
L 1101.971803 273.149568 
L 1104.812302 292.31673 
L 1107.653207 284.593593 
L 1110.500838 305.411293 
L 1113.336074 304.442554 
L 1116.1775 324.267806 
L 1119.018284 337.174494 
L 1121.872967 346.472197 
L 1124.700995 361.232316 
L 1127.540037 372.290779 
L 1130.382066 382.796319 
L 1133.223554 392.776581 
L 1136.064215 402.257831 
L 1138.90554 411.265018 
L 1144.589213 427.950831 
L 1147.429373 432.764712 
L 1150.26912 425.428302 
L 1150.26912 425.428302 
" style="fill:none;stroke:#00a6d6;stroke-linecap:square;stroke-width:3;"/>
   </g>
   <g id="line2d_30">
    <path clip-path="url(#p83bc3770cb)" d="M 99.06624 395.223637 
L 1150.26912 395.223637 
L 1150.26912 395.223637 
" style="fill:none;stroke:#808080;stroke-dasharray:11.1,4.8;stroke-dashoffset:0;stroke-width:3;"/>
   </g>
   <g id="patch_10">
    <path d="M 99.06624 434.21904 
L 99.06624 246.180743 
" style="fill:none;stroke:#000000;stroke-linecap:square;stroke-linejoin:miter;stroke-width:0.8;"/>
   </g>
   <g id="patch_11">
    <path d="M 1150.26912 434.21904 
L 1150.26912 246.180743 
" style="fill:none;stroke:#000000;stroke-linecap:square;stroke-linejoin:miter;stroke-width:0.8;"/>
   </g>
   <g id="patch_12">
    <path d="M 99.06624 434.21904 
L 1150.26912 434.21904 
" style="fill:none;stroke:#000000;stroke-linecap:square;stroke-linejoin:miter;stroke-width:0.8;"/>
   </g>
   <g id="patch_13">
    <path d="M 99.06624 246.180743 
L 1150.26912 246.180743 
" style="fill:none;stroke:#000000;stroke-linecap:square;stroke-linejoin:miter;stroke-width:0.8;"/>
   </g>
   <g id="text_22">
    <!-- Residual vehicle 2 -->
    <g transform="translate(513.75768 240.180743)scale(0.24 -0.24)">
     <use xlink:href="#DejaVuSerif-82"/>
     <use x="75.292969" xlink:href="#DejaVuSerif-101"/>
     <use x="134.472656" xlink:href="#DejaVuSerif-115"/>
     <use x="185.791016" xlink:href="#DejaVuSerif-105"/>
     <use x="217.773438" xlink:href="#DejaVuSerif-100"/>
     <use x="281.787109" xlink:href="#DejaVuSerif-117"/>
     <use x="346.191406" xlink:href="#DejaVuSerif-97"/>
     <use x="405.810547" xlink:href="#DejaVuSerif-108"/>
     <use x="437.792969" xlink:href="#DejaVuSerif-32"/>
     <use x="469.580078" xlink:href="#DejaVuSerif-118"/>
     <use x="526.074219" xlink:href="#DejaVuSerif-101"/>
     <use x="585.253906" xlink:href="#DejaVuSerif-104"/>
     <use x="649.658203" xlink:href="#DejaVuSerif-105"/>
     <use x="681.640625" xlink:href="#DejaVuSerif-99"/>
     <use x="737.646484" xlink:href="#DejaVuSerif-108"/>
     <use x="769.628906" xlink:href="#DejaVuSerif-101"/>
     <use x="828.808594" xlink:href="#DejaVuSerif-32"/>
     <use x="860.595703" xlink:href="#DejaVuSerif-50"/>
    </g>
   </g>
   <g id="legend_2">
    <g id="patch_14">
     <path d="M 1164.26912 340.847578 
L 1338.565995 340.847578 
Q 1342.565995 340.847578 1342.565995 336.847578 
L 1342.565995 250.778828 
Q 1342.565995 246.778828 1338.565995 246.778828 
L 1164.26912 246.778828 
Q 1160.26912 246.778828 1160.26912 250.778828 
L 1160.26912 336.847578 
Q 1160.26912 340.847578 1164.26912 340.847578 
z
" style="fill:#ffffff;opacity:0.8;stroke:#cccccc;stroke-linejoin:miter;"/>
    </g>
    <g id="line2d_31">
     <path d="M 1168.26912 262.975703 
L 1188.26912 262.975703 
" style="fill:none;stroke:#00a6d6;stroke-linecap:square;stroke-width:3;"/>
    </g>
    <g id="line2d_32"/>
    <g id="text_23">
     <!-- ${r}_{2}$ -->
     <defs>
      <path d="M 44.578125 46.390625 
Q 43.21875 47.125 41.453125 47.515625 
Q 39.703125 47.90625 37.703125 47.90625 
Q 30.515625 47.90625 25.140625 42.453125 
Q 19.78125 37.015625 18.015625 27.875 
L 12.5 0 
L 3.515625 0 
L 14.203125 54.6875 
L 23.1875 54.6875 
L 21.484375 46.1875 
Q 25.046875 50.921875 30 53.453125 
Q 34.96875 56 40.578125 56 
Q 42.046875 56 43.453125 55.828125 
Q 44.875 55.671875 46.296875 55.28125 
z
" id="DejaVuSans-Oblique-114"/>
      <path d="M 19.1875 8.296875 
L 53.609375 8.296875 
L 53.609375 0 
L 7.328125 0 
L 7.328125 8.296875 
Q 12.9375 14.109375 22.625 23.890625 
Q 32.328125 33.6875 34.8125 36.53125 
Q 39.546875 41.84375 41.421875 45.53125 
Q 43.3125 49.21875 43.3125 52.78125 
Q 43.3125 58.59375 39.234375 62.25 
Q 35.15625 65.921875 28.609375 65.921875 
Q 23.96875 65.921875 18.8125 64.3125 
Q 13.671875 62.703125 7.8125 59.421875 
L 7.8125 69.390625 
Q 13.765625 71.78125 18.9375 73 
Q 24.125 74.21875 28.421875 74.21875 
Q 39.75 74.21875 46.484375 68.546875 
Q 53.21875 62.890625 53.21875 53.421875 
Q 53.21875 48.921875 51.53125 44.890625 
Q 49.859375 40.875 45.40625 35.40625 
Q 44.1875 33.984375 37.640625 27.21875 
Q 31.109375 20.453125 19.1875 8.296875 
z
" id="DejaVuSans-50"/>
     </defs>
     <g transform="translate(1204.26912 269.975703)scale(0.2 -0.2)">
      <use xlink:href="#DejaVuSans-Oblique-114"/>
      <use transform="translate(41.113281 -16.40625)scale(0.7)" xlink:href="#DejaVuSans-50"/>
     </g>
    </g>
    <g id="line2d_33">
     <path d="M 1168.26912 292.331953 
L 1188.26912 292.331953 
" style="fill:none;stroke:#808080;stroke-dasharray:11.1,4.8;stroke-dashoffset:0;stroke-width:3;"/>
    </g>
    <g id="line2d_34"/>
    <g id="text_24">
     <!-- $\bar{{r}}$ -->
     <defs>
      <path d="M -39.34375 74.515625 
L -10.15625 74.515625 
L -10.15625 67.28125 
L -39.34375 67.28125 
z
" id="DejaVuSans-772"/>
     </defs>
     <g transform="translate(1204.26912 299.331953)scale(0.2 -0.2)">
      <use transform="translate(50.62207 1.484375)" xlink:href="#DejaVuSans-772"/>
      <use transform="translate(0 0.265625)" xlink:href="#DejaVuSans-Oblique-114"/>
     </g>
    </g>
    <g id="patch_15">
     <path d="M 1168.26912 328.688203 
L 1188.26912 328.688203 
L 1188.26912 314.688203 
L 1168.26912 314.688203 
z
" style="fill:#ff4500;opacity:0.1;stroke:#ff4500;stroke-linejoin:miter;stroke-width:3;"/>
    </g>
    <g id="text_25">
     <!-- attack active -->
     <g transform="translate(1204.26912 328.688203)scale(0.2 -0.2)">
      <use xlink:href="#DejaVuSerif-97"/>
      <use x="59.619141" xlink:href="#DejaVuSerif-116"/>
      <use x="99.804688" xlink:href="#DejaVuSerif-116"/>
      <use x="139.990234" xlink:href="#DejaVuSerif-97"/>
      <use x="199.609375" xlink:href="#DejaVuSerif-99"/>
      <use x="255.615234" xlink:href="#DejaVuSerif-107"/>
      <use x="316.210938" xlink:href="#DejaVuSerif-32"/>
      <use x="347.998047" xlink:href="#DejaVuSerif-97"/>
      <use x="407.617188" xlink:href="#DejaVuSerif-99"/>
      <use x="463.623047" xlink:href="#DejaVuSerif-116"/>
      <use x="503.808594" xlink:href="#DejaVuSerif-105"/>
      <use x="535.791016" xlink:href="#DejaVuSerif-118"/>
      <use x="592.285156" xlink:href="#DejaVuSerif-101"/>
     </g>
    </g>
   </g>
  </g>
 </g>
 <defs>
  <clipPath id="p7309581d3d">
   <rect height="188.038297" width="1051.20288" x="99.06624" y="23.35536"/>
  </clipPath>
  <clipPath id="p83bc3770cb">
   <rect height="188.038297" width="1051.20288" x="99.06624" y="246.180743"/>
  </clipPath>
 </defs>
</svg>
